<?xml version="1.0" encoding="utf-8" standalone="no"?>
<!DOCTYPE svg PUBLIC "-//W3C//DTD SVG 1.1//EN"
  "http://www.w3.org/Graphics/SVG/1.1/DTD/svg11.dtd">
<svg height="252pt" version="1.1" viewBox="0 0 720 252" width="720pt" xmlns="http://www.w3.org/2000/svg" xmlns:xlink="http://www.w3.org/1999/xlink">
 <metadata>
  <rdf:RDF xmlns:cc="http://creativecommons.org/ns#" xmlns:dc="http://purl.org/dc/elements/1.1/" xmlns:rdf="http://www.w3.org/1999/02/22-rdf-syntax-ns#">
   <cc:Work>
    <dc:type rdf:resource="http://purl.org/dc/dcmitype/StillImage"/>
    <dc:date>2022-01-17T20:51:16.053278</dc:date>
    <dc:format>image/svg+xml</dc:format>
    <dc:creator>
     <cc:Agent>
      <dc:title>Matplotlib v3.4.3, https://matplotlib.org/</dc:title>
     </cc:Agent>
    </dc:creator>
   </cc:Work>
  </rdf:RDF>
 </metadata>
 <defs>
  <style type="text/css">*{stroke-linecap:butt;stroke-linejoin:round;}</style>
 </defs>
 <g id="figure_1">
  <g id="patch_1">
   <path d="M 0 252 
L 720 252 
L 720 0 
L 0 0 
z
" style="fill:#ffffff;"/>
  </g>
  <g id="axes_1">
   <g id="patch_2">
    <path d="M 90 224.28 
L 648 224.28 
L 648 30.24 
L 90 30.24 
z
" style="fill:#ffffff;"/>
   </g>
   <g id="patch_3">
    <path clip-path="url(#p28684830d2)" d="M 115.363636 224.28 
L 135.859504 224.28 
L 135.859504 223.329383 
L 115.363636 223.329383 
z
" style="fill:none;opacity:0;"/>
   </g>
   <g id="patch_4">
    <path clip-path="url(#p28684830d2)" d="M 140.983471 224.28 
L 161.479339 224.28 
L 161.479339 223.329383 
L 140.983471 223.329383 
z
" style="fill:none;opacity:0;"/>
   </g>
   <g id="patch_5">
    <path clip-path="url(#p28684830d2)" d="M 166.603306 224.28 
L 187.099174 224.28 
L 187.099174 223.329383 
L 166.603306 223.329383 
z
" style="fill:none;opacity:0;"/>
   </g>
   <g id="patch_6">
    <path clip-path="url(#p28684830d2)" d="M 192.22314 224.28 
L 212.719008 224.28 
L 212.719008 223.329383 
L 192.22314 223.329383 
z
" style="fill:none;opacity:0;"/>
   </g>
   <g id="patch_7">
    <path clip-path="url(#p28684830d2)" d="M 217.842975 224.28 
L 238.338843 224.28 
L 238.338843 223.329383 
L 217.842975 223.329383 
z
" style="fill:none;opacity:0;"/>
   </g>
   <g id="patch_8">
    <path clip-path="url(#p28684830d2)" d="M 243.46281 224.28 
L 263.958678 224.28 
L 263.958678 223.329383 
L 243.46281 223.329383 
z
" style="fill:none;opacity:0;"/>
   </g>
   <g id="patch_9">
    <path clip-path="url(#p28684830d2)" d="M 269.082645 224.28 
L 289.578512 224.28 
L 289.578512 223.329383 
L 269.082645 223.329383 
z
" style="fill:none;opacity:0;"/>
   </g>
   <g id="patch_10">
    <path clip-path="url(#p28684830d2)" d="M 294.702479 224.28 
L 315.198347 224.28 
L 315.198347 223.329383 
L 294.702479 223.329383 
z
" style="fill:none;opacity:0;"/>
   </g>
   <g id="patch_11">
    <path clip-path="url(#p28684830d2)" d="M 320.322314 224.28 
L 340.818182 224.28 
L 340.818182 223.329383 
L 320.322314 223.329383 
z
" style="fill:none;opacity:0;"/>
   </g>
   <g id="patch_12">
    <path clip-path="url(#p28684830d2)" d="M 345.942149 224.28 
L 366.438017 224.28 
L 366.438017 223.329383 
L 345.942149 223.329383 
z
" style="fill:none;opacity:0;"/>
   </g>
   <g id="patch_13">
    <path clip-path="url(#p28684830d2)" d="M 371.561983 224.28 
L 392.057851 224.28 
L 392.057851 223.329383 
L 371.561983 223.329383 
z
" style="fill:none;opacity:0;"/>
   </g>
   <g id="patch_14">
    <path clip-path="url(#p28684830d2)" d="M 397.181818 224.28 
L 417.677686 224.28 
L 417.677686 223.329383 
L 397.181818 223.329383 
z
" style="fill:none;opacity:0;"/>
   </g>
   <g id="patch_15">
    <path clip-path="url(#p28684830d2)" d="M 422.801653 224.28 
L 443.297521 224.28 
L 443.297521 223.329383 
L 422.801653 223.329383 
z
" style="fill:none;opacity:0;"/>
   </g>
   <g id="patch_16">
    <path clip-path="url(#p28684830d2)" d="M 448.421488 224.28 
L 468.917355 224.28 
L 468.917355 223.329383 
L 448.421488 223.329383 
z
" style="fill:none;opacity:0;"/>
   </g>
   <g id="patch_17">
    <path clip-path="url(#p28684830d2)" d="M 474.041322 224.28 
L 494.53719 224.28 
L 494.53719 223.329383 
L 474.041322 223.329383 
z
" style="fill:none;opacity:0;"/>
   </g>
   <g id="patch_18">
    <path clip-path="url(#p28684830d2)" d="M 499.661157 224.28 
L 520.157025 224.28 
L 520.157025 223.329383 
L 499.661157 223.329383 
z
" style="fill:none;opacity:0;"/>
   </g>
   <g id="patch_19">
    <path clip-path="url(#p28684830d2)" d="M 525.280992 224.28 
L 545.77686 224.28 
L 545.77686 223.329383 
L 525.280992 223.329383 
z
" style="fill:none;opacity:0;"/>
   </g>
   <g id="patch_20">
    <path clip-path="url(#p28684830d2)" d="M 550.900826 224.28 
L 571.396694 224.28 
L 571.396694 223.329383 
L 550.900826 223.329383 
z
" style="fill:none;opacity:0;"/>
   </g>
   <g id="patch_21">
    <path clip-path="url(#p28684830d2)" d="M 576.520661 224.28 
L 597.016529 224.28 
L 597.016529 223.329383 
L 576.520661 223.329383 
z
" style="fill:none;opacity:0;"/>
   </g>
   <g id="patch_22">
    <path clip-path="url(#p28684830d2)" d="M 602.140496 224.28 
L 622.636364 224.28 
L 622.636364 223.329383 
L 602.140496 223.329383 
z
" style="fill:none;opacity:0;"/>
   </g>
   <g id="patch_23">
    <path clip-path="url(#p28684830d2)" d="M 119.206612 224.184938 
L 132.016529 224.184938 
L 132.016529 207.644198 
L 119.206612 207.644198 
z
" style="fill:#993300;"/>
   </g>
   <g id="patch_24">
    <path clip-path="url(#p28684830d2)" d="M 119.206612 207.549136 
L 132.016529 207.549136 
L 132.016529 173.612099 
L 119.206612 173.612099 
z
" style="fill:#6600ff;"/>
   </g>
   <g id="patch_25">
    <path clip-path="url(#p28684830d2)" d="M 119.206612 173.517037 
L 132.016529 173.517037 
L 132.016529 158.972593 
L 119.206612 158.972593 
z
" style="fill:#993300;"/>
   </g>
   <g id="patch_26">
    <path clip-path="url(#p28684830d2)" d="M 119.206612 158.877531 
L 132.016529 158.877531 
L 132.016529 157.356543 
L 119.206612 157.356543 
z
" style="fill:#c71585;"/>
   </g>
   <g id="patch_27">
    <path clip-path="url(#p28684830d2)" d="M 119.206612 157.261481 
L 132.016529 157.261481 
L 132.016529 137.203457 
L 119.206612 137.203457 
z
" style="fill:#6600ff;"/>
   </g>
   <g id="patch_28">
    <path clip-path="url(#p28684830d2)" d="M 119.206612 137.108395 
L 132.016529 137.108395 
L 132.016529 43.85284 
L 119.206612 43.85284 
z
" style="fill:#993300;"/>
   </g>
   <g id="patch_29">
    <path clip-path="url(#p28684830d2)" d="M 144.826446 224.184938 
L 157.636364 224.184938 
L 157.636364 203.556543 
L 144.826446 203.556543 
z
" style="fill:#993300;"/>
   </g>
   <g id="patch_30">
    <path clip-path="url(#p28684830d2)" d="M 144.826446 203.461481 
L 157.636364 203.461481 
L 157.636364 168.098519 
L 144.826446 168.098519 
z
" style="fill:#6600ff;"/>
   </g>
   <g id="patch_31">
    <path clip-path="url(#p28684830d2)" d="M 144.826446 168.003457 
L 157.636364 168.003457 
L 157.636364 151.65284 
L 144.826446 151.65284 
z
" style="fill:#993300;"/>
   </g>
   <g id="patch_32">
    <path clip-path="url(#p28684830d2)" d="M 144.826446 151.557778 
L 157.636364 151.557778 
L 157.636364 149.371358 
L 144.826446 149.371358 
z
" style="fill:#c71585;"/>
   </g>
   <g id="patch_33">
    <path clip-path="url(#p28684830d2)" d="M 144.826446 149.276296 
L 157.636364 149.276296 
L 157.636364 128.647901 
L 144.826446 128.647901 
z
" style="fill:#6600ff;"/>
   </g>
   <g id="patch_34">
    <path clip-path="url(#p28684830d2)" d="M 144.826446 128.55284 
L 157.636364 128.55284 
L 157.636364 39.48 
L 144.826446 39.48 
z
" style="fill:#993300;"/>
   </g>
   <g id="patch_35">
    <path clip-path="url(#p28684830d2)" d="M 170.446281 224.184938 
L 183.256198 224.184938 
L 183.256198 152.318272 
L 170.446281 152.318272 
z
" style="fill:#993300;"/>
   </g>
   <g id="patch_36">
    <path clip-path="url(#p28684830d2)" d="M 170.446281 152.22321 
L 183.256198 152.22321 
L 183.256198 100.319506 
L 170.446281 100.319506 
z
" style="fill:#ff99cc;"/>
   </g>
   <g id="patch_37">
    <path clip-path="url(#p28684830d2)" d="M 170.446281 100.224444 
L 183.256198 100.224444 
L 183.256198 94.330617 
L 170.446281 94.330617 
z
" style="fill:#008000;"/>
   </g>
   <g id="patch_38">
    <path clip-path="url(#p28684830d2)" d="M 170.446281 94.235556 
L 183.256198 94.235556 
L 183.256198 93.38 
L 170.446281 93.38 
z
" style="fill:#ff99cc;"/>
   </g>
   <g id="patch_39">
    <path clip-path="url(#p28684830d2)" d="M 170.446281 93.284938 
L 183.256198 93.284938 
L 183.256198 84.159012 
L 170.446281 84.159012 
z
" style="fill:#008000;"/>
   </g>
   <g id="patch_40">
    <path clip-path="url(#p28684830d2)" d="M 170.446281 84.063951 
L 183.256198 84.063951 
L 183.256198 82.257778 
L 170.446281 82.257778 
z
" style="fill:#6600ff;"/>
   </g>
   <g id="patch_41">
    <path clip-path="url(#p28684830d2)" d="M 170.446281 82.162716 
L 183.256198 82.162716 
L 183.256198 63.530617 
L 170.446281 63.530617 
z
" style="fill:#993300;"/>
   </g>
   <g id="patch_42">
    <path clip-path="url(#p28684830d2)" d="M 196.066116 224.184938 
L 208.876033 224.184938 
L 208.876033 209.925679 
L 196.066116 209.925679 
z
" style="fill:#008000;"/>
   </g>
   <g id="patch_43">
    <path clip-path="url(#p28684830d2)" d="M 196.066116 209.830617 
L 208.876033 209.830617 
L 208.876033 175.038025 
L 196.066116 175.038025 
z
" style="fill:#ff99cc;"/>
   </g>
   <g id="patch_44">
    <path clip-path="url(#p28684830d2)" d="M 196.066116 174.942963 
L 208.876033 174.942963 
L 208.876033 164.486173 
L 196.066116 164.486173 
z
" style="fill:#ffa500;"/>
   </g>
   <g id="patch_45">
    <path clip-path="url(#p28684830d2)" d="M 196.066116 164.391111 
L 208.876033 164.391111 
L 208.876033 155.740494 
L 196.066116 155.740494 
z
" style="fill:#6600ff;"/>
   </g>
   <g id="patch_46">
    <path clip-path="url(#p28684830d2)" d="M 196.066116 155.645432 
L 208.876033 155.645432 
L 208.876033 138.724444 
L 196.066116 138.724444 
z
" style="fill:#ffa500;"/>
   </g>
   <g id="patch_47">
    <path clip-path="url(#p28684830d2)" d="M 196.066116 138.629383 
L 208.876033 138.629383 
L 208.876033 118.476296 
L 196.066116 118.476296 
z
" style="fill:#6600ff;"/>
   </g>
   <g id="patch_48">
    <path clip-path="url(#p28684830d2)" d="M 196.066116 118.381235 
L 208.876033 118.381235 
L 208.876033 108.494815 
L 196.066116 108.494815 
z
" style="fill:#ffa500;"/>
   </g>
   <g id="patch_49">
    <path clip-path="url(#p28684830d2)" d="M 196.066116 108.399753 
L 208.876033 108.399753 
L 208.876033 83.398519 
L 196.066116 83.398519 
z
" style="fill:#6600ff;"/>
   </g>
   <g id="patch_50">
    <path clip-path="url(#p28684830d2)" d="M 221.68595 224.184938 
L 234.495868 224.184938 
L 234.495868 206.313333 
L 221.68595 206.313333 
z
" style="fill:#993300;"/>
   </g>
   <g id="patch_51">
    <path clip-path="url(#p28684830d2)" d="M 221.68595 206.218272 
L 234.495868 206.218272 
L 234.495868 204.697284 
L 221.68595 204.697284 
z
" style="fill:#6600ff;"/>
   </g>
   <g id="patch_52">
    <path clip-path="url(#p28684830d2)" d="M 221.68595 204.602222 
L 234.495868 204.602222 
L 234.495868 197.947901 
L 221.68595 197.947901 
z
" style="fill:#008000;"/>
   </g>
   <g id="patch_53">
    <path clip-path="url(#p28684830d2)" d="M 221.68595 197.85284 
L 234.495868 197.85284 
L 234.495868 195.761481 
L 221.68595 195.761481 
z
" style="fill:#ff99cc;"/>
   </g>
   <g id="patch_54">
    <path clip-path="url(#p28684830d2)" d="M 221.68595 195.66642 
L 234.495868 195.66642 
L 234.495868 191.483704 
L 221.68595 191.483704 
z
" style="fill:#008000;"/>
   </g>
   <g id="patch_55">
    <path clip-path="url(#p28684830d2)" d="M 221.68595 191.388642 
L 234.495868 191.388642 
L 234.495868 143.477531 
L 221.68595 143.477531 
z
" style="fill:#ff99cc;"/>
   </g>
   <g id="patch_56">
    <path clip-path="url(#p28684830d2)" d="M 221.68595 143.382469 
L 234.495868 143.382469 
L 234.495868 80.16642 
L 221.68595 80.16642 
z
" style="fill:#993300;"/>
   </g>
   <g id="patch_57">
    <path clip-path="url(#p28684830d2)" d="M 247.305785 224.184938 
L 260.115702 224.184938 
L 260.115702 211.06642 
L 247.305785 211.06642 
z
" style="fill:#008000;"/>
   </g>
   <g id="patch_58">
    <path clip-path="url(#p28684830d2)" d="M 247.305785 210.971358 
L 260.115702 210.971358 
L 260.115702 174.372593 
L 247.305785 174.372593 
z
" style="fill:#ff99cc;"/>
   </g>
   <g id="patch_59">
    <path clip-path="url(#p28684830d2)" d="M 247.305785 174.277531 
L 260.115702 174.277531 
L 260.115702 166.00716 
L 247.305785 166.00716 
z
" style="fill:#ffa500;"/>
   </g>
   <g id="patch_60">
    <path clip-path="url(#p28684830d2)" d="M 247.305785 165.912099 
L 260.115702 165.912099 
L 260.115702 155.835556 
L 247.305785 155.835556 
z
" style="fill:#6600ff;"/>
   </g>
   <g id="patch_61">
    <path clip-path="url(#p28684830d2)" d="M 247.305785 155.740494 
L 260.115702 155.740494 
L 260.115702 139.484938 
L 247.305785 139.484938 
z
" style="fill:#ffa500;"/>
   </g>
   <g id="patch_62">
    <path clip-path="url(#p28684830d2)" d="M 247.305785 139.389877 
L 260.115702 139.389877 
L 260.115702 120.757778 
L 247.305785 120.757778 
z
" style="fill:#6600ff;"/>
   </g>
   <g id="patch_63">
    <path clip-path="url(#p28684830d2)" d="M 247.305785 120.662716 
L 260.115702 120.662716 
L 260.115702 107.639259 
L 247.305785 107.639259 
z
" style="fill:#ffa500;"/>
   </g>
   <g id="patch_64">
    <path clip-path="url(#p28684830d2)" d="M 247.305785 107.544198 
L 260.115702 107.544198 
L 260.115702 83.683704 
L 247.305785 83.683704 
z
" style="fill:#6600ff;"/>
   </g>
   <g id="patch_65">
    <path clip-path="url(#p28684830d2)" d="M 272.92562 224.184938 
L 285.735537 224.184938 
L 285.735537 216.865185 
L 272.92562 216.865185 
z
" style="fill:#008000;"/>
   </g>
   <g id="patch_66">
    <path clip-path="url(#p28684830d2)" d="M 272.92562 216.770123 
L 285.735537 216.770123 
L 285.735537 122.088642 
L 272.92562 122.088642 
z
" style="fill:#c71585;"/>
   </g>
   <g id="patch_67">
    <path clip-path="url(#p28684830d2)" d="M 298.545455 224.184938 
L 311.355372 224.184938 
L 311.355372 211.161481 
L 298.545455 211.161481 
z
" style="fill:#33cccc;"/>
   </g>
   <g id="patch_68">
    <path clip-path="url(#p28684830d2)" d="M 298.545455 211.06642 
L 311.355372 211.06642 
L 311.355372 110.015802 
L 298.545455 110.015802 
z
" style="fill:#3399ff;"/>
   </g>
   <g id="patch_69">
    <path clip-path="url(#p28684830d2)" d="M 324.165289 224.184938 
L 336.975207 224.184938 
L 336.975207 146.614568 
L 324.165289 146.614568 
z
" style="fill:#33cccc;"/>
   </g>
   <g id="patch_70">
    <path clip-path="url(#p28684830d2)" d="M 349.785124 224.184938 
L 362.595041 224.184938 
L 362.595041 155.170123 
L 349.785124 155.170123 
z
" style="fill:#008000;"/>
   </g>
   <g id="patch_71">
    <path clip-path="url(#p28684830d2)" d="M 375.404959 224.184938 
L 388.214876 224.184938 
L 388.214876 218.956543 
L 375.404959 218.956543 
z
" style="fill:#3399ff;"/>
   </g>
   <g id="patch_72">
    <path clip-path="url(#p28684830d2)" d="M 375.404959 218.861481 
L 388.214876 218.861481 
L 388.214876 203.651605 
L 375.404959 203.651605 
z
" style="fill:#3399ff;"/>
   </g>
   <g id="patch_73">
    <path clip-path="url(#p28684830d2)" d="M 375.404959 203.556543 
L 388.214876 203.556543 
L 388.214876 184.544198 
L 375.404959 184.544198 
z
" style="fill:#ffa500;"/>
   </g>
   <g id="patch_74">
    <path clip-path="url(#p28684830d2)" d="M 375.404959 184.449136 
L 388.214876 184.449136 
L 388.214876 132.165185 
L 375.404959 132.165185 
z
" style="fill:#3399ff;"/>
   </g>
   <g id="patch_75">
    <path clip-path="url(#p28684830d2)" d="M 375.404959 132.070123 
L 388.214876 132.070123 
L 388.214876 126.081235 
L 375.404959 126.081235 
z
" style="fill:#ffa500;"/>
   </g>
   <g id="patch_76">
    <path clip-path="url(#p28684830d2)" d="M 375.404959 125.986173 
L 388.214876 125.986173 
L 388.214876 115.529383 
L 375.404959 115.529383 
z
" style="fill:#3399ff;"/>
   </g>
   <g id="patch_77">
    <path clip-path="url(#p28684830d2)" d="M 401.024793 224.184938 
L 413.834711 224.184938 
L 413.834711 215.629383 
L 401.024793 215.629383 
z
" style="fill:#3399ff;"/>
   </g>
   <g id="patch_78">
    <path clip-path="url(#p28684830d2)" d="M 401.024793 215.534321 
L 413.834711 215.534321 
L 413.834711 211.256543 
L 401.024793 211.256543 
z
" style="fill:#33cccc;"/>
   </g>
   <g id="patch_79">
    <path clip-path="url(#p28684830d2)" d="M 401.024793 211.161481 
L 413.834711 211.161481 
L 413.834711 132.260247 
L 401.024793 132.260247 
z
" style="fill:#c71585;"/>
   </g>
   <g id="patch_80">
    <path clip-path="url(#p28684830d2)" d="M 426.644628 224.184938 
L 439.454545 224.184938 
L 439.454545 136.728148 
L 426.644628 136.728148 
z
" style="fill:#3399ff;"/>
   </g>
   <g id="patch_81">
    <path clip-path="url(#p28684830d2)" d="M 426.644628 136.633086 
L 439.454545 136.633086 
L 439.454545 125.320741 
L 426.644628 125.320741 
z
" style="fill:#33cccc;"/>
   </g>
   <g id="patch_82">
    <path clip-path="url(#p28684830d2)" d="M 452.264463 224.184938 
L 465.07438 224.184938 
L 465.07438 217.245432 
L 452.264463 217.245432 
z
" style="fill:#3399ff;"/>
   </g>
   <g id="patch_83">
    <path clip-path="url(#p28684830d2)" d="M 452.264463 217.15037 
L 465.07438 217.15037 
L 465.07438 212.492346 
L 452.264463 212.492346 
z
" style="fill:#33cccc;"/>
   </g>
   <g id="patch_84">
    <path clip-path="url(#p28684830d2)" d="M 452.264463 212.397284 
L 465.07438 212.397284 
L 465.07438 136.918272 
L 452.264463 136.918272 
z
" style="fill:#c71585;"/>
   </g>
   <g id="patch_85">
    <path clip-path="url(#p28684830d2)" d="M 477.884298 224.184938 
L 490.694215 224.184938 
L 490.694215 217.055309 
L 477.884298 217.055309 
z
" style="fill:#008000;"/>
   </g>
   <g id="patch_86">
    <path clip-path="url(#p28684830d2)" d="M 477.884298 216.960247 
L 490.694215 216.960247 
L 490.694215 137.203457 
L 477.884298 137.203457 
z
" style="fill:#c71585;"/>
   </g>
   <g id="patch_87">
    <path clip-path="url(#p28684830d2)" d="M 503.504132 224.184938 
L 516.31405 224.184938 
L 516.31405 161.254074 
L 503.504132 161.254074 
z
" style="fill:#33cccc;"/>
   </g>
   <g id="patch_88">
    <path clip-path="url(#p28684830d2)" d="M 529.123967 224.184938 
L 541.933884 224.184938 
L 541.933884 169.429383 
L 529.123967 169.429383 
z
" style="fill:#3399ff;"/>
   </g>
   <g id="patch_89">
    <path clip-path="url(#p28684830d2)" d="M 529.123967 169.334321 
L 541.933884 169.334321 
L 541.933884 150.892346 
L 529.123967 150.892346 
z
" style="fill:#ffa500;"/>
   </g>
   <g id="patch_90">
    <path clip-path="url(#p28684830d2)" d="M 529.123967 150.797284 
L 541.933884 150.797284 
L 541.933884 123.894815 
L 529.123967 123.894815 
z
" style="fill:#3399ff;"/>
   </g>
   <g id="patch_91">
    <path clip-path="url(#p28684830d2)" d="M 554.743802 224.184938 
L 567.553719 224.184938 
L 567.553719 207.644198 
L 554.743802 207.644198 
z
" style="fill:#ff99cc;"/>
   </g>
   <g id="patch_92">
    <path clip-path="url(#p28684830d2)" d="M 554.743802 207.549136 
L 567.553719 207.549136 
L 567.553719 171.710864 
L 554.743802 171.710864 
z
" style="fill:#33cccc;"/>
   </g>
   <g id="patch_93">
    <path clip-path="url(#p28684830d2)" d="M 554.743802 171.615802 
L 567.553719 171.615802 
L 567.553719 135.682469 
L 554.743802 135.682469 
z
" style="fill:#ff99cc;"/>
   </g>
   <g id="patch_94">
    <path clip-path="url(#p28684830d2)" d="M 580.363636 224.184938 
L 593.173554 224.184938 
L 593.173554 172.56642 
L 580.363636 172.56642 
z
" style="fill:#008000;"/>
   </g>
   <g id="patch_95">
    <path clip-path="url(#p28684830d2)" d="M 605.983471 224.184938 
L 618.793388 224.184938 
L 618.793388 185.684938 
L 605.983471 185.684938 
z
" style="fill:#ff99cc;"/>
   </g>
   <g id="patch_96">
    <path clip-path="url(#p28684830d2)" d="M 605.983471 185.589877 
L 618.793388 185.589877 
L 618.793388 152.033086 
L 605.983471 152.033086 
z
" style="fill:#33cccc;"/>
   </g>
   <g id="patch_97">
    <path clip-path="url(#p28684830d2)" d="M 605.983471 151.938025 
L 618.793388 151.938025 
L 618.793388 138.724444 
L 605.983471 138.724444 
z
" style="fill:#ff99cc;"/>
   </g>
   <g id="matplotlib.axis_1"/>
   <g id="matplotlib.axis_2"/>
  </g>
 </g>
 <defs>
  <clipPath id="p28684830d2">
   <rect height="194.04" width="558" x="90" y="30.24"/>
  </clipPath>
 </defs>
</svg>
