<?xml version="1.0" encoding="utf-8" standalone="no"?>
<!DOCTYPE svg PUBLIC "-//W3C//DTD SVG 1.1//EN"
  "http://www.w3.org/Graphics/SVG/1.1/DTD/svg11.dtd">
<svg height="252pt" version="1.1" viewBox="0 0 720 252" width="720pt" xmlns="http://www.w3.org/2000/svg" xmlns:xlink="http://www.w3.org/1999/xlink">
 <metadata>
  <rdf:RDF xmlns:cc="http://creativecommons.org/ns#" xmlns:dc="http://purl.org/dc/elements/1.1/" xmlns:rdf="http://www.w3.org/1999/02/22-rdf-syntax-ns#">
   <cc:Work>
    <dc:type rdf:resource="http://purl.org/dc/dcmitype/StillImage"/>
    <dc:date>2022-01-17T20:54:00.172926</dc:date>
    <dc:format>image/svg+xml</dc:format>
    <dc:creator>
     <cc:Agent>
      <dc:title>Matplotlib v3.4.3, https://matplotlib.org/</dc:title>
     </cc:Agent>
    </dc:creator>
   </cc:Work>
  </rdf:RDF>
 </metadata>
 <defs>
  <style type="text/css">*{stroke-linecap:butt;stroke-linejoin:round;}</style>
 </defs>
 <g id="figure_1">
  <g id="patch_1">
   <path d="M 0 252 
L 720 252 
L 720 0 
L 0 0 
z
" style="fill:#ffffff;"/>
  </g>
  <g id="axes_1">
   <g id="patch_2">
    <path d="M 90 224.28 
L 648 224.28 
L 648 30.24 
L 90 30.24 
z
" style="fill:#ffffff;"/>
   </g>
   <g id="patch_3">
    <path clip-path="url(#p27d875b99a)" d="M 115.363636 224.28 
L 131.727273 224.28 
L 131.727273 223.042224 
L 115.363636 223.042224 
z
" style="fill:none;opacity:0;"/>
   </g>
   <g id="patch_4">
    <path clip-path="url(#p27d875b99a)" d="M 135.818182 224.28 
L 152.181818 224.28 
L 152.181818 223.042224 
L 135.818182 223.042224 
z
" style="fill:none;opacity:0;"/>
   </g>
   <g id="patch_5">
    <path clip-path="url(#p27d875b99a)" d="M 156.272727 224.28 
L 172.636364 224.28 
L 172.636364 223.042224 
L 156.272727 223.042224 
z
" style="fill:none;opacity:0;"/>
   </g>
   <g id="patch_6">
    <path clip-path="url(#p27d875b99a)" d="M 176.727273 224.28 
L 193.090909 224.28 
L 193.090909 223.042224 
L 176.727273 223.042224 
z
" style="fill:none;opacity:0;"/>
   </g>
   <g id="patch_7">
    <path clip-path="url(#p27d875b99a)" d="M 197.181818 224.28 
L 213.545455 224.28 
L 213.545455 223.042224 
L 197.181818 223.042224 
z
" style="fill:none;opacity:0;"/>
   </g>
   <g id="patch_8">
    <path clip-path="url(#p27d875b99a)" d="M 217.636364 224.28 
L 234 224.28 
L 234 223.042224 
L 217.636364 223.042224 
z
" style="fill:none;opacity:0;"/>
   </g>
   <g id="patch_9">
    <path clip-path="url(#p27d875b99a)" d="M 238.090909 224.28 
L 254.454545 224.28 
L 254.454545 223.042224 
L 238.090909 223.042224 
z
" style="fill:none;opacity:0;"/>
   </g>
   <g id="patch_10">
    <path clip-path="url(#p27d875b99a)" d="M 258.545455 224.28 
L 274.909091 224.28 
L 274.909091 223.042224 
L 258.545455 223.042224 
z
" style="fill:none;opacity:0;"/>
   </g>
   <g id="patch_11">
    <path clip-path="url(#p27d875b99a)" d="M 279 224.28 
L 295.363636 224.28 
L 295.363636 223.042224 
L 279 223.042224 
z
" style="fill:none;opacity:0;"/>
   </g>
   <g id="patch_12">
    <path clip-path="url(#p27d875b99a)" d="M 299.454545 224.28 
L 315.818182 224.28 
L 315.818182 223.042224 
L 299.454545 223.042224 
z
" style="fill:none;opacity:0;"/>
   </g>
   <g id="patch_13">
    <path clip-path="url(#p27d875b99a)" d="M 319.909091 224.28 
L 336.272727 224.28 
L 336.272727 223.042224 
L 319.909091 223.042224 
z
" style="fill:none;opacity:0;"/>
   </g>
   <g id="patch_14">
    <path clip-path="url(#p27d875b99a)" d="M 340.363636 224.28 
L 356.727273 224.28 
L 356.727273 223.042224 
L 340.363636 223.042224 
z
" style="fill:none;opacity:0;"/>
   </g>
   <g id="patch_15">
    <path clip-path="url(#p27d875b99a)" d="M 360.818182 224.28 
L 377.181818 224.28 
L 377.181818 223.042224 
L 360.818182 223.042224 
z
" style="fill:none;opacity:0;"/>
   </g>
   <g id="patch_16">
    <path clip-path="url(#p27d875b99a)" d="M 381.272727 224.28 
L 397.636364 224.28 
L 397.636364 223.042224 
L 381.272727 223.042224 
z
" style="fill:none;opacity:0;"/>
   </g>
   <g id="patch_17">
    <path clip-path="url(#p27d875b99a)" d="M 401.727273 224.28 
L 418.090909 224.28 
L 418.090909 223.042224 
L 401.727273 223.042224 
z
" style="fill:none;opacity:0;"/>
   </g>
   <g id="patch_18">
    <path clip-path="url(#p27d875b99a)" d="M 422.181818 224.28 
L 438.545455 224.28 
L 438.545455 223.042224 
L 422.181818 223.042224 
z
" style="fill:none;opacity:0;"/>
   </g>
   <g id="patch_19">
    <path clip-path="url(#p27d875b99a)" d="M 442.636364 224.28 
L 459 224.28 
L 459 223.042224 
L 442.636364 223.042224 
z
" style="fill:none;opacity:0;"/>
   </g>
   <g id="patch_20">
    <path clip-path="url(#p27d875b99a)" d="M 463.090909 224.28 
L 479.454545 224.28 
L 479.454545 223.042224 
L 463.090909 223.042224 
z
" style="fill:none;opacity:0;"/>
   </g>
   <g id="patch_21">
    <path clip-path="url(#p27d875b99a)" d="M 483.545455 224.28 
L 499.909091 224.28 
L 499.909091 223.042224 
L 483.545455 223.042224 
z
" style="fill:none;opacity:0;"/>
   </g>
   <g id="patch_22">
    <path clip-path="url(#p27d875b99a)" d="M 504 224.28 
L 520.363636 224.28 
L 520.363636 223.042224 
L 504 223.042224 
z
" style="fill:none;opacity:0;"/>
   </g>
   <g id="patch_23">
    <path clip-path="url(#p27d875b99a)" d="M 524.454545 224.28 
L 540.818182 224.28 
L 540.818182 223.042224 
L 524.454545 223.042224 
z
" style="fill:none;opacity:0;"/>
   </g>
   <g id="patch_24">
    <path clip-path="url(#p27d875b99a)" d="M 544.909091 224.28 
L 561.272727 224.28 
L 561.272727 223.042224 
L 544.909091 223.042224 
z
" style="fill:none;opacity:0;"/>
   </g>
   <g id="patch_25">
    <path clip-path="url(#p27d875b99a)" d="M 565.363636 224.28 
L 581.727273 224.28 
L 581.727273 223.042224 
L 565.363636 223.042224 
z
" style="fill:none;opacity:0;"/>
   </g>
   <g id="patch_26">
    <path clip-path="url(#p27d875b99a)" d="M 585.818182 224.28 
L 602.181818 224.28 
L 602.181818 223.042224 
L 585.818182 223.042224 
z
" style="fill:none;opacity:0;"/>
   </g>
   <g id="patch_27">
    <path clip-path="url(#p27d875b99a)" d="M 606.272727 224.28 
L 622.636364 224.28 
L 622.636364 223.042224 
L 606.272727 223.042224 
z
" style="fill:none;opacity:0;"/>
   </g>
   <g id="patch_28">
    <path clip-path="url(#p27d875b99a)" d="M 118.431818 224.156222 
L 128.659091 224.156222 
L 128.659091 210.045573 
L 118.431818 210.045573 
z
" style="fill:#6600ff;"/>
   </g>
   <g id="patch_29">
    <path clip-path="url(#p27d875b99a)" d="M 118.431818 209.921795 
L 128.659091 209.921795 
L 128.659091 193.830703 
L 118.431818 193.830703 
z
" style="fill:#008000;"/>
   </g>
   <g id="patch_30">
    <path clip-path="url(#p27d875b99a)" d="M 118.431818 193.706926 
L 128.659091 193.706926 
L 128.659091 173.531172 
L 118.431818 173.531172 
z
" style="fill:#6600ff;"/>
   </g>
   <g id="patch_31">
    <path clip-path="url(#p27d875b99a)" d="M 118.431818 173.407395 
L 128.659091 173.407395 
L 128.659091 153.231641 
L 118.431818 153.231641 
z
" style="fill:#008000;"/>
   </g>
   <g id="patch_32">
    <path clip-path="url(#p27d875b99a)" d="M 118.431818 153.107863 
L 128.659091 153.107863 
L 128.659091 145.804983 
L 118.431818 145.804983 
z
" style="fill:#6600ff;"/>
   </g>
   <g id="patch_33">
    <path clip-path="url(#p27d875b99a)" d="M 118.431818 145.681206 
L 128.659091 145.681206 
L 128.659091 101.61637 
L 118.431818 101.61637 
z
" style="fill:#ff99cc;"/>
   </g>
   <g id="patch_34">
    <path clip-path="url(#p27d875b99a)" d="M 118.431818 101.492592 
L 128.659091 101.492592 
L 128.659091 88.619719 
L 118.431818 88.619719 
z
" style="fill:#ff99cc;"/>
   </g>
   <g id="patch_35">
    <path clip-path="url(#p27d875b99a)" d="M 118.431818 88.495941 
L 128.659091 88.495941 
L 128.659091 69.434186 
L 118.431818 69.434186 
z
" style="fill:#c71585;"/>
   </g>
   <g id="patch_36">
    <path clip-path="url(#p27d875b99a)" d="M 118.431818 69.310409 
L 128.659091 69.310409 
L 128.659091 63.369082 
L 118.431818 63.369082 
z
" style="fill:#ff99cc;"/>
   </g>
   <g id="patch_37">
    <path clip-path="url(#p27d875b99a)" d="M 118.431818 63.245305 
L 128.659091 63.245305 
L 128.659091 39.48 
L 118.431818 39.48 
z
" style="fill:#ff99cc;"/>
   </g>
   <g id="patch_38">
    <path clip-path="url(#p27d875b99a)" d="M 138.886364 224.156222 
L 149.113636 224.156222 
L 149.113636 215.615566 
L 138.886364 215.615566 
z
" style="fill:#33cccc;"/>
   </g>
   <g id="patch_39">
    <path clip-path="url(#p27d875b99a)" d="M 138.886364 215.491788 
L 149.113636 215.491788 
L 149.113636 212.768681 
L 138.886364 212.768681 
z
" style="fill:#008000;"/>
   </g>
   <g id="patch_40">
    <path clip-path="url(#p27d875b99a)" d="M 138.886364 212.644903 
L 149.113636 212.644903 
L 149.113636 178.110944 
L 138.886364 178.110944 
z
" style="fill:#33cccc;"/>
   </g>
   <g id="patch_41">
    <path clip-path="url(#p27d875b99a)" d="M 138.886364 177.987167 
L 149.113636 177.987167 
L 149.113636 127.981005 
L 138.886364 127.981005 
z
" style="fill:#008000;"/>
   </g>
   <g id="patch_42">
    <path clip-path="url(#p27d875b99a)" d="M 138.886364 127.857227 
L 149.113636 127.857227 
L 149.113636 94.561045 
L 138.886364 94.561045 
z
" style="fill:#33cccc;"/>
   </g>
   <g id="patch_43">
    <path clip-path="url(#p27d875b99a)" d="M 159.340909 224.156222 
L 169.568182 224.156222 
L 169.568182 91.837937 
L 159.340909 91.837937 
z
" style="fill:#993300;"/>
   </g>
   <g id="patch_44">
    <path clip-path="url(#p27d875b99a)" d="M 179.795455 224.156222 
L 190.022727 224.156222 
L 190.022727 186.15649 
L 179.795455 186.15649 
z
" style="fill:#3399ff;"/>
   </g>
   <g id="patch_45">
    <path clip-path="url(#p27d875b99a)" d="M 179.795455 186.032713 
L 190.022727 186.032713 
L 190.022727 179.596276 
L 179.795455 179.596276 
z
" style="fill:#6600ff;"/>
   </g>
   <g id="patch_46">
    <path clip-path="url(#p27d875b99a)" d="M 179.795455 179.472498 
L 190.022727 179.472498 
L 190.022727 175.882947 
L 179.795455 175.882947 
z
" style="fill:#ffa500;"/>
   </g>
   <g id="patch_47">
    <path clip-path="url(#p27d875b99a)" d="M 179.795455 175.759169 
L 190.022727 175.759169 
L 190.022727 166.723403 
L 179.795455 166.723403 
z
" style="fill:#6600ff;"/>
   </g>
   <g id="patch_48">
    <path clip-path="url(#p27d875b99a)" d="M 179.795455 166.599625 
L 190.022727 166.599625 
L 190.022727 153.602974 
L 179.795455 153.602974 
z
" style="fill:#ffa500;"/>
   </g>
   <g id="patch_49">
    <path clip-path="url(#p27d875b99a)" d="M 179.795455 153.479196 
L 190.022727 153.479196 
L 190.022727 93.075713 
L 179.795455 93.075713 
z
" style="fill:#3399ff;"/>
   </g>
   <g id="patch_50">
    <path clip-path="url(#p27d875b99a)" d="M 200.25 224.156222 
L 210.477273 224.156222 
L 210.477273 171.55073 
L 200.25 171.55073 
z
" style="fill:#c71585;"/>
   </g>
   <g id="patch_51">
    <path clip-path="url(#p27d875b99a)" d="M 200.25 171.426952 
L 210.477273 171.426952 
L 210.477273 116.22213 
L 200.25 116.22213 
z
" style="fill:#ff99cc;"/>
   </g>
   <g id="patch_52">
    <path clip-path="url(#p27d875b99a)" d="M 200.25 116.098352 
L 210.477273 116.098352 
L 210.477273 89.981273 
L 200.25 89.981273 
z
" style="fill:#c71585;"/>
   </g>
   <g id="patch_53">
    <path clip-path="url(#p27d875b99a)" d="M 220.704545 224.156222 
L 230.931818 224.156222 
L 230.931818 191.355151 
L 220.704545 191.355151 
z
" style="fill:#33cccc;"/>
   </g>
   <g id="patch_54">
    <path clip-path="url(#p27d875b99a)" d="M 220.704545 191.231373 
L 230.931818 191.231373 
L 230.931818 153.479196 
L 220.704545 153.479196 
z
" style="fill:#008000;"/>
   </g>
   <g id="patch_55">
    <path clip-path="url(#p27d875b99a)" d="M 220.704545 153.355419 
L 230.931818 153.355419 
L 230.931818 144.443429 
L 220.704545 144.443429 
z
" style="fill:#33cccc;"/>
   </g>
   <g id="patch_56">
    <path clip-path="url(#p27d875b99a)" d="M 220.704545 144.319652 
L 230.931818 144.319652 
L 230.931818 136.892994 
L 220.704545 136.892994 
z
" style="fill:#008000;"/>
   </g>
   <g id="patch_57">
    <path clip-path="url(#p27d875b99a)" d="M 220.704545 136.397883 
L 230.931818 136.397883 
L 230.931818 112.632579 
L 220.704545 112.632579 
z
" style="fill:#33cccc;"/>
   </g>
   <g id="patch_58">
    <path clip-path="url(#p27d875b99a)" d="M 241.159091 224.156222 
L 251.386364 224.156222 
L 251.386364 201.876249 
L 241.159091 201.876249 
z
" style="fill:#6600ff;"/>
   </g>
   <g id="patch_59">
    <path clip-path="url(#p27d875b99a)" d="M 241.159091 201.752472 
L 251.386364 201.752472 
L 251.386364 188.75582 
L 241.159091 188.75582 
z
" style="fill:#ffa500;"/>
   </g>
   <g id="patch_60">
    <path clip-path="url(#p27d875b99a)" d="M 241.159091 188.632043 
L 251.386364 188.632043 
L 251.386364 149.64209 
L 241.159091 149.64209 
z
" style="fill:#6600ff;"/>
   </g>
   <g id="patch_61">
    <path clip-path="url(#p27d875b99a)" d="M 241.159091 149.518312 
L 251.386364 149.518312 
L 251.386364 124.267676 
L 241.159091 124.267676 
z
" style="fill:#993300;"/>
   </g>
   <g id="patch_62">
    <path clip-path="url(#p27d875b99a)" d="M 241.159091 124.143898 
L 251.386364 124.143898 
L 251.386364 100.873704 
L 241.159091 100.873704 
z
" style="fill:#ffa500;"/>
   </g>
   <g id="patch_63">
    <path clip-path="url(#p27d875b99a)" d="M 261.613636 224.156222 
L 271.840909 224.156222 
L 271.840909 108.671695 
L 261.613636 108.671695 
z
" style="fill:#993300;"/>
   </g>
   <g id="patch_64">
    <path clip-path="url(#p27d875b99a)" d="M 282.068182 224.156222 
L 292.295455 224.156222 
L 292.295455 204.475579 
L 282.068182 204.475579 
z
" style="fill:#6600ff;"/>
   </g>
   <g id="patch_65">
    <path clip-path="url(#p27d875b99a)" d="M 282.068182 204.351802 
L 292.295455 204.351802 
L 292.295455 194.944702 
L 282.068182 194.944702 
z
" style="fill:#ffa500;"/>
   </g>
   <g id="patch_66">
    <path clip-path="url(#p27d875b99a)" d="M 282.068182 194.820924 
L 292.295455 194.820924 
L 292.295455 168.9514 
L 282.068182 168.9514 
z
" style="fill:#6600ff;"/>
   </g>
   <g id="patch_67">
    <path clip-path="url(#p27d875b99a)" d="M 282.068182 168.827622 
L 292.295455 168.827622 
L 292.295455 131.199223 
L 282.068182 131.199223 
z
" style="fill:#993300;"/>
   </g>
   <g id="patch_68">
    <path clip-path="url(#p27d875b99a)" d="M 282.068182 131.075445 
L 292.295455 131.075445 
L 292.295455 109.41436 
L 282.068182 109.41436 
z
" style="fill:#ffa500;"/>
   </g>
   <g id="patch_69">
    <path clip-path="url(#p27d875b99a)" d="M 302.522727 224.156222 
L 312.75 224.156222 
L 312.75 133.674776 
L 302.522727 133.674776 
z
" style="fill:#c71585;"/>
   </g>
   <g id="patch_70">
    <path clip-path="url(#p27d875b99a)" d="M 322.977273 224.156222 
L 333.204545 224.156222 
L 333.204545 133.550998 
L 322.977273 133.550998 
z
" style="fill:#c71585;"/>
   </g>
   <g id="patch_71">
    <path clip-path="url(#p27d875b99a)" d="M 343.431818 224.156222 
L 353.659091 224.156222 
L 353.659091 197.544032 
L 343.431818 197.544032 
z
" style="fill:#3399ff;"/>
   </g>
   <g id="patch_72">
    <path clip-path="url(#p27d875b99a)" d="M 343.431818 197.420255 
L 353.659091 197.420255 
L 353.659091 177.120723 
L 343.431818 177.120723 
z
" style="fill:#c71585;"/>
   </g>
   <g id="patch_73">
    <path clip-path="url(#p27d875b99a)" d="M 343.431818 176.996946 
L 353.659091 176.996946 
L 353.659091 165.856959 
L 343.431818 165.856959 
z
" style="fill:#6600ff;"/>
   </g>
   <g id="patch_74">
    <path clip-path="url(#p27d875b99a)" d="M 343.431818 165.733182 
L 353.659091 165.733182 
L 353.659091 156.449859 
L 343.431818 156.449859 
z
" style="fill:#008000;"/>
   </g>
   <g id="patch_75">
    <path clip-path="url(#p27d875b99a)" d="M 343.431818 156.326082 
L 353.659091 156.326082 
L 353.659091 150.879866 
L 343.431818 150.879866 
z
" style="fill:#6600ff;"/>
   </g>
   <g id="patch_76">
    <path clip-path="url(#p27d875b99a)" d="M 343.431818 150.756088 
L 353.659091 150.756088 
L 353.659091 139.492324 
L 343.431818 139.492324 
z
" style="fill:#c71585;"/>
   </g>
   <g id="patch_77">
    <path clip-path="url(#p27d875b99a)" d="M 343.431818 139.368547 
L 353.659091 139.368547 
L 353.659091 125.753007 
L 343.431818 125.753007 
z
" style="fill:#33cccc;"/>
   </g>
   <g id="patch_78">
    <path clip-path="url(#p27d875b99a)" d="M 343.431818 125.62923 
L 353.659091 125.62923 
L 353.659091 115.355687 
L 343.431818 115.355687 
z
" style="fill:#ffa500;"/>
   </g>
   <g id="patch_79">
    <path clip-path="url(#p27d875b99a)" d="M 363.886364 224.156222 
L 374.113636 224.156222 
L 374.113636 143.700764 
L 363.886364 143.700764 
z
" style="fill:#3399ff;"/>
   </g>
   <g id="patch_80">
    <path clip-path="url(#p27d875b99a)" d="M 384.340909 224.156222 
L 394.568182 224.156222 
L 394.568182 203.856691 
L 384.340909 203.856691 
z
" style="fill:#ffa500;"/>
   </g>
   <g id="patch_81">
    <path clip-path="url(#p27d875b99a)" d="M 384.340909 203.732914 
L 394.568182 203.732914 
L 394.568182 183.680938 
L 384.340909 183.680938 
z
" style="fill:#33cccc;"/>
   </g>
   <g id="patch_82">
    <path clip-path="url(#p27d875b99a)" d="M 384.340909 183.55716 
L 394.568182 183.55716 
L 394.568182 147.166537 
L 384.340909 147.166537 
z
" style="fill:#3399ff;"/>
   </g>
   <g id="patch_83">
    <path clip-path="url(#p27d875b99a)" d="M 384.340909 147.04276 
L 394.568182 147.04276 
L 394.568182 127.238339 
L 384.340909 127.238339 
z
" style="fill:#33cccc;"/>
   </g>
   <g id="patch_84">
    <path clip-path="url(#p27d875b99a)" d="M 404.795455 224.156222 
L 415.022727 224.156222 
L 415.022727 206.456021 
L 404.795455 206.456021 
z
" style="fill:#6600ff;"/>
   </g>
   <g id="patch_85">
    <path clip-path="url(#p27d875b99a)" d="M 404.795455 206.332244 
L 415.022727 206.332244 
L 415.022727 182.566939 
L 404.795455 182.566939 
z
" style="fill:#008000;"/>
   </g>
   <g id="patch_86">
    <path clip-path="url(#p27d875b99a)" d="M 404.795455 182.443161 
L 415.022727 182.443161 
L 415.022727 151.870087 
L 404.795455 151.870087 
z
" style="fill:#6600ff;"/>
   </g>
   <g id="patch_87">
    <path clip-path="url(#p27d875b99a)" d="M 404.795455 151.746309 
L 415.022727 151.746309 
L 415.022727 137.759437 
L 404.795455 137.759437 
z
" style="fill:#008000;"/>
   </g>
   <g id="patch_88">
    <path clip-path="url(#p27d875b99a)" d="M 404.795455 137.63566 
L 415.022727 137.63566 
L 415.022727 129.095003 
L 404.795455 129.095003 
z
" style="fill:#6600ff;"/>
   </g>
   <g id="patch_89">
    <path clip-path="url(#p27d875b99a)" d="M 425.25 224.156222 
L 435.477273 224.156222 
L 435.477273 149.394534 
L 425.25 149.394534 
z
" style="fill:#c71585;"/>
   </g>
   <g id="patch_90">
    <path clip-path="url(#p27d875b99a)" d="M 445.704545 224.156222 
L 455.931818 224.156222 
L 455.931818 130.209002 
L 445.704545 130.209002 
z
" style="fill:#ff99cc;"/>
   </g>
   <g id="patch_91">
    <path clip-path="url(#p27d875b99a)" d="M 466.159091 224.156222 
L 476.386364 224.156222 
L 476.386364 138.378326 
L 466.159091 138.378326 
z
" style="fill:#3399ff;"/>
   </g>
   <g id="patch_92">
    <path clip-path="url(#p27d875b99a)" d="M 486.613636 224.156222 
L 496.840909 224.156222 
L 496.840909 170.684287 
L 486.613636 170.684287 
z
" style="fill:#33cccc;"/>
   </g>
   <g id="patch_93">
    <path clip-path="url(#p27d875b99a)" d="M 486.613636 170.560509 
L 496.840909 170.560509 
L 496.840909 150.508533 
L 486.613636 150.508533 
z
" style="fill:#ffa500;"/>
   </g>
   <g id="patch_94">
    <path clip-path="url(#p27d875b99a)" d="M 507.068182 224.156222 
L 517.295455 224.156222 
L 517.295455 192.96426 
L 507.068182 192.96426 
z
" style="fill:#ff99cc;"/>
   </g>
   <g id="patch_95">
    <path clip-path="url(#p27d875b99a)" d="M 507.068182 192.840482 
L 517.295455 192.840482 
L 517.295455 178.3585 
L 507.068182 178.3585 
z
" style="fill:#33cccc;"/>
   </g>
   <g id="patch_96">
    <path clip-path="url(#p27d875b99a)" d="M 507.068182 178.234722 
L 517.295455 178.234722 
L 517.295455 158.554079 
L 507.068182 158.554079 
z
" style="fill:#008000;"/>
   </g>
   <g id="patch_97">
    <path clip-path="url(#p27d875b99a)" d="M 507.068182 158.430301 
L 517.295455 158.430301 
L 517.295455 148.280536 
L 507.068182 148.280536 
z
" style="fill:#33cccc;"/>
   </g>
   <g id="patch_98">
    <path clip-path="url(#p27d875b99a)" d="M 527.522727 224.156222 
L 537.75 224.156222 
L 537.75 150.384756 
L 527.522727 150.384756 
z
" style="fill:#ff99cc;"/>
   </g>
   <g id="patch_99">
    <path clip-path="url(#p27d875b99a)" d="M 547.977273 224.156222 
L 558.204545 224.156222 
L 558.204545 144.319652 
L 547.977273 144.319652 
z
" style="fill:#993300;"/>
   </g>
   <g id="patch_100">
    <path clip-path="url(#p27d875b99a)" d="M 568.431818 224.156222 
L 578.659091 224.156222 
L 578.659091 157.811413 
L 568.431818 157.811413 
z
" style="fill:#3399ff;"/>
   </g>
   <g id="patch_101">
    <path clip-path="url(#p27d875b99a)" d="M 588.886364 224.156222 
L 599.113636 224.156222 
L 599.113636 188.508265 
L 588.886364 188.508265 
z
" style="fill:#993300;"/>
   </g>
   <g id="patch_102">
    <path clip-path="url(#p27d875b99a)" d="M 609.340909 224.156222 
L 619.568182 224.156222 
L 619.568182 174.026283 
L 609.340909 174.026283 
z
" style="fill:#993300;"/>
   </g>
   <g id="matplotlib.axis_1"/>
   <g id="matplotlib.axis_2"/>
  </g>
 </g>
 <defs>
  <clipPath id="p27d875b99a">
   <rect height="194.04" width="558" x="90" y="30.24"/>
  </clipPath>
 </defs>
</svg>
