<?xml version="1.0" encoding="utf-8" standalone="no"?>
<!DOCTYPE svg PUBLIC "-//W3C//DTD SVG 1.1//EN"
  "http://www.w3.org/Graphics/SVG/1.1/DTD/svg11.dtd">
<svg height="252pt" version="1.1" viewBox="0 0 720 252" width="720pt" xmlns="http://www.w3.org/2000/svg" xmlns:xlink="http://www.w3.org/1999/xlink">
 <metadata>
  <rdf:RDF xmlns:cc="http://creativecommons.org/ns#" xmlns:dc="http://purl.org/dc/elements/1.1/" xmlns:rdf="http://www.w3.org/1999/02/22-rdf-syntax-ns#">
   <cc:Work>
    <dc:type rdf:resource="http://purl.org/dc/dcmitype/StillImage"/>
    <dc:date>2021-11-04T15:07:33.470948</dc:date>
    <dc:format>image/svg+xml</dc:format>
    <dc:creator>
     <cc:Agent>
      <dc:title>Matplotlib v3.4.3, https://matplotlib.org/</dc:title>
     </cc:Agent>
    </dc:creator>
   </cc:Work>
  </rdf:RDF>
 </metadata>
 <defs>
  <style type="text/css">*{stroke-linecap:butt;stroke-linejoin:round;}</style>
 </defs>
 <g id="figure_1">
  <g id="patch_1">
   <path d="M 0 252 
L 720 252 
L 720 0 
L 0 0 
z
" style="fill:#ffffff;"/>
  </g>
  <g id="axes_1">
   <g id="patch_2">
    <path d="M 90 224.28 
L 648 224.28 
L 648 30.24 
L 90 30.24 
z
" style="fill:#ffffff;"/>
   </g>
   <g id="patch_3">
    <path clip-path="url(#pc68442e8ee)" d="M 115.363636 224.28 
L 175.042781 224.28 
L 175.042781 223.875003 
L 115.363636 223.875003 
z
" style="fill:none;opacity:0;"/>
   </g>
   <g id="patch_4">
    <path clip-path="url(#pc68442e8ee)" d="M 189.962567 224.28 
L 249.641711 224.28 
L 249.641711 223.875003 
L 189.962567 223.875003 
z
" style="fill:none;opacity:0;"/>
   </g>
   <g id="patch_5">
    <path clip-path="url(#pc68442e8ee)" d="M 264.561497 224.28 
L 324.240642 224.28 
L 324.240642 223.875003 
L 264.561497 223.875003 
z
" style="fill:none;opacity:0;"/>
   </g>
   <g id="patch_6">
    <path clip-path="url(#pc68442e8ee)" d="M 339.160428 224.28 
L 398.839572 224.28 
L 398.839572 223.875003 
L 339.160428 223.875003 
z
" style="fill:none;opacity:0;"/>
   </g>
   <g id="patch_7">
    <path clip-path="url(#pc68442e8ee)" d="M 413.759358 224.28 
L 473.438503 224.28 
L 473.438503 223.875003 
L 413.759358 223.875003 
z
" style="fill:none;opacity:0;"/>
   </g>
   <g id="patch_8">
    <path clip-path="url(#pc68442e8ee)" d="M 488.358289 224.28 
L 548.037433 224.28 
L 548.037433 223.875003 
L 488.358289 223.875003 
z
" style="fill:none;opacity:0;"/>
   </g>
   <g id="patch_9">
    <path clip-path="url(#pc68442e8ee)" d="M 562.957219 224.28 
L 622.636364 224.28 
L 622.636364 223.875003 
L 562.957219 223.875003 
z
" style="fill:none;opacity:0;"/>
   </g>
   <g id="patch_10">
    <path clip-path="url(#pc68442e8ee)" d="M 126.553476 224.2395 
L 163.852941 224.2395 
L 163.852941 221.323524 
L 126.553476 221.323524 
z
" style="fill:#00ff00;"/>
   </g>
   <g id="patch_11">
    <path clip-path="url(#pc68442e8ee)" d="M 126.553476 221.283024 
L 163.852941 221.283024 
L 163.852941 214.884076 
L 126.553476 214.884076 
z
" style="fill:#00ffff;"/>
   </g>
   <g id="patch_12">
    <path clip-path="url(#pc68442e8ee)" d="M 126.553476 214.843577 
L 163.852941 214.843577 
L 163.852941 212.616095 
L 126.553476 212.616095 
z
" style="fill:#00ff00;"/>
   </g>
   <g id="patch_13">
    <path clip-path="url(#pc68442e8ee)" d="M 126.553476 212.575595 
L 163.852941 212.575595 
L 163.852941 211.320105 
L 126.553476 211.320105 
z
" style="fill:#00ffff;"/>
   </g>
   <g id="patch_14">
    <path clip-path="url(#pc68442e8ee)" d="M 126.553476 211.279606 
L 163.852941 211.279606 
L 163.852941 200.709191 
L 126.553476 200.709191 
z
" style="fill:#c0c0c0;"/>
   </g>
   <g id="patch_15">
    <path clip-path="url(#pc68442e8ee)" d="M 126.553476 200.668692 
L 163.852941 200.668692 
L 163.852941 197.18572 
L 126.553476 197.18572 
z
" style="fill:#00ffff;"/>
   </g>
   <g id="patch_16">
    <path clip-path="url(#pc68442e8ee)" d="M 126.553476 197.14522 
L 163.852941 197.14522 
L 163.852941 187.870796 
L 126.553476 187.870796 
z
" style="fill:#c0c0c0;"/>
   </g>
   <g id="patch_17">
    <path clip-path="url(#pc68442e8ee)" d="M 126.553476 187.830296 
L 163.852941 187.830296 
L 163.852941 184.468823 
L 126.553476 184.468823 
z
" style="fill:#00ff00;"/>
   </g>
   <g id="patch_18">
    <path clip-path="url(#pc68442e8ee)" d="M 126.553476 184.428323 
L 163.852941 184.428323 
L 163.852941 180.337857 
L 126.553476 180.337857 
z
" style="fill:#00ffff;"/>
   </g>
   <g id="patch_19">
    <path clip-path="url(#pc68442e8ee)" d="M 126.553476 180.297357 
L 163.852941 180.297357 
L 163.852941 170.05094 
L 126.553476 170.05094 
z
" style="fill:#00ff00;"/>
   </g>
   <g id="patch_20">
    <path clip-path="url(#pc68442e8ee)" d="M 126.553476 170.01044 
L 163.852941 170.01044 
L 163.852941 168.714451 
L 126.553476 168.714451 
z
" style="fill:#00ffff;"/>
   </g>
   <g id="patch_21">
    <path clip-path="url(#pc68442e8ee)" d="M 126.553476 168.673951 
L 163.852941 168.673951 
L 163.852941 151.056594 
L 126.553476 151.056594 
z
" style="fill:#ffc0cb;"/>
   </g>
   <g id="patch_22">
    <path clip-path="url(#pc68442e8ee)" d="M 126.553476 151.016095 
L 163.852941 151.016095 
L 163.852941 138.947193 
L 126.553476 138.947193 
z
" style="fill:#99ccff;"/>
   </g>
   <g id="patch_23">
    <path clip-path="url(#pc68442e8ee)" d="M 126.553476 138.906693 
L 163.852941 138.906693 
L 163.852941 133.601236 
L 126.553476 133.601236 
z
" style="fill:#008000;"/>
   </g>
   <g id="patch_24">
    <path clip-path="url(#pc68442e8ee)" d="M 126.553476 133.560736 
L 163.852941 133.560736 
L 163.852941 122.949822 
L 126.553476 122.949822 
z
" style="fill:#99ccff;"/>
   </g>
   <g id="patch_25">
    <path clip-path="url(#pc68442e8ee)" d="M 126.553476 122.909323 
L 163.852941 122.909323 
L 163.852941 103.55048 
L 126.553476 103.55048 
z
" style="fill:#008000;"/>
   </g>
   <g id="patch_26">
    <path clip-path="url(#pc68442e8ee)" d="M 126.553476 103.50998 
L 163.852941 103.50998 
L 163.852941 92.980066 
L 126.553476 92.980066 
z
" style="fill:#99ccff;"/>
   </g>
   <g id="patch_27">
    <path clip-path="url(#pc68442e8ee)" d="M 126.553476 92.939566 
L 163.852941 92.939566 
L 163.852941 77.063695 
L 126.553476 77.063695 
z
" style="fill:#ffc0cb;"/>
   </g>
   <g id="patch_28">
    <path clip-path="url(#pc68442e8ee)" d="M 126.553476 77.023195 
L 163.852941 77.023195 
L 163.852941 65.278291 
L 126.553476 65.278291 
z
" style="fill:#00ffff;"/>
   </g>
   <g id="patch_29">
    <path clip-path="url(#pc68442e8ee)" d="M 126.553476 65.237791 
L 163.852941 65.237791 
L 163.852941 56.044366 
L 126.553476 56.044366 
z
" style="fill:#99ccff;"/>
   </g>
   <g id="patch_30">
    <path clip-path="url(#pc68442e8ee)" d="M 126.553476 56.003866 
L 163.852941 56.003866 
L 163.852941 52.763892 
L 126.553476 52.763892 
z
" style="fill:#00ffff;"/>
   </g>
   <g id="patch_31">
    <path clip-path="url(#pc68442e8ee)" d="M 126.553476 52.723393 
L 163.852941 52.723393 
L 163.852941 47.174938 
L 126.553476 47.174938 
z
" style="fill:#008000;"/>
   </g>
   <g id="patch_32">
    <path clip-path="url(#pc68442e8ee)" d="M 126.553476 47.134438 
L 163.852941 47.134438 
L 163.852941 39.48 
L 126.553476 39.48 
z
" style="fill:#99ccff;"/>
   </g>
   <g id="patch_33">
    <path clip-path="url(#pc68442e8ee)" d="M 201.152406 224.2395 
L 238.451872 224.2395 
L 238.451872 206.176647 
L 201.152406 206.176647 
z
" style="fill:#00ff00;"/>
   </g>
   <g id="patch_34">
    <path clip-path="url(#pc68442e8ee)" d="M 201.152406 206.136147 
L 238.451872 206.136147 
L 238.451872 188.640289 
L 201.152406 188.640289 
z
" style="fill:#ff6600;"/>
   </g>
   <g id="patch_35">
    <path clip-path="url(#pc68442e8ee)" d="M 201.152406 188.59979 
L 238.451872 188.59979 
L 238.451872 186.898803 
L 201.152406 186.898803 
z
" style="fill:#00ff00;"/>
   </g>
   <g id="patch_36">
    <path clip-path="url(#pc68442e8ee)" d="M 201.152406 186.858304 
L 238.451872 186.858304 
L 238.451872 183.699329 
L 201.152406 183.699329 
z
" style="fill:#ff6600;"/>
   </g>
   <g id="patch_37">
    <path clip-path="url(#pc68442e8ee)" d="M 201.152406 183.65883 
L 238.451872 183.65883 
L 238.451872 176.571387 
L 201.152406 176.571387 
z
" style="fill:#ffa500;"/>
   </g>
   <g id="patch_38">
    <path clip-path="url(#pc68442e8ee)" d="M 201.152406 176.530888 
L 238.451872 176.530888 
L 238.451872 167.823458 
L 201.152406 167.823458 
z
" style="fill:#ff6600;"/>
   </g>
   <g id="patch_39">
    <path clip-path="url(#pc68442e8ee)" d="M 201.152406 167.782959 
L 238.451872 167.782959 
L 238.451872 129.186772 
L 201.152406 129.186772 
z
" style="fill:#ff0000;"/>
   </g>
   <g id="patch_40">
    <path clip-path="url(#pc68442e8ee)" d="M 201.152406 129.146272 
L 238.451872 129.146272 
L 238.451872 115.011887 
L 201.152406 115.011887 
z
" style="fill:#ffa500;"/>
   </g>
   <g id="patch_41">
    <path clip-path="url(#pc68442e8ee)" d="M 201.152406 114.971387 
L 238.451872 114.971387 
L 238.451872 107.357449 
L 201.152406 107.357449 
z
" style="fill:#ff6600;"/>
   </g>
   <g id="patch_42">
    <path clip-path="url(#pc68442e8ee)" d="M 201.152406 107.316949 
L 238.451872 107.316949 
L 238.451872 99.136016 
L 201.152406 99.136016 
z
" style="fill:#ff0000;"/>
   </g>
   <g id="patch_43">
    <path clip-path="url(#pc68442e8ee)" d="M 201.152406 99.095516 
L 238.451872 99.095516 
L 238.451872 88.687101 
L 201.152406 88.687101 
z
" style="fill:#99ccff;"/>
   </g>
   <g id="patch_44">
    <path clip-path="url(#pc68442e8ee)" d="M 201.152406 88.646601 
L 238.451872 88.646601 
L 238.451872 85.973623 
L 201.152406 85.973623 
z
" style="fill:#ffc0cb;"/>
   </g>
   <g id="patch_45">
    <path clip-path="url(#pc68442e8ee)" d="M 201.152406 85.933123 
L 238.451872 85.933123 
L 238.451872 83.82714 
L 201.152406 83.82714 
z
" style="fill:#ff00ff;"/>
   </g>
   <g id="patch_46">
    <path clip-path="url(#pc68442e8ee)" d="M 201.152406 83.78664 
L 238.451872 83.78664 
L 238.451872 79.615174 
L 201.152406 79.615174 
z
" style="fill:#ff0000;"/>
   </g>
   <g id="patch_47">
    <path clip-path="url(#pc68442e8ee)" d="M 201.152406 79.574675 
L 238.451872 79.574675 
L 238.451872 69.04476 
L 201.152406 69.04476 
z
" style="fill:#ff6600;"/>
   </g>
   <g id="patch_48">
    <path clip-path="url(#pc68442e8ee)" d="M 275.751337 224.2395 
L 313.050802 224.2395 
L 313.050802 222.781512 
L 275.751337 222.781512 
z
" style="fill:#00ff00;"/>
   </g>
   <g id="patch_49">
    <path clip-path="url(#pc68442e8ee)" d="M 275.751337 222.741012 
L 313.050802 222.741012 
L 313.050802 221.971519 
L 275.751337 221.971519 
z
" style="fill:#c0c0c0;"/>
   </g>
   <g id="patch_50">
    <path clip-path="url(#pc68442e8ee)" d="M 275.751337 221.931019 
L 313.050802 221.931019 
L 313.050802 204.799658 
L 275.751337 204.799658 
z
" style="fill:#ff00ff;"/>
   </g>
   <g id="patch_51">
    <path clip-path="url(#pc68442e8ee)" d="M 275.751337 204.759158 
L 313.050802 204.759158 
L 313.050802 198.279211 
L 275.751337 198.279211 
z
" style="fill:#800080;"/>
   </g>
   <g id="patch_52">
    <path clip-path="url(#pc68442e8ee)" d="M 275.751337 198.238711 
L 313.050802 198.238711 
L 313.050802 185.197817 
L 275.751337 185.197817 
z
" style="fill:#00ffff;"/>
   </g>
   <g id="patch_53">
    <path clip-path="url(#pc68442e8ee)" d="M 275.751337 185.157318 
L 313.050802 185.157318 
L 313.050802 179.244366 
L 275.751337 179.244366 
z
" style="fill:#00ff00;"/>
   </g>
   <g id="patch_54">
    <path clip-path="url(#pc68442e8ee)" d="M 275.751337 179.203866 
L 313.050802 179.203866 
L 313.050802 152.271584 
L 275.751337 152.271584 
z
" style="fill:#800080;"/>
   </g>
   <g id="patch_55">
    <path clip-path="url(#pc68442e8ee)" d="M 275.751337 152.231085 
L 313.050802 152.231085 
L 313.050802 141.579671 
L 275.751337 141.579671 
z
" style="fill:#c0c0c0;"/>
   </g>
   <g id="patch_56">
    <path clip-path="url(#pc68442e8ee)" d="M 275.751337 141.539172 
L 313.050802 141.539172 
L 313.050802 134.856726 
L 275.751337 134.856726 
z
" style="fill:#800080;"/>
   </g>
   <g id="patch_57">
    <path clip-path="url(#pc68442e8ee)" d="M 275.751337 134.816226 
L 313.050802 134.816226 
L 313.050802 132.143248 
L 275.751337 132.143248 
z
" style="fill:#00ff00;"/>
   </g>
   <g id="patch_58">
    <path clip-path="url(#pc68442e8ee)" d="M 275.751337 132.102748 
L 313.050802 132.102748 
L 313.050802 93.547061 
L 275.751337 93.547061 
z
" style="fill:#008000;"/>
   </g>
   <g id="patch_59">
    <path clip-path="url(#pc68442e8ee)" d="M 350.350267 224.2395 
L 387.649733 224.2395 
L 387.649733 223.713005 
L 350.350267 223.713005 
z
" style="fill:#008080;"/>
   </g>
   <g id="patch_60">
    <path clip-path="url(#pc68442e8ee)" d="M 350.350267 223.672505 
L 387.649733 223.672505 
L 387.649733 212.575595 
L 350.350267 212.575595 
z
" style="fill:#808000;"/>
   </g>
   <g id="patch_61">
    <path clip-path="url(#pc68442e8ee)" d="M 350.350267 212.535095 
L 387.649733 212.535095 
L 387.649733 168.552452 
L 350.350267 168.552452 
z
" style="fill:#9acd32;"/>
   </g>
   <g id="patch_62">
    <path clip-path="url(#pc68442e8ee)" d="M 350.350267 168.511953 
L 387.649733 168.511953 
L 387.649733 166.689467 
L 350.350267 166.689467 
z
" style="fill:#808000;"/>
   </g>
   <g id="patch_63">
    <path clip-path="url(#pc68442e8ee)" d="M 350.350267 166.648968 
L 387.649733 166.648968 
L 387.649733 138.704195 
L 350.350267 138.704195 
z
" style="fill:#9acd32;"/>
   </g>
   <g id="patch_64">
    <path clip-path="url(#pc68442e8ee)" d="M 350.350267 138.663695 
L 387.649733 138.663695 
L 387.649733 133.358238 
L 350.350267 133.358238 
z
" style="fill:#808000;"/>
   </g>
   <g id="patch_65">
    <path clip-path="url(#pc68442e8ee)" d="M 350.350267 133.317738 
L 387.649733 133.317738 
L 387.649733 123.759816 
L 350.350267 123.759816 
z
" style="fill:#008080;"/>
   </g>
   <g id="patch_66">
    <path clip-path="url(#pc68442e8ee)" d="M 350.350267 123.719316 
L 387.649733 123.719316 
L 387.649733 121.451335 
L 350.350267 121.451335 
z
" style="fill:#800080;"/>
   </g>
   <g id="patch_67">
    <path clip-path="url(#pc68442e8ee)" d="M 350.350267 121.410835 
L 387.649733 121.410835 
L 387.649733 105.413465 
L 350.350267 105.413465 
z
" style="fill:#008080;"/>
   </g>
   <g id="patch_68">
    <path clip-path="url(#pc68442e8ee)" d="M 424.949198 224.2395 
L 462.248663 224.2395 
L 462.248663 214.519579 
L 424.949198 214.519579 
z
" style="fill:#ff0000;"/>
   </g>
   <g id="patch_69">
    <path clip-path="url(#pc68442e8ee)" d="M 424.949198 214.47908 
L 462.248663 214.47908 
L 462.248663 208.080131 
L 424.949198 208.080131 
z
" style="fill:#ff00ff;"/>
   </g>
   <g id="patch_70">
    <path clip-path="url(#pc68442e8ee)" d="M 424.949198 208.039632 
L 462.248663 208.039632 
L 462.248663 206.541144 
L 424.949198 206.541144 
z
" style="fill:#99ccff;"/>
   </g>
   <g id="patch_71">
    <path clip-path="url(#pc68442e8ee)" d="M 424.949198 206.500644 
L 462.248663 206.500644 
L 462.248663 205.609652 
L 424.949198 205.609652 
z
" style="fill:#008000;"/>
   </g>
   <g id="patch_72">
    <path clip-path="url(#pc68442e8ee)" d="M 424.949198 205.569152 
L 462.248663 205.569152 
L 462.248663 199.210703 
L 424.949198 199.210703 
z
" style="fill:#99ccff;"/>
   </g>
   <g id="patch_73">
    <path clip-path="url(#pc68442e8ee)" d="M 424.949198 199.170204 
L 462.248663 199.170204 
L 462.248663 194.472242 
L 424.949198 194.472242 
z
" style="fill:#008000;"/>
   </g>
   <g id="patch_74">
    <path clip-path="url(#pc68442e8ee)" d="M 424.949198 194.431742 
L 462.248663 194.431742 
L 462.248663 175.113399 
L 424.949198 175.113399 
z
" style="fill:#ffc0cb;"/>
   </g>
   <g id="patch_75">
    <path clip-path="url(#pc68442e8ee)" d="M 424.949198 175.072899 
L 462.248663 175.072899 
L 462.248663 172.116423 
L 424.949198 172.116423 
z
" style="fill:#008000;"/>
   </g>
   <g id="patch_76">
    <path clip-path="url(#pc68442e8ee)" d="M 424.949198 172.075924 
L 462.248663 172.075924 
L 462.248663 166.810966 
L 424.949198 166.810966 
z
" style="fill:#99ccff;"/>
   </g>
   <g id="patch_77">
    <path clip-path="url(#pc68442e8ee)" d="M 424.949198 166.770467 
L 462.248663 166.770467 
L 462.248663 164.785983 
L 424.949198 164.785983 
z
" style="fill:#9acd32;"/>
   </g>
   <g id="patch_78">
    <path clip-path="url(#pc68442e8ee)" d="M 424.949198 164.745483 
L 462.248663 164.745483 
L 462.248663 145.629638 
L 424.949198 145.629638 
z
" style="fill:#ff6600;"/>
   </g>
   <g id="patch_79">
    <path clip-path="url(#pc68442e8ee)" d="M 424.949198 145.589139 
L 462.248663 145.589139 
L 462.248663 138.420697 
L 424.949198 138.420697 
z
" style="fill:#00ff00;"/>
   </g>
   <g id="patch_80">
    <path clip-path="url(#pc68442e8ee)" d="M 424.949198 138.380197 
L 462.248663 138.380197 
L 462.248663 134.694727 
L 424.949198 134.694727 
z
" style="fill:#ff6600;"/>
   </g>
   <g id="patch_81">
    <path clip-path="url(#pc68442e8ee)" d="M 424.949198 134.654227 
L 462.248663 134.654227 
L 462.248663 132.062249 
L 424.949198 132.062249 
z
" style="fill:#ff0000;"/>
   </g>
   <g id="patch_82">
    <path clip-path="url(#pc68442e8ee)" d="M 499.548128 224.2395 
L 536.847594 224.2395 
L 536.847594 185.926811 
L 499.548128 185.926811 
z
" style="fill:#808000;"/>
   </g>
   <g id="patch_83">
    <path clip-path="url(#pc68442e8ee)" d="M 499.548128 185.886312 
L 536.847594 185.886312 
L 536.847594 133.682235 
L 499.548128 133.682235 
z
" style="fill:#ff6600;"/>
   </g>
   <g id="patch_84">
    <path clip-path="url(#pc68442e8ee)" d="M 574.147059 224.2395 
L 611.446524 224.2395 
L 611.446524 216.099066 
L 574.147059 216.099066 
z
" style="fill:#ff00ff;"/>
   </g>
   <g id="patch_85">
    <path clip-path="url(#pc68442e8ee)" d="M 574.147059 216.058567 
L 611.446524 216.058567 
L 611.446524 214.276581 
L 574.147059 214.276581 
z
" style="fill:#ffa500;"/>
   </g>
   <g id="patch_86">
    <path clip-path="url(#pc68442e8ee)" d="M 574.147059 214.236082 
L 611.446524 214.236082 
L 611.446524 213.264089 
L 574.147059 213.264089 
z
" style="fill:#ff00ff;"/>
   </g>
   <g id="patch_87">
    <path clip-path="url(#pc68442e8ee)" d="M 574.147059 213.22359 
L 611.446524 213.22359 
L 611.446524 193.338251 
L 574.147059 193.338251 
z
" style="fill:#ffa500;"/>
   </g>
   <g id="patch_88">
    <path clip-path="url(#pc68442e8ee)" d="M 574.147059 193.297751 
L 611.446524 193.297751 
L 611.446524 186.777304 
L 574.147059 186.777304 
z
" style="fill:#ff00ff;"/>
   </g>
   <g id="patch_89">
    <path clip-path="url(#pc68442e8ee)" d="M 574.147059 186.736805 
L 611.446524 186.736805 
L 611.446524 140.283682 
L 574.147059 140.283682 
z
" style="fill:#c0c0c0;"/>
   </g>
   <g id="matplotlib.axis_1"/>
   <g id="matplotlib.axis_2"/>
  </g>
 </g>
 <defs>
  <clipPath id="pc68442e8ee">
   <rect height="194.04" width="558" x="90" y="30.24"/>
  </clipPath>
 </defs>
</svg>
