<?xml version="1.0" encoding="utf-8" standalone="no"?>
<!DOCTYPE svg PUBLIC "-//W3C//DTD SVG 1.1//EN"
  "http://www.w3.org/Graphics/SVG/1.1/DTD/svg11.dtd">
<svg height="252pt" version="1.1" viewBox="0 0 720 252" width="720pt" xmlns="http://www.w3.org/2000/svg" xmlns:xlink="http://www.w3.org/1999/xlink">
 <metadata>
  <rdf:RDF xmlns:cc="http://creativecommons.org/ns#" xmlns:dc="http://purl.org/dc/elements/1.1/" xmlns:rdf="http://www.w3.org/1999/02/22-rdf-syntax-ns#">
   <cc:Work>
    <dc:type rdf:resource="http://purl.org/dc/dcmitype/StillImage"/>
    <dc:date>2021-11-03T22:44:22.786173</dc:date>
    <dc:format>image/svg+xml</dc:format>
    <dc:creator>
     <cc:Agent>
      <dc:title>Matplotlib v3.4.3, https://matplotlib.org/</dc:title>
     </cc:Agent>
    </dc:creator>
   </cc:Work>
  </rdf:RDF>
 </metadata>
 <defs>
  <style type="text/css">*{stroke-linecap:butt;stroke-linejoin:round;}</style>
 </defs>
 <g id="figure_1">
  <g id="patch_1">
   <path d="M 0 252 
L 720 252 
L 720 0 
L 0 0 
z
" style="fill:#ffffff;"/>
  </g>
  <g id="axes_1">
   <g id="patch_2">
    <path d="M 90 224.28 
L 648 224.28 
L 648 30.24 
L 90 30.24 
z
" style="fill:#ffffff;"/>
   </g>
   <g id="patch_3">
    <path clip-path="url(#pda9aa3569c)" d="M 115.363636 224.28 
L 149.755008 224.28 
L 149.755008 223.691277 
L 115.363636 223.691277 
z
" style="fill:none;opacity:0;"/>
   </g>
   <g id="patch_4">
    <path clip-path="url(#pda9aa3569c)" d="M 158.352851 224.28 
L 192.744222 224.28 
L 192.744222 223.691277 
L 158.352851 223.691277 
z
" style="fill:none;opacity:0;"/>
   </g>
   <g id="patch_5">
    <path clip-path="url(#pda9aa3569c)" d="M 201.342065 224.28 
L 235.733436 224.28 
L 235.733436 223.691277 
L 201.342065 223.691277 
z
" style="fill:none;opacity:0;"/>
   </g>
   <g id="patch_6">
    <path clip-path="url(#pda9aa3569c)" d="M 244.331279 224.28 
L 278.72265 224.28 
L 278.72265 223.691277 
L 244.331279 223.691277 
z
" style="fill:none;opacity:0;"/>
   </g>
   <g id="patch_7">
    <path clip-path="url(#pda9aa3569c)" d="M 287.320493 224.28 
L 321.711864 224.28 
L 321.711864 223.691277 
L 287.320493 223.691277 
z
" style="fill:none;opacity:0;"/>
   </g>
   <g id="patch_8">
    <path clip-path="url(#pda9aa3569c)" d="M 330.309707 224.28 
L 364.701079 224.28 
L 364.701079 223.691277 
L 330.309707 223.691277 
z
" style="fill:none;opacity:0;"/>
   </g>
   <g id="patch_9">
    <path clip-path="url(#pda9aa3569c)" d="M 373.298921 224.28 
L 407.690293 224.28 
L 407.690293 223.691277 
L 373.298921 223.691277 
z
" style="fill:none;opacity:0;"/>
   </g>
   <g id="patch_10">
    <path clip-path="url(#pda9aa3569c)" d="M 416.288136 224.28 
L 450.679507 224.28 
L 450.679507 223.691277 
L 416.288136 223.691277 
z
" style="fill:none;opacity:0;"/>
   </g>
   <g id="patch_11">
    <path clip-path="url(#pda9aa3569c)" d="M 459.27735 224.28 
L 493.668721 224.28 
L 493.668721 223.691277 
L 459.27735 223.691277 
z
" style="fill:none;opacity:0;"/>
   </g>
   <g id="patch_12">
    <path clip-path="url(#pda9aa3569c)" d="M 502.266564 224.28 
L 536.657935 224.28 
L 536.657935 223.691277 
L 502.266564 223.691277 
z
" style="fill:none;opacity:0;"/>
   </g>
   <g id="patch_13">
    <path clip-path="url(#pda9aa3569c)" d="M 545.255778 224.28 
L 579.647149 224.28 
L 579.647149 223.691277 
L 545.255778 223.691277 
z
" style="fill:none;opacity:0;"/>
   </g>
   <g id="patch_14">
    <path clip-path="url(#pda9aa3569c)" d="M 588.244992 224.28 
L 622.636364 224.28 
L 622.636364 223.691277 
L 588.244992 223.691277 
z
" style="fill:none;opacity:0;"/>
   </g>
   <g id="patch_15">
    <path clip-path="url(#pda9aa3569c)" d="M 121.812018 224.221128 
L 143.306626 224.221128 
L 143.306626 133.734476 
L 121.812018 133.734476 
z
" style="fill:#99ccff;"/>
   </g>
   <g id="patch_16">
    <path clip-path="url(#pda9aa3569c)" d="M 121.812018 133.675604 
L 143.306626 133.675604 
L 143.306626 113.482421 
L 121.812018 113.482421 
z
" style="fill:#ffa500;"/>
   </g>
   <g id="patch_17">
    <path clip-path="url(#pda9aa3569c)" d="M 121.812018 113.423549 
L 143.306626 113.423549 
L 143.306626 69.975827 
L 121.812018 69.975827 
z
" style="fill:#008000;"/>
   </g>
   <g id="patch_18">
    <path clip-path="url(#pda9aa3569c)" d="M 121.812018 69.916954 
L 143.306626 69.916954 
L 143.306626 39.48 
L 121.812018 39.48 
z
" style="fill:#99ccff;"/>
   </g>
   <g id="patch_19">
    <path clip-path="url(#pda9aa3569c)" d="M 164.801233 224.221128 
L 186.29584 224.221128 
L 186.29584 206.323963 
L 164.801233 206.323963 
z
" style="fill:#00ff00;"/>
   </g>
   <g id="patch_20">
    <path clip-path="url(#pda9aa3569c)" d="M 164.801233 206.265091 
L 186.29584 206.265091 
L 186.29584 184.364613 
L 164.801233 184.364613 
z
" style="fill:#9acd32;"/>
   </g>
   <g id="patch_21">
    <path clip-path="url(#pda9aa3569c)" d="M 164.801233 184.305741 
L 186.29584 184.305741 
L 186.29584 149.865473 
L 164.801233 149.865473 
z
" style="fill:#00ffff;"/>
   </g>
   <g id="patch_22">
    <path clip-path="url(#pda9aa3569c)" d="M 164.801233 149.806601 
L 186.29584 149.806601 
L 186.29584 133.675604 
L 164.801233 133.675604 
z
" style="fill:#008000;"/>
   </g>
   <g id="patch_23">
    <path clip-path="url(#pda9aa3569c)" d="M 164.801233 133.616731 
L 186.29584 133.616731 
L 186.29584 96.291723 
L 164.801233 96.291723 
z
" style="fill:#808000;"/>
   </g>
   <g id="patch_24">
    <path clip-path="url(#pda9aa3569c)" d="M 207.790447 224.221128 
L 229.285054 224.221128 
L 229.285054 214.153973 
L 207.790447 214.153973 
z
" style="fill:#ffc0cb;"/>
   </g>
   <g id="patch_25">
    <path clip-path="url(#pda9aa3569c)" d="M 207.790447 214.0951 
L 229.285054 214.0951 
L 229.285054 187.779204 
L 207.790447 187.779204 
z
" style="fill:#800080;"/>
   </g>
   <g id="patch_26">
    <path clip-path="url(#pda9aa3569c)" d="M 207.790447 187.720331 
L 229.285054 187.720331 
L 229.285054 143.625014 
L 207.790447 143.625014 
z
" style="fill:#008080;"/>
   </g>
   <g id="patch_27">
    <path clip-path="url(#pda9aa3569c)" d="M 207.790447 143.566142 
L 229.285054 143.566142 
L 229.285054 122.60762 
L 207.790447 122.60762 
z
" style="fill:#ff00ff;"/>
   </g>
   <g id="patch_28">
    <path clip-path="url(#pda9aa3569c)" d="M 207.790447 122.548748 
L 229.285054 122.548748 
L 229.285054 102.296693 
L 207.790447 102.296693 
z
" style="fill:#c0c0c0;"/>
   </g>
   <g id="patch_29">
    <path clip-path="url(#pda9aa3569c)" d="M 250.779661 224.221128 
L 272.274268 224.221128 
L 272.274268 196.139063 
L 250.779661 196.139063 
z
" style="fill:#800080;"/>
   </g>
   <g id="patch_30">
    <path clip-path="url(#pda9aa3569c)" d="M 250.779661 196.080191 
L 272.274268 196.080191 
L 272.274268 138.974106 
L 250.779661 138.974106 
z
" style="fill:#ffa500;"/>
   </g>
   <g id="patch_31">
    <path clip-path="url(#pda9aa3569c)" d="M 250.779661 138.915234 
L 272.274268 138.915234 
L 272.274268 123.314087 
L 250.779661 123.314087 
z
" style="fill:#00ff00;"/>
   </g>
   <g id="patch_32">
    <path clip-path="url(#pda9aa3569c)" d="M 250.779661 123.255215 
L 272.274268 123.255215 
L 272.274268 80.749449 
L 250.779661 80.749449 
z
" style="fill:#008000;"/>
   </g>
   <g id="patch_33">
    <path clip-path="url(#pda9aa3569c)" d="M 293.768875 224.221128 
L 315.263482 224.221128 
L 315.263482 113.600166 
L 293.768875 113.600166 
z
" style="fill:#ff6600;"/>
   </g>
   <g id="patch_34">
    <path clip-path="url(#pda9aa3569c)" d="M 336.758089 224.221128 
L 358.252696 224.221128 
L 358.252696 195.25598 
L 336.758089 195.25598 
z
" style="fill:#c0c0c0;"/>
   </g>
   <g id="patch_35">
    <path clip-path="url(#pda9aa3569c)" d="M 336.758089 195.197107 
L 358.252696 195.197107 
L 358.252696 169.175572 
L 336.758089 169.175572 
z
" style="fill:#ffc0cb;"/>
   </g>
   <g id="patch_36">
    <path clip-path="url(#pda9aa3569c)" d="M 336.758089 169.1167 
L 358.252696 169.1167 
L 358.252696 123.608449 
L 336.758089 123.608449 
z
" style="fill:#008080;"/>
   </g>
   <g id="patch_37">
    <path clip-path="url(#pda9aa3569c)" d="M 336.758089 123.549576 
L 358.252696 123.549576 
L 358.252696 121.901153 
L 336.758089 121.901153 
z
" style="fill:#ffa500;"/>
   </g>
   <g id="patch_38">
    <path clip-path="url(#pda9aa3569c)" d="M 336.758089 121.842281 
L 358.252696 121.842281 
L 358.252696 115.778439 
L 336.758089 115.778439 
z
" style="fill:#ffc0cb;"/>
   </g>
   <g id="patch_39">
    <path clip-path="url(#pda9aa3569c)" d="M 336.758089 115.719567 
L 358.252696 115.719567 
L 358.252696 86.165696 
L 336.758089 86.165696 
z
" style="fill:#c0c0c0;"/>
   </g>
   <g id="patch_40">
    <path clip-path="url(#pda9aa3569c)" d="M 379.747304 224.221128 
L 401.241911 224.221128 
L 401.241911 156.105932 
L 379.747304 156.105932 
z
" style="fill:#ff6600;"/>
   </g>
   <g id="patch_41">
    <path clip-path="url(#pda9aa3569c)" d="M 379.747304 156.04706 
L 401.241911 156.04706 
L 401.241911 114.306633 
L 379.747304 114.306633 
z
" style="fill:#ff00ff;"/>
   </g>
   <g id="patch_42">
    <path clip-path="url(#pda9aa3569c)" d="M 379.747304 114.24776 
L 401.241911 114.24776 
L 401.241911 83.92855 
L 379.747304 83.92855 
z
" style="fill:#ff6600;"/>
   </g>
   <g id="patch_43">
    <path clip-path="url(#pda9aa3569c)" d="M 422.736518 224.221128 
L 444.231125 224.221128 
L 444.231125 204.969901 
L 422.736518 204.969901 
z
" style="fill:#00ff00;"/>
   </g>
   <g id="patch_44">
    <path clip-path="url(#pda9aa3569c)" d="M 422.736518 204.911029 
L 444.231125 204.911029 
L 444.231125 169.823167 
L 422.736518 169.823167 
z
" style="fill:#ff0000;"/>
   </g>
   <g id="patch_45">
    <path clip-path="url(#pda9aa3569c)" d="M 422.736518 169.764294 
L 444.231125 169.764294 
L 444.231125 115.896183 
L 422.736518 115.896183 
z
" style="fill:#9acd32;"/>
   </g>
   <g id="patch_46">
    <path clip-path="url(#pda9aa3569c)" d="M 422.736518 115.837311 
L 444.231125 115.837311 
L 444.231125 95.40864 
L 422.736518 95.40864 
z
" style="fill:#ff0000;"/>
   </g>
   <g id="patch_47">
    <path clip-path="url(#pda9aa3569c)" d="M 465.725732 224.221128 
L 487.220339 224.221128 
L 487.220339 178.477388 
L 465.725732 178.477388 
z
" style="fill:#ffc0cb;"/>
   </g>
   <g id="patch_48">
    <path clip-path="url(#pda9aa3569c)" d="M 465.725732 178.418515 
L 487.220339 178.418515 
L 487.220339 177.594304 
L 465.725732 177.594304 
z
" style="fill:#800080;"/>
   </g>
   <g id="patch_49">
    <path clip-path="url(#pda9aa3569c)" d="M 465.725732 177.535432 
L 487.220339 177.535432 
L 487.220339 165.937598 
L 465.725732 165.937598 
z
" style="fill:#ff00ff;"/>
   </g>
   <g id="patch_50">
    <path clip-path="url(#pda9aa3569c)" d="M 465.725732 165.878726 
L 487.220339 165.878726 
L 487.220339 133.32237 
L 465.725732 133.32237 
z
" style="fill:#c0c0c0;"/>
   </g>
   <g id="patch_51">
    <path clip-path="url(#pda9aa3569c)" d="M 508.714946 224.221128 
L 530.209553 224.221128 
L 530.209553 202.968245 
L 508.714946 202.968245 
z
" style="fill:#ffa500;"/>
   </g>
   <g id="patch_52">
    <path clip-path="url(#pda9aa3569c)" d="M 508.714946 202.909372 
L 530.209553 202.909372 
L 530.209553 184.482357 
L 508.714946 184.482357 
z
" style="fill:#008000;"/>
   </g>
   <g id="patch_53">
    <path clip-path="url(#pda9aa3569c)" d="M 508.714946 184.423485 
L 530.209553 184.423485 
L 530.209553 149.100134 
L 508.714946 149.100134 
z
" style="fill:#808000;"/>
   </g>
   <g id="patch_54">
    <path clip-path="url(#pda9aa3569c)" d="M 551.70416 224.221128 
L 573.198767 224.221128 
L 573.198767 205.146518 
L 551.70416 205.146518 
z
" style="fill:#ff0000;"/>
   </g>
   <g id="patch_55">
    <path clip-path="url(#pda9aa3569c)" d="M 551.70416 205.087646 
L 573.198767 205.087646 
L 573.198767 162.876241 
L 551.70416 162.876241 
z
" style="fill:#00ffff;"/>
   </g>
   <g id="patch_56">
    <path clip-path="url(#pda9aa3569c)" d="M 551.70416 162.817369 
L 573.198767 162.817369 
L 573.198767 145.86216 
L 551.70416 145.86216 
z
" style="fill:#ff0000;"/>
   </g>
   <g id="patch_57">
    <path clip-path="url(#pda9aa3569c)" d="M 594.693374 224.221128 
L 616.187982 224.221128 
L 616.187982 201.614183 
L 594.693374 201.614183 
z
" style="fill:#00ff00;"/>
   </g>
   <g id="patch_58">
    <path clip-path="url(#pda9aa3569c)" d="M 594.693374 201.555311 
L 616.187982 201.555311 
L 616.187982 184.54123 
L 594.693374 184.54123 
z
" style="fill:#00ffff;"/>
   </g>
   <g id="patch_59">
    <path clip-path="url(#pda9aa3569c)" d="M 594.693374 184.482357 
L 616.187982 184.482357 
L 616.187982 155.634954 
L 594.693374 155.634954 
z
" style="fill:#9acd32;"/>
   </g>
   <g id="matplotlib.axis_1"/>
   <g id="matplotlib.axis_2"/>
  </g>
 </g>
 <defs>
  <clipPath id="pda9aa3569c">
   <rect height="194.04" width="558" x="90" y="30.24"/>
  </clipPath>
 </defs>
</svg>
