<?xml version="1.0" encoding="utf-8" standalone="no"?>
<!DOCTYPE svg PUBLIC "-//W3C//DTD SVG 1.1//EN"
  "http://www.w3.org/Graphics/SVG/1.1/DTD/svg11.dtd">
<svg height="144pt" version="1.1" viewBox="0 0 720 144" width="720pt" xmlns="http://www.w3.org/2000/svg" xmlns:xlink="http://www.w3.org/1999/xlink">
 <metadata>
  <rdf:RDF xmlns:cc="http://creativecommons.org/ns#" xmlns:dc="http://purl.org/dc/elements/1.1/" xmlns:rdf="http://www.w3.org/1999/02/22-rdf-syntax-ns#">
   <cc:Work>
    <dc:type rdf:resource="http://purl.org/dc/dcmitype/StillImage"/>
    <dc:date>2021-11-02T16:09:40.571955</dc:date>
    <dc:format>image/svg+xml</dc:format>
    <dc:creator>
     <cc:Agent>
      <dc:title>Matplotlib v3.4.3, https://matplotlib.org/</dc:title>
     </cc:Agent>
    </dc:creator>
   </cc:Work>
  </rdf:RDF>
 </metadata>
 <defs>
  <style type="text/css">*{stroke-linecap:butt;stroke-linejoin:round;}</style>
 </defs>
 <g id="figure_1">
  <g id="patch_1">
   <path d="M 0 144 
L 720 144 
L 720 0 
L 0 0 
z
" style="fill:#ffffff;"/>
  </g>
  <g id="axes_1">
   <g id="patch_2">
    <path d="M 90 128.16 
L 648 128.16 
L 648 17.28 
L 90 17.28 
z
" style="fill:#ffffff;"/>
   </g>
   <g id="patch_3">
    <path clip-path="url(#p2a1091dcea)" d="M 115.363636 128.16 
L 141.048331 128.16 
L 141.048331 127.104 
L 115.363636 127.104 
z
" style="fill:none;opacity:0;"/>
   </g>
   <g id="patch_4">
    <path clip-path="url(#p2a1091dcea)" d="M 147.469505 128.16 
L 173.1542 128.16 
L 173.1542 127.104 
L 147.469505 127.104 
z
" style="fill:none;opacity:0;"/>
   </g>
   <g id="patch_5">
    <path clip-path="url(#p2a1091dcea)" d="M 179.575374 128.16 
L 205.260069 128.16 
L 205.260069 127.104 
L 179.575374 127.104 
z
" style="fill:none;opacity:0;"/>
   </g>
   <g id="patch_6">
    <path clip-path="url(#p2a1091dcea)" d="M 211.681243 128.16 
L 237.365938 128.16 
L 237.365938 127.104 
L 211.681243 127.104 
z
" style="fill:none;opacity:0;"/>
   </g>
   <g id="patch_7">
    <path clip-path="url(#p2a1091dcea)" d="M 243.787112 128.16 
L 269.471807 128.16 
L 269.471807 127.104 
L 243.787112 127.104 
z
" style="fill:none;opacity:0;"/>
   </g>
   <g id="patch_8">
    <path clip-path="url(#p2a1091dcea)" d="M 275.89298 128.16 
L 301.577675 128.16 
L 301.577675 127.104 
L 275.89298 127.104 
z
" style="fill:none;opacity:0;"/>
   </g>
   <g id="patch_9">
    <path clip-path="url(#p2a1091dcea)" d="M 307.998849 128.16 
L 333.683544 128.16 
L 333.683544 127.104 
L 307.998849 127.104 
z
" style="fill:none;opacity:0;"/>
   </g>
   <g id="patch_10">
    <path clip-path="url(#p2a1091dcea)" d="M 340.104718 128.16 
L 365.789413 128.16 
L 365.789413 127.104 
L 340.104718 127.104 
z
" style="fill:none;opacity:0;"/>
   </g>
   <g id="patch_11">
    <path clip-path="url(#p2a1091dcea)" d="M 372.210587 128.16 
L 397.895282 128.16 
L 397.895282 127.104 
L 372.210587 127.104 
z
" style="fill:none;opacity:0;"/>
   </g>
   <g id="patch_12">
    <path clip-path="url(#p2a1091dcea)" d="M 404.316456 128.16 
L 430.001151 128.16 
L 430.001151 127.104 
L 404.316456 127.104 
z
" style="fill:none;opacity:0;"/>
   </g>
   <g id="patch_13">
    <path clip-path="url(#p2a1091dcea)" d="M 436.422325 128.16 
L 462.10702 128.16 
L 462.10702 127.104 
L 436.422325 127.104 
z
" style="fill:none;opacity:0;"/>
   </g>
   <g id="patch_14">
    <path clip-path="url(#p2a1091dcea)" d="M 468.528193 128.16 
L 494.212888 128.16 
L 494.212888 127.104 
L 468.528193 127.104 
z
" style="fill:none;opacity:0;"/>
   </g>
   <g id="patch_15">
    <path clip-path="url(#p2a1091dcea)" d="M 500.634062 128.16 
L 526.318757 128.16 
L 526.318757 127.104 
L 500.634062 127.104 
z
" style="fill:none;opacity:0;"/>
   </g>
   <g id="patch_16">
    <path clip-path="url(#p2a1091dcea)" d="M 532.739931 128.16 
L 558.424626 128.16 
L 558.424626 127.104 
L 532.739931 127.104 
z
" style="fill:none;opacity:0;"/>
   </g>
   <g id="patch_17">
    <path clip-path="url(#p2a1091dcea)" d="M 564.8458 128.16 
L 590.530495 128.16 
L 590.530495 127.104 
L 564.8458 127.104 
z
" style="fill:none;opacity:0;"/>
   </g>
   <g id="patch_18">
    <path clip-path="url(#p2a1091dcea)" d="M 596.951669 128.16 
L 622.636364 128.16 
L 622.636364 127.104 
L 596.951669 127.104 
z
" style="fill:none;opacity:0;"/>
   </g>
   <g id="patch_19">
    <path clip-path="url(#p2a1091dcea)" d="M 120.179517 128.0544 
L 136.232451 128.0544 
L 136.232451 22.56 
L 120.179517 22.56 
z
"/>
   </g>
   <g id="patch_20">
    <path clip-path="url(#p2a1091dcea)" d="M 152.285386 128.0544 
L 168.33832 128.0544 
L 168.33832 22.56 
L 152.285386 22.56 
z
" style="fill:#008080;"/>
   </g>
   <g id="patch_21">
    <path clip-path="url(#p2a1091dcea)" d="M 184.391254 128.0544 
L 200.444189 128.0544 
L 200.444189 22.56 
L 184.391254 22.56 
z
" style="fill:#ff00ff;"/>
   </g>
   <g id="patch_22">
    <path clip-path="url(#p2a1091dcea)" d="M 216.497123 128.0544 
L 232.550058 128.0544 
L 232.550058 22.56 
L 216.497123 22.56 
z
" style="fill:#ffc0cb;"/>
   </g>
   <g id="patch_23">
    <path clip-path="url(#p2a1091dcea)" d="M 248.602992 128.0544 
L 264.655926 128.0544 
L 264.655926 22.56 
L 248.602992 22.56 
z
" style="fill:#800080;"/>
   </g>
   <g id="patch_24">
    <path clip-path="url(#p2a1091dcea)" d="M 280.708861 128.0544 
L 296.761795 128.0544 
L 296.761795 22.56 
L 280.708861 22.56 
z
" style="fill:#c0c0c0;"/>
   </g>
   <g id="patch_25">
    <path clip-path="url(#p2a1091dcea)" d="M 312.81473 128.0544 
L 328.867664 128.0544 
L 328.867664 22.56 
L 312.81473 22.56 
z
" style="fill:#000080;"/>
   </g>
   <g id="patch_26">
    <path clip-path="url(#p2a1091dcea)" d="M 344.920598 128.0544 
L 360.973533 128.0544 
L 360.973533 22.56 
L 344.920598 22.56 
z
" style="fill:#ffa500;"/>
   </g>
   <g id="patch_27">
    <path clip-path="url(#p2a1091dcea)" d="M 377.026467 128.0544 
L 393.079402 128.0544 
L 393.079402 22.56 
L 377.026467 22.56 
z
" style="fill:#0000ff;"/>
   </g>
   <g id="patch_28">
    <path clip-path="url(#p2a1091dcea)" d="M 409.132336 128.0544 
L 425.18527 128.0544 
L 425.18527 22.56 
L 409.132336 22.56 
z
" style="fill:#00ff00;"/>
   </g>
   <g id="patch_29">
    <path clip-path="url(#p2a1091dcea)" d="M 441.238205 128.0544 
L 457.291139 128.0544 
L 457.291139 22.56 
L 441.238205 22.56 
z
" style="fill:#008000;"/>
   </g>
   <g id="patch_30">
    <path clip-path="url(#p2a1091dcea)" d="M 473.344074 128.0544 
L 489.397008 128.0544 
L 489.397008 22.56 
L 473.344074 22.56 
z
" style="fill:#00ffff;"/>
   </g>
   <g id="patch_31">
    <path clip-path="url(#p2a1091dcea)" d="M 505.449942 128.0544 
L 521.502877 128.0544 
L 521.502877 22.56 
L 505.449942 22.56 
z
" style="fill:#9acd32;"/>
   </g>
   <g id="patch_32">
    <path clip-path="url(#p2a1091dcea)" d="M 537.555811 128.0544 
L 553.608746 128.0544 
L 553.608746 22.56 
L 537.555811 22.56 
z
" style="fill:#808000;"/>
   </g>
   <g id="patch_33">
    <path clip-path="url(#p2a1091dcea)" d="M 569.66168 128.0544 
L 585.714614 128.0544 
L 585.714614 22.56 
L 569.66168 22.56 
z
" style="fill:#ff0000;"/>
   </g>
   <g id="patch_34">
    <path clip-path="url(#p2a1091dcea)" d="M 601.767549 128.0544 
L 617.820483 128.0544 
L 617.820483 22.56 
L 601.767549 22.56 
z
" style="fill:#ffff00;"/>
   </g>
   <g id="matplotlib.axis_1"/>
   <g id="matplotlib.axis_2"/>
  </g>
 </g>
 <defs>
  <clipPath id="p2a1091dcea">
   <rect height="110.88" width="558" x="90" y="17.28"/>
  </clipPath>
 </defs>
</svg>
