<?xml version="1.0" encoding="utf-8" standalone="no"?>
<!DOCTYPE svg PUBLIC "-//W3C//DTD SVG 1.1//EN"
  "http://www.w3.org/Graphics/SVG/1.1/DTD/svg11.dtd">
<svg height="252pt" version="1.1" viewBox="0 0 720 252" width="720pt" xmlns="http://www.w3.org/2000/svg" xmlns:xlink="http://www.w3.org/1999/xlink">
 <metadata>
  <rdf:RDF xmlns:cc="http://creativecommons.org/ns#" xmlns:dc="http://purl.org/dc/elements/1.1/" xmlns:rdf="http://www.w3.org/1999/02/22-rdf-syntax-ns#">
   <cc:Work>
    <dc:type rdf:resource="http://purl.org/dc/dcmitype/StillImage"/>
    <dc:date>2022-01-17T21:43:31.226617</dc:date>
    <dc:format>image/svg+xml</dc:format>
    <dc:creator>
     <cc:Agent>
      <dc:title>Matplotlib v3.4.3, https://matplotlib.org/</dc:title>
     </cc:Agent>
    </dc:creator>
   </cc:Work>
  </rdf:RDF>
 </metadata>
 <defs>
  <style type="text/css">*{stroke-linecap:butt;stroke-linejoin:round;}</style>
 </defs>
 <g id="figure_1">
  <g id="patch_1">
   <path d="M 0 252 
L 720 252 
L 720 0 
L 0 0 
z
" style="fill:#ffffff;"/>
  </g>
  <g id="axes_1">
   <g id="patch_2">
    <path d="M 90 224.28 
L 648 224.28 
L 648 30.24 
L 90 30.24 
z
" style="fill:#ffffff;"/>
   </g>
   <g id="patch_3">
    <path clip-path="url(#p229d6cfe9b)" d="M 115.363636 224.28 
L 156.773655 224.28 
L 156.773655 223.813215 
L 115.363636 223.813215 
z
" style="fill:none;opacity:0;"/>
   </g>
   <g id="patch_4">
    <path clip-path="url(#p229d6cfe9b)" d="M 167.12616 224.28 
L 208.536178 224.28 
L 208.536178 223.813215 
L 167.12616 223.813215 
z
" style="fill:none;opacity:0;"/>
   </g>
   <g id="patch_5">
    <path clip-path="url(#p229d6cfe9b)" d="M 218.888683 224.28 
L 260.298701 224.28 
L 260.298701 223.813215 
L 218.888683 223.813215 
z
" style="fill:none;opacity:0;"/>
   </g>
   <g id="patch_6">
    <path clip-path="url(#p229d6cfe9b)" d="M 270.651206 224.28 
L 312.061224 224.28 
L 312.061224 223.813215 
L 270.651206 223.813215 
z
" style="fill:none;opacity:0;"/>
   </g>
   <g id="patch_7">
    <path clip-path="url(#p229d6cfe9b)" d="M 322.413729 224.28 
L 363.823748 224.28 
L 363.823748 223.813215 
L 322.413729 223.813215 
z
" style="fill:none;opacity:0;"/>
   </g>
   <g id="patch_8">
    <path clip-path="url(#p229d6cfe9b)" d="M 374.176252 224.28 
L 415.586271 224.28 
L 415.586271 223.813215 
L 374.176252 223.813215 
z
" style="fill:none;opacity:0;"/>
   </g>
   <g id="patch_9">
    <path clip-path="url(#p229d6cfe9b)" d="M 425.938776 224.28 
L 467.348794 224.28 
L 467.348794 223.813215 
L 425.938776 223.813215 
z
" style="fill:none;opacity:0;"/>
   </g>
   <g id="patch_10">
    <path clip-path="url(#p229d6cfe9b)" d="M 477.701299 224.28 
L 519.111317 224.28 
L 519.111317 223.813215 
L 477.701299 223.813215 
z
" style="fill:none;opacity:0;"/>
   </g>
   <g id="patch_11">
    <path clip-path="url(#p229d6cfe9b)" d="M 529.463822 224.28 
L 570.87384 224.28 
L 570.87384 223.813215 
L 529.463822 223.813215 
z
" style="fill:none;opacity:0;"/>
   </g>
   <g id="patch_12">
    <path clip-path="url(#p229d6cfe9b)" d="M 581.226345 224.28 
L 622.636364 224.28 
L 622.636364 223.813215 
L 581.226345 223.813215 
z
" style="fill:none;opacity:0;"/>
   </g>
   <g id="patch_13">
    <path clip-path="url(#p229d6cfe9b)" d="M 123.128015 224.233322 
L 149.009276 224.233322 
L 149.009276 210.556534 
L 123.128015 210.556534 
z
" style="fill:#993300;"/>
   </g>
   <g id="patch_14">
    <path clip-path="url(#p229d6cfe9b)" d="M 123.128015 210.509856 
L 149.009276 210.509856 
L 149.009276 207.335721 
L 123.128015 207.335721 
z
" style="fill:#ff99cc;"/>
   </g>
   <g id="patch_15">
    <path clip-path="url(#p229d6cfe9b)" d="M 123.128015 207.289043 
L 149.009276 207.289043 
L 149.009276 201.03413 
L 123.128015 201.03413 
z
" style="fill:#993300;"/>
   </g>
   <g id="patch_16">
    <path clip-path="url(#p229d6cfe9b)" d="M 123.128015 200.987451 
L 149.009276 200.987451 
L 149.009276 190.858227 
L 123.128015 190.858227 
z
" style="fill:#ff99cc;"/>
   </g>
   <g id="patch_17">
    <path clip-path="url(#p229d6cfe9b)" d="M 123.128015 190.811548 
L 149.009276 190.811548 
L 149.009276 160.330518 
L 123.128015 160.330518 
z
" style="fill:#993300;"/>
   </g>
   <g id="patch_18">
    <path clip-path="url(#p229d6cfe9b)" d="M 123.128015 160.283839 
L 149.009276 160.283839 
L 149.009276 151.134862 
L 123.128015 151.134862 
z
" style="fill:#ff99cc;"/>
   </g>
   <g id="patch_19">
    <path clip-path="url(#p229d6cfe9b)" d="M 123.128015 151.088184 
L 149.009276 151.088184 
L 149.009276 141.659136 
L 123.128015 141.659136 
z
" style="fill:#993300;"/>
   </g>
   <g id="patch_20">
    <path clip-path="url(#p229d6cfe9b)" d="M 123.128015 141.612458 
L 149.009276 141.612458 
L 149.009276 131.996696 
L 123.128015 131.996696 
z
" style="fill:#ff99cc;"/>
   </g>
   <g id="patch_21">
    <path clip-path="url(#p229d6cfe9b)" d="M 123.128015 131.950018 
L 149.009276 131.950018 
L 149.009276 118.179874 
L 123.128015 118.179874 
z
" style="fill:#993300;"/>
   </g>
   <g id="patch_22">
    <path clip-path="url(#p229d6cfe9b)" d="M 123.128015 118.133195 
L 149.009276 118.133195 
L 149.009276 114.67899 
L 123.128015 114.67899 
z
" style="fill:#ff99cc;"/>
   </g>
   <g id="patch_23">
    <path clip-path="url(#p229d6cfe9b)" d="M 123.128015 114.632311 
L 149.009276 114.632311 
L 149.009276 111.64489 
L 123.128015 111.64489 
z
" style="fill:#993300;"/>
   </g>
   <g id="patch_24">
    <path clip-path="url(#p229d6cfe9b)" d="M 123.128015 111.598212 
L 149.009276 111.598212 
L 149.009276 99.088386 
L 123.128015 99.088386 
z
" style="fill:#ff99cc;"/>
   </g>
   <g id="patch_25">
    <path clip-path="url(#p229d6cfe9b)" d="M 123.128015 99.041708 
L 149.009276 99.041708 
L 149.009276 87.465451 
L 123.128015 87.465451 
z
" style="fill:#993300;"/>
   </g>
   <g id="patch_26">
    <path clip-path="url(#p229d6cfe9b)" d="M 123.128015 87.418772 
L 149.009276 87.418772 
L 149.009276 85.271564 
L 123.128015 85.271564 
z
" style="fill:#ff99cc;"/>
   </g>
   <g id="patch_27">
    <path clip-path="url(#p229d6cfe9b)" d="M 123.128015 85.224885 
L 149.009276 85.224885 
L 149.009276 75.375731 
L 123.128015 75.375731 
z
" style="fill:#993300;"/>
   </g>
   <g id="patch_28">
    <path clip-path="url(#p229d6cfe9b)" d="M 123.128015 75.329053 
L 149.009276 75.329053 
L 149.009276 61.745623 
L 123.128015 61.745623 
z
" style="fill:#ffa500;"/>
   </g>
   <g id="patch_29">
    <path clip-path="url(#p229d6cfe9b)" d="M 123.128015 61.698944 
L 149.009276 61.698944 
L 149.009276 56.3776 
L 123.128015 56.3776 
z
" style="fill:#993300;"/>
   </g>
   <g id="patch_30">
    <path clip-path="url(#p229d6cfe9b)" d="M 174.890538 224.233322 
L 200.7718 224.233322 
L 200.7718 214.524203 
L 174.890538 214.524203 
z
" style="fill:#ffa500;"/>
   </g>
   <g id="patch_31">
    <path clip-path="url(#p229d6cfe9b)" d="M 174.890538 214.477525 
L 200.7718 214.477525 
L 200.7718 211.770174 
L 174.890538 211.770174 
z
" style="fill:#008000;"/>
   </g>
   <g id="patch_32">
    <path clip-path="url(#p229d6cfe9b)" d="M 174.890538 211.723496 
L 200.7718 211.723496 
L 200.7718 209.716322 
L 174.890538 209.716322 
z
" style="fill:#ffa500;"/>
   </g>
   <g id="patch_33">
    <path clip-path="url(#p229d6cfe9b)" d="M 174.890538 209.669644 
L 200.7718 209.669644 
L 200.7718 208.642718 
L 174.890538 208.642718 
z
" style="fill:#6600ff;"/>
   </g>
   <g id="patch_34">
    <path clip-path="url(#p229d6cfe9b)" d="M 174.890538 208.596039 
L 200.7718 208.596039 
L 200.7718 208.315969 
L 174.890538 208.315969 
z
" style="fill:#ffa500;"/>
   </g>
   <g id="patch_35">
    <path clip-path="url(#p229d6cfe9b)" d="M 174.890538 208.26929 
L 200.7718 208.26929 
L 200.7718 196.039535 
L 174.890538 196.039535 
z
" style="fill:#008000;"/>
   </g>
   <g id="patch_36">
    <path clip-path="url(#p229d6cfe9b)" d="M 174.890538 195.992857 
L 200.7718 195.992857 
L 200.7718 191.558404 
L 174.890538 191.558404 
z
" style="fill:#ffa500;"/>
   </g>
   <g id="patch_37">
    <path clip-path="url(#p229d6cfe9b)" d="M 174.890538 191.511725 
L 200.7718 191.511725 
L 200.7718 183.669745 
L 174.890538 183.669745 
z
" style="fill:#6600ff;"/>
   </g>
   <g id="patch_38">
    <path clip-path="url(#p229d6cfe9b)" d="M 174.890538 183.623066 
L 200.7718 183.623066 
L 200.7718 181.662571 
L 174.890538 181.662571 
z
" style="fill:#ffa500;"/>
   </g>
   <g id="patch_39">
    <path clip-path="url(#p229d6cfe9b)" d="M 174.890538 181.615893 
L 200.7718 181.615893 
L 200.7718 170.693135 
L 174.890538 170.693135 
z
" style="fill:#6600ff;"/>
   </g>
   <g id="patch_40">
    <path clip-path="url(#p229d6cfe9b)" d="M 174.890538 170.646456 
L 200.7718 170.646456 
L 200.7718 163.364617 
L 174.890538 163.364617 
z
" style="fill:#008000;"/>
   </g>
   <g id="patch_41">
    <path clip-path="url(#p229d6cfe9b)" d="M 174.890538 163.317939 
L 200.7718 163.317939 
L 200.7718 125.928497 
L 174.890538 125.928497 
z
" style="fill:#993300;"/>
   </g>
   <g id="patch_42">
    <path clip-path="url(#p229d6cfe9b)" d="M 174.890538 125.881819 
L 200.7718 125.881819 
L 200.7718 39.48 
L 174.890538 39.48 
z
" style="fill:#3399ff;"/>
   </g>
   <g id="patch_43">
    <path clip-path="url(#p229d6cfe9b)" d="M 226.653061 224.233322 
L 252.534323 224.233322 
L 252.534323 151.695004 
L 226.653061 151.695004 
z
" style="fill:#c71585;"/>
   </g>
   <g id="patch_44">
    <path clip-path="url(#p229d6cfe9b)" d="M 226.653061 151.648325 
L 252.534323 151.648325 
L 252.534323 146.840445 
L 226.653061 146.840445 
z
" style="fill:#33cccc;"/>
   </g>
   <g id="patch_45">
    <path clip-path="url(#p229d6cfe9b)" d="M 226.653061 146.793766 
L 252.534323 146.793766 
L 252.534323 145.393412 
L 226.653061 145.393412 
z
" style="fill:#6600ff;"/>
   </g>
   <g id="patch_46">
    <path clip-path="url(#p229d6cfe9b)" d="M 226.653061 145.346734 
L 252.534323 145.346734 
L 252.534323 142.219278 
L 226.653061 142.219278 
z
" style="fill:#33cccc;"/>
   </g>
   <g id="patch_47">
    <path clip-path="url(#p229d6cfe9b)" d="M 226.653061 142.172599 
L 252.534323 142.172599 
L 252.534323 140.865602 
L 226.653061 140.865602 
z
" style="fill:#c71585;"/>
   </g>
   <g id="patch_48">
    <path clip-path="url(#p229d6cfe9b)" d="M 226.653061 140.818924 
L 252.534323 140.818924 
L 252.534323 137.364718 
L 226.653061 137.364718 
z
" style="fill:#33cccc;"/>
   </g>
   <g id="patch_49">
    <path clip-path="url(#p229d6cfe9b)" d="M 226.653061 137.31804 
L 252.534323 137.31804 
L 252.534323 133.863834 
L 226.653061 133.863834 
z
" style="fill:#33cccc;"/>
   </g>
   <g id="patch_50">
    <path clip-path="url(#p229d6cfe9b)" d="M 226.653061 133.817156 
L 252.534323 133.817156 
L 252.534323 131.529912 
L 226.653061 131.529912 
z
" style="fill:#c71585;"/>
   </g>
   <g id="patch_51">
    <path clip-path="url(#p229d6cfe9b)" d="M 226.653061 131.483233 
L 252.534323 131.483233 
L 252.534323 118.179874 
L 226.653061 118.179874 
z
" style="fill:#33cccc;"/>
   </g>
   <g id="patch_52">
    <path clip-path="url(#p229d6cfe9b)" d="M 226.653061 118.133195 
L 252.534323 118.133195 
L 252.534323 107.303794 
L 226.653061 107.303794 
z
" style="fill:#c71585;"/>
   </g>
   <g id="patch_53">
    <path clip-path="url(#p229d6cfe9b)" d="M 226.653061 107.257115 
L 252.534323 107.257115 
L 252.534323 102.962698 
L 226.653061 102.962698 
z
" style="fill:#33cccc;"/>
   </g>
   <g id="patch_54">
    <path clip-path="url(#p229d6cfe9b)" d="M 226.653061 102.916019 
L 252.534323 102.916019 
L 252.534323 101.468987 
L 226.653061 101.468987 
z
" style="fill:#c71585;"/>
   </g>
   <g id="patch_55">
    <path clip-path="url(#p229d6cfe9b)" d="M 226.653061 101.422309 
L 252.534323 101.422309 
L 252.534323 96.801142 
L 226.653061 96.801142 
z
" style="fill:#33cccc;"/>
   </g>
   <g id="patch_56">
    <path clip-path="url(#p229d6cfe9b)" d="M 226.653061 96.754463 
L 252.534323 96.754463 
L 252.534323 73.088487 
L 226.653061 73.088487 
z
" style="fill:#993300;"/>
   </g>
   <g id="patch_57">
    <path clip-path="url(#p229d6cfe9b)" d="M 226.653061 73.041809 
L 252.534323 73.041809 
L 252.534323 72.014883 
L 226.653061 72.014883 
z
" style="fill:#6600ff;"/>
   </g>
   <g id="patch_58">
    <path clip-path="url(#p229d6cfe9b)" d="M 226.653061 71.968204 
L 252.534323 71.968204 
L 252.534323 56.751028 
L 226.653061 56.751028 
z
" style="fill:#993300;"/>
   </g>
   <g id="patch_59">
    <path clip-path="url(#p229d6cfe9b)" d="M 278.415584 224.233322 
L 304.296846 224.233322 
L 304.296846 184.509957 
L 278.415584 184.509957 
z
" style="fill:#3399ff;"/>
   </g>
   <g id="patch_60">
    <path clip-path="url(#p229d6cfe9b)" d="M 278.415584 184.463279 
L 304.296846 184.463279 
L 304.296846 174.194019 
L 278.415584 174.194019 
z
" style="fill:#008000;"/>
   </g>
   <g id="patch_61">
    <path clip-path="url(#p229d6cfe9b)" d="M 278.415584 174.14734 
L 304.296846 174.14734 
L 304.296846 165.465148 
L 278.415584 165.465148 
z
" style="fill:#ffa500;"/>
   </g>
   <g id="patch_62">
    <path clip-path="url(#p229d6cfe9b)" d="M 278.415584 165.418469 
L 304.296846 165.418469 
L 304.296846 153.002001 
L 278.415584 153.002001 
z
" style="fill:#008000;"/>
   </g>
   <g id="patch_63">
    <path clip-path="url(#p229d6cfe9b)" d="M 278.415584 152.955322 
L 304.296846 152.955322 
L 304.296846 143.33956 
L 278.415584 143.33956 
z
" style="fill:#6600ff;"/>
   </g>
   <g id="patch_64">
    <path clip-path="url(#p229d6cfe9b)" d="M 278.415584 143.292882 
L 304.296846 143.292882 
L 304.296846 136.524506 
L 278.415584 136.524506 
z
" style="fill:#33cccc;"/>
   </g>
   <g id="patch_65">
    <path clip-path="url(#p229d6cfe9b)" d="M 278.415584 136.477828 
L 304.296846 136.477828 
L 304.296846 114.67899 
L 278.415584 114.67899 
z
" style="fill:#6600ff;"/>
   </g>
   <g id="patch_66">
    <path clip-path="url(#p229d6cfe9b)" d="M 278.415584 114.632311 
L 304.296846 114.632311 
L 304.296846 111.691569 
L 278.415584 111.691569 
z
" style="fill:#33cccc;"/>
   </g>
   <g id="patch_67">
    <path clip-path="url(#p229d6cfe9b)" d="M 278.415584 111.64489 
L 304.296846 111.64489 
L 304.296846 105.996797 
L 278.415584 105.996797 
z
" style="fill:#c71585;"/>
   </g>
   <g id="patch_68">
    <path clip-path="url(#p229d6cfe9b)" d="M 278.415584 105.950119 
L 304.296846 105.950119 
L 304.296846 104.736479 
L 278.415584 104.736479 
z
" style="fill:#6600ff;"/>
   </g>
   <g id="patch_69">
    <path clip-path="url(#p229d6cfe9b)" d="M 278.415584 104.6898 
L 304.296846 104.6898 
L 304.296846 97.174569 
L 278.415584 97.174569 
z
" style="fill:#c71585;"/>
   </g>
   <g id="patch_70">
    <path clip-path="url(#p229d6cfe9b)" d="M 278.415584 97.127891 
L 304.296846 97.127891 
L 304.296846 68.934105 
L 278.415584 68.934105 
z
" style="fill:#993300;"/>
   </g>
   <g id="patch_71">
    <path clip-path="url(#p229d6cfe9b)" d="M 330.178108 224.233322 
L 356.059369 224.233322 
L 356.059369 183.80978 
L 330.178108 183.80978 
z
" style="fill:#3399ff;"/>
   </g>
   <g id="patch_72">
    <path clip-path="url(#p229d6cfe9b)" d="M 330.178108 183.763102 
L 356.059369 183.763102 
L 356.059369 165.278434 
L 330.178108 165.278434 
z
" style="fill:#33cccc;"/>
   </g>
   <g id="patch_73">
    <path clip-path="url(#p229d6cfe9b)" d="M 330.178108 165.231755 
L 356.059369 165.231755 
L 356.059369 162.617762 
L 330.178108 162.617762 
z
" style="fill:#993300;"/>
   </g>
   <g id="patch_74">
    <path clip-path="url(#p229d6cfe9b)" d="M 330.178108 162.571084 
L 356.059369 162.571084 
L 356.059369 156.456206 
L 330.178108 156.456206 
z
" style="fill:#33cccc;"/>
   </g>
   <g id="patch_75">
    <path clip-path="url(#p229d6cfe9b)" d="M 330.178108 156.409528 
L 356.059369 156.409528 
L 356.059369 152.908644 
L 330.178108 152.908644 
z
" style="fill:#6600ff;"/>
   </g>
   <g id="patch_76">
    <path clip-path="url(#p229d6cfe9b)" d="M 330.178108 152.861965 
L 356.059369 152.861965 
L 356.059369 149.127689 
L 330.178108 149.127689 
z
" style="fill:#33cccc;"/>
   </g>
   <g id="patch_77">
    <path clip-path="url(#p229d6cfe9b)" d="M 330.178108 149.08101 
L 356.059369 149.08101 
L 356.059369 134.00387 
L 330.178108 134.00387 
z
" style="fill:#c71585;"/>
   </g>
   <g id="patch_78">
    <path clip-path="url(#p229d6cfe9b)" d="M 330.178108 133.957191 
L 356.059369 133.957191 
L 356.059369 120.280404 
L 330.178108 120.280404 
z
" style="fill:#33cccc;"/>
   </g>
   <g id="patch_79">
    <path clip-path="url(#p229d6cfe9b)" d="M 330.178108 120.233726 
L 356.059369 120.233726 
L 356.059369 119.160121 
L 330.178108 119.160121 
z
" style="fill:#3399ff;"/>
   </g>
   <g id="patch_80">
    <path clip-path="url(#p229d6cfe9b)" d="M 330.178108 119.113443 
L 356.059369 119.113443 
L 356.059369 110.757999 
L 330.178108 110.757999 
z
" style="fill:#33cccc;"/>
   </g>
   <g id="patch_81">
    <path clip-path="url(#p229d6cfe9b)" d="M 330.178108 110.711321 
L 356.059369 110.711321 
L 356.059369 92.740116 
L 330.178108 92.740116 
z
" style="fill:#c71585;"/>
   </g>
   <g id="patch_82">
    <path clip-path="url(#p229d6cfe9b)" d="M 330.178108 92.693438 
L 356.059369 92.693438 
L 356.059369 63.892832 
L 330.178108 63.892832 
z
" style="fill:#33cccc;"/>
   </g>
   <g id="patch_83">
    <path clip-path="url(#p229d6cfe9b)" d="M 381.940631 224.233322 
L 407.821892 224.233322 
L 407.821892 223.113039 
L 381.940631 223.113039 
z
" style="fill:#ffa500;"/>
   </g>
   <g id="patch_84">
    <path clip-path="url(#p229d6cfe9b)" d="M 381.940631 223.06636 
L 407.821892 223.06636 
L 407.821892 216.671412 
L 381.940631 216.671412 
z
" style="fill:#6600ff;"/>
   </g>
   <g id="patch_85">
    <path clip-path="url(#p229d6cfe9b)" d="M 381.940631 216.624734 
L 407.821892 216.624734 
L 407.821892 196.319606 
L 381.940631 196.319606 
z
" style="fill:#ffa500;"/>
   </g>
   <g id="patch_86">
    <path clip-path="url(#p229d6cfe9b)" d="M 381.940631 196.272928 
L 407.821892 196.272928 
L 407.821892 184.556636 
L 381.940631 184.556636 
z
" style="fill:#008000;"/>
   </g>
   <g id="patch_87">
    <path clip-path="url(#p229d6cfe9b)" d="M 381.940631 184.509957 
L 407.821892 184.509957 
L 407.821892 180.262218 
L 381.940631 180.262218 
z
" style="fill:#6600ff;"/>
   </g>
   <g id="patch_88">
    <path clip-path="url(#p229d6cfe9b)" d="M 381.940631 180.215539 
L 407.821892 180.215539 
L 407.821892 153.888891 
L 381.940631 153.888891 
z
" style="fill:#008000;"/>
   </g>
   <g id="patch_89">
    <path clip-path="url(#p229d6cfe9b)" d="M 381.940631 153.842213 
L 407.821892 153.842213 
L 407.821892 147.633978 
L 381.940631 147.633978 
z
" style="fill:#6600ff;"/>
   </g>
   <g id="patch_90">
    <path clip-path="url(#p229d6cfe9b)" d="M 381.940631 147.5873 
L 407.821892 147.5873 
L 407.821892 132.603516 
L 381.940631 132.603516 
z
" style="fill:#008000;"/>
   </g>
   <g id="patch_91">
    <path clip-path="url(#p229d6cfe9b)" d="M 381.940631 132.556838 
L 407.821892 132.556838 
L 407.821892 127.562243 
L 381.940631 127.562243 
z
" style="fill:#6600ff;"/>
   </g>
   <g id="patch_92">
    <path clip-path="url(#p229d6cfe9b)" d="M 381.940631 127.515565 
L 407.821892 127.515565 
L 407.821892 122.941076 
L 381.940631 122.941076 
z
" style="fill:#ffa500;"/>
   </g>
   <g id="patch_93">
    <path clip-path="url(#p229d6cfe9b)" d="M 381.940631 122.894398 
L 407.821892 122.894398 
L 407.821892 115.052417 
L 381.940631 115.052417 
z
" style="fill:#6600ff;"/>
   </g>
   <g id="patch_94">
    <path clip-path="url(#p229d6cfe9b)" d="M 381.940631 115.005739 
L 407.821892 115.005739 
L 407.821892 103.942945 
L 381.940631 103.942945 
z
" style="fill:#008000;"/>
   </g>
   <g id="patch_95">
    <path clip-path="url(#p229d6cfe9b)" d="M 381.940631 103.896267 
L 407.821892 103.896267 
L 407.821892 101.935772 
L 381.940631 101.935772 
z
" style="fill:#ffa500;"/>
   </g>
   <g id="patch_96">
    <path clip-path="url(#p229d6cfe9b)" d="M 381.940631 101.889093 
L 407.821892 101.889093 
L 407.821892 97.968103 
L 381.940631 97.968103 
z
" style="fill:#6600ff;"/>
   </g>
   <g id="patch_97">
    <path clip-path="url(#p229d6cfe9b)" d="M 381.940631 97.921425 
L 407.821892 97.921425 
L 407.821892 88.819126 
L 381.940631 88.819126 
z
" style="fill:#33cccc;"/>
   </g>
   <g id="patch_98">
    <path clip-path="url(#p229d6cfe9b)" d="M 381.940631 88.772448 
L 407.821892 88.772448 
L 407.821892 77.056156 
L 381.940631 77.056156 
z
" style="fill:#6600ff;"/>
   </g>
   <g id="patch_99">
    <path clip-path="url(#p229d6cfe9b)" d="M 381.940631 77.009477 
L 407.821892 77.009477 
L 407.821892 72.38831 
L 381.940631 72.38831 
z
" style="fill:#c71585;"/>
   </g>
   <g id="patch_100">
    <path clip-path="url(#p229d6cfe9b)" d="M 381.940631 72.341632 
L 407.821892 72.341632 
L 407.821892 70.007709 
L 381.940631 70.007709 
z
" style="fill:#6600ff;"/>
   </g>
   <g id="patch_101">
    <path clip-path="url(#p229d6cfe9b)" d="M 381.940631 69.961031 
L 407.821892 69.961031 
L 407.821892 65.619934 
L 381.940631 65.619934 
z
" style="fill:#c71585;"/>
   </g>
   <g id="patch_102">
    <path clip-path="url(#p229d6cfe9b)" d="M 433.703154 224.233322 
L 459.584416 224.233322 
L 459.584416 170.646456 
L 433.703154 170.646456 
z
" style="fill:#3399ff;"/>
   </g>
   <g id="patch_103">
    <path clip-path="url(#p229d6cfe9b)" d="M 433.703154 170.599778 
L 459.584416 170.599778 
L 459.584416 131.623269 
L 433.703154 131.623269 
z
" style="fill:#ff99cc;"/>
   </g>
   <g id="patch_104">
    <path clip-path="url(#p229d6cfe9b)" d="M 485.465677 224.233322 
L 511.346939 224.233322 
L 511.346939 220.172296 
L 485.465677 220.172296 
z
" style="fill:#993300;"/>
   </g>
   <g id="patch_105">
    <path clip-path="url(#p229d6cfe9b)" d="M 485.465677 220.125618 
L 511.346939 220.125618 
L 511.346939 219.565476 
L 485.465677 219.565476 
z
" style="fill:#ff99cc;"/>
   </g>
   <g id="patch_106">
    <path clip-path="url(#p229d6cfe9b)" d="M 485.465677 219.518798 
L 511.346939 219.518798 
L 511.346939 217.558303 
L 485.465677 217.558303 
z
" style="fill:#993300;"/>
   </g>
   <g id="patch_107">
    <path clip-path="url(#p229d6cfe9b)" d="M 485.465677 217.511624 
L 511.346939 217.511624 
L 511.346939 208.969467 
L 485.465677 208.969467 
z
" style="fill:#ff99cc;"/>
   </g>
   <g id="patch_108">
    <path clip-path="url(#p229d6cfe9b)" d="M 485.465677 208.922789 
L 511.346939 208.922789 
L 511.346939 196.272928 
L 485.465677 196.272928 
z
" style="fill:#993300;"/>
   </g>
   <g id="patch_109">
    <path clip-path="url(#p229d6cfe9b)" d="M 485.465677 196.226249 
L 511.346939 196.226249 
L 511.346939 187.310664 
L 485.465677 187.310664 
z
" style="fill:#ff99cc;"/>
   </g>
   <g id="patch_110">
    <path clip-path="url(#p229d6cfe9b)" d="M 485.465677 187.263986 
L 511.346939 187.263986 
L 511.346939 156.176135 
L 485.465677 156.176135 
z
" style="fill:#993300;"/>
   </g>
   <g id="patch_111">
    <path clip-path="url(#p229d6cfe9b)" d="M 485.465677 156.129457 
L 511.346939 156.129457 
L 511.346939 155.149209 
L 485.465677 155.149209 
z
" style="fill:#ff99cc;"/>
   </g>
   <g id="patch_112">
    <path clip-path="url(#p229d6cfe9b)" d="M 485.465677 155.102531 
L 511.346939 155.102531 
L 511.346939 151.088184 
L 485.465677 151.088184 
z
" style="fill:#993300;"/>
   </g>
   <g id="patch_113">
    <path clip-path="url(#p229d6cfe9b)" d="M 485.465677 151.041505 
L 511.346939 151.041505 
L 511.346939 148.147441 
L 485.465677 148.147441 
z
" style="fill:#ff99cc;"/>
   </g>
   <g id="patch_114">
    <path clip-path="url(#p229d6cfe9b)" d="M 485.465677 148.100763 
L 511.346939 148.100763 
L 511.346939 139.651963 
L 485.465677 139.651963 
z
" style="fill:#993300;"/>
   </g>
   <g id="patch_115">
    <path clip-path="url(#p229d6cfe9b)" d="M 537.2282 224.233322 
L 563.109462 224.233322 
L 563.109462 221.385936 
L 537.2282 221.385936 
z
" style="fill:#ffa500;"/>
   </g>
   <g id="patch_116">
    <path clip-path="url(#p229d6cfe9b)" d="M 537.2282 221.339257 
L 563.109462 221.339257 
L 563.109462 208.222612 
L 537.2282 208.222612 
z
" style="fill:#008000;"/>
   </g>
   <g id="patch_117">
    <path clip-path="url(#p229d6cfe9b)" d="M 537.2282 208.175933 
L 563.109462 208.175933 
L 563.109462 185.536883 
L 537.2282 185.536883 
z
" style="fill:#c71585;"/>
   </g>
   <g id="patch_118">
    <path clip-path="url(#p229d6cfe9b)" d="M 537.2282 185.490205 
L 563.109462 185.490205 
L 563.109462 183.669745 
L 537.2282 183.669745 
z
" style="fill:#33cccc;"/>
   </g>
   <g id="patch_119">
    <path clip-path="url(#p229d6cfe9b)" d="M 537.2282 183.623066 
L 563.109462 183.623066 
L 563.109462 169.946279 
L 537.2282 169.946279 
z
" style="fill:#c71585;"/>
   </g>
   <g id="patch_120">
    <path clip-path="url(#p229d6cfe9b)" d="M 537.2282 169.899601 
L 563.109462 169.899601 
L 563.109462 163.924759 
L 537.2282 163.924759 
z
" style="fill:#008000;"/>
   </g>
   <g id="patch_121">
    <path clip-path="url(#p229d6cfe9b)" d="M 537.2282 163.87808 
L 563.109462 163.87808 
L 563.109462 159.817055 
L 537.2282 159.817055 
z
" style="fill:#ffa500;"/>
   </g>
   <g id="patch_122">
    <path clip-path="url(#p229d6cfe9b)" d="M 537.2282 159.770376 
L 563.109462 159.770376 
L 563.109462 154.308997 
L 537.2282 154.308997 
z
" style="fill:#6600ff;"/>
   </g>
   <g id="patch_123">
    <path clip-path="url(#p229d6cfe9b)" d="M 588.990724 224.233322 
L 614.871985 224.233322 
L 614.871985 162.477727 
L 588.990724 162.477727 
z
" style="fill:#ff99cc;"/>
   </g>
   <g id="matplotlib.axis_1"/>
   <g id="matplotlib.axis_2"/>
  </g>
 </g>
 <defs>
  <clipPath id="p229d6cfe9b">
   <rect height="194.04" width="558" x="90" y="30.24"/>
  </clipPath>
 </defs>
</svg>
