<?xml version="1.0" encoding="utf-8" standalone="no"?>
<!DOCTYPE svg PUBLIC "-//W3C//DTD SVG 1.1//EN"
  "http://www.w3.org/Graphics/SVG/1.1/DTD/svg11.dtd">
<svg height="444.96pt" version="1.1" viewBox="0 0 720 444.96" width="720pt" xmlns="http://www.w3.org/2000/svg" xmlns:xlink="http://www.w3.org/1999/xlink">
 <metadata>
  <rdf:RDF xmlns:cc="http://creativecommons.org/ns#" xmlns:dc="http://purl.org/dc/elements/1.1/" xmlns:rdf="http://www.w3.org/1999/02/22-rdf-syntax-ns#">
   <cc:Work>
    <dc:type rdf:resource="http://purl.org/dc/dcmitype/StillImage"/>
    <dc:date>2021-11-02T15:49:46.634099</dc:date>
    <dc:format>image/svg+xml</dc:format>
    <dc:creator>
     <cc:Agent>
      <dc:title>Matplotlib v3.4.3, https://matplotlib.org/</dc:title>
     </cc:Agent>
    </dc:creator>
   </cc:Work>
  </rdf:RDF>
 </metadata>
 <defs>
  <style type="text/css">*{stroke-linecap:butt;stroke-linejoin:round;}</style>
 </defs>
 <g id="figure_1">
  <g id="patch_1">
   <path d="M 0 444.96 
L 720 444.96 
L 720 0 
L 0 0 
z
" style="fill:#ffffff;"/>
  </g>
  <g id="axes_1">
   <g id="patch_2">
    <path d="M 90 396.0144 
L 648 396.0144 
L 648 53.3952 
L 90 53.3952 
z
" style="fill:#ffffff;"/>
   </g>
   <g id="patch_3">
    <path clip-path="url(#p1c4fb9abfb)" d="M 115.363636 396.0144 
L 147.068182 396.0144 
L 147.068182 394.952904 
L 115.363636 394.952904 
z
" style="fill:none;opacity:0;"/>
   </g>
   <g id="patch_4">
    <path clip-path="url(#p1c4fb9abfb)" d="M 154.994318 396.0144 
L 186.698864 396.0144 
L 186.698864 394.952904 
L 154.994318 394.952904 
z
" style="fill:none;opacity:0;"/>
   </g>
   <g id="patch_5">
    <path clip-path="url(#p1c4fb9abfb)" d="M 194.625 396.0144 
L 226.329545 396.0144 
L 226.329545 394.952904 
L 194.625 394.952904 
z
" style="fill:none;opacity:0;"/>
   </g>
   <g id="patch_6">
    <path clip-path="url(#p1c4fb9abfb)" d="M 234.255682 396.0144 
L 265.960227 396.0144 
L 265.960227 394.952904 
L 234.255682 394.952904 
z
" style="fill:none;opacity:0;"/>
   </g>
   <g id="patch_7">
    <path clip-path="url(#p1c4fb9abfb)" d="M 273.886364 396.0144 
L 305.590909 396.0144 
L 305.590909 394.952904 
L 273.886364 394.952904 
z
" style="fill:none;opacity:0;"/>
   </g>
   <g id="patch_8">
    <path clip-path="url(#p1c4fb9abfb)" d="M 313.517045 396.0144 
L 345.221591 396.0144 
L 345.221591 394.952904 
L 313.517045 394.952904 
z
" style="fill:none;opacity:0;"/>
   </g>
   <g id="patch_9">
    <path clip-path="url(#p1c4fb9abfb)" d="M 353.147727 396.0144 
L 384.852273 396.0144 
L 384.852273 394.952904 
L 353.147727 394.952904 
z
" style="fill:none;opacity:0;"/>
   </g>
   <g id="patch_10">
    <path clip-path="url(#p1c4fb9abfb)" d="M 392.778409 396.0144 
L 424.482955 396.0144 
L 424.482955 394.952904 
L 392.778409 394.952904 
z
" style="fill:none;opacity:0;"/>
   </g>
   <g id="patch_11">
    <path clip-path="url(#p1c4fb9abfb)" d="M 432.409091 396.0144 
L 464.113636 396.0144 
L 464.113636 394.952904 
L 432.409091 394.952904 
z
" style="fill:none;opacity:0;"/>
   </g>
   <g id="patch_12">
    <path clip-path="url(#p1c4fb9abfb)" d="M 472.039773 396.0144 
L 503.744318 396.0144 
L 503.744318 394.952904 
L 472.039773 394.952904 
z
" style="fill:none;opacity:0;"/>
   </g>
   <g id="patch_13">
    <path clip-path="url(#p1c4fb9abfb)" d="M 511.670455 396.0144 
L 543.375 396.0144 
L 543.375 394.952904 
L 511.670455 394.952904 
z
" style="fill:none;opacity:0;"/>
   </g>
   <g id="patch_14">
    <path clip-path="url(#p1c4fb9abfb)" d="M 551.301136 396.0144 
L 583.005682 396.0144 
L 583.005682 394.952904 
L 551.301136 394.952904 
z
" style="fill:none;opacity:0;"/>
   </g>
   <g id="patch_15">
    <path clip-path="url(#p1c4fb9abfb)" d="M 590.931818 396.0144 
L 622.636364 396.0144 
L 622.636364 394.952904 
L 590.931818 394.952904 
z
" style="fill:none;opacity:0;"/>
   </g>
   <g id="patch_16">
    <path clip-path="url(#p1c4fb9abfb)" d="M 121.308239 395.90825 
L 141.12358 395.90825 
L 141.12358 318.312862 
L 121.308239 318.312862 
z
"/>
   </g>
   <g id="patch_17">
    <path clip-path="url(#p1c4fb9abfb)" d="M 121.308239 318.206712 
L 141.12358 318.206712 
L 141.12358 266.830285 
L 121.308239 266.830285 
z
" style="fill:#008080;"/>
   </g>
   <g id="patch_18">
    <path clip-path="url(#p1c4fb9abfb)" d="M 121.308239 266.724136 
L 141.12358 266.724136 
L 141.12358 251.120138 
L 121.308239 251.120138 
z
"/>
   </g>
   <g id="patch_19">
    <path clip-path="url(#p1c4fb9abfb)" d="M 121.308239 251.013989 
L 141.12358 251.013989 
L 141.12358 153.250168 
L 121.308239 153.250168 
z
" style="fill:#008080;"/>
   </g>
   <g id="patch_20">
    <path clip-path="url(#p1c4fb9abfb)" d="M 121.308239 153.144019 
L 141.12358 153.144019 
L 141.12358 108.561169 
L 121.308239 108.561169 
z
"/>
   </g>
   <g id="patch_21">
    <path clip-path="url(#p1c4fb9abfb)" d="M 160.93892 395.90825 
L 180.754261 395.90825 
L 180.754261 173.4186 
L 160.93892 173.4186 
z
" style="fill:#ffa500;"/>
   </g>
   <g id="patch_22">
    <path clip-path="url(#p1c4fb9abfb)" d="M 160.93892 395.90825 
L 180.754261 395.90825 
L 180.754261 173.4186 
L 160.93892 173.4186 
z
" style="fill:#ffa500;"/>
   </g>
   <g id="patch_23">
    <path clip-path="url(#p1c4fb9abfb)" d="M 160.93892 173.312451 
L 180.754261 173.312451 
L 180.754261 69.7104 
L 160.93892 69.7104 
z
" style="fill:#0000ff;"/>
   </g>
   <g id="patch_24">
    <path clip-path="url(#p1c4fb9abfb)" d="M 200.569602 395.90825 
L 220.384943 395.90825 
L 220.384943 315.022223 
L 200.569602 315.022223 
z
" style="fill:#00ff00;"/>
   </g>
   <g id="patch_25">
    <path clip-path="url(#p1c4fb9abfb)" d="M 200.569602 314.916073 
L 220.384943 314.916073 
L 220.384943 207.704935 
L 200.569602 207.704935 
z
" style="fill:#800080;"/>
   </g>
   <g id="patch_26">
    <path clip-path="url(#p1c4fb9abfb)" d="M 200.569602 207.598785 
L 220.384943 207.598785 
L 220.384943 147.199639 
L 200.569602 147.199639 
z
" style="fill:#000080;"/>
   </g>
   <g id="patch_27">
    <path clip-path="url(#p1c4fb9abfb)" d="M 200.569602 147.093489 
L 220.384943 147.093489 
L 220.384943 76.822426 
L 200.569602 76.822426 
z
" style="fill:#00ff00;"/>
   </g>
   <g id="patch_28">
    <path clip-path="url(#p1c4fb9abfb)" d="M 240.200284 395.90825 
L 260.015625 395.90825 
L 260.015625 106.013578 
L 240.200284 106.013578 
z
" style="fill:#008000;"/>
   </g>
   <g id="patch_29">
    <path clip-path="url(#p1c4fb9abfb)" d="M 279.830966 395.90825 
L 299.646307 395.90825 
L 299.646307 190.827142 
L 279.830966 190.827142 
z
" style="fill:#00ffff;"/>
   </g>
   <g id="patch_30">
    <path clip-path="url(#p1c4fb9abfb)" d="M 319.461648 395.90825 
L 339.276989 395.90825 
L 339.276989 141.892157 
L 319.461648 141.892157 
z
" style="fill:#9acd32;"/>
   </g>
   <g id="patch_31">
    <path clip-path="url(#p1c4fb9abfb)" d="M 359.09233 395.90825 
L 378.90767 395.90825 
L 378.90767 187.748802 
L 359.09233 187.748802 
z
" style="fill:#808000;"/>
   </g>
   <g id="patch_32">
    <path clip-path="url(#p1c4fb9abfb)" d="M 398.723011 395.90825 
L 418.538352 395.90825 
L 418.538352 164.289731 
L 398.723011 164.289731 
z
" style="fill:#ff0000;"/>
   </g>
   <g id="patch_33">
    <path clip-path="url(#p1c4fb9abfb)" d="M 438.353693 395.90825 
L 458.169034 395.90825 
L 458.169034 106.332027 
L 438.353693 106.332027 
z
" style="fill:#ffff00;"/>
   </g>
   <g id="patch_34">
    <path clip-path="url(#p1c4fb9abfb)" d="M 477.984375 395.90825 
L 497.799716 395.90825 
L 497.799716 166.412724 
L 477.984375 166.412724 
z
" style="fill:#ff00ff;"/>
   </g>
   <g id="patch_35">
    <path clip-path="url(#p1c4fb9abfb)" d="M 517.615057 395.90825 
L 537.430398 395.90825 
L 537.430398 168.960315 
L 517.615057 168.960315 
z
" style="fill:#ffc0cb;"/>
   </g>
   <g id="patch_36">
    <path clip-path="url(#p1c4fb9abfb)" d="M 557.245739 395.90825 
L 577.06108 395.90825 
L 577.06108 361.834215 
L 557.245739 361.834215 
z
" style="fill:#800080;"/>
   </g>
   <g id="patch_37">
    <path clip-path="url(#p1c4fb9abfb)" d="M 557.245739 361.728066 
L 577.06108 361.728066 
L 577.06108 202.079004 
L 557.245739 202.079004 
z
" style="fill:#c0c0c0;"/>
   </g>
   <g id="patch_38">
    <path clip-path="url(#p1c4fb9abfb)" d="M 557.245739 201.972854 
L 577.06108 201.972854 
L 577.06108 170.65871 
L 557.245739 170.65871 
z
" style="fill:#c0c0c0;"/>
   </g>
   <g id="patch_39">
    <path clip-path="url(#p1c4fb9abfb)" d="M 596.87642 395.90825 
L 616.691761 395.90825 
L 616.691761 362.577263 
L 596.87642 362.577263 
z
" style="fill:#000080;"/>
   </g>
   <g id="patch_40">
    <path clip-path="url(#p1c4fb9abfb)" d="M 596.87642 362.471113 
L 616.691761 362.471113 
L 616.691761 289.12171 
L 596.87642 289.12171 
z
" style="fill:#800080;"/>
   </g>
   <g id="patch_41">
    <path clip-path="url(#p1c4fb9abfb)" d="M 596.87642 289.015561 
L 616.691761 289.015561 
L 616.691761 187.430353 
L 596.87642 187.430353 
z
" style="fill:#c0c0c0;"/>
   </g>
   <g id="patch_42">
    <path clip-path="url(#p1c4fb9abfb)" d="M 596.87642 187.324204 
L 616.691761 187.324204 
L 616.691761 161.211392 
L 596.87642 161.211392 
z
" style="fill:#c0c0c0;"/>
   </g>
   <g id="matplotlib.axis_1"/>
   <g id="matplotlib.axis_2"/>
  </g>
 </g>
 <defs>
  <clipPath id="p1c4fb9abfb">
   <rect height="342.6192" width="558" x="90" y="53.3952"/>
  </clipPath>
 </defs>
</svg>
