<?xml version="1.0" encoding="utf-8" standalone="no"?>
<!DOCTYPE svg PUBLIC "-//W3C//DTD SVG 1.1//EN"
  "http://www.w3.org/Graphics/SVG/1.1/DTD/svg11.dtd">
<svg height="252pt" version="1.1" viewBox="0 0 720 252" width="720pt" xmlns="http://www.w3.org/2000/svg" xmlns:xlink="http://www.w3.org/1999/xlink">
 <metadata>
  <rdf:RDF xmlns:cc="http://creativecommons.org/ns#" xmlns:dc="http://purl.org/dc/elements/1.1/" xmlns:rdf="http://www.w3.org/1999/02/22-rdf-syntax-ns#">
   <cc:Work>
    <dc:type rdf:resource="http://purl.org/dc/dcmitype/StillImage"/>
    <dc:date>2021-11-04T16:45:55.454799</dc:date>
    <dc:format>image/svg+xml</dc:format>
    <dc:creator>
     <cc:Agent>
      <dc:title>Matplotlib v3.4.3, https://matplotlib.org/</dc:title>
     </cc:Agent>
    </dc:creator>
   </cc:Work>
  </rdf:RDF>
 </metadata>
 <defs>
  <style type="text/css">*{stroke-linecap:butt;stroke-linejoin:round;}</style>
 </defs>
 <g id="figure_1">
  <g id="patch_1">
   <path d="M 0 252 
L 720 252 
L 720 0 
L 0 0 
z
" style="fill:#ffffff;"/>
  </g>
  <g id="axes_1">
   <g id="patch_2">
    <path d="M 90 224.28 
L 648 224.28 
L 648 30.24 
L 90 30.24 
z
" style="fill:#ffffff;"/>
   </g>
   <g id="patch_3">
    <path clip-path="url(#p2f33b19d42)" d="M 115.363636 224.28 
L 149.755008 224.28 
L 149.755008 223.89516 
L 115.363636 223.89516 
z
" style="fill:none;opacity:0;"/>
   </g>
   <g id="patch_4">
    <path clip-path="url(#p2f33b19d42)" d="M 158.352851 224.28 
L 192.744222 224.28 
L 192.744222 223.89516 
L 158.352851 223.89516 
z
" style="fill:none;opacity:0;"/>
   </g>
   <g id="patch_5">
    <path clip-path="url(#p2f33b19d42)" d="M 201.342065 224.28 
L 235.733436 224.28 
L 235.733436 223.89516 
L 201.342065 223.89516 
z
" style="fill:none;opacity:0;"/>
   </g>
   <g id="patch_6">
    <path clip-path="url(#p2f33b19d42)" d="M 244.331279 224.28 
L 278.72265 224.28 
L 278.72265 223.89516 
L 244.331279 223.89516 
z
" style="fill:none;opacity:0;"/>
   </g>
   <g id="patch_7">
    <path clip-path="url(#p2f33b19d42)" d="M 287.320493 224.28 
L 321.711864 224.28 
L 321.711864 223.89516 
L 287.320493 223.89516 
z
" style="fill:none;opacity:0;"/>
   </g>
   <g id="patch_8">
    <path clip-path="url(#p2f33b19d42)" d="M 330.309707 224.28 
L 364.701079 224.28 
L 364.701079 223.89516 
L 330.309707 223.89516 
z
" style="fill:none;opacity:0;"/>
   </g>
   <g id="patch_9">
    <path clip-path="url(#p2f33b19d42)" d="M 373.298921 224.28 
L 407.690293 224.28 
L 407.690293 223.89516 
L 373.298921 223.89516 
z
" style="fill:none;opacity:0;"/>
   </g>
   <g id="patch_10">
    <path clip-path="url(#p2f33b19d42)" d="M 416.288136 224.28 
L 450.679507 224.28 
L 450.679507 223.89516 
L 416.288136 223.89516 
z
" style="fill:none;opacity:0;"/>
   </g>
   <g id="patch_11">
    <path clip-path="url(#p2f33b19d42)" d="M 459.27735 224.28 
L 493.668721 224.28 
L 493.668721 223.89516 
L 459.27735 223.89516 
z
" style="fill:none;opacity:0;"/>
   </g>
   <g id="patch_12">
    <path clip-path="url(#p2f33b19d42)" d="M 502.266564 224.28 
L 536.657935 224.28 
L 536.657935 223.89516 
L 502.266564 223.89516 
z
" style="fill:none;opacity:0;"/>
   </g>
   <g id="patch_13">
    <path clip-path="url(#p2f33b19d42)" d="M 545.255778 224.28 
L 579.647149 224.28 
L 579.647149 223.89516 
L 545.255778 223.89516 
z
" style="fill:none;opacity:0;"/>
   </g>
   <g id="patch_14">
    <path clip-path="url(#p2f33b19d42)" d="M 588.244992 224.28 
L 622.636364 224.28 
L 622.636364 223.89516 
L 588.244992 223.89516 
z
" style="fill:none;opacity:0;"/>
   </g>
   <g id="patch_15">
    <path clip-path="url(#p2f33b19d42)" d="M 121.812018 224.241516 
L 143.306626 224.241516 
L 143.306626 215.428688 
L 121.812018 215.428688 
z
" style="fill:#ffa500;"/>
   </g>
   <g id="patch_16">
    <path clip-path="url(#p2f33b19d42)" d="M 121.812018 215.390204 
L 143.306626 215.390204 
L 143.306626 212.696327 
L 121.812018 212.696327 
z
" style="fill:#c0c0c0;"/>
   </g>
   <g id="patch_17">
    <path clip-path="url(#p2f33b19d42)" d="M 121.812018 212.657843 
L 143.306626 212.657843 
L 143.306626 206.61586 
L 121.812018 206.61586 
z
" style="fill:#808000;"/>
   </g>
   <g id="patch_18">
    <path clip-path="url(#p2f33b19d42)" d="M 121.812018 206.577376 
L 143.306626 206.577376 
L 143.306626 205.153469 
L 121.812018 205.153469 
z
" style="fill:#99ccff;"/>
   </g>
   <g id="patch_19">
    <path clip-path="url(#p2f33b19d42)" d="M 121.812018 205.114985 
L 143.306626 205.114985 
L 143.306626 203.883499 
L 121.812018 203.883499 
z
" style="fill:#ff0000;"/>
   </g>
   <g id="patch_20">
    <path clip-path="url(#p2f33b19d42)" d="M 121.812018 203.845015 
L 143.306626 203.845015 
L 143.306626 201.689913 
L 121.812018 201.689913 
z
" style="fill:#99ccff;"/>
   </g>
   <g id="patch_21">
    <path clip-path="url(#p2f33b19d42)" d="M 121.812018 201.651429 
L 143.306626 201.651429 
L 143.306626 197.88 
L 121.812018 197.88 
z
" style="fill:#800080;"/>
   </g>
   <g id="patch_22">
    <path clip-path="url(#p2f33b19d42)" d="M 121.812018 197.841516 
L 143.306626 197.841516 
L 143.306626 194.531895 
L 121.812018 194.531895 
z
" style="fill:#008080;"/>
   </g>
   <g id="patch_23">
    <path clip-path="url(#p2f33b19d42)" d="M 121.812018 194.493411 
L 143.306626 194.493411 
L 143.306626 189.682915 
L 121.812018 189.682915 
z
" style="fill:#99ccff;"/>
   </g>
   <g id="patch_24">
    <path clip-path="url(#p2f33b19d42)" d="M 121.812018 189.644431 
L 143.306626 189.644431 
L 143.306626 185.834519 
L 121.812018 185.834519 
z
" style="fill:#9acd32;"/>
   </g>
   <g id="patch_25">
    <path clip-path="url(#p2f33b19d42)" d="M 121.812018 185.796035 
L 143.306626 185.796035 
L 143.306626 184.68 
L 121.812018 184.68 
z
" style="fill:#008000;"/>
   </g>
   <g id="patch_26">
    <path clip-path="url(#p2f33b19d42)" d="M 121.812018 184.641516 
L 143.306626 184.641516 
L 143.306626 178.638017 
L 121.812018 178.638017 
z
" style="fill:#ff0000;"/>
   </g>
   <g id="patch_27">
    <path clip-path="url(#p2f33b19d42)" d="M 121.812018 178.599534 
L 143.306626 178.599534 
L 143.306626 166.130729 
L 121.812018 166.130729 
z
" style="fill:#ffc0cb;"/>
   </g>
   <g id="patch_28">
    <path clip-path="url(#p2f33b19d42)" d="M 121.812018 166.092245 
L 143.306626 166.092245 
L 143.306626 164.129563 
L 121.812018 164.129563 
z
" style="fill:#008000;"/>
   </g>
   <g id="patch_29">
    <path clip-path="url(#p2f33b19d42)" d="M 121.812018 164.091079 
L 143.306626 164.091079 
L 143.306626 162.205364 
L 121.812018 162.205364 
z
" style="fill:#00ffff;"/>
   </g>
   <g id="patch_30">
    <path clip-path="url(#p2f33b19d42)" d="M 121.812018 162.16688 
L 143.306626 162.16688 
L 143.306626 159.203615 
L 121.812018 159.203615 
z
" style="fill:#99ccff;"/>
   </g>
   <g id="patch_31">
    <path clip-path="url(#p2f33b19d42)" d="M 121.812018 159.165131 
L 143.306626 159.165131 
L 143.306626 154.970379 
L 121.812018 154.970379 
z
" style="fill:#800080;"/>
   </g>
   <g id="patch_32">
    <path clip-path="url(#p2f33b19d42)" d="M 121.812018 154.931895 
L 143.306626 154.931895 
L 143.306626 147.850845 
L 121.812018 147.850845 
z
" style="fill:#008080;"/>
   </g>
   <g id="patch_33">
    <path clip-path="url(#p2f33b19d42)" d="M 121.812018 147.812362 
L 143.306626 147.812362 
L 143.306626 147.273586 
L 121.812018 147.273586 
z
" style="fill:#99ccff;"/>
   </g>
   <g id="patch_34">
    <path clip-path="url(#p2f33b19d42)" d="M 121.812018 147.235102 
L 143.306626 147.235102 
L 143.306626 146.042099 
L 121.812018 146.042099 
z
" style="fill:#00ffff;"/>
   </g>
   <g id="patch_35">
    <path clip-path="url(#p2f33b19d42)" d="M 121.812018 146.003615 
L 143.306626 146.003615 
L 143.306626 141.347055 
L 121.812018 141.347055 
z
" style="fill:#9acd32;"/>
   </g>
   <g id="patch_36">
    <path clip-path="url(#p2f33b19d42)" d="M 121.812018 141.308571 
L 143.306626 141.308571 
L 143.306626 139.268921 
L 121.812018 139.268921 
z
" style="fill:#00ff00;"/>
   </g>
   <g id="patch_37">
    <path clip-path="url(#p2f33b19d42)" d="M 121.812018 139.230437 
L 143.306626 139.230437 
L 143.306626 138.152886 
L 121.812018 138.152886 
z
" style="fill:#ff00ff;"/>
   </g>
   <g id="patch_38">
    <path clip-path="url(#p2f33b19d42)" d="M 121.812018 138.114402 
L 143.306626 138.114402 
L 143.306626 134.419942 
L 121.812018 134.419942 
z
" style="fill:#c0c0c0;"/>
   </g>
   <g id="patch_39">
    <path clip-path="url(#p2f33b19d42)" d="M 121.812018 134.381458 
L 143.306626 134.381458 
L 143.306626 133.073003 
L 121.812018 133.073003 
z
" style="fill:#9acd32;"/>
   </g>
   <g id="patch_40">
    <path clip-path="url(#p2f33b19d42)" d="M 121.812018 133.034519 
L 143.306626 133.034519 
L 143.306626 131.68758 
L 121.812018 131.68758 
z
" style="fill:#ff6600;"/>
   </g>
   <g id="patch_41">
    <path clip-path="url(#p2f33b19d42)" d="M 121.812018 131.649096 
L 143.306626 131.649096 
L 143.306626 120.33481 
L 121.812018 120.33481 
z
" style="fill:#9acd32;"/>
   </g>
   <g id="patch_42">
    <path clip-path="url(#p2f33b19d42)" d="M 121.812018 120.296327 
L 143.306626 120.296327 
L 143.306626 119.334227 
L 121.812018 119.334227 
z
" style="fill:#ff00ff;"/>
   </g>
   <g id="patch_43">
    <path clip-path="url(#p2f33b19d42)" d="M 121.812018 119.295743 
L 143.306626 119.295743 
L 143.306626 118.641516 
L 121.812018 118.641516 
z
" style="fill:#ff0000;"/>
   </g>
   <g id="patch_44">
    <path clip-path="url(#p2f33b19d42)" d="M 121.812018 118.603032 
L 143.306626 118.603032 
L 143.306626 111.675918 
L 121.812018 111.675918 
z
" style="fill:#ffc0cb;"/>
   </g>
   <g id="patch_45">
    <path clip-path="url(#p2f33b19d42)" d="M 121.812018 111.637434 
L 143.306626 111.637434 
L 143.306626 105.86484 
L 121.812018 105.86484 
z
" style="fill:#ff6600;"/>
   </g>
   <g id="patch_46">
    <path clip-path="url(#p2f33b19d42)" d="M 121.812018 105.826356 
L 143.306626 105.826356 
L 143.306626 104.248513 
L 121.812018 104.248513 
z
" style="fill:#00ffff;"/>
   </g>
   <g id="patch_47">
    <path clip-path="url(#p2f33b19d42)" d="M 121.812018 104.210029 
L 143.306626 104.210029 
L 143.306626 97.860175 
L 121.812018 97.860175 
z
" style="fill:#c0c0c0;"/>
   </g>
   <g id="patch_48">
    <path clip-path="url(#p2f33b19d42)" d="M 121.812018 97.821691 
L 143.306626 97.821691 
L 143.306626 96.55172 
L 121.812018 96.55172 
z
" style="fill:#ff0000;"/>
   </g>
   <g id="patch_49">
    <path clip-path="url(#p2f33b19d42)" d="M 121.812018 96.513236 
L 143.306626 96.513236 
L 143.306626 94.973878 
L 121.812018 94.973878 
z
" style="fill:#c0c0c0;"/>
   </g>
   <g id="patch_50">
    <path clip-path="url(#p2f33b19d42)" d="M 121.812018 94.935394 
L 143.306626 94.935394 
L 143.306626 88.893411 
L 121.812018 88.893411 
z
" style="fill:#808000;"/>
   </g>
   <g id="patch_51">
    <path clip-path="url(#p2f33b19d42)" d="M 121.812018 88.854927 
L 143.306626 88.854927 
L 143.306626 85.314402 
L 121.812018 85.314402 
z
" style="fill:#800080;"/>
   </g>
   <g id="patch_52">
    <path clip-path="url(#p2f33b19d42)" d="M 121.812018 85.275918 
L 143.306626 85.275918 
L 143.306626 84.698659 
L 121.812018 84.698659 
z
" style="fill:#00ff00;"/>
   </g>
   <g id="patch_53">
    <path clip-path="url(#p2f33b19d42)" d="M 121.812018 84.660175 
L 143.306626 84.660175 
L 143.306626 81.658426 
L 121.812018 81.658426 
z
" style="fill:#c0c0c0;"/>
   </g>
   <g id="patch_54">
    <path clip-path="url(#p2f33b19d42)" d="M 121.812018 81.619942 
L 143.306626 81.619942 
L 143.306626 80.157551 
L 121.812018 80.157551 
z
" style="fill:#ff00ff;"/>
   </g>
   <g id="patch_55">
    <path clip-path="url(#p2f33b19d42)" d="M 121.812018 80.119067 
L 143.306626 80.119067 
L 143.306626 73.653761 
L 121.812018 73.653761 
z
" style="fill:#c0c0c0;"/>
   </g>
   <g id="patch_56">
    <path clip-path="url(#p2f33b19d42)" d="M 121.812018 73.615277 
L 143.306626 73.615277 
L 143.306626 67.034519 
L 121.812018 67.034519 
z
" style="fill:#9acd32;"/>
   </g>
   <g id="patch_57">
    <path clip-path="url(#p2f33b19d42)" d="M 121.812018 66.996035 
L 143.306626 66.996035 
L 143.306626 66.726647 
L 121.812018 66.726647 
z
" style="fill:#00ffff;"/>
   </g>
   <g id="patch_58">
    <path clip-path="url(#p2f33b19d42)" d="M 121.812018 66.688163 
L 143.306626 66.688163 
L 143.306626 64.417609 
L 121.812018 64.417609 
z
" style="fill:#99ccff;"/>
   </g>
   <g id="patch_59">
    <path clip-path="url(#p2f33b19d42)" d="M 121.812018 64.379125 
L 143.306626 64.379125 
L 143.306626 63.878834 
L 121.812018 63.878834 
z
" style="fill:#ffc0cb;"/>
   </g>
   <g id="patch_60">
    <path clip-path="url(#p2f33b19d42)" d="M 121.812018 63.84035 
L 143.306626 63.84035 
L 143.306626 53.988455 
L 121.812018 53.988455 
z
" style="fill:#ff6600;"/>
   </g>
   <g id="patch_61">
    <path clip-path="url(#p2f33b19d42)" d="M 121.812018 53.949971 
L 143.306626 53.949971 
L 143.306626 52.87242 
L 121.812018 52.87242 
z
" style="fill:#00ff00;"/>
   </g>
   <g id="patch_62">
    <path clip-path="url(#p2f33b19d42)" d="M 121.812018 52.833936 
L 143.306626 52.833936 
L 143.306626 43.520816 
L 121.812018 43.520816 
z
" style="fill:#ff6600;"/>
   </g>
   <g id="patch_63">
    <path clip-path="url(#p2f33b19d42)" d="M 121.812018 43.482332 
L 143.306626 43.482332 
L 143.306626 43.174461 
L 121.812018 43.174461 
z
" style="fill:#008000;"/>
   </g>
   <g id="patch_64">
    <path clip-path="url(#p2f33b19d42)" d="M 121.812018 43.135977 
L 143.306626 43.135977 
L 143.306626 39.48 
L 121.812018 39.48 
z
" style="fill:#ff6600;"/>
   </g>
   <g id="patch_65">
    <path clip-path="url(#p2f33b19d42)" d="M 164.801233 224.241516 
L 186.29584 224.241516 
L 186.29584 220.470087 
L 164.801233 220.470087 
z
" style="fill:#ff0000;"/>
   </g>
   <g id="patch_66">
    <path clip-path="url(#p2f33b19d42)" d="M 164.801233 220.431603 
L 186.29584 220.431603 
L 186.29584 217.083499 
L 164.801233 217.083499 
z
" style="fill:#800080;"/>
   </g>
   <g id="patch_67">
    <path clip-path="url(#p2f33b19d42)" d="M 164.801233 217.045015 
L 186.29584 217.045015 
L 186.29584 211.965131 
L 164.801233 211.965131 
z
" style="fill:#c0c0c0;"/>
   </g>
   <g id="patch_68">
    <path clip-path="url(#p2f33b19d42)" d="M 164.801233 211.926647 
L 186.29584 211.926647 
L 186.29584 210.002449 
L 164.801233 210.002449 
z
" style="fill:#ff00ff;"/>
   </g>
   <g id="patch_69">
    <path clip-path="url(#p2f33b19d42)" d="M 164.801233 209.963965 
L 186.29584 209.963965 
L 186.29584 202.498076 
L 164.801233 202.498076 
z
" style="fill:#808000;"/>
   </g>
   <g id="patch_70">
    <path clip-path="url(#p2f33b19d42)" d="M 164.801233 202.459592 
L 186.29584 202.459592 
L 186.29584 199.881166 
L 164.801233 199.881166 
z
" style="fill:#008000;"/>
   </g>
   <g id="patch_71">
    <path clip-path="url(#p2f33b19d42)" d="M 164.801233 199.842682 
L 186.29584 199.842682 
L 186.29584 191.222274 
L 164.801233 191.222274 
z
" style="fill:#c0c0c0;"/>
   </g>
   <g id="patch_72">
    <path clip-path="url(#p2f33b19d42)" d="M 164.801233 191.18379 
L 186.29584 191.18379 
L 186.29584 186.103907 
L 164.801233 186.103907 
z
" style="fill:#ff00ff;"/>
   </g>
   <g id="patch_73">
    <path clip-path="url(#p2f33b19d42)" d="M 164.801233 186.065423 
L 186.29584 186.065423 
L 186.29584 183.410029 
L 164.801233 183.410029 
z
" style="fill:#808000;"/>
   </g>
   <g id="patch_74">
    <path clip-path="url(#p2f33b19d42)" d="M 164.801233 183.371545 
L 186.29584 183.371545 
L 186.29584 180.369796 
L 164.801233 180.369796 
z
" style="fill:#9acd32;"/>
   </g>
   <g id="patch_75">
    <path clip-path="url(#p2f33b19d42)" d="M 164.801233 180.331312 
L 186.29584 180.331312 
L 186.29584 177.329563 
L 164.801233 177.329563 
z
" style="fill:#c0c0c0;"/>
   </g>
   <g id="patch_76">
    <path clip-path="url(#p2f33b19d42)" d="M 164.801233 177.291079 
L 186.29584 177.291079 
L 186.29584 175.097493 
L 164.801233 175.097493 
z
" style="fill:#ff00ff;"/>
   </g>
   <g id="patch_77">
    <path clip-path="url(#p2f33b19d42)" d="M 164.801233 175.059009 
L 186.29584 175.059009 
L 186.29584 171.710904 
L 164.801233 171.710904 
z
" style="fill:#99ccff;"/>
   </g>
   <g id="patch_78">
    <path clip-path="url(#p2f33b19d42)" d="M 164.801233 171.67242 
L 186.29584 171.67242 
L 186.29584 169.82519 
L 164.801233 169.82519 
z
" style="fill:#ffc0cb;"/>
   </g>
   <g id="patch_79">
    <path clip-path="url(#p2f33b19d42)" d="M 164.801233 169.786706 
L 186.29584 169.786706 
L 186.29584 168.247347 
L 164.801233 168.247347 
z
" style="fill:#ff6600;"/>
   </g>
   <g id="patch_80">
    <path clip-path="url(#p2f33b19d42)" d="M 164.801233 168.208863 
L 186.29584 168.208863 
L 186.29584 166.323149 
L 164.801233 166.323149 
z
" style="fill:#00ff00;"/>
   </g>
   <g id="patch_81">
    <path clip-path="url(#p2f33b19d42)" d="M 164.801233 166.284665 
L 186.29584 166.284665 
L 186.29584 160.358134 
L 164.801233 160.358134 
z
" style="fill:#ff6600;"/>
   </g>
   <g id="patch_82">
    <path clip-path="url(#p2f33b19d42)" d="M 164.801233 160.31965 
L 186.29584 160.31965 
L 186.29584 158.780292 
L 164.801233 158.780292 
z
" style="fill:#ff0000;"/>
   </g>
   <g id="patch_83">
    <path clip-path="url(#p2f33b19d42)" d="M 164.801233 158.741808 
L 186.29584 158.741808 
L 186.29584 156.548222 
L 164.801233 156.548222 
z
" style="fill:#ff6600;"/>
   </g>
   <g id="patch_84">
    <path clip-path="url(#p2f33b19d42)" d="M 164.801233 156.509738 
L 186.29584 156.509738 
L 186.29584 152.199534 
L 164.801233 152.199534 
z
" style="fill:#008000;"/>
   </g>
   <g id="patch_85">
    <path clip-path="url(#p2f33b19d42)" d="M 164.801233 152.16105 
L 186.29584 152.16105 
L 186.29584 149.813528 
L 164.801233 149.813528 
z
" style="fill:#ff0000;"/>
   </g>
   <g id="patch_86">
    <path clip-path="url(#p2f33b19d42)" d="M 164.801233 149.775044 
L 186.29584 149.775044 
L 186.29584 147.850845 
L 164.801233 147.850845 
z
" style="fill:#99ccff;"/>
   </g>
   <g id="patch_87">
    <path clip-path="url(#p2f33b19d42)" d="M 164.801233 147.812362 
L 186.29584 147.812362 
L 186.29584 144.69516 
L 164.801233 144.69516 
z
" style="fill:#ff0000;"/>
   </g>
   <g id="patch_88">
    <path clip-path="url(#p2f33b19d42)" d="M 164.801233 144.656676 
L 186.29584 144.656676 
L 186.29584 142.347638 
L 164.801233 142.347638 
z
" style="fill:#ffc0cb;"/>
   </g>
   <g id="patch_89">
    <path clip-path="url(#p2f33b19d42)" d="M 164.801233 142.309155 
L 186.29584 142.309155 
L 186.29584 138.614694 
L 164.801233 138.614694 
z
" style="fill:#ff0000;"/>
   </g>
   <g id="patch_90">
    <path clip-path="url(#p2f33b19d42)" d="M 164.801233 138.57621 
L 186.29584 138.57621 
L 186.29584 135.189621 
L 164.801233 135.189621 
z
" style="fill:#ff6600;"/>
   </g>
   <g id="patch_91">
    <path clip-path="url(#p2f33b19d42)" d="M 164.801233 135.151137 
L 186.29584 135.151137 
L 186.29584 130.533061 
L 164.801233 130.533061 
z
" style="fill:#00ff00;"/>
   </g>
   <g id="patch_92">
    <path clip-path="url(#p2f33b19d42)" d="M 164.801233 130.494577 
L 186.29584 130.494577 
L 186.29584 130.22519 
L 164.801233 130.22519 
z
" style="fill:#ffc0cb;"/>
   </g>
   <g id="patch_93">
    <path clip-path="url(#p2f33b19d42)" d="M 164.801233 130.186706 
L 186.29584 130.186706 
L 186.29584 128.916735 
L 164.801233 128.916735 
z
" style="fill:#00ff00;"/>
   </g>
   <g id="patch_94">
    <path clip-path="url(#p2f33b19d42)" d="M 164.801233 128.878251 
L 186.29584 128.878251 
L 186.29584 126.261341 
L 164.801233 126.261341 
z
" style="fill:#ff0000;"/>
   </g>
   <g id="patch_95">
    <path clip-path="url(#p2f33b19d42)" d="M 164.801233 126.222857 
L 186.29584 126.222857 
L 186.29584 125.607114 
L 164.801233 125.607114 
z
" style="fill:#808000;"/>
   </g>
   <g id="patch_96">
    <path clip-path="url(#p2f33b19d42)" d="M 164.801233 125.56863 
L 186.29584 125.56863 
L 186.29584 119.218776 
L 164.801233 119.218776 
z
" style="fill:#008080;"/>
   </g>
   <g id="patch_97">
    <path clip-path="url(#p2f33b19d42)" d="M 164.801233 119.180292 
L 186.29584 119.180292 
L 186.29584 116.909738 
L 164.801233 116.909738 
z
" style="fill:#808000;"/>
   </g>
   <g id="patch_98">
    <path clip-path="url(#p2f33b19d42)" d="M 164.801233 116.871254 
L 186.29584 116.871254 
L 186.29584 115.408863 
L 164.801233 115.408863 
z
" style="fill:#ffa500;"/>
   </g>
   <g id="patch_99">
    <path clip-path="url(#p2f33b19d42)" d="M 164.801233 115.370379 
L 186.29584 115.370379 
L 186.29584 102.86309 
L 164.801233 102.86309 
z
" style="fill:#ff6600;"/>
   </g>
   <g id="patch_100">
    <path clip-path="url(#p2f33b19d42)" d="M 164.801233 102.824606 
L 186.29584 102.824606 
L 186.29584 92.703324 
L 164.801233 92.703324 
z
" style="fill:#c0c0c0;"/>
   </g>
   <g id="patch_101">
    <path clip-path="url(#p2f33b19d42)" d="M 164.801233 92.66484 
L 186.29584 92.66484 
L 186.29584 92.049096 
L 164.801233 92.049096 
z
" style="fill:#ff00ff;"/>
   </g>
   <g id="patch_102">
    <path clip-path="url(#p2f33b19d42)" d="M 164.801233 92.010612 
L 186.29584 92.010612 
L 186.29584 87.931312 
L 164.801233 87.931312 
z
" style="fill:#ff0000;"/>
   </g>
   <g id="patch_103">
    <path clip-path="url(#p2f33b19d42)" d="M 164.801233 87.892828 
L 186.29584 87.892828 
L 186.29584 84.891079 
L 164.801233 84.891079 
z
" style="fill:#c0c0c0;"/>
   </g>
   <g id="patch_104">
    <path clip-path="url(#p2f33b19d42)" d="M 164.801233 84.852595 
L 186.29584 84.852595 
L 186.29584 83.197784 
L 164.801233 83.197784 
z
" style="fill:#ffc0cb;"/>
   </g>
   <g id="patch_105">
    <path clip-path="url(#p2f33b19d42)" d="M 164.801233 83.1593 
L 186.29584 83.1593 
L 186.29584 78.310321 
L 164.801233 78.310321 
z
" style="fill:#ff6600;"/>
   </g>
   <g id="patch_106">
    <path clip-path="url(#p2f33b19d42)" d="M 207.790447 224.241516 
L 229.285054 224.241516 
L 229.285054 214.543557 
L 207.790447 214.543557 
z
" style="fill:#ff6600;"/>
   </g>
   <g id="patch_107">
    <path clip-path="url(#p2f33b19d42)" d="M 207.790447 214.505073 
L 229.285054 214.505073 
L 229.285054 212.196035 
L 207.790447 212.196035 
z
" style="fill:#c0c0c0;"/>
   </g>
   <g id="patch_108">
    <path clip-path="url(#p2f33b19d42)" d="M 207.790447 212.157551 
L 229.285054 212.157551 
L 229.285054 211.734227 
L 207.790447 211.734227 
z
" style="fill:#ffc0cb;"/>
   </g>
   <g id="patch_109">
    <path clip-path="url(#p2f33b19d42)" d="M 207.790447 211.695743 
L 229.285054 211.695743 
L 229.285054 207.154636 
L 207.790447 207.154636 
z
" style="fill:#00ffff;"/>
   </g>
   <g id="patch_110">
    <path clip-path="url(#p2f33b19d42)" d="M 207.790447 207.116152 
L 229.285054 207.116152 
L 229.285054 201.535977 
L 207.790447 201.535977 
z
" style="fill:#9acd32;"/>
   </g>
   <g id="patch_111">
    <path clip-path="url(#p2f33b19d42)" d="M 207.790447 201.497493 
L 229.285054 201.497493 
L 229.285054 199.496327 
L 207.790447 199.496327 
z
" style="fill:#008000;"/>
   </g>
   <g id="patch_112">
    <path clip-path="url(#p2f33b19d42)" d="M 207.790447 199.457843 
L 229.285054 199.457843 
L 229.285054 197.88 
L 207.790447 197.88 
z
" style="fill:#00ffff;"/>
   </g>
   <g id="patch_113">
    <path clip-path="url(#p2f33b19d42)" d="M 207.790447 197.841516 
L 229.285054 197.841516 
L 229.285054 192.607697 
L 207.790447 192.607697 
z
" style="fill:#00ff00;"/>
   </g>
   <g id="patch_114">
    <path clip-path="url(#p2f33b19d42)" d="M 207.790447 192.569213 
L 229.285054 192.569213 
L 229.285054 191.029854 
L 207.790447 191.029854 
z
" style="fill:#808000;"/>
   </g>
   <g id="patch_115">
    <path clip-path="url(#p2f33b19d42)" d="M 207.790447 190.99137 
L 229.285054 190.99137 
L 229.285054 187.874169 
L 207.790447 187.874169 
z
" style="fill:#800080;"/>
   </g>
   <g id="patch_116">
    <path clip-path="url(#p2f33b19d42)" d="M 207.790447 187.835685 
L 229.285054 187.835685 
L 229.285054 181.947638 
L 207.790447 181.947638 
z
" style="fill:#008000;"/>
   </g>
   <g id="patch_117">
    <path clip-path="url(#p2f33b19d42)" d="M 207.790447 181.909155 
L 229.285054 181.909155 
L 229.285054 175.36688 
L 207.790447 175.36688 
z
" style="fill:#ffa500;"/>
   </g>
   <g id="patch_118">
    <path clip-path="url(#p2f33b19d42)" d="M 207.790447 175.328397 
L 229.285054 175.328397 
L 229.285054 168.786122 
L 207.790447 168.786122 
z
" style="fill:#008000;"/>
   </g>
   <g id="patch_119">
    <path clip-path="url(#p2f33b19d42)" d="M 207.790447 168.747638 
L 229.285054 168.747638 
L 229.285054 165.668921 
L 207.790447 165.668921 
z
" style="fill:#ffa500;"/>
   </g>
   <g id="patch_120">
    <path clip-path="url(#p2f33b19d42)" d="M 207.790447 165.630437 
L 229.285054 165.630437 
L 229.285054 161.743557 
L 207.790447 161.743557 
z
" style="fill:#c0c0c0;"/>
   </g>
   <g id="patch_121">
    <path clip-path="url(#p2f33b19d42)" d="M 207.790447 161.705073 
L 229.285054 161.705073 
L 229.285054 159.280583 
L 207.790447 159.280583 
z
" style="fill:#808000;"/>
   </g>
   <g id="patch_122">
    <path clip-path="url(#p2f33b19d42)" d="M 207.790447 159.242099 
L 229.285054 159.242099 
L 229.285054 158.934227 
L 207.790447 158.934227 
z
" style="fill:#ffc0cb;"/>
   </g>
   <g id="patch_123">
    <path clip-path="url(#p2f33b19d42)" d="M 207.790447 158.895743 
L 229.285054 158.895743 
L 229.285054 154.739475 
L 207.790447 154.739475 
z
" style="fill:#00ff00;"/>
   </g>
   <g id="patch_124">
    <path clip-path="url(#p2f33b19d42)" d="M 207.790447 154.700991 
L 229.285054 154.700991 
L 229.285054 151.083499 
L 207.790447 151.083499 
z
" style="fill:#00ffff;"/>
   </g>
   <g id="patch_125">
    <path clip-path="url(#p2f33b19d42)" d="M 207.790447 151.045015 
L 229.285054 151.045015 
L 229.285054 148.96688 
L 207.790447 148.96688 
z
" style="fill:#008000;"/>
   </g>
   <g id="patch_126">
    <path clip-path="url(#p2f33b19d42)" d="M 207.790447 148.928397 
L 229.285054 148.928397 
L 229.285054 142.001283 
L 207.790447 142.001283 
z
" style="fill:#9acd32;"/>
   </g>
   <g id="patch_127">
    <path clip-path="url(#p2f33b19d42)" d="M 207.790447 141.962799 
L 229.285054 141.962799 
L 229.285054 137.806531 
L 207.790447 137.806531 
z
" style="fill:#00ffff;"/>
   </g>
   <g id="patch_128">
    <path clip-path="url(#p2f33b19d42)" d="M 207.790447 137.768047 
L 229.285054 137.768047 
L 229.285054 136.074752 
L 207.790447 136.074752 
z
" style="fill:#ffc0cb;"/>
   </g>
   <g id="patch_129">
    <path clip-path="url(#p2f33b19d42)" d="M 207.790447 136.036268 
L 229.285054 136.036268 
L 229.285054 135.420525 
L 207.790447 135.420525 
z
" style="fill:#c0c0c0;"/>
   </g>
   <g id="patch_130">
    <path clip-path="url(#p2f33b19d42)" d="M 207.790447 135.382041 
L 229.285054 135.382041 
L 229.285054 127.60828 
L 207.790447 127.60828 
z
" style="fill:#ff6600;"/>
   </g>
   <g id="patch_131">
    <path clip-path="url(#p2f33b19d42)" d="M 207.790447 127.569796 
L 229.285054 127.569796 
L 229.285054 124.106239 
L 207.790447 124.106239 
z
" style="fill:#ffa500;"/>
   </g>
   <g id="patch_132">
    <path clip-path="url(#p2f33b19d42)" d="M 207.790447 124.067755 
L 229.285054 124.067755 
L 229.285054 116.06309 
L 207.790447 116.06309 
z
" style="fill:#008000;"/>
   </g>
   <g id="patch_133">
    <path clip-path="url(#p2f33b19d42)" d="M 207.790447 116.024606 
L 229.285054 116.024606 
L 229.285054 109.520816 
L 207.790447 109.520816 
z
" style="fill:#ffa500;"/>
   </g>
   <g id="patch_134">
    <path clip-path="url(#p2f33b19d42)" d="M 207.790447 109.482332 
L 229.285054 109.482332 
L 229.285054 102.093411 
L 207.790447 102.093411 
z
" style="fill:#c0c0c0;"/>
   </g>
   <g id="patch_135">
    <path clip-path="url(#p2f33b19d42)" d="M 207.790447 102.054927 
L 229.285054 102.054927 
L 229.285054 100.477085 
L 207.790447 100.477085 
z
" style="fill:#9acd32;"/>
   </g>
   <g id="patch_136">
    <path clip-path="url(#p2f33b19d42)" d="M 207.790447 100.438601 
L 229.285054 100.438601 
L 229.285054 98.360466 
L 207.790447 98.360466 
z
" style="fill:#00ff00;"/>
   </g>
   <g id="patch_137">
    <path clip-path="url(#p2f33b19d42)" d="M 207.790447 98.321983 
L 229.285054 98.321983 
L 229.285054 95.281749 
L 207.790447 95.281749 
z
" style="fill:#ff00ff;"/>
   </g>
   <g id="patch_138">
    <path clip-path="url(#p2f33b19d42)" d="M 207.790447 95.243265 
L 229.285054 95.243265 
L 229.285054 91.972128 
L 207.790447 91.972128 
z
" style="fill:#c0c0c0;"/>
   </g>
   <g id="patch_139">
    <path clip-path="url(#p2f33b19d42)" d="M 207.790447 91.933644 
L 229.285054 91.933644 
L 229.285054 82.274169 
L 207.790447 82.274169 
z
" style="fill:#99ccff;"/>
   </g>
   <g id="patch_140">
    <path clip-path="url(#p2f33b19d42)" d="M 250.779661 224.241516 
L 272.274268 224.241516 
L 272.274268 222.817609 
L 250.779661 222.817609 
z
" style="fill:#9acd32;"/>
   </g>
   <g id="patch_141">
    <path clip-path="url(#p2f33b19d42)" d="M 250.779661 222.779125 
L 272.274268 222.779125 
L 272.274268 212.73481 
L 250.779661 212.73481 
z
" style="fill:#ffc0cb;"/>
   </g>
   <g id="patch_142">
    <path clip-path="url(#p2f33b19d42)" d="M 250.779661 212.696327 
L 272.274268 212.696327 
L 272.274268 208.116735 
L 250.779661 208.116735 
z
" style="fill:#00ff00;"/>
   </g>
   <g id="patch_143">
    <path clip-path="url(#p2f33b19d42)" d="M 250.779661 208.078251 
L 272.274268 208.078251 
L 272.274268 205.114985 
L 250.779661 205.114985 
z
" style="fill:#008000;"/>
   </g>
   <g id="patch_144">
    <path clip-path="url(#p2f33b19d42)" d="M 250.779661 205.076501 
L 272.274268 205.076501 
L 272.274268 200.150554 
L 250.779661 200.150554 
z
" style="fill:#800080;"/>
   </g>
   <g id="patch_145">
    <path clip-path="url(#p2f33b19d42)" d="M 250.779661 200.11207 
L 272.274268 200.11207 
L 272.274268 195.186122 
L 250.779661 195.186122 
z
" style="fill:#ff0000;"/>
   </g>
   <g id="patch_146">
    <path clip-path="url(#p2f33b19d42)" d="M 250.779661 195.147638 
L 272.274268 195.147638 
L 272.274268 189.182624 
L 250.779661 189.182624 
z
" style="fill:#00ffff;"/>
   </g>
   <g id="patch_147">
    <path clip-path="url(#p2f33b19d42)" d="M 250.779661 189.14414 
L 272.274268 189.14414 
L 272.274268 187.758717 
L 250.779661 187.758717 
z
" style="fill:#008000;"/>
   </g>
   <g id="patch_148">
    <path clip-path="url(#p2f33b19d42)" d="M 250.779661 187.720233 
L 272.274268 187.720233 
L 272.274268 178.868921 
L 250.779661 178.868921 
z
" style="fill:#ff6600;"/>
   </g>
   <g id="patch_149">
    <path clip-path="url(#p2f33b19d42)" d="M 250.779661 178.830437 
L 272.274268 178.830437 
L 272.274268 173.750554 
L 250.779661 173.750554 
z
" style="fill:#9acd32;"/>
   </g>
   <g id="patch_150">
    <path clip-path="url(#p2f33b19d42)" d="M 250.779661 173.71207 
L 272.274268 173.71207 
L 272.274268 172.634519 
L 250.779661 172.634519 
z
" style="fill:#00ffff;"/>
   </g>
   <g id="patch_151">
    <path clip-path="url(#p2f33b19d42)" d="M 250.779661 172.596035 
L 272.274268 172.596035 
L 272.274268 169.44035 
L 250.779661 169.44035 
z
" style="fill:#00ff00;"/>
   </g>
   <g id="patch_152">
    <path clip-path="url(#p2f33b19d42)" d="M 250.779661 169.401866 
L 272.274268 169.401866 
L 272.274268 168.016443 
L 250.779661 168.016443 
z
" style="fill:#800080;"/>
   </g>
   <g id="patch_153">
    <path clip-path="url(#p2f33b19d42)" d="M 250.779661 167.977959 
L 272.274268 167.977959 
L 272.274268 165.899825 
L 250.779661 165.899825 
z
" style="fill:#808000;"/>
   </g>
   <g id="patch_154">
    <path clip-path="url(#p2f33b19d42)" d="M 250.779661 165.861341 
L 272.274268 165.861341 
L 272.274268 164.629854 
L 250.779661 164.629854 
z
" style="fill:#800080;"/>
   </g>
   <g id="patch_155">
    <path clip-path="url(#p2f33b19d42)" d="M 250.779661 164.59137 
L 272.274268 164.59137 
L 272.274268 161.897493 
L 250.779661 161.897493 
z
" style="fill:#00ff00;"/>
   </g>
   <g id="patch_156">
    <path clip-path="url(#p2f33b19d42)" d="M 250.779661 161.859009 
L 272.274268 161.859009 
L 272.274268 160.742974 
L 250.779661 160.742974 
z
" style="fill:#ffa500;"/>
   </g>
   <g id="patch_157">
    <path clip-path="url(#p2f33b19d42)" d="M 250.779661 160.70449 
L 272.274268 160.70449 
L 272.274268 158.972711 
L 250.779661 158.972711 
z
" style="fill:#ff6600;"/>
   </g>
   <g id="patch_158">
    <path clip-path="url(#p2f33b19d42)" d="M 250.779661 158.934227 
L 272.274268 158.934227 
L 272.274268 158.241516 
L 250.779661 158.241516 
z
" style="fill:#008000;"/>
   </g>
   <g id="patch_159">
    <path clip-path="url(#p2f33b19d42)" d="M 250.779661 158.203032 
L 272.274268 158.203032 
L 272.274268 157.587289 
L 250.779661 157.587289 
z
" style="fill:#ff0000;"/>
   </g>
   <g id="patch_160">
    <path clip-path="url(#p2f33b19d42)" d="M 250.779661 157.548805 
L 272.274268 157.548805 
L 272.274268 156.317318 
L 250.779661 156.317318 
z
" style="fill:#ff00ff;"/>
   </g>
   <g id="patch_161">
    <path clip-path="url(#p2f33b19d42)" d="M 250.779661 156.278834 
L 272.274268 156.278834 
L 272.274268 154.624023 
L 250.779661 154.624023 
z
" style="fill:#008000;"/>
   </g>
   <g id="patch_162">
    <path clip-path="url(#p2f33b19d42)" d="M 250.779661 154.585539 
L 272.274268 154.585539 
L 272.274268 151.77621 
L 250.779661 151.77621 
z
" style="fill:#c0c0c0;"/>
   </g>
   <g id="patch_163">
    <path clip-path="url(#p2f33b19d42)" d="M 250.779661 151.737726 
L 272.274268 151.737726 
L 272.274268 147.927813 
L 250.779661 147.927813 
z
" style="fill:#ff6600;"/>
   </g>
   <g id="patch_164">
    <path clip-path="url(#p2f33b19d42)" d="M 250.779661 147.889329 
L 272.274268 147.889329 
L 272.274268 138.999534 
L 250.779661 138.999534 
z
" style="fill:#00ff00;"/>
   </g>
   <g id="patch_165">
    <path clip-path="url(#p2f33b19d42)" d="M 250.779661 138.96105 
L 272.274268 138.96105 
L 272.274268 138.229854 
L 250.779661 138.229854 
z
" style="fill:#00ffff;"/>
   </g>
   <g id="patch_166">
    <path clip-path="url(#p2f33b19d42)" d="M 250.779661 138.19137 
L 272.274268 138.19137 
L 272.274268 136.113236 
L 250.779661 136.113236 
z
" style="fill:#ff0000;"/>
   </g>
   <g id="patch_167">
    <path clip-path="url(#p2f33b19d42)" d="M 250.779661 136.074752 
L 272.274268 136.074752 
L 272.274268 132.26484 
L 250.779661 132.26484 
z
" style="fill:#800080;"/>
   </g>
   <g id="patch_168">
    <path clip-path="url(#p2f33b19d42)" d="M 250.779661 132.226356 
L 272.274268 132.226356 
L 272.274268 127.531312 
L 250.779661 127.531312 
z
" style="fill:#c0c0c0;"/>
   </g>
   <g id="patch_169">
    <path clip-path="url(#p2f33b19d42)" d="M 250.779661 127.492828 
L 272.274268 127.492828 
L 272.274268 122.682332 
L 250.779661 122.682332 
z
" style="fill:#ff00ff;"/>
   </g>
   <g id="patch_170">
    <path clip-path="url(#p2f33b19d42)" d="M 250.779661 122.643848 
L 272.274268 122.643848 
L 272.274268 120.065423 
L 250.779661 120.065423 
z
" style="fill:#808000;"/>
   </g>
   <g id="patch_171">
    <path clip-path="url(#p2f33b19d42)" d="M 250.779661 120.026939 
L 272.274268 120.026939 
L 272.274268 114.639184 
L 250.779661 114.639184 
z
" style="fill:#008000;"/>
   </g>
   <g id="patch_172">
    <path clip-path="url(#p2f33b19d42)" d="M 293.768875 224.241516 
L 315.263482 224.241516 
L 315.263482 222.817609 
L 293.768875 222.817609 
z
" style="fill:#00ffff;"/>
   </g>
   <g id="patch_173">
    <path clip-path="url(#p2f33b19d42)" d="M 293.768875 222.779125 
L 315.263482 222.779125 
L 315.263482 216.429271 
L 293.768875 216.429271 
z
" style="fill:#008000;"/>
   </g>
   <g id="patch_174">
    <path clip-path="url(#p2f33b19d42)" d="M 293.768875 216.390787 
L 315.263482 216.390787 
L 315.263482 213.542974 
L 293.768875 213.542974 
z
" style="fill:#800080;"/>
   </g>
   <g id="patch_175">
    <path clip-path="url(#p2f33b19d42)" d="M 293.768875 213.50449 
L 315.263482 213.50449 
L 315.263482 213.350554 
L 293.768875 213.350554 
z
" style="fill:#008000;"/>
   </g>
   <g id="patch_176">
    <path clip-path="url(#p2f33b19d42)" d="M 293.768875 213.31207 
L 315.263482 213.31207 
L 315.263482 211.618776 
L 293.768875 211.618776 
z
" style="fill:#800080;"/>
   </g>
   <g id="patch_177">
    <path clip-path="url(#p2f33b19d42)" d="M 293.768875 211.580292 
L 315.263482 211.580292 
L 315.263482 207.500991 
L 293.768875 207.500991 
z
" style="fill:#ff0000;"/>
   </g>
   <g id="patch_178">
    <path clip-path="url(#p2f33b19d42)" d="M 293.768875 207.462507 
L 315.263482 207.462507 
L 315.263482 207.039184 
L 293.768875 207.039184 
z
" style="fill:#c0c0c0;"/>
   </g>
   <g id="patch_179">
    <path clip-path="url(#p2f33b19d42)" d="M 293.768875 207.0007 
L 315.263482 207.0007 
L 315.263482 206.692828 
L 293.768875 206.692828 
z
" style="fill:#ff0000;"/>
   </g>
   <g id="patch_180">
    <path clip-path="url(#p2f33b19d42)" d="M 293.768875 206.654344 
L 315.263482 206.654344 
L 315.263482 203.267755 
L 293.768875 203.267755 
z
" style="fill:#00ffff;"/>
   </g>
   <g id="patch_181">
    <path clip-path="url(#p2f33b19d42)" d="M 293.768875 203.229271 
L 315.263482 203.229271 
L 315.263482 194.570379 
L 293.768875 194.570379 
z
" style="fill:#00ff00;"/>
   </g>
   <g id="patch_182">
    <path clip-path="url(#p2f33b19d42)" d="M 293.768875 194.531895 
L 315.263482 194.531895 
L 315.263482 194.147055 
L 293.768875 194.147055 
z
" style="fill:#ff6600;"/>
   </g>
   <g id="patch_183">
    <path clip-path="url(#p2f33b19d42)" d="M 293.768875 194.108571 
L 315.263482 194.108571 
L 315.263482 193.916152 
L 293.768875 193.916152 
z
" style="fill:#9acd32;"/>
   </g>
   <g id="patch_184">
    <path clip-path="url(#p2f33b19d42)" d="M 293.768875 193.877668 
L 315.263482 193.877668 
L 315.263482 192.530729 
L 293.768875 192.530729 
z
" style="fill:#ff6600;"/>
   </g>
   <g id="patch_185">
    <path clip-path="url(#p2f33b19d42)" d="M 293.768875 192.492245 
L 315.263482 192.492245 
L 315.263482 191.607114 
L 293.768875 191.607114 
z
" style="fill:#c0c0c0;"/>
   </g>
   <g id="patch_186">
    <path clip-path="url(#p2f33b19d42)" d="M 293.768875 191.56863 
L 315.263482 191.56863 
L 315.263482 186.565714 
L 293.768875 186.565714 
z
" style="fill:#9acd32;"/>
   </g>
   <g id="patch_187">
    <path clip-path="url(#p2f33b19d42)" d="M 293.768875 186.52723 
L 315.263482 186.52723 
L 315.263482 181.177959 
L 293.768875 181.177959 
z
" style="fill:#808000;"/>
   </g>
   <g id="patch_188">
    <path clip-path="url(#p2f33b19d42)" d="M 293.768875 181.139475 
L 315.263482 181.139475 
L 315.263482 175.289913 
L 293.768875 175.289913 
z
" style="fill:#ff00ff;"/>
   </g>
   <g id="patch_189">
    <path clip-path="url(#p2f33b19d42)" d="M 293.768875 175.251429 
L 315.263482 175.251429 
L 315.263482 173.481166 
L 293.768875 173.481166 
z
" style="fill:#ff6600;"/>
   </g>
   <g id="patch_190">
    <path clip-path="url(#p2f33b19d42)" d="M 293.768875 173.442682 
L 315.263482 173.442682 
L 315.263482 165.399534 
L 293.768875 165.399534 
z
" style="fill:#c0c0c0;"/>
   </g>
   <g id="patch_191">
    <path clip-path="url(#p2f33b19d42)" d="M 293.768875 165.36105 
L 315.263482 165.36105 
L 315.263482 164.052595 
L 293.768875 164.052595 
z
" style="fill:#ff0000;"/>
   </g>
   <g id="patch_192">
    <path clip-path="url(#p2f33b19d42)" d="M 293.768875 164.014111 
L 315.263482 164.014111 
L 315.263482 160.396618 
L 293.768875 160.396618 
z
" style="fill:#ffc0cb;"/>
   </g>
   <g id="patch_193">
    <path clip-path="url(#p2f33b19d42)" d="M 293.768875 160.358134 
L 315.263482 160.358134 
L 315.263482 157.279417 
L 293.768875 157.279417 
z
" style="fill:#ff0000;"/>
   </g>
   <g id="patch_194">
    <path clip-path="url(#p2f33b19d42)" d="M 293.768875 157.240933 
L 315.263482 157.240933 
L 315.263482 156.04793 
L 293.768875 156.04793 
z
" style="fill:#99ccff;"/>
   </g>
   <g id="patch_195">
    <path clip-path="url(#p2f33b19d42)" d="M 293.768875 156.009446 
L 315.263482 156.009446 
L 315.263482 152.045598 
L 293.768875 152.045598 
z
" style="fill:#ff0000;"/>
   </g>
   <g id="patch_196">
    <path clip-path="url(#p2f33b19d42)" d="M 293.768875 152.007114 
L 315.263482 152.007114 
L 315.263482 151.506822 
L 293.768875 151.506822 
z
" style="fill:#008000;"/>
   </g>
   <g id="patch_197">
    <path clip-path="url(#p2f33b19d42)" d="M 293.768875 151.468338 
L 315.263482 151.468338 
L 315.263482 149.967464 
L 293.768875 149.967464 
z
" style="fill:#00ff00;"/>
   </g>
   <g id="patch_198">
    <path clip-path="url(#p2f33b19d42)" d="M 293.768875 149.92898 
L 315.263482 149.92898 
L 315.263482 149.082332 
L 293.768875 149.082332 
z
" style="fill:#008000;"/>
   </g>
   <g id="patch_199">
    <path clip-path="url(#p2f33b19d42)" d="M 293.768875 149.043848 
L 315.263482 149.043848 
L 315.263482 146.157551 
L 293.768875 146.157551 
z
" style="fill:#00ff00;"/>
   </g>
   <g id="patch_200">
    <path clip-path="url(#p2f33b19d42)" d="M 293.768875 146.119067 
L 315.263482 146.119067 
L 315.263482 144.233353 
L 293.768875 144.233353 
z
" style="fill:#ff6600;"/>
   </g>
   <g id="patch_201">
    <path clip-path="url(#p2f33b19d42)" d="M 336.758089 224.241516 
L 358.252696 224.241516 
L 358.252696 221.432187 
L 336.758089 221.432187 
z
" style="fill:#808000;"/>
   </g>
   <g id="patch_202">
    <path clip-path="url(#p2f33b19d42)" d="M 336.758089 221.393703 
L 358.252696 221.393703 
L 358.252696 213.812362 
L 336.758089 213.812362 
z
" style="fill:#99ccff;"/>
   </g>
   <g id="patch_203">
    <path clip-path="url(#p2f33b19d42)" d="M 336.758089 213.773878 
L 358.252696 213.773878 
L 358.252696 212.234519 
L 336.758089 212.234519 
z
" style="fill:#ff0000;"/>
   </g>
   <g id="patch_204">
    <path clip-path="url(#p2f33b19d42)" d="M 336.758089 212.196035 
L 358.252696 212.196035 
L 358.252696 210.040933 
L 336.758089 210.040933 
z
" style="fill:#99ccff;"/>
   </g>
   <g id="patch_205">
    <path clip-path="url(#p2f33b19d42)" d="M 336.758089 210.002449 
L 358.252696 210.002449 
L 358.252696 207.039184 
L 336.758089 207.039184 
z
" style="fill:#808000;"/>
   </g>
   <g id="patch_206">
    <path clip-path="url(#p2f33b19d42)" d="M 336.758089 207.0007 
L 358.252696 207.0007 
L 358.252696 199.034519 
L 336.758089 199.034519 
z
" style="fill:#ffc0cb;"/>
   </g>
   <g id="patch_207">
    <path clip-path="url(#p2f33b19d42)" d="M 336.758089 198.996035 
L 358.252696 198.996035 
L 358.252696 195.186122 
L 336.758089 195.186122 
z
" style="fill:#9acd32;"/>
   </g>
   <g id="patch_208">
    <path clip-path="url(#p2f33b19d42)" d="M 336.758089 195.147638 
L 358.252696 195.147638 
L 358.252696 191.722566 
L 336.758089 191.722566 
z
" style="fill:#00ff00;"/>
   </g>
   <g id="patch_209">
    <path clip-path="url(#p2f33b19d42)" d="M 336.758089 191.684082 
L 358.252696 191.684082 
L 358.252696 188.374461 
L 336.758089 188.374461 
z
" style="fill:#ffc0cb;"/>
   </g>
   <g id="patch_210">
    <path clip-path="url(#p2f33b19d42)" d="M 336.758089 188.335977 
L 358.252696 188.335977 
L 358.252696 186.873586 
L 336.758089 186.873586 
z
" style="fill:#008000;"/>
   </g>
   <g id="patch_211">
    <path clip-path="url(#p2f33b19d42)" d="M 336.758089 186.835102 
L 358.252696 186.835102 
L 358.252696 184.87242 
L 336.758089 184.87242 
z
" style="fill:#ff6600;"/>
   </g>
   <g id="patch_212">
    <path clip-path="url(#p2f33b19d42)" d="M 336.758089 184.833936 
L 358.252696 184.833936 
L 358.252696 183.948805 
L 336.758089 183.948805 
z
" style="fill:#ff0000;"/>
   </g>
   <g id="patch_213">
    <path clip-path="url(#p2f33b19d42)" d="M 336.758089 183.910321 
L 358.252696 183.910321 
L 358.252696 182.25551 
L 336.758089 182.25551 
z
" style="fill:#99ccff;"/>
   </g>
   <g id="patch_214">
    <path clip-path="url(#p2f33b19d42)" d="M 336.758089 182.217026 
L 358.252696 182.217026 
L 358.252696 175.905656 
L 336.758089 175.905656 
z
" style="fill:#008080;"/>
   </g>
   <g id="patch_215">
    <path clip-path="url(#p2f33b19d42)" d="M 336.758089 175.867172 
L 358.252696 175.867172 
L 358.252696 173.981458 
L 336.758089 173.981458 
z
" style="fill:#800080;"/>
   </g>
   <g id="patch_216">
    <path clip-path="url(#p2f33b19d42)" d="M 336.758089 173.942974 
L 358.252696 173.942974 
L 358.252696 169.63277 
L 336.758089 169.63277 
z
" style="fill:#99ccff;"/>
   </g>
   <g id="patch_217">
    <path clip-path="url(#p2f33b19d42)" d="M 336.758089 169.594286 
L 358.252696 169.594286 
L 358.252696 168.054927 
L 336.758089 168.054927 
z
" style="fill:#00ffff;"/>
   </g>
   <g id="patch_218">
    <path clip-path="url(#p2f33b19d42)" d="M 336.758089 168.016443 
L 358.252696 168.016443 
L 358.252696 166.938892 
L 336.758089 166.938892 
z
" style="fill:#008000;"/>
   </g>
   <g id="patch_219">
    <path clip-path="url(#p2f33b19d42)" d="M 336.758089 166.900408 
L 358.252696 166.900408 
L 358.252696 158.934227 
L 336.758089 158.934227 
z
" style="fill:#ffc0cb;"/>
   </g>
   <g id="patch_220">
    <path clip-path="url(#p2f33b19d42)" d="M 379.747304 224.241516 
L 401.241911 224.241516 
L 401.241911 222.817609 
L 379.747304 222.817609 
z
" style="fill:#ff6600;"/>
   </g>
   <g id="patch_221">
    <path clip-path="url(#p2f33b19d42)" d="M 379.747304 222.779125 
L 401.241911 222.779125 
L 401.241911 214.659009 
L 379.747304 214.659009 
z
" style="fill:#ff0000;"/>
   </g>
   <g id="patch_222">
    <path clip-path="url(#p2f33b19d42)" d="M 379.747304 214.620525 
L 401.241911 214.620525 
L 401.241911 212.503907 
L 379.747304 212.503907 
z
" style="fill:#008000;"/>
   </g>
   <g id="patch_223">
    <path clip-path="url(#p2f33b19d42)" d="M 379.747304 212.465423 
L 401.241911 212.465423 
L 401.241911 210.656676 
L 379.747304 210.656676 
z
" style="fill:#808000;"/>
   </g>
   <g id="patch_224">
    <path clip-path="url(#p2f33b19d42)" d="M 379.747304 210.618192 
L 401.241911 210.618192 
L 401.241911 209.04035 
L 379.747304 209.04035 
z
" style="fill:#9acd32;"/>
   </g>
   <g id="patch_225">
    <path clip-path="url(#p2f33b19d42)" d="M 379.747304 209.001866 
L 401.241911 209.001866 
L 401.241911 202.959883 
L 379.747304 202.959883 
z
" style="fill:#99ccff;"/>
   </g>
   <g id="patch_226">
    <path clip-path="url(#p2f33b19d42)" d="M 379.747304 202.921399 
L 401.241911 202.921399 
L 401.241911 198.341808 
L 379.747304 198.341808 
z
" style="fill:#008080;"/>
   </g>
   <g id="patch_227">
    <path clip-path="url(#p2f33b19d42)" d="M 379.747304 198.303324 
L 401.241911 198.303324 
L 401.241911 195.45551 
L 379.747304 195.45551 
z
" style="fill:#800080;"/>
   </g>
   <g id="patch_228">
    <path clip-path="url(#p2f33b19d42)" d="M 379.747304 195.417026 
L 401.241911 195.417026 
L 401.241911 195.070671 
L 379.747304 195.070671 
z
" style="fill:#00ffff;"/>
   </g>
   <g id="patch_229">
    <path clip-path="url(#p2f33b19d42)" d="M 379.747304 195.032187 
L 401.241911 195.032187 
L 401.241911 185.796035 
L 379.747304 185.796035 
z
" style="fill:#9acd32;"/>
   </g>
   <g id="patch_230">
    <path clip-path="url(#p2f33b19d42)" d="M 379.747304 185.757551 
L 401.241911 185.757551 
L 401.241911 184.256676 
L 379.747304 184.256676 
z
" style="fill:#ff6600;"/>
   </g>
   <g id="patch_231">
    <path clip-path="url(#p2f33b19d42)" d="M 379.747304 184.218192 
L 401.241911 184.218192 
L 401.241911 183.063673 
L 379.747304 183.063673 
z
" style="fill:#9acd32;"/>
   </g>
   <g id="patch_232">
    <path clip-path="url(#p2f33b19d42)" d="M 379.747304 183.02519 
L 401.241911 183.02519 
L 401.241911 177.560466 
L 379.747304 177.560466 
z
" style="fill:#99ccff;"/>
   </g>
   <g id="patch_233">
    <path clip-path="url(#p2f33b19d42)" d="M 379.747304 177.521983 
L 401.241911 177.521983 
L 401.241911 175.212945 
L 379.747304 175.212945 
z
" style="fill:#9acd32;"/>
   </g>
   <g id="patch_234">
    <path clip-path="url(#p2f33b19d42)" d="M 379.747304 175.174461 
L 401.241911 175.174461 
L 401.241911 174.674169 
L 379.747304 174.674169 
z
" style="fill:#00ffff;"/>
   </g>
   <g id="patch_235">
    <path clip-path="url(#p2f33b19d42)" d="M 379.747304 174.635685 
L 401.241911 174.635685 
L 401.241911 173.173294 
L 379.747304 173.173294 
z
" style="fill:#808000;"/>
   </g>
   <g id="patch_236">
    <path clip-path="url(#p2f33b19d42)" d="M 379.747304 173.13481 
L 401.241911 173.13481 
L 401.241911 168.516735 
L 379.747304 168.516735 
z
" style="fill:#ff6600;"/>
   </g>
   <g id="patch_237">
    <path clip-path="url(#p2f33b19d42)" d="M 422.736518 224.241516 
L 444.231125 224.241516 
L 444.231125 218.238017 
L 422.736518 218.238017 
z
" style="fill:#008000;"/>
   </g>
   <g id="patch_238">
    <path clip-path="url(#p2f33b19d42)" d="M 422.736518 218.199534 
L 444.231125 218.199534 
L 444.231125 217.006531 
L 422.736518 217.006531 
z
" style="fill:#800080;"/>
   </g>
   <g id="patch_239">
    <path clip-path="url(#p2f33b19d42)" d="M 422.736518 216.968047 
L 444.231125 216.968047 
L 444.231125 208.578542 
L 422.736518 208.578542 
z
" style="fill:#008080;"/>
   </g>
   <g id="patch_240">
    <path clip-path="url(#p2f33b19d42)" d="M 422.736518 208.540058 
L 444.231125 208.540058 
L 444.231125 206.115569 
L 422.736518 206.115569 
z
" style="fill:#00ff00;"/>
   </g>
   <g id="patch_241">
    <path clip-path="url(#p2f33b19d42)" d="M 422.736518 206.077085 
L 444.231125 206.077085 
L 444.231125 200.650845 
L 422.736518 200.650845 
z
" style="fill:#ff00ff;"/>
   </g>
   <g id="patch_242">
    <path clip-path="url(#p2f33b19d42)" d="M 422.736518 200.612362 
L 444.231125 200.612362 
L 444.231125 196.379125 
L 422.736518 196.379125 
z
" style="fill:#00ff00;"/>
   </g>
   <g id="patch_243">
    <path clip-path="url(#p2f33b19d42)" d="M 422.736518 196.340641 
L 444.231125 196.340641 
L 444.231125 191.260758 
L 422.736518 191.260758 
z
" style="fill:#008000;"/>
   </g>
   <g id="patch_244">
    <path clip-path="url(#p2f33b19d42)" d="M 422.736518 191.222274 
L 444.231125 191.222274 
L 444.231125 184.48758 
L 422.736518 184.48758 
z
" style="fill:#008080;"/>
   </g>
   <g id="patch_245">
    <path clip-path="url(#p2f33b19d42)" d="M 422.736518 184.449096 
L 444.231125 184.449096 
L 444.231125 182.524898 
L 422.736518 182.524898 
z
" style="fill:#00ff00;"/>
   </g>
   <g id="patch_246">
    <path clip-path="url(#p2f33b19d42)" d="M 422.736518 182.486414 
L 444.231125 182.486414 
L 444.231125 177.59895 
L 422.736518 177.59895 
z
" style="fill:#ff00ff;"/>
   </g>
   <g id="patch_247">
    <path clip-path="url(#p2f33b19d42)" d="M 422.736518 177.560466 
L 444.231125 177.560466 
L 444.231125 173.596618 
L 422.736518 173.596618 
z
" style="fill:#00ff00;"/>
   </g>
   <g id="patch_248">
    <path clip-path="url(#p2f33b19d42)" d="M 422.736518 173.558134 
L 444.231125 173.558134 
L 444.231125 171.48 
L 422.736518 171.48 
z
" style="fill:#008000;"/>
   </g>
   <g id="patch_249">
    <path clip-path="url(#p2f33b19d42)" d="M 465.725732 224.241516 
L 487.220339 224.241516 
L 487.220339 210.271837 
L 465.725732 210.271837 
z
" style="fill:#ff6600;"/>
   </g>
   <g id="patch_250">
    <path clip-path="url(#p2f33b19d42)" d="M 465.725732 210.233353 
L 487.220339 210.233353 
L 487.220339 208.540058 
L 465.725732 208.540058 
z
" style="fill:#808000;"/>
   </g>
   <g id="patch_251">
    <path clip-path="url(#p2f33b19d42)" d="M 465.725732 208.501574 
L 487.220339 208.501574 
L 487.220339 195.878834 
L 465.725732 195.878834 
z
" style="fill:#ff6600;"/>
   </g>
   <g id="patch_252">
    <path clip-path="url(#p2f33b19d42)" d="M 465.725732 195.84035 
L 487.220339 195.84035 
L 487.220339 185.911487 
L 465.725732 185.911487 
z
" style="fill:#008000;"/>
   </g>
   <g id="patch_253">
    <path clip-path="url(#p2f33b19d42)" d="M 465.725732 185.873003 
L 487.220339 185.873003 
L 487.220339 176.983207 
L 465.725732 176.983207 
z
" style="fill:#99ccff;"/>
   </g>
   <g id="patch_254">
    <path clip-path="url(#p2f33b19d42)" d="M 465.725732 176.944723 
L 487.220339 176.944723 
L 487.220339 175.674752 
L 465.725732 175.674752 
z
" style="fill:#808000;"/>
   </g>
   <g id="patch_255">
    <path clip-path="url(#p2f33b19d42)" d="M 508.714946 224.241516 
L 530.209553 224.241516 
L 530.209553 209.42519 
L 508.714946 209.42519 
z
" style="fill:#ff6600;"/>
   </g>
   <g id="patch_256">
    <path clip-path="url(#p2f33b19d42)" d="M 508.714946 209.386706 
L 530.209553 209.386706 
L 530.209553 208.270671 
L 508.714946 208.270671 
z
" style="fill:#ff0000;"/>
   </g>
   <g id="patch_257">
    <path clip-path="url(#p2f33b19d42)" d="M 508.714946 208.232187 
L 530.209553 208.232187 
L 530.209553 205.191953 
L 508.714946 205.191953 
z
" style="fill:#800080;"/>
   </g>
   <g id="patch_258">
    <path clip-path="url(#p2f33b19d42)" d="M 508.714946 205.153469 
L 530.209553 205.153469 
L 530.209553 200.30449 
L 508.714946 200.30449 
z
" style="fill:#99ccff;"/>
   </g>
   <g id="patch_259">
    <path clip-path="url(#p2f33b19d42)" d="M 508.714946 200.266006 
L 530.209553 200.266006 
L 530.209553 191.530146 
L 508.714946 191.530146 
z
" style="fill:#ff6600;"/>
   </g>
   <g id="patch_260">
    <path clip-path="url(#p2f33b19d42)" d="M 508.714946 191.491662 
L 530.209553 191.491662 
L 530.209553 186.758134 
L 508.714946 186.758134 
z
" style="fill:#ff0000;"/>
   </g>
   <g id="patch_261">
    <path clip-path="url(#p2f33b19d42)" d="M 551.70416 224.241516 
L 573.198767 224.241516 
L 573.198767 221.547638 
L 551.70416 221.547638 
z
" style="fill:#99ccff;"/>
   </g>
   <g id="patch_262">
    <path clip-path="url(#p2f33b19d42)" d="M 551.70416 221.509155 
L 573.198767 221.509155 
L 573.198767 219.854344 
L 551.70416 219.854344 
z
" style="fill:#ff6600;"/>
   </g>
   <g id="patch_263">
    <path clip-path="url(#p2f33b19d42)" d="M 551.70416 219.81586 
L 573.198767 219.81586 
L 573.198767 215.428688 
L 551.70416 215.428688 
z
" style="fill:#ffa500;"/>
   </g>
   <g id="patch_264">
    <path clip-path="url(#p2f33b19d42)" d="M 551.70416 215.390204 
L 573.198767 215.390204 
L 573.198767 212.119067 
L 551.70416 212.119067 
z
" style="fill:#ff00ff;"/>
   </g>
   <g id="patch_265">
    <path clip-path="url(#p2f33b19d42)" d="M 551.70416 212.080583 
L 573.198767 212.080583 
L 573.198767 205.153469 
L 551.70416 205.153469 
z
" style="fill:#c0c0c0;"/>
   </g>
   <g id="patch_266">
    <path clip-path="url(#p2f33b19d42)" d="M 551.70416 205.114985 
L 573.198767 205.114985 
L 573.198767 202.575044 
L 551.70416 202.575044 
z
" style="fill:#00ff00;"/>
   </g>
   <g id="patch_267">
    <path clip-path="url(#p2f33b19d42)" d="M 551.70416 202.53656 
L 573.198767 202.53656 
L 573.198767 199.688746 
L 551.70416 199.688746 
z
" style="fill:#99ccff;"/>
   </g>
   <g id="patch_268">
    <path clip-path="url(#p2f33b19d42)" d="M 551.70416 199.650262 
L 573.198767 199.650262 
L 573.198767 198.07242 
L 551.70416 198.07242 
z
" style="fill:#00ffff;"/>
   </g>
   <g id="patch_269">
    <path clip-path="url(#p2f33b19d42)" d="M 551.70416 198.033936 
L 573.198767 198.033936 
L 573.198767 192.261341 
L 551.70416 192.261341 
z
" style="fill:#808000;"/>
   </g>
   <g id="patch_270">
    <path clip-path="url(#p2f33b19d42)" d="M 594.693374 224.241516 
L 616.187982 224.241516 
L 616.187982 221.778542 
L 594.693374 221.778542 
z
" style="fill:#008080;"/>
   </g>
   <g id="patch_271">
    <path clip-path="url(#p2f33b19d42)" d="M 594.693374 221.740058 
L 616.187982 221.740058 
L 616.187982 218.699825 
L 594.693374 218.699825 
z
" style="fill:#ff0000;"/>
   </g>
   <g id="patch_272">
    <path clip-path="url(#p2f33b19d42)" d="M 594.693374 218.661341 
L 616.187982 218.661341 
L 616.187982 216.352303 
L 594.693374 216.352303 
z
" style="fill:#008000;"/>
   </g>
   <g id="patch_273">
    <path clip-path="url(#p2f33b19d42)" d="M 594.693374 216.313819 
L 616.187982 216.313819 
L 616.187982 215.659592 
L 594.693374 215.659592 
z
" style="fill:#ff00ff;"/>
   </g>
   <g id="patch_274">
    <path clip-path="url(#p2f33b19d42)" d="M 594.693374 215.621108 
L 616.187982 215.621108 
L 616.187982 214.620525 
L 594.693374 214.620525 
z
" style="fill:#008000;"/>
   </g>
   <g id="patch_275">
    <path clip-path="url(#p2f33b19d42)" d="M 594.693374 214.582041 
L 616.187982 214.582041 
L 616.187982 213.273586 
L 594.693374 213.273586 
z
" style="fill:#ff6600;"/>
   </g>
   <g id="patch_276">
    <path clip-path="url(#p2f33b19d42)" d="M 594.693374 213.235102 
L 616.187982 213.235102 
L 616.187982 212.619359 
L 594.693374 212.619359 
z
" style="fill:#ffa500;"/>
   </g>
   <g id="patch_277">
    <path clip-path="url(#p2f33b19d42)" d="M 594.693374 212.580875 
L 616.187982 212.580875 
L 616.187982 210.810612 
L 594.693374 210.810612 
z
" style="fill:#00ff00;"/>
   </g>
   <g id="patch_278">
    <path clip-path="url(#p2f33b19d42)" d="M 594.693374 210.772128 
L 616.187982 210.772128 
L 616.187982 204.268338 
L 594.693374 204.268338 
z
" style="fill:#808000;"/>
   </g>
   <g id="matplotlib.axis_1"/>
   <g id="matplotlib.axis_2"/>
  </g>
 </g>
 <defs>
  <clipPath id="p2f33b19d42">
   <rect height="194.04" width="558" x="90" y="30.24"/>
  </clipPath>
 </defs>
</svg>
