<?xml version="1.0" encoding="utf-8" standalone="no"?>
<!DOCTYPE svg PUBLIC "-//W3C//DTD SVG 1.1//EN"
  "http://www.w3.org/Graphics/SVG/1.1/DTD/svg11.dtd">
<svg height="252pt" version="1.1" viewBox="0 0 720 252" width="720pt" xmlns="http://www.w3.org/2000/svg" xmlns:xlink="http://www.w3.org/1999/xlink">
 <metadata>
  <rdf:RDF xmlns:cc="http://creativecommons.org/ns#" xmlns:dc="http://purl.org/dc/elements/1.1/" xmlns:rdf="http://www.w3.org/1999/02/22-rdf-syntax-ns#">
   <cc:Work>
    <dc:type rdf:resource="http://purl.org/dc/dcmitype/StillImage"/>
    <dc:date>2021-11-04T16:19:22.737644</dc:date>
    <dc:format>image/svg+xml</dc:format>
    <dc:creator>
     <cc:Agent>
      <dc:title>Matplotlib v3.4.3, https://matplotlib.org/</dc:title>
     </cc:Agent>
    </dc:creator>
   </cc:Work>
  </rdf:RDF>
 </metadata>
 <defs>
  <style type="text/css">*{stroke-linecap:butt;stroke-linejoin:round;}</style>
 </defs>
 <g id="figure_1">
  <g id="patch_1">
   <path d="M 0 252 
L 720 252 
L 720 0 
L 0 0 
z
" style="fill:#ffffff;"/>
  </g>
  <g id="axes_1">
   <g id="patch_2">
    <path d="M 90 224.28 
L 648 224.28 
L 648 30.24 
L 90 30.24 
z
" style="fill:#ffffff;"/>
   </g>
   <g id="patch_3">
    <path clip-path="url(#p0719e2c701)" d="M 115.363636 224.28 
L 147.068182 224.28 
L 147.068182 223.734223 
L 115.363636 223.734223 
z
" style="fill:none;opacity:0;"/>
   </g>
   <g id="patch_4">
    <path clip-path="url(#p0719e2c701)" d="M 154.994318 224.28 
L 186.698864 224.28 
L 186.698864 223.734223 
L 154.994318 223.734223 
z
" style="fill:none;opacity:0;"/>
   </g>
   <g id="patch_5">
    <path clip-path="url(#p0719e2c701)" d="M 194.625 224.28 
L 226.329545 224.28 
L 226.329545 223.734223 
L 194.625 223.734223 
z
" style="fill:none;opacity:0;"/>
   </g>
   <g id="patch_6">
    <path clip-path="url(#p0719e2c701)" d="M 234.255682 224.28 
L 265.960227 224.28 
L 265.960227 223.734223 
L 234.255682 223.734223 
z
" style="fill:none;opacity:0;"/>
   </g>
   <g id="patch_7">
    <path clip-path="url(#p0719e2c701)" d="M 273.886364 224.28 
L 305.590909 224.28 
L 305.590909 223.734223 
L 273.886364 223.734223 
z
" style="fill:none;opacity:0;"/>
   </g>
   <g id="patch_8">
    <path clip-path="url(#p0719e2c701)" d="M 313.517045 224.28 
L 345.221591 224.28 
L 345.221591 223.734223 
L 313.517045 223.734223 
z
" style="fill:none;opacity:0;"/>
   </g>
   <g id="patch_9">
    <path clip-path="url(#p0719e2c701)" d="M 353.147727 224.28 
L 384.852273 224.28 
L 384.852273 223.734223 
L 353.147727 223.734223 
z
" style="fill:none;opacity:0;"/>
   </g>
   <g id="patch_10">
    <path clip-path="url(#p0719e2c701)" d="M 392.778409 224.28 
L 424.482955 224.28 
L 424.482955 223.734223 
L 392.778409 223.734223 
z
" style="fill:none;opacity:0;"/>
   </g>
   <g id="patch_11">
    <path clip-path="url(#p0719e2c701)" d="M 432.409091 224.28 
L 464.113636 224.28 
L 464.113636 223.734223 
L 432.409091 223.734223 
z
" style="fill:none;opacity:0;"/>
   </g>
   <g id="patch_12">
    <path clip-path="url(#p0719e2c701)" d="M 472.039773 224.28 
L 503.744318 224.28 
L 503.744318 223.734223 
L 472.039773 223.734223 
z
" style="fill:none;opacity:0;"/>
   </g>
   <g id="patch_13">
    <path clip-path="url(#p0719e2c701)" d="M 511.670455 224.28 
L 543.375 224.28 
L 543.375 223.734223 
L 511.670455 223.734223 
z
" style="fill:none;opacity:0;"/>
   </g>
   <g id="patch_14">
    <path clip-path="url(#p0719e2c701)" d="M 551.301136 224.28 
L 583.005682 224.28 
L 583.005682 223.734223 
L 551.301136 223.734223 
z
" style="fill:none;opacity:0;"/>
   </g>
   <g id="patch_15">
    <path clip-path="url(#p0719e2c701)" d="M 590.931818 224.28 
L 622.636364 224.28 
L 622.636364 223.734223 
L 590.931818 223.734223 
z
" style="fill:none;opacity:0;"/>
   </g>
   <g id="patch_16">
    <path clip-path="url(#p0719e2c701)" d="M 121.308239 224.225422 
L 141.12358 224.225422 
L 141.12358 219.968364 
L 121.308239 219.968364 
z
" style="fill:#ff00ff;"/>
   </g>
   <g id="patch_17">
    <path clip-path="url(#p0719e2c701)" d="M 121.308239 219.913786 
L 141.12358 219.913786 
L 141.12358 207.415499 
L 121.308239 207.415499 
z
" style="fill:#9acd32;"/>
   </g>
   <g id="patch_18">
    <path clip-path="url(#p0719e2c701)" d="M 121.308239 207.360921 
L 141.12358 207.360921 
L 141.12358 197.755251 
L 121.308239 197.755251 
z
" style="fill:#808000;"/>
   </g>
   <g id="patch_19">
    <path clip-path="url(#p0719e2c701)" d="M 121.308239 197.700673 
L 141.12358 197.700673 
L 141.12358 193.825659 
L 121.308239 193.825659 
z
" style="fill:#c0c0c0;"/>
   </g>
   <g id="patch_20">
    <path clip-path="url(#p0719e2c701)" d="M 121.308239 193.771081 
L 141.12358 193.771081 
L 141.12358 181.982304 
L 121.308239 181.982304 
z
" style="fill:#00ffff;"/>
   </g>
   <g id="patch_21">
    <path clip-path="url(#p0719e2c701)" d="M 121.308239 181.927726 
L 141.12358 181.927726 
L 141.12358 168.992817 
L 121.308239 168.992817 
z
" style="fill:#00ff00;"/>
   </g>
   <g id="patch_22">
    <path clip-path="url(#p0719e2c701)" d="M 121.308239 168.93824 
L 141.12358 168.93824 
L 141.12358 164.844914 
L 121.308239 164.844914 
z
" style="fill:#ff00ff;"/>
   </g>
   <g id="patch_23">
    <path clip-path="url(#p0719e2c701)" d="M 121.308239 164.790337 
L 141.12358 164.790337 
L 141.12358 148.744501 
L 121.308239 148.744501 
z
" style="fill:#9acd32;"/>
   </g>
   <g id="patch_24">
    <path clip-path="url(#p0719e2c701)" d="M 121.308239 148.689923 
L 141.12358 148.689923 
L 141.12358 123.747927 
L 121.308239 123.747927 
z
" style="fill:#00ffff;"/>
   </g>
   <g id="patch_25">
    <path clip-path="url(#p0719e2c701)" d="M 121.308239 123.693349 
L 141.12358 123.693349 
L 141.12358 107.811246 
L 121.308239 107.811246 
z
" style="fill:#00ff00;"/>
   </g>
   <g id="patch_26">
    <path clip-path="url(#p0719e2c701)" d="M 121.308239 107.756669 
L 141.12358 107.756669 
L 141.12358 90.619279 
L 121.308239 90.619279 
z
" style="fill:#c0c0c0;"/>
   </g>
   <g id="patch_27">
    <path clip-path="url(#p0719e2c701)" d="M 121.308239 90.564702 
L 141.12358 90.564702 
L 141.12358 69.716031 
L 121.308239 69.716031 
z
" style="fill:#9acd32;"/>
   </g>
   <g id="patch_28">
    <path clip-path="url(#p0719e2c701)" d="M 121.308239 69.661453 
L 141.12358 69.661453 
L 141.12358 55.962457 
L 121.308239 55.962457 
z
" style="fill:#99ccff;"/>
   </g>
   <g id="patch_29">
    <path clip-path="url(#p0719e2c701)" d="M 121.308239 55.90788 
L 141.12358 55.90788 
L 141.12358 39.48 
L 121.308239 39.48 
z
" style="fill:#008000;"/>
   </g>
   <g id="patch_30">
    <path clip-path="url(#p0719e2c701)" d="M 160.93892 224.225422 
L 180.754261 224.225422 
L 180.754261 195.681299 
L 160.93892 195.681299 
z
" style="fill:#c0c0c0;"/>
   </g>
   <g id="patch_31">
    <path clip-path="url(#p0719e2c701)" d="M 160.93892 195.626722 
L 180.754261 195.626722 
L 180.754261 142.90469 
L 160.93892 142.90469 
z
" style="fill:#99ccff;"/>
   </g>
   <g id="patch_32">
    <path clip-path="url(#p0719e2c701)" d="M 160.93892 142.850112 
L 180.754261 142.850112 
L 180.754261 130.733869 
L 160.93892 130.733869 
z
" style="fill:#ff0000;"/>
   </g>
   <g id="patch_33">
    <path clip-path="url(#p0719e2c701)" d="M 160.93892 130.679291 
L 180.754261 130.679291 
L 180.754261 112.232038 
L 160.93892 112.232038 
z
" style="fill:#ff00ff;"/>
   </g>
   <g id="patch_34">
    <path clip-path="url(#p0719e2c701)" d="M 160.93892 112.17746 
L 180.754261 112.17746 
L 180.754261 106.938004 
L 160.93892 106.938004 
z
" style="fill:#c0c0c0;"/>
   </g>
   <g id="patch_35">
    <path clip-path="url(#p0719e2c701)" d="M 160.93892 106.883426 
L 180.754261 106.883426 
L 180.754261 95.749581 
L 160.93892 95.749581 
z
" style="fill:#00ffff;"/>
   </g>
   <g id="patch_36">
    <path clip-path="url(#p0719e2c701)" d="M 160.93892 95.695003 
L 180.754261 95.695003 
L 180.754261 93.784784 
L 160.93892 93.784784 
z
" style="fill:#c0c0c0;"/>
   </g>
   <g id="patch_37">
    <path clip-path="url(#p0719e2c701)" d="M 160.93892 93.730207 
L 180.754261 93.730207 
L 180.754261 78.284725 
L 160.93892 78.284725 
z
" style="fill:#00ff00;"/>
   </g>
   <g id="patch_38">
    <path clip-path="url(#p0719e2c701)" d="M 160.93892 78.230148 
L 180.754261 78.230148 
L 180.754261 68.624477 
L 160.93892 68.624477 
z
" style="fill:#c0c0c0;"/>
   </g>
   <g id="patch_39">
    <path clip-path="url(#p0719e2c701)" d="M 160.93892 68.5699 
L 180.754261 68.5699 
L 180.754261 55.853302 
L 160.93892 55.853302 
z
" style="fill:#00ffff;"/>
   </g>
   <g id="patch_40">
    <path clip-path="url(#p0719e2c701)" d="M 160.93892 55.798724 
L 180.754261 55.798724 
L 180.754261 51.814554 
L 160.93892 51.814554 
z
" style="fill:#00ff00;"/>
   </g>
   <g id="patch_41">
    <path clip-path="url(#p0719e2c701)" d="M 200.569602 224.225422 
L 220.384943 224.225422 
L 220.384943 217.512369 
L 200.569602 217.512369 
z
" style="fill:#008000;"/>
   </g>
   <g id="patch_42">
    <path clip-path="url(#p0719e2c701)" d="M 200.569602 217.457791 
L 220.384943 217.457791 
L 220.384943 210.90847 
L 200.569602 210.90847 
z
" style="fill:#ff6600;"/>
   </g>
   <g id="patch_43">
    <path clip-path="url(#p0719e2c701)" d="M 200.569602 210.853892 
L 220.384943 210.853892 
L 220.384943 203.595062 
L 200.569602 203.595062 
z
" style="fill:#ffc0cb;"/>
   </g>
   <g id="patch_44">
    <path clip-path="url(#p0719e2c701)" d="M 200.569602 203.540484 
L 220.384943 203.540484 
L 220.384943 182.964702 
L 200.569602 182.964702 
z
" style="fill:#ff0000;"/>
   </g>
   <g id="patch_45">
    <path clip-path="url(#p0719e2c701)" d="M 200.569602 182.910124 
L 220.384943 182.910124 
L 220.384943 165.827312 
L 200.569602 165.827312 
z
" style="fill:#ff6600;"/>
   </g>
   <g id="patch_46">
    <path clip-path="url(#p0719e2c701)" d="M 200.569602 165.772735 
L 220.384943 165.772735 
L 220.384943 154.475157 
L 200.569602 154.475157 
z
" style="fill:#008000;"/>
   </g>
   <g id="patch_47">
    <path clip-path="url(#p0719e2c701)" d="M 200.569602 154.420579 
L 220.384943 154.420579 
L 220.384943 139.247986 
L 200.569602 139.247986 
z
" style="fill:#99ccff;"/>
   </g>
   <g id="patch_48">
    <path clip-path="url(#p0719e2c701)" d="M 200.569602 139.193408 
L 220.384943 139.193408 
L 220.384943 129.424005 
L 200.569602 129.424005 
z
" style="fill:#9acd32;"/>
   </g>
   <g id="patch_49">
    <path clip-path="url(#p0719e2c701)" d="M 200.569602 129.369427 
L 220.384943 129.369427 
L 220.384943 111.140484 
L 200.569602 111.140484 
z
" style="fill:#00ff00;"/>
   </g>
   <g id="patch_50">
    <path clip-path="url(#p0719e2c701)" d="M 200.569602 111.085907 
L 220.384943 111.085907 
L 220.384943 110.103509 
L 200.569602 110.103509 
z
" style="fill:#808000;"/>
   </g>
   <g id="patch_51">
    <path clip-path="url(#p0719e2c701)" d="M 200.569602 110.048931 
L 220.384943 110.048931 
L 220.384943 104.318275 
L 200.569602 104.318275 
z
" style="fill:#ff0000;"/>
   </g>
   <g id="patch_52">
    <path clip-path="url(#p0719e2c701)" d="M 200.569602 104.263698 
L 220.384943 104.263698 
L 220.384943 84.124536 
L 200.569602 84.124536 
z
" style="fill:#ff6600;"/>
   </g>
   <g id="patch_53">
    <path clip-path="url(#p0719e2c701)" d="M 200.569602 84.069959 
L 220.384943 84.069959 
L 220.384943 81.23192 
L 200.569602 81.23192 
z
" style="fill:#00ff00;"/>
   </g>
   <g id="patch_54">
    <path clip-path="url(#p0719e2c701)" d="M 200.569602 81.177342 
L 220.384943 81.177342 
L 220.384943 73.154424 
L 200.569602 73.154424 
z
" style="fill:#ff6600;"/>
   </g>
   <g id="patch_55">
    <path clip-path="url(#p0719e2c701)" d="M 200.569602 73.099846 
L 220.384943 73.099846 
L 220.384943 69.006521 
L 200.569602 69.006521 
z
" style="fill:#808000;"/>
   </g>
   <g id="patch_56">
    <path clip-path="url(#p0719e2c701)" d="M 200.569602 68.951943 
L 220.384943 68.951943 
L 220.384943 55.962457 
L 200.569602 55.962457 
z
" style="fill:#ff0000;"/>
   </g>
   <g id="patch_57">
    <path clip-path="url(#p0719e2c701)" d="M 200.569602 55.90788 
L 220.384943 55.90788 
L 220.384943 54.270549 
L 200.569602 54.270549 
z
" style="fill:#9acd32;"/>
   </g>
   <g id="patch_58">
    <path clip-path="url(#p0719e2c701)" d="M 200.569602 54.215972 
L 220.384943 54.215972 
L 220.384943 50.995889 
L 200.569602 50.995889 
z
" style="fill:#808000;"/>
   </g>
   <g id="patch_59">
    <path clip-path="url(#p0719e2c701)" d="M 240.200284 224.225422 
L 260.015625 224.225422 
L 260.015625 215.547572 
L 240.200284 215.547572 
z
" style="fill:#ff0000;"/>
   </g>
   <g id="patch_60">
    <path clip-path="url(#p0719e2c701)" d="M 240.200284 215.492995 
L 260.015625 215.492995 
L 260.015625 210.308116 
L 240.200284 210.308116 
z
" style="fill:#ff6600;"/>
   </g>
   <g id="patch_61">
    <path clip-path="url(#p0719e2c701)" d="M 240.200284 210.253538 
L 260.015625 210.253538 
L 260.015625 202.776397 
L 240.200284 202.776397 
z
" style="fill:#ffa500;"/>
   </g>
   <g id="patch_62">
    <path clip-path="url(#p0719e2c701)" d="M 240.200284 202.721819 
L 260.015625 202.721819 
L 260.015625 193.934814 
L 240.200284 193.934814 
z
" style="fill:#800080;"/>
   </g>
   <g id="patch_63">
    <path clip-path="url(#p0719e2c701)" d="M 240.200284 193.880236 
L 260.015625 193.880236 
L 260.015625 187.440071 
L 240.200284 187.440071 
z
" style="fill:#00ff00;"/>
   </g>
   <g id="patch_64">
    <path clip-path="url(#p0719e2c701)" d="M 240.200284 187.385493 
L 260.015625 187.385493 
L 260.015625 177.506934 
L 240.200284 177.506934 
z
" style="fill:#ffc0cb;"/>
   </g>
   <g id="patch_65">
    <path clip-path="url(#p0719e2c701)" d="M 240.200284 177.452357 
L 260.015625 177.452357 
L 260.015625 174.232274 
L 240.200284 174.232274 
z
" style="fill:#800080;"/>
   </g>
   <g id="patch_66">
    <path clip-path="url(#p0719e2c701)" d="M 240.200284 174.177696 
L 260.015625 174.177696 
L 260.015625 161.461099 
L 240.200284 161.461099 
z
" style="fill:#c0c0c0;"/>
   </g>
   <g id="patch_67">
    <path clip-path="url(#p0719e2c701)" d="M 240.200284 161.406521 
L 260.015625 161.406521 
L 260.015625 157.640662 
L 240.200284 157.640662 
z
" style="fill:#00ffff;"/>
   </g>
   <g id="patch_68">
    <path clip-path="url(#p0719e2c701)" d="M 240.200284 157.586084 
L 260.015625 157.586084 
L 260.015625 151.418807 
L 240.200284 151.418807 
z
" style="fill:#00ff00;"/>
   </g>
   <g id="patch_69">
    <path clip-path="url(#p0719e2c701)" d="M 240.200284 151.364229 
L 260.015625 151.364229 
L 260.015625 143.450467 
L 240.200284 143.450467 
z
" style="fill:#c0c0c0;"/>
   </g>
   <g id="patch_70">
    <path clip-path="url(#p0719e2c701)" d="M 240.200284 143.395889 
L 260.015625 143.395889 
L 260.015625 137.610656 
L 240.200284 137.610656 
z
" style="fill:#00ffff;"/>
   </g>
   <g id="patch_71">
    <path clip-path="url(#p0719e2c701)" d="M 240.200284 137.556078 
L 260.015625 137.556078 
L 260.015625 134.445151 
L 240.200284 134.445151 
z
" style="fill:#c0c0c0;"/>
   </g>
   <g id="patch_72">
    <path clip-path="url(#p0719e2c701)" d="M 240.200284 134.390573 
L 260.015625 134.390573 
L 260.015625 122.710951 
L 240.200284 122.710951 
z
" style="fill:#ff00ff;"/>
   </g>
   <g id="patch_73">
    <path clip-path="url(#p0719e2c701)" d="M 240.200284 122.656373 
L 260.015625 122.656373 
L 260.015625 108.084135 
L 240.200284 108.084135 
z
" style="fill:#ffc0cb;"/>
   </g>
   <g id="patch_74">
    <path clip-path="url(#p0719e2c701)" d="M 240.200284 108.029557 
L 260.015625 108.029557 
L 260.015625 93.18443 
L 240.200284 93.18443 
z
" style="fill:#9acd32;"/>
   </g>
   <g id="patch_75">
    <path clip-path="url(#p0719e2c701)" d="M 240.200284 93.129852 
L 260.015625 93.129852 
L 260.015625 90.018925 
L 240.200284 90.018925 
z
" style="fill:#808000;"/>
   </g>
   <g id="patch_76">
    <path clip-path="url(#p0719e2c701)" d="M 279.830966 224.225422 
L 299.646307 224.225422 
L 299.646307 202.503509 
L 279.830966 202.503509 
z
" style="fill:#008000;"/>
   </g>
   <g id="patch_77">
    <path clip-path="url(#p0719e2c701)" d="M 279.830966 202.448931 
L 299.646307 202.448931 
L 299.646307 197.482363 
L 279.830966 197.482363 
z
" style="fill:#ffa500;"/>
   </g>
   <g id="patch_78">
    <path clip-path="url(#p0719e2c701)" d="M 279.830966 197.427785 
L 299.646307 197.427785 
L 299.646307 187.112605 
L 279.830966 187.112605 
z
" style="fill:#ff6600;"/>
   </g>
   <g id="patch_79">
    <path clip-path="url(#p0719e2c701)" d="M 279.830966 187.058027 
L 299.646307 187.058027 
L 299.646307 182.364347 
L 279.830966 182.364347 
z
" style="fill:#ffc0cb;"/>
   </g>
   <g id="patch_80">
    <path clip-path="url(#p0719e2c701)" d="M 279.830966 182.30977 
L 299.646307 182.30977 
L 299.646307 159.769191 
L 279.830966 159.769191 
z
" style="fill:#ff00ff;"/>
   </g>
   <g id="patch_81">
    <path clip-path="url(#p0719e2c701)" d="M 279.830966 159.714613 
L 299.646307 159.714613 
L 299.646307 151.58254 
L 279.830966 151.58254 
z
" style="fill:#ffc0cb;"/>
   </g>
   <g id="patch_82">
    <path clip-path="url(#p0719e2c701)" d="M 279.830966 151.527962 
L 299.646307 151.527962 
L 299.646307 144.323709 
L 279.830966 144.323709 
z
" style="fill:#00ff00;"/>
   </g>
   <g id="patch_83">
    <path clip-path="url(#p0719e2c701)" d="M 279.830966 144.269132 
L 299.646307 144.269132 
L 299.646307 139.902918 
L 279.830966 139.902918 
z
" style="fill:#ffc0cb;"/>
   </g>
   <g id="patch_84">
    <path clip-path="url(#p0719e2c701)" d="M 279.830966 139.84834 
L 299.646307 139.84834 
L 299.646307 135.15466 
L 279.830966 135.15466 
z
" style="fill:#800080;"/>
   </g>
   <g id="patch_85">
    <path clip-path="url(#p0719e2c701)" d="M 279.830966 135.100083 
L 299.646307 135.100083 
L 299.646307 121.073621 
L 279.830966 121.073621 
z
" style="fill:#ffa500;"/>
   </g>
   <g id="patch_86">
    <path clip-path="url(#p0719e2c701)" d="M 279.830966 121.019043 
L 299.646307 121.019043 
L 299.646307 114.851766 
L 279.830966 114.851766 
z
" style="fill:#ff6600;"/>
   </g>
   <g id="patch_87">
    <path clip-path="url(#p0719e2c701)" d="M 279.830966 114.797188 
L 299.646307 114.797188 
L 299.646307 104.154542 
L 279.830966 104.154542 
z
" style="fill:#ff0000;"/>
   </g>
   <g id="patch_88">
    <path clip-path="url(#p0719e2c701)" d="M 319.461648 224.225422 
L 339.276989 224.225422 
L 339.276989 188.804513 
L 319.461648 188.804513 
z
" style="fill:#ff6600;"/>
   </g>
   <g id="patch_89">
    <path clip-path="url(#p0719e2c701)" d="M 319.461648 188.749935 
L 339.276989 188.749935 
L 339.276989 167.955842 
L 319.461648 167.955842 
z
" style="fill:#9acd32;"/>
   </g>
   <g id="patch_90">
    <path clip-path="url(#p0719e2c701)" d="M 319.461648 167.901264 
L 339.276989 167.901264 
L 339.276989 132.152888 
L 319.461648 132.152888 
z
" style="fill:#ff6600;"/>
   </g>
   <g id="patch_91">
    <path clip-path="url(#p0719e2c701)" d="M 319.461648 132.098311 
L 339.276989 132.098311 
L 339.276989 125.658145 
L 319.461648 125.658145 
z
" style="fill:#00ff00;"/>
   </g>
   <g id="patch_92">
    <path clip-path="url(#p0719e2c701)" d="M 359.09233 224.225422 
L 378.90767 224.225422 
L 378.90767 179.362575 
L 359.09233 179.362575 
z
" style="fill:#ffa500;"/>
   </g>
   <g id="patch_93">
    <path clip-path="url(#p0719e2c701)" d="M 359.09233 179.307998 
L 378.90767 179.307998 
L 378.90767 172.540366 
L 359.09233 172.540366 
z
" style="fill:#00ff00;"/>
   </g>
   <g id="patch_94">
    <path clip-path="url(#p0719e2c701)" d="M 359.09233 172.485789 
L 378.90767 172.485789 
L 378.90767 163.698783 
L 359.09233 163.698783 
z
" style="fill:#808000;"/>
   </g>
   <g id="patch_95">
    <path clip-path="url(#p0719e2c701)" d="M 359.09233 163.644206 
L 378.90767 163.644206 
L 378.90767 155.785021 
L 359.09233 155.785021 
z
" style="fill:#008080;"/>
   </g>
   <g id="patch_96">
    <path clip-path="url(#p0719e2c701)" d="M 359.09233 155.730443 
L 378.90767 155.730443 
L 378.90767 138.702209 
L 359.09233 138.702209 
z
" style="fill:#ff6600;"/>
   </g>
   <g id="patch_97">
    <path clip-path="url(#p0719e2c701)" d="M 359.09233 138.647631 
L 378.90767 138.647631 
L 378.90767 134.608884 
L 359.09233 134.608884 
z
" style="fill:#008080;"/>
   </g>
   <g id="patch_98">
    <path clip-path="url(#p0719e2c701)" d="M 359.09233 134.554306 
L 378.90767 134.554306 
L 378.90767 124.402859 
L 359.09233 124.402859 
z
" style="fill:#ff6600;"/>
   </g>
   <g id="patch_99">
    <path clip-path="url(#p0719e2c701)" d="M 398.723011 224.225422 
L 418.538352 224.225422 
L 418.538352 206.105635 
L 398.723011 206.105635 
z
" style="fill:#008000;"/>
   </g>
   <g id="patch_100">
    <path clip-path="url(#p0719e2c701)" d="M 398.723011 206.051057 
L 418.538352 206.051057 
L 418.538352 195.954188 
L 398.723011 195.954188 
z
" style="fill:#ffc0cb;"/>
   </g>
   <g id="patch_101">
    <path clip-path="url(#p0719e2c701)" d="M 398.723011 195.89961 
L 418.538352 195.89961 
L 418.538352 176.524536 
L 398.723011 176.524536 
z
" style="fill:#ff6600;"/>
   </g>
   <g id="patch_102">
    <path clip-path="url(#p0719e2c701)" d="M 398.723011 176.469959 
L 418.538352 176.469959 
L 418.538352 159.441725 
L 398.723011 159.441725 
z
" style="fill:#ffa500;"/>
   </g>
   <g id="patch_103">
    <path clip-path="url(#p0719e2c701)" d="M 398.723011 159.387147 
L 418.538352 159.387147 
L 418.538352 129.478582 
L 398.723011 129.478582 
z
" style="fill:#c0c0c0;"/>
   </g>
   <g id="patch_104">
    <path clip-path="url(#p0719e2c701)" d="M 438.353693 224.225422 
L 458.169034 224.225422 
L 458.169034 204.795771 
L 438.353693 204.795771 
z
" style="fill:#808000;"/>
   </g>
   <g id="patch_105">
    <path clip-path="url(#p0719e2c701)" d="M 438.353693 204.741193 
L 458.169034 204.741193 
L 458.169034 188.749935 
L 438.353693 188.749935 
z
" style="fill:#ff0000;"/>
   </g>
   <g id="patch_106">
    <path clip-path="url(#p0719e2c701)" d="M 438.353693 188.695357 
L 458.169034 188.695357 
L 458.169034 178.434755 
L 438.353693 178.434755 
z
" style="fill:#ff6600;"/>
   </g>
   <g id="patch_107">
    <path clip-path="url(#p0719e2c701)" d="M 438.353693 178.380177 
L 458.169034 178.380177 
L 458.169034 168.93824 
L 438.353693 168.93824 
z
" style="fill:#008000;"/>
   </g>
   <g id="patch_108">
    <path clip-path="url(#p0719e2c701)" d="M 438.353693 168.883662 
L 458.169034 168.883662 
L 458.169034 165.609002 
L 438.353693 165.609002 
z
" style="fill:#ff6600;"/>
   </g>
   <g id="patch_109">
    <path clip-path="url(#p0719e2c701)" d="M 438.353693 165.554424 
L 458.169034 165.554424 
L 458.169034 155.730443 
L 438.353693 155.730443 
z
" style="fill:#ffc0cb;"/>
   </g>
   <g id="patch_110">
    <path clip-path="url(#p0719e2c701)" d="M 438.353693 155.675865 
L 458.169034 155.675865 
L 458.169034 147.489214 
L 438.353693 147.489214 
z
" style="fill:#ff6600;"/>
   </g>
   <g id="patch_111">
    <path clip-path="url(#p0719e2c701)" d="M 438.353693 147.434637 
L 458.169034 147.434637 
L 458.169034 139.411719 
L 438.353693 139.411719 
z
" style="fill:#008000;"/>
   </g>
   <g id="patch_112">
    <path clip-path="url(#p0719e2c701)" d="M 477.984375 224.225422 
L 497.799716 224.225422 
L 497.799716 214.783485 
L 477.984375 214.783485 
z
" style="fill:#008080;"/>
   </g>
   <g id="patch_113">
    <path clip-path="url(#p0719e2c701)" d="M 477.984375 214.728907 
L 497.799716 214.728907 
L 497.799716 198.846804 
L 477.984375 198.846804 
z
" style="fill:#ffa500;"/>
   </g>
   <g id="patch_114">
    <path clip-path="url(#p0719e2c701)" d="M 477.984375 198.792227 
L 497.799716 198.792227 
L 497.799716 171.448813 
L 477.984375 171.448813 
z
" style="fill:#800080;"/>
   </g>
   <g id="patch_115">
    <path clip-path="url(#p0719e2c701)" d="M 477.984375 171.394235 
L 497.799716 171.394235 
L 497.799716 151.418807 
L 477.984375 151.418807 
z
" style="fill:#99ccff;"/>
   </g>
   <g id="patch_116">
    <path clip-path="url(#p0719e2c701)" d="M 517.615057 224.225422 
L 537.430398 224.225422 
L 537.430398 199.610892 
L 517.615057 199.610892 
z
" style="fill:#99ccff;"/>
   </g>
   <g id="patch_117">
    <path clip-path="url(#p0719e2c701)" d="M 517.615057 199.556314 
L 537.430398 199.556314 
L 537.430398 188.367891 
L 517.615057 188.367891 
z
" style="fill:#ff00ff;"/>
   </g>
   <g id="patch_118">
    <path clip-path="url(#p0719e2c701)" d="M 517.615057 188.313314 
L 537.430398 188.313314 
L 537.430398 174.232274 
L 517.615057 174.232274 
z
" style="fill:#99ccff;"/>
   </g>
   <g id="patch_119">
    <path clip-path="url(#p0719e2c701)" d="M 517.615057 174.177696 
L 537.430398 174.177696 
L 537.430398 162.60723 
L 517.615057 162.60723 
z
" style="fill:#ff0000;"/>
   </g>
   <g id="patch_120">
    <path clip-path="url(#p0719e2c701)" d="M 517.615057 162.552652 
L 537.430398 162.552652 
L 537.430398 160.205812 
L 517.615057 160.205812 
z
" style="fill:#00ffff;"/>
   </g>
   <g id="patch_121">
    <path clip-path="url(#p0719e2c701)" d="M 517.615057 160.151234 
L 537.430398 160.151234 
L 537.430398 155.075511 
L 517.615057 155.075511 
z
" style="fill:#c0c0c0;"/>
   </g>
   <g id="patch_122">
    <path clip-path="url(#p0719e2c701)" d="M 517.615057 155.020933 
L 537.430398 155.020933 
L 537.430398 138.811364 
L 517.615057 138.811364 
z
" style="fill:#008000;"/>
   </g>
   <g id="patch_123">
    <path clip-path="url(#p0719e2c701)" d="M 557.245739 224.225422 
L 577.06108 224.225422 
L 577.06108 220.077519 
L 557.245739 220.077519 
z
" style="fill:#808000;"/>
   </g>
   <g id="patch_124">
    <path clip-path="url(#p0719e2c701)" d="M 557.245739 220.022942 
L 577.06108 220.022942 
L 577.06108 197.100319 
L 557.245739 197.100319 
z
" style="fill:#008080;"/>
   </g>
   <g id="patch_125">
    <path clip-path="url(#p0719e2c701)" d="M 557.245739 197.045741 
L 577.06108 197.045741 
L 577.06108 188.367891 
L 557.245739 188.367891 
z
" style="fill:#808000;"/>
   </g>
   <g id="patch_126">
    <path clip-path="url(#p0719e2c701)" d="M 557.245739 188.313314 
L 577.06108 188.313314 
L 577.06108 167.355487 
L 557.245739 167.355487 
z
" style="fill:#9acd32;"/>
   </g>
   <g id="patch_127">
    <path clip-path="url(#p0719e2c701)" d="M 557.245739 167.30091 
L 577.06108 167.30091 
L 577.06108 156.603686 
L 557.245739 156.603686 
z
" style="fill:#ffc0cb;"/>
   </g>
   <g id="patch_128">
    <path clip-path="url(#p0719e2c701)" d="M 596.87642 224.225422 
L 616.691761 224.225422 
L 616.691761 216.475393 
L 596.87642 216.475393 
z
" style="fill:#808000;"/>
   </g>
   <g id="patch_129">
    <path clip-path="url(#p0719e2c701)" d="M 596.87642 216.420815 
L 616.691761 216.420815 
L 616.691761 209.489451 
L 596.87642 209.489451 
z
" style="fill:#008080;"/>
   </g>
   <g id="matplotlib.axis_1"/>
   <g id="matplotlib.axis_2"/>
  </g>
 </g>
 <defs>
  <clipPath id="p0719e2c701">
   <rect height="194.04" width="558" x="90" y="30.24"/>
  </clipPath>
 </defs>
</svg>
