<?xml version="1.0" encoding="utf-8" standalone="no"?>
<!DOCTYPE svg PUBLIC "-//W3C//DTD SVG 1.1//EN"
  "http://www.w3.org/Graphics/SVG/1.1/DTD/svg11.dtd">
<svg height="252pt" version="1.1" viewBox="0 0 720 252" width="720pt" xmlns="http://www.w3.org/2000/svg" xmlns:xlink="http://www.w3.org/1999/xlink">
 <metadata>
  <rdf:RDF xmlns:cc="http://creativecommons.org/ns#" xmlns:dc="http://purl.org/dc/elements/1.1/" xmlns:rdf="http://www.w3.org/1999/02/22-rdf-syntax-ns#">
   <cc:Work>
    <dc:type rdf:resource="http://purl.org/dc/dcmitype/StillImage"/>
    <dc:date>2021-11-03T22:44:46.447500</dc:date>
    <dc:format>image/svg+xml</dc:format>
    <dc:creator>
     <cc:Agent>
      <dc:title>Matplotlib v3.4.3, https://matplotlib.org/</dc:title>
     </cc:Agent>
    </dc:creator>
   </cc:Work>
  </rdf:RDF>
 </metadata>
 <defs>
  <style type="text/css">*{stroke-linecap:butt;stroke-linejoin:round;}</style>
 </defs>
 <g id="figure_1">
  <g id="patch_1">
   <path d="M 0 252 
L 720 252 
L 720 0 
L 0 0 
z
" style="fill:#ffffff;"/>
  </g>
  <g id="axes_1">
   <g id="patch_2">
    <path d="M 90 224.28 
L 648 224.28 
L 648 30.24 
L 90 30.24 
z
" style="fill:#ffffff;"/>
   </g>
   <g id="patch_3">
    <path clip-path="url(#pd22141197e)" d="M 115.363636 224.28 
L 142.783784 224.28 
L 142.783784 223.787463 
L 115.363636 223.787463 
z
" style="fill:none;opacity:0;"/>
   </g>
   <g id="patch_4">
    <path clip-path="url(#pd22141197e)" d="M 149.638821 224.28 
L 177.058968 224.28 
L 177.058968 223.787463 
L 149.638821 223.787463 
z
" style="fill:none;opacity:0;"/>
   </g>
   <g id="patch_5">
    <path clip-path="url(#pd22141197e)" d="M 183.914005 224.28 
L 211.334152 224.28 
L 211.334152 223.787463 
L 183.914005 223.787463 
z
" style="fill:none;opacity:0;"/>
   </g>
   <g id="patch_6">
    <path clip-path="url(#pd22141197e)" d="M 218.189189 224.28 
L 245.609337 224.28 
L 245.609337 223.787463 
L 218.189189 223.787463 
z
" style="fill:none;opacity:0;"/>
   </g>
   <g id="patch_7">
    <path clip-path="url(#pd22141197e)" d="M 252.464373 224.28 
L 279.884521 224.28 
L 279.884521 223.787463 
L 252.464373 223.787463 
z
" style="fill:none;opacity:0;"/>
   </g>
   <g id="patch_8">
    <path clip-path="url(#pd22141197e)" d="M 286.739558 224.28 
L 314.159705 224.28 
L 314.159705 223.787463 
L 286.739558 223.787463 
z
" style="fill:none;opacity:0;"/>
   </g>
   <g id="patch_9">
    <path clip-path="url(#pd22141197e)" d="M 321.014742 224.28 
L 348.434889 224.28 
L 348.434889 223.787463 
L 321.014742 223.787463 
z
" style="fill:none;opacity:0;"/>
   </g>
   <g id="patch_10">
    <path clip-path="url(#pd22141197e)" d="M 355.289926 224.28 
L 382.710074 224.28 
L 382.710074 223.787463 
L 355.289926 223.787463 
z
" style="fill:none;opacity:0;"/>
   </g>
   <g id="patch_11">
    <path clip-path="url(#pd22141197e)" d="M 389.565111 224.28 
L 416.985258 224.28 
L 416.985258 223.787463 
L 389.565111 223.787463 
z
" style="fill:none;opacity:0;"/>
   </g>
   <g id="patch_12">
    <path clip-path="url(#pd22141197e)" d="M 423.840295 224.28 
L 451.260442 224.28 
L 451.260442 223.787463 
L 423.840295 223.787463 
z
" style="fill:none;opacity:0;"/>
   </g>
   <g id="patch_13">
    <path clip-path="url(#pd22141197e)" d="M 458.115479 224.28 
L 485.535627 224.28 
L 485.535627 223.787463 
L 458.115479 223.787463 
z
" style="fill:none;opacity:0;"/>
   </g>
   <g id="patch_14">
    <path clip-path="url(#pd22141197e)" d="M 492.390663 224.28 
L 519.810811 224.28 
L 519.810811 223.787463 
L 492.390663 223.787463 
z
" style="fill:none;opacity:0;"/>
   </g>
   <g id="patch_15">
    <path clip-path="url(#pd22141197e)" d="M 526.665848 224.28 
L 554.085995 224.28 
L 554.085995 223.787463 
L 526.665848 223.787463 
z
" style="fill:none;opacity:0;"/>
   </g>
   <g id="patch_16">
    <path clip-path="url(#pd22141197e)" d="M 560.941032 224.28 
L 588.361179 224.28 
L 588.361179 223.787463 
L 560.941032 223.787463 
z
" style="fill:none;opacity:0;"/>
   </g>
   <g id="patch_17">
    <path clip-path="url(#pd22141197e)" d="M 595.216216 224.28 
L 622.636364 224.28 
L 622.636364 223.787463 
L 595.216216 223.787463 
z
" style="fill:none;opacity:0;"/>
   </g>
   <g id="patch_18">
    <path clip-path="url(#pd22141197e)" d="M 120.504914 224.230746 
L 137.642506 224.230746 
L 137.642506 187.930746 
L 120.504914 187.930746 
z
" style="fill:#c0c0c0;"/>
   </g>
   <g id="patch_19">
    <path clip-path="url(#pd22141197e)" d="M 120.504914 187.881493 
L 137.642506 187.881493 
L 137.642506 160.39791 
L 120.504914 160.39791 
z
" style="fill:#800080;"/>
   </g>
   <g id="patch_20">
    <path clip-path="url(#pd22141197e)" d="M 120.504914 160.348657 
L 137.642506 160.348657 
L 137.642506 128.678507 
L 120.504914 128.678507 
z
" style="fill:#99ccff;"/>
   </g>
   <g id="patch_21">
    <path clip-path="url(#pd22141197e)" d="M 120.504914 128.629254 
L 137.642506 128.629254 
L 137.642506 123.950149 
L 120.504914 123.950149 
z
" style="fill:#00ff00;"/>
   </g>
   <g id="patch_22">
    <path clip-path="url(#pd22141197e)" d="M 120.504914 123.900896 
L 137.642506 123.900896 
L 137.642506 99.077015 
L 120.504914 99.077015 
z
" style="fill:#ffa500;"/>
   </g>
   <g id="patch_23">
    <path clip-path="url(#pd22141197e)" d="M 120.504914 99.027761 
L 137.642506 99.027761 
L 137.642506 89.275522 
L 120.504914 89.275522 
z
" style="fill:#00ff00;"/>
   </g>
   <g id="patch_24">
    <path clip-path="url(#pd22141197e)" d="M 120.504914 89.226269 
L 137.642506 89.226269 
L 137.642506 59.871045 
L 120.504914 59.871045 
z
" style="fill:#9acd32;"/>
   </g>
   <g id="patch_25">
    <path clip-path="url(#pd22141197e)" d="M 120.504914 59.821791 
L 137.642506 59.821791 
L 137.642506 44.356119 
L 120.504914 44.356119 
z
" style="fill:#008000;"/>
   </g>
   <g id="patch_26">
    <path clip-path="url(#pd22141197e)" d="M 120.504914 44.306866 
L 137.642506 44.306866 
L 137.642506 39.48 
L 120.504914 39.48 
z
" style="fill:#00ff00;"/>
   </g>
   <g id="patch_27">
    <path clip-path="url(#pd22141197e)" d="M 154.780098 224.230746 
L 171.91769 224.230746 
L 171.91769 174.829254 
L 154.780098 174.829254 
z
" style="fill:#ff00ff;"/>
   </g>
   <g id="patch_28">
    <path clip-path="url(#pd22141197e)" d="M 154.780098 174.78 
L 171.91769 174.78 
L 171.91769 159.117313 
L 154.780098 159.117313 
z
" style="fill:#ff6600;"/>
   </g>
   <g id="patch_29">
    <path clip-path="url(#pd22141197e)" d="M 154.780098 159.06806 
L 171.91769 159.06806 
L 171.91769 102.229254 
L 154.780098 102.229254 
z
" style="fill:#ff0000;"/>
   </g>
   <g id="patch_30">
    <path clip-path="url(#pd22141197e)" d="M 154.780098 102.18 
L 171.91769 102.18 
L 171.91769 73.66209 
L 154.780098 73.66209 
z
" style="fill:#ff6600;"/>
   </g>
   <g id="patch_31">
    <path clip-path="url(#pd22141197e)" d="M 189.055283 224.230746 
L 206.192875 224.230746 
L 206.192875 150.350149 
L 189.055283 150.350149 
z
" style="fill:#008000;"/>
   </g>
   <g id="patch_32">
    <path clip-path="url(#pd22141197e)" d="M 189.055283 150.300896 
L 206.192875 150.300896 
L 206.192875 136.559104 
L 189.055283 136.559104 
z
" style="fill:#ff6600;"/>
   </g>
   <g id="patch_33">
    <path clip-path="url(#pd22141197e)" d="M 189.055283 136.509851 
L 206.192875 136.509851 
L 206.192875 116.56209 
L 189.055283 116.56209 
z
" style="fill:#008000;"/>
   </g>
   <g id="patch_34">
    <path clip-path="url(#pd22141197e)" d="M 189.055283 116.512836 
L 206.192875 116.512836 
L 206.192875 110.011343 
L 189.055283 110.011343 
z
" style="fill:#ff6600;"/>
   </g>
   <g id="patch_35">
    <path clip-path="url(#pd22141197e)" d="M 189.055283 109.96209 
L 206.192875 109.96209 
L 206.192875 86.07403 
L 189.055283 86.07403 
z
" style="fill:#00ff00;"/>
   </g>
   <g id="patch_36">
    <path clip-path="url(#pd22141197e)" d="M 223.330467 224.230746 
L 240.468059 224.230746 
L 240.468059 171.036716 
L 223.330467 171.036716 
z
" style="fill:#00ff00;"/>
   </g>
   <g id="patch_37">
    <path clip-path="url(#pd22141197e)" d="M 223.330467 170.987463 
L 240.468059 170.987463 
L 240.468059 161.777015 
L 223.330467 161.777015 
z
" style="fill:#00ffff;"/>
   </g>
   <g id="patch_38">
    <path clip-path="url(#pd22141197e)" d="M 223.330467 161.727761 
L 240.468059 161.727761 
L 240.468059 153.994925 
L 223.330467 153.994925 
z
" style="fill:#ffa500;"/>
   </g>
   <g id="patch_39">
    <path clip-path="url(#pd22141197e)" d="M 223.330467 153.945672 
L 240.468059 153.945672 
L 240.468059 147.296418 
L 223.330467 147.296418 
z
" style="fill:#00ff00;"/>
   </g>
   <g id="patch_40">
    <path clip-path="url(#pd22141197e)" d="M 223.330467 147.247164 
L 240.468059 147.247164 
L 240.468059 102.721791 
L 223.330467 102.721791 
z
" style="fill:#808000;"/>
   </g>
   <g id="patch_41">
    <path clip-path="url(#pd22141197e)" d="M 223.330467 102.672537 
L 240.468059 102.672537 
L 240.468059 91.541194 
L 223.330467 91.541194 
z
" style="fill:#ffc0cb;"/>
   </g>
   <g id="patch_42">
    <path clip-path="url(#pd22141197e)" d="M 257.605651 224.230746 
L 274.743243 224.230746 
L 274.743243 176.109851 
L 257.605651 176.109851 
z
" style="fill:#99ccff;"/>
   </g>
   <g id="patch_43">
    <path clip-path="url(#pd22141197e)" d="M 257.605651 176.060597 
L 274.743243 176.060597 
L 274.743243 149.709851 
L 257.605651 149.709851 
z
" style="fill:#ffa500;"/>
   </g>
   <g id="patch_44">
    <path clip-path="url(#pd22141197e)" d="M 291.880835 224.230746 
L 309.018428 224.230746 
L 309.018428 192.659104 
L 291.880835 192.659104 
z
" style="fill:#ffa500;"/>
   </g>
   <g id="patch_45">
    <path clip-path="url(#pd22141197e)" d="M 291.880835 192.609851 
L 309.018428 192.609851 
L 309.018428 189.900896 
L 291.880835 189.900896 
z
" style="fill:#ff6600;"/>
   </g>
   <g id="patch_46">
    <path clip-path="url(#pd22141197e)" d="M 291.880835 189.851642 
L 309.018428 189.851642 
L 309.018428 182.956119 
L 291.880835 182.956119 
z
" style="fill:#ff00ff;"/>
   </g>
   <g id="patch_47">
    <path clip-path="url(#pd22141197e)" d="M 291.880835 182.906866 
L 309.018428 182.906866 
L 309.018428 131.239701 
L 291.880835 131.239701 
z
" style="fill:#ff6600;"/>
   </g>
   <g id="patch_48">
    <path clip-path="url(#pd22141197e)" d="M 291.880835 131.190448 
L 309.018428 131.190448 
L 309.018428 118.729254 
L 291.880835 118.729254 
z
" style="fill:#c0c0c0;"/>
   </g>
   <g id="patch_49">
    <path clip-path="url(#pd22141197e)" d="M 291.880835 118.68 
L 309.018428 118.68 
L 309.018428 88.684478 
L 291.880835 88.684478 
z
" style="fill:#ff0000;"/>
   </g>
   <g id="patch_50">
    <path clip-path="url(#pd22141197e)" d="M 291.880835 88.635224 
L 309.018428 88.635224 
L 309.018428 57.703881 
L 291.880835 57.703881 
z
" style="fill:#c0c0c0;"/>
   </g>
   <g id="patch_51">
    <path clip-path="url(#pd22141197e)" d="M 326.15602 224.230746 
L 343.293612 224.230746 
L 343.293612 207.238209 
L 326.15602 207.238209 
z
" style="fill:#99ccff;"/>
   </g>
   <g id="patch_52">
    <path clip-path="url(#pd22141197e)" d="M 326.15602 207.188955 
L 343.293612 207.188955 
L 343.293612 181.626269 
L 326.15602 181.626269 
z
" style="fill:#9acd32;"/>
   </g>
   <g id="patch_53">
    <path clip-path="url(#pd22141197e)" d="M 326.15602 181.577015 
L 343.293612 181.577015 
L 343.293612 170.741194 
L 326.15602 170.741194 
z
" style="fill:#00ffff;"/>
   </g>
   <g id="patch_54">
    <path clip-path="url(#pd22141197e)" d="M 326.15602 170.69194 
L 343.293612 170.69194 
L 343.293612 152.86209 
L 326.15602 152.86209 
z
" style="fill:#ff00ff;"/>
   </g>
   <g id="patch_55">
    <path clip-path="url(#pd22141197e)" d="M 326.15602 152.812836 
L 343.293612 152.812836 
L 343.293612 138.972537 
L 326.15602 138.972537 
z
" style="fill:#00ffff;"/>
   </g>
   <g id="patch_56">
    <path clip-path="url(#pd22141197e)" d="M 326.15602 138.923284 
L 343.293612 138.923284 
L 343.293612 116.315821 
L 326.15602 116.315821 
z
" style="fill:#c0c0c0;"/>
   </g>
   <g id="patch_57">
    <path clip-path="url(#pd22141197e)" d="M 326.15602 116.266567 
L 343.293612 116.266567 
L 343.293612 93.46209 
L 326.15602 93.46209 
z
" style="fill:#99ccff;"/>
   </g>
   <g id="patch_58">
    <path clip-path="url(#pd22141197e)" d="M 360.431204 224.230746 
L 377.568796 224.230746 
L 377.568796 174.484478 
L 360.431204 174.484478 
z
" style="fill:#ffc0cb;"/>
   </g>
   <g id="patch_59">
    <path clip-path="url(#pd22141197e)" d="M 360.431204 174.435224 
L 377.568796 174.435224 
L 377.568796 138.381493 
L 360.431204 138.381493 
z
" style="fill:#008080;"/>
   </g>
   <g id="patch_60">
    <path clip-path="url(#pd22141197e)" d="M 394.706388 224.230746 
L 411.84398 224.230746 
L 411.84398 203.69194 
L 394.706388 203.69194 
z
" style="fill:#00ffff;"/>
   </g>
   <g id="patch_61">
    <path clip-path="url(#pd22141197e)" d="M 394.706388 203.642687 
L 411.84398 203.642687 
L 411.84398 167.78597 
L 394.706388 167.78597 
z
" style="fill:#ff6600;"/>
   </g>
   <g id="patch_62">
    <path clip-path="url(#pd22141197e)" d="M 394.706388 167.736716 
L 411.84398 167.736716 
L 411.84398 132.224776 
L 394.706388 132.224776 
z
" style="fill:#9acd32;"/>
   </g>
   <g id="patch_63">
    <path clip-path="url(#pd22141197e)" d="M 428.981572 224.230746 
L 446.119165 224.230746 
L 446.119165 206.696418 
L 428.981572 206.696418 
z
" style="fill:#ffc0cb;"/>
   </g>
   <g id="patch_64">
    <path clip-path="url(#pd22141197e)" d="M 428.981572 206.647164 
L 446.119165 206.647164 
L 446.119165 186.453134 
L 428.981572 186.453134 
z
" style="fill:#00ffff;"/>
   </g>
   <g id="patch_65">
    <path clip-path="url(#pd22141197e)" d="M 428.981572 186.403881 
L 446.119165 186.403881 
L 446.119165 179.114328 
L 428.981572 179.114328 
z
" style="fill:#ff6600;"/>
   </g>
   <g id="patch_66">
    <path clip-path="url(#pd22141197e)" d="M 428.981572 179.065075 
L 446.119165 179.065075 
L 446.119165 161.875522 
L 428.981572 161.875522 
z
" style="fill:#00ffff;"/>
   </g>
   <g id="patch_67">
    <path clip-path="url(#pd22141197e)" d="M 428.981572 161.826269 
L 446.119165 161.826269 
L 446.119165 142.617313 
L 428.981572 142.617313 
z
" style="fill:#99ccff;"/>
   </g>
   <g id="patch_68">
    <path clip-path="url(#pd22141197e)" d="M 463.256757 224.230746 
L 480.394349 224.230746 
L 480.394349 208.96209 
L 463.256757 208.96209 
z
" style="fill:#9acd32;"/>
   </g>
   <g id="patch_69">
    <path clip-path="url(#pd22141197e)" d="M 463.256757 208.912836 
L 480.394349 208.912836 
L 480.394349 157.935224 
L 463.256757 157.935224 
z
" style="fill:#008000;"/>
   </g>
   <g id="patch_70">
    <path clip-path="url(#pd22141197e)" d="M 497.531941 224.230746 
L 514.669533 224.230746 
L 514.669533 191.723284 
L 497.531941 191.723284 
z
" style="fill:#ff6600;"/>
   </g>
   <g id="patch_71">
    <path clip-path="url(#pd22141197e)" d="M 497.531941 191.67403 
L 514.669533 191.67403 
L 514.669533 186.256119 
L 497.531941 186.256119 
z
" style="fill:#00ffff;"/>
   </g>
   <g id="patch_72">
    <path clip-path="url(#pd22141197e)" d="M 497.531941 186.206866 
L 514.669533 186.206866 
L 514.669533 172.366567 
L 497.531941 172.366567 
z
" style="fill:#c0c0c0;"/>
   </g>
   <g id="patch_73">
    <path clip-path="url(#pd22141197e)" d="M 497.531941 172.317313 
L 514.669533 172.317313 
L 514.669533 167.490448 
L 497.531941 167.490448 
z
" style="fill:#00ffff;"/>
   </g>
   <g id="patch_74">
    <path clip-path="url(#pd22141197e)" d="M 497.531941 167.441194 
L 514.669533 167.441194 
L 514.669533 158.920299 
L 497.531941 158.920299 
z
" style="fill:#ff6600;"/>
   </g>
   <g id="patch_75">
    <path clip-path="url(#pd22141197e)" d="M 531.807125 224.230746 
L 548.944717 224.230746 
L 548.944717 205.071045 
L 531.807125 205.071045 
z
" style="fill:#800080;"/>
   </g>
   <g id="patch_76">
    <path clip-path="url(#pd22141197e)" d="M 531.807125 205.021791 
L 548.944717 205.021791 
L 548.944717 148.577015 
L 531.807125 148.577015 
z
" style="fill:#008080;"/>
   </g>
   <g id="patch_77">
    <path clip-path="url(#pd22141197e)" d="M 566.08231 224.230746 
L 583.219902 224.230746 
L 583.219902 211.227761 
L 566.08231 211.227761 
z
" style="fill:#ffc0cb;"/>
   </g>
   <g id="patch_78">
    <path clip-path="url(#pd22141197e)" d="M 566.08231 211.178507 
L 583.219902 211.178507 
L 583.219902 190.688955 
L 566.08231 190.688955 
z
" style="fill:#c0c0c0;"/>
   </g>
   <g id="patch_79">
    <path clip-path="url(#pd22141197e)" d="M 566.08231 190.639701 
L 583.219902 190.639701 
L 583.219902 170.839701 
L 566.08231 170.839701 
z
" style="fill:#ffa500;"/>
   </g>
   <g id="patch_80">
    <path clip-path="url(#pd22141197e)" d="M 566.08231 170.790448 
L 583.219902 170.790448 
L 583.219902 164.781493 
L 566.08231 164.781493 
z
" style="fill:#ffc0cb;"/>
   </g>
   <g id="patch_81">
    <path clip-path="url(#pd22141197e)" d="M 600.357494 224.230746 
L 617.495086 224.230746 
L 617.495086 182.808358 
L 600.357494 182.808358 
z
" style="fill:#99ccff;"/>
   </g>
   <g id="patch_82">
    <path clip-path="url(#pd22141197e)" d="M 600.357494 182.759104 
L 617.495086 182.759104 
L 617.495086 163.402388 
L 600.357494 163.402388 
z
" style="fill:#808000;"/>
   </g>
   <g id="matplotlib.axis_1"/>
   <g id="matplotlib.axis_2"/>
  </g>
 </g>
 <defs>
  <clipPath id="pd22141197e">
   <rect height="194.04" width="558" x="90" y="30.24"/>
  </clipPath>
 </defs>
</svg>
