<?xml version="1.0" encoding="utf-8" standalone="no"?>
<!DOCTYPE svg PUBLIC "-//W3C//DTD SVG 1.1//EN"
  "http://www.w3.org/Graphics/SVG/1.1/DTD/svg11.dtd">
<svg height="252pt" version="1.1" viewBox="0 0 720 252" width="720pt" xmlns="http://www.w3.org/2000/svg" xmlns:xlink="http://www.w3.org/1999/xlink">
 <metadata>
  <rdf:RDF xmlns:cc="http://creativecommons.org/ns#" xmlns:dc="http://purl.org/dc/elements/1.1/" xmlns:rdf="http://www.w3.org/1999/02/22-rdf-syntax-ns#">
   <cc:Work>
    <dc:type rdf:resource="http://purl.org/dc/dcmitype/StillImage"/>
    <dc:date>2022-01-17T21:44:22.907609</dc:date>
    <dc:format>image/svg+xml</dc:format>
    <dc:creator>
     <cc:Agent>
      <dc:title>Matplotlib v3.4.3, https://matplotlib.org/</dc:title>
     </cc:Agent>
    </dc:creator>
   </cc:Work>
  </rdf:RDF>
 </metadata>
 <defs>
  <style type="text/css">*{stroke-linecap:butt;stroke-linejoin:round;}</style>
 </defs>
 <g id="figure_1">
  <g id="patch_1">
   <path d="M 0 252 
L 720 252 
L 720 0 
L 0 0 
z
" style="fill:#ffffff;"/>
  </g>
  <g id="axes_1">
   <g id="patch_2">
    <path d="M 90 224.28 
L 648 224.28 
L 648 30.24 
L 90 30.24 
z
" style="fill:#ffffff;"/>
   </g>
   <g id="patch_3">
    <path clip-path="url(#pb86293b0fc)" d="M 115.363636 224.28 
L 135.859504 224.28 
L 135.859504 223.508715 
L 115.363636 223.508715 
z
" style="fill:none;opacity:0;"/>
   </g>
   <g id="patch_4">
    <path clip-path="url(#pb86293b0fc)" d="M 140.983471 224.28 
L 161.479339 224.28 
L 161.479339 223.508715 
L 140.983471 223.508715 
z
" style="fill:none;opacity:0;"/>
   </g>
   <g id="patch_5">
    <path clip-path="url(#pb86293b0fc)" d="M 166.603306 224.28 
L 187.099174 224.28 
L 187.099174 223.508715 
L 166.603306 223.508715 
z
" style="fill:none;opacity:0;"/>
   </g>
   <g id="patch_6">
    <path clip-path="url(#pb86293b0fc)" d="M 192.22314 224.28 
L 212.719008 224.28 
L 212.719008 223.508715 
L 192.22314 223.508715 
z
" style="fill:none;opacity:0;"/>
   </g>
   <g id="patch_7">
    <path clip-path="url(#pb86293b0fc)" d="M 217.842975 224.28 
L 238.338843 224.28 
L 238.338843 223.508715 
L 217.842975 223.508715 
z
" style="fill:none;opacity:0;"/>
   </g>
   <g id="patch_8">
    <path clip-path="url(#pb86293b0fc)" d="M 243.46281 224.28 
L 263.958678 224.28 
L 263.958678 223.508715 
L 243.46281 223.508715 
z
" style="fill:none;opacity:0;"/>
   </g>
   <g id="patch_9">
    <path clip-path="url(#pb86293b0fc)" d="M 269.082645 224.28 
L 289.578512 224.28 
L 289.578512 223.508715 
L 269.082645 223.508715 
z
" style="fill:none;opacity:0;"/>
   </g>
   <g id="patch_10">
    <path clip-path="url(#pb86293b0fc)" d="M 294.702479 224.28 
L 315.198347 224.28 
L 315.198347 223.508715 
L 294.702479 223.508715 
z
" style="fill:none;opacity:0;"/>
   </g>
   <g id="patch_11">
    <path clip-path="url(#pb86293b0fc)" d="M 320.322314 224.28 
L 340.818182 224.28 
L 340.818182 223.508715 
L 320.322314 223.508715 
z
" style="fill:none;opacity:0;"/>
   </g>
   <g id="patch_12">
    <path clip-path="url(#pb86293b0fc)" d="M 345.942149 224.28 
L 366.438017 224.28 
L 366.438017 223.508715 
L 345.942149 223.508715 
z
" style="fill:none;opacity:0;"/>
   </g>
   <g id="patch_13">
    <path clip-path="url(#pb86293b0fc)" d="M 371.561983 224.28 
L 392.057851 224.28 
L 392.057851 223.508715 
L 371.561983 223.508715 
z
" style="fill:none;opacity:0;"/>
   </g>
   <g id="patch_14">
    <path clip-path="url(#pb86293b0fc)" d="M 397.181818 224.28 
L 417.677686 224.28 
L 417.677686 223.508715 
L 397.181818 223.508715 
z
" style="fill:none;opacity:0;"/>
   </g>
   <g id="patch_15">
    <path clip-path="url(#pb86293b0fc)" d="M 422.801653 224.28 
L 443.297521 224.28 
L 443.297521 223.508715 
L 422.801653 223.508715 
z
" style="fill:none;opacity:0;"/>
   </g>
   <g id="patch_16">
    <path clip-path="url(#pb86293b0fc)" d="M 448.421488 224.28 
L 468.917355 224.28 
L 468.917355 223.508715 
L 448.421488 223.508715 
z
" style="fill:none;opacity:0;"/>
   </g>
   <g id="patch_17">
    <path clip-path="url(#pb86293b0fc)" d="M 474.041322 224.28 
L 494.53719 224.28 
L 494.53719 223.508715 
L 474.041322 223.508715 
z
" style="fill:none;opacity:0;"/>
   </g>
   <g id="patch_18">
    <path clip-path="url(#pb86293b0fc)" d="M 499.661157 224.28 
L 520.157025 224.28 
L 520.157025 223.508715 
L 499.661157 223.508715 
z
" style="fill:none;opacity:0;"/>
   </g>
   <g id="patch_19">
    <path clip-path="url(#pb86293b0fc)" d="M 525.280992 224.28 
L 545.77686 224.28 
L 545.77686 223.508715 
L 525.280992 223.508715 
z
" style="fill:none;opacity:0;"/>
   </g>
   <g id="patch_20">
    <path clip-path="url(#pb86293b0fc)" d="M 550.900826 224.28 
L 571.396694 224.28 
L 571.396694 223.508715 
L 550.900826 223.508715 
z
" style="fill:none;opacity:0;"/>
   </g>
   <g id="patch_21">
    <path clip-path="url(#pb86293b0fc)" d="M 576.520661 224.28 
L 597.016529 224.28 
L 597.016529 223.508715 
L 576.520661 223.508715 
z
" style="fill:none;opacity:0;"/>
   </g>
   <g id="patch_22">
    <path clip-path="url(#pb86293b0fc)" d="M 602.140496 224.28 
L 622.636364 224.28 
L 622.636364 223.508715 
L 602.140496 223.508715 
z
" style="fill:none;opacity:0;"/>
   </g>
   <g id="patch_23">
    <path clip-path="url(#pb86293b0fc)" d="M 119.206612 224.202871 
L 132.016529 224.202871 
L 132.016529 147.922738 
L 119.206612 147.922738 
z
" style="fill:#993300;"/>
   </g>
   <g id="patch_24">
    <path clip-path="url(#pb86293b0fc)" d="M 144.826446 224.202871 
L 157.636364 224.202871 
L 157.636364 211.630918 
L 144.826446 211.630918 
z
" style="fill:#6600ff;"/>
   </g>
   <g id="patch_25">
    <path clip-path="url(#pb86293b0fc)" d="M 144.826446 211.55379 
L 157.636364 211.55379 
L 157.636364 147.151452 
L 144.826446 147.151452 
z
" style="fill:#993300;"/>
   </g>
   <g id="patch_26">
    <path clip-path="url(#pb86293b0fc)" d="M 170.446281 224.202871 
L 183.256198 224.202871 
L 183.256198 145.531753 
L 170.446281 145.531753 
z
" style="fill:#33cccc;"/>
   </g>
   <g id="patch_27">
    <path clip-path="url(#pb86293b0fc)" d="M 196.066116 224.202871 
L 208.876033 224.202871 
L 208.876033 181.705042 
L 196.066116 181.705042 
z
" style="fill:#ff99cc;"/>
   </g>
   <g id="patch_28">
    <path clip-path="url(#pb86293b0fc)" d="M 196.066116 181.627913 
L 208.876033 181.627913 
L 208.876033 131.108715 
L 196.066116 131.108715 
z
" style="fill:#c71585;"/>
   </g>
   <g id="patch_29">
    <path clip-path="url(#pb86293b0fc)" d="M 196.066116 130.954457 
L 208.876033 130.954457 
L 208.876033 128.871987 
L 196.066116 128.871987 
z
" style="fill:#ff99cc;"/>
   </g>
   <g id="patch_30">
    <path clip-path="url(#pb86293b0fc)" d="M 196.066116 128.794858 
L 208.876033 128.794858 
L 208.876033 81.900701 
L 196.066116 81.900701 
z
" style="fill:#993300;"/>
   </g>
   <g id="patch_31">
    <path clip-path="url(#pb86293b0fc)" d="M 221.68595 224.202871 
L 234.495868 224.202871 
L 234.495868 171.292688 
L 221.68595 171.292688 
z
" style="fill:#ff99cc;"/>
   </g>
   <g id="patch_32">
    <path clip-path="url(#pb86293b0fc)" d="M 221.68595 171.215559 
L 234.495868 171.215559 
L 234.495868 109.821235 
L 221.68595 109.821235 
z
" style="fill:#c71585;"/>
   </g>
   <g id="patch_33">
    <path clip-path="url(#pb86293b0fc)" d="M 221.68595 109.744107 
L 234.495868 109.744107 
L 234.495868 84.831586 
L 221.68595 84.831586 
z
" style="fill:#ff99cc;"/>
   </g>
   <g id="patch_34">
    <path clip-path="url(#pb86293b0fc)" d="M 221.68595 84.754457 
L 234.495868 84.754457 
L 234.495868 64.855292 
L 221.68595 64.855292 
z
" style="fill:#008000;"/>
   </g>
   <g id="patch_35">
    <path clip-path="url(#pb86293b0fc)" d="M 221.68595 64.778164 
L 234.495868 64.778164 
L 234.495868 51.743439 
L 221.68595 51.743439 
z
" style="fill:#008000;"/>
   </g>
   <g id="patch_36">
    <path clip-path="url(#pb86293b0fc)" d="M 221.68595 51.666311 
L 234.495868 51.666311 
L 234.495868 39.48 
L 221.68595 39.48 
z
" style="fill:#33cccc;"/>
   </g>
   <g id="patch_37">
    <path clip-path="url(#pb86293b0fc)" d="M 247.305785 224.202871 
L 260.115702 224.202871 
L 260.115702 207.080334 
L 247.305785 207.080334 
z
" style="fill:#3399ff;"/>
   </g>
   <g id="patch_38">
    <path clip-path="url(#pb86293b0fc)" d="M 247.305785 207.003205 
L 260.115702 207.003205 
L 260.115702 190.651953 
L 247.305785 190.651953 
z
" style="fill:#ffa500;"/>
   </g>
   <g id="patch_39">
    <path clip-path="url(#pb86293b0fc)" d="M 247.305785 190.574825 
L 260.115702 190.574825 
L 260.115702 181.24227 
L 247.305785 181.24227 
z
" style="fill:#3399ff;"/>
   </g>
   <g id="patch_40">
    <path clip-path="url(#pb86293b0fc)" d="M 247.305785 181.165142 
L 260.115702 181.165142 
L 260.115702 149.079666 
L 247.305785 149.079666 
z
" style="fill:#008000;"/>
   </g>
   <g id="patch_41">
    <path clip-path="url(#pb86293b0fc)" d="M 272.92562 224.202871 
L 285.735537 224.202871 
L 285.735537 118.999533 
L 272.92562 118.999533 
z
" style="fill:#3399ff;"/>
   </g>
   <g id="patch_42">
    <path clip-path="url(#pb86293b0fc)" d="M 298.545455 224.202871 
L 311.355372 224.202871 
L 311.355372 208.083005 
L 298.545455 208.083005 
z
" style="fill:#6600ff;"/>
   </g>
   <g id="patch_43">
    <path clip-path="url(#pb86293b0fc)" d="M 298.545455 208.005876 
L 311.355372 208.005876 
L 311.355372 192.811553 
L 298.545455 192.811553 
z
" style="fill:#ffa500;"/>
   </g>
   <g id="patch_44">
    <path clip-path="url(#pb86293b0fc)" d="M 298.545455 192.734424 
L 311.355372 192.734424 
L 311.355372 135.813556 
L 298.545455 135.813556 
z
" style="fill:#33cccc;"/>
   </g>
   <g id="patch_45">
    <path clip-path="url(#pb86293b0fc)" d="M 298.545455 135.736427 
L 311.355372 135.736427 
L 311.355372 117.919733 
L 298.545455 117.919733 
z
" style="fill:#6600ff;"/>
   </g>
   <g id="patch_46">
    <path clip-path="url(#pb86293b0fc)" d="M 298.545455 117.842604 
L 311.355372 117.842604 
L 311.355372 97.557796 
L 298.545455 97.557796 
z
" style="fill:#ffa500;"/>
   </g>
   <g id="patch_47">
    <path clip-path="url(#pb86293b0fc)" d="M 324.165289 224.202871 
L 336.975207 224.202871 
L 336.975207 206.926077 
L 324.165289 206.926077 
z
" style="fill:#33cccc;"/>
   </g>
   <g id="patch_48">
    <path clip-path="url(#pb86293b0fc)" d="M 324.165289 206.848948 
L 336.975207 206.848948 
L 336.975207 197.670651 
L 324.165289 197.670651 
z
" style="fill:#3399ff;"/>
   </g>
   <g id="patch_49">
    <path clip-path="url(#pb86293b0fc)" d="M 324.165289 197.593523 
L 336.975207 197.593523 
L 336.975207 188.800868 
L 324.165289 188.800868 
z
" style="fill:#33cccc;"/>
   </g>
   <g id="patch_50">
    <path clip-path="url(#pb86293b0fc)" d="M 324.165289 188.72374 
L 336.975207 188.72374 
L 336.975207 154.787179 
L 324.165289 154.787179 
z
" style="fill:#3399ff;"/>
   </g>
   <g id="patch_51">
    <path clip-path="url(#pb86293b0fc)" d="M 349.785124 224.202871 
L 362.595041 224.202871 
L 362.595041 150.313723 
L 349.785124 150.313723 
z
" style="fill:#ff99cc;"/>
   </g>
   <g id="patch_52">
    <path clip-path="url(#pb86293b0fc)" d="M 375.404959 224.202871 
L 388.214876 224.202871 
L 388.214876 143.603539 
L 375.404959 143.603539 
z
" style="fill:#993300;"/>
   </g>
   <g id="patch_53">
    <path clip-path="url(#pb86293b0fc)" d="M 401.024793 224.202871 
L 413.834711 224.202871 
L 413.834711 150.082337 
L 401.024793 150.082337 
z
" style="fill:#3399ff;"/>
   </g>
   <g id="patch_54">
    <path clip-path="url(#pb86293b0fc)" d="M 426.644628 224.202871 
L 439.454545 224.202871 
L 439.454545 151.239265 
L 426.644628 151.239265 
z
" style="fill:#6600ff;"/>
   </g>
   <g id="patch_55">
    <path clip-path="url(#pb86293b0fc)" d="M 452.264463 224.202871 
L 465.07438 224.202871 
L 465.07438 184.327412 
L 452.264463 184.327412 
z
" style="fill:#993300;"/>
   </g>
   <g id="patch_56">
    <path clip-path="url(#pb86293b0fc)" d="M 452.264463 184.250284 
L 465.07438 184.250284 
L 465.07438 141.135426 
L 452.264463 141.135426 
z
" style="fill:#ff99cc;"/>
   </g>
   <g id="patch_57">
    <path clip-path="url(#pb86293b0fc)" d="M 452.264463 141.058297 
L 465.07438 141.058297 
L 465.07438 118.459633 
L 452.264463 118.459633 
z
" style="fill:#993300;"/>
   </g>
   <g id="patch_58">
    <path clip-path="url(#pb86293b0fc)" d="M 452.264463 118.382504 
L 465.07438 118.382504 
L 465.07438 112.443606 
L 452.264463 112.443606 
z
" style="fill:#33cccc;"/>
   </g>
   <g id="patch_59">
    <path clip-path="url(#pb86293b0fc)" d="M 477.884298 224.202871 
L 490.694215 224.202871 
L 490.694215 196.66798 
L 477.884298 196.66798 
z
" style="fill:#6600ff;"/>
   </g>
   <g id="patch_60">
    <path clip-path="url(#pb86293b0fc)" d="M 477.884298 196.590851 
L 490.694215 196.590851 
L 490.694215 186.795526 
L 477.884298 186.795526 
z
" style="fill:#ffa500;"/>
   </g>
   <g id="patch_61">
    <path clip-path="url(#pb86293b0fc)" d="M 477.884298 186.718397 
L 490.694215 186.718397 
L 490.694215 149.002538 
L 477.884298 149.002538 
z
" style="fill:#6600ff;"/>
   </g>
   <g id="patch_62">
    <path clip-path="url(#pb86293b0fc)" d="M 477.884298 148.925409 
L 490.694215 148.925409 
L 490.694215 123.704374 
L 477.884298 123.704374 
z
" style="fill:#ffa500;"/>
   </g>
   <g id="patch_63">
    <path clip-path="url(#pb86293b0fc)" d="M 503.504132 224.202871 
L 516.31405 224.202871 
L 516.31405 187.335426 
L 503.504132 187.335426 
z
" style="fill:#993300;"/>
   </g>
   <g id="patch_64">
    <path clip-path="url(#pb86293b0fc)" d="M 503.504132 187.258297 
L 516.31405 187.258297 
L 516.31405 151.393523 
L 503.504132 151.393523 
z
" style="fill:#33cccc;"/>
   </g>
   <g id="patch_65">
    <path clip-path="url(#pb86293b0fc)" d="M 529.123967 224.202871 
L 541.933884 224.202871 
L 541.933884 130.491686 
L 529.123967 130.491686 
z
" style="fill:#c71585;"/>
   </g>
   <g id="patch_66">
    <path clip-path="url(#pb86293b0fc)" d="M 554.743802 224.202871 
L 567.553719 224.202871 
L 567.553719 170.829917 
L 554.743802 170.829917 
z
" style="fill:#008000;"/>
   </g>
   <g id="patch_67">
    <path clip-path="url(#pb86293b0fc)" d="M 554.743802 170.752788 
L 567.553719 170.752788 
L 567.553719 154.478664 
L 554.743802 154.478664 
z
" style="fill:#008000;"/>
   </g>
   <g id="patch_68">
    <path clip-path="url(#pb86293b0fc)" d="M 554.743802 154.401536 
L 567.553719 154.401536 
L 567.553719 131.571486 
L 554.743802 131.571486 
z
" style="fill:#3399ff;"/>
   </g>
   <g id="patch_69">
    <path clip-path="url(#pb86293b0fc)" d="M 580.363636 224.202871 
L 593.173554 224.202871 
L 593.173554 203.223907 
L 580.363636 203.223907 
z
" style="fill:#6600ff;"/>
   </g>
   <g id="patch_70">
    <path clip-path="url(#pb86293b0fc)" d="M 580.363636 203.146778 
L 593.173554 203.146778 
L 593.173554 186.949783 
L 580.363636 186.949783 
z
" style="fill:#008000;"/>
   </g>
   <g id="patch_71">
    <path clip-path="url(#pb86293b0fc)" d="M 580.363636 186.872654 
L 593.173554 186.872654 
L 593.173554 179.314057 
L 580.363636 179.314057 
z
" style="fill:#ffa500;"/>
   </g>
   <g id="patch_72">
    <path clip-path="url(#pb86293b0fc)" d="M 580.363636 179.236928 
L 593.173554 179.236928 
L 593.173554 169.981503 
L 580.363636 169.981503 
z
" style="fill:#6600ff;"/>
   </g>
   <g id="patch_73">
    <path clip-path="url(#pb86293b0fc)" d="M 580.363636 169.904374 
L 593.173554 169.904374 
L 593.173554 149.850952 
L 580.363636 149.850952 
z
" style="fill:#993300;"/>
   </g>
   <g id="patch_74">
    <path clip-path="url(#pb86293b0fc)" d="M 580.363636 149.773823 
L 593.173554 149.773823 
L 593.173554 147.228581 
L 580.363636 147.228581 
z
" style="fill:#ff99cc;"/>
   </g>
   <g id="patch_75">
    <path clip-path="url(#pb86293b0fc)" d="M 580.363636 147.151452 
L 593.173554 147.151452 
L 593.173554 137.510384 
L 580.363636 137.510384 
z
" style="fill:#6600ff;"/>
   </g>
   <g id="patch_76">
    <path clip-path="url(#pb86293b0fc)" d="M 580.363636 137.433255 
L 593.173554 137.433255 
L 593.173554 119.308047 
L 580.363636 119.308047 
z
" style="fill:#3399ff;"/>
   </g>
   <g id="patch_77">
    <path clip-path="url(#pb86293b0fc)" d="M 580.363636 119.230918 
L 593.173554 119.230918 
L 593.173554 108.51005 
L 580.363636 108.51005 
z
" style="fill:#ffa500;"/>
   </g>
   <g id="patch_78">
    <path clip-path="url(#pb86293b0fc)" d="M 580.363636 108.432922 
L 593.173554 108.432922 
L 593.173554 99.100367 
L 580.363636 99.100367 
z
" style="fill:#008000;"/>
   </g>
   <g id="patch_79">
    <path clip-path="url(#pb86293b0fc)" d="M 580.363636 99.023239 
L 593.173554 99.023239 
L 593.173554 73.339432 
L 580.363636 73.339432 
z
" style="fill:#3399ff;"/>
   </g>
   <g id="patch_80">
    <path clip-path="url(#pb86293b0fc)" d="M 605.983471 224.202871 
L 618.793388 224.202871 
L 618.793388 144.143439 
L 605.983471 144.143439 
z
" style="fill:#c71585;"/>
   </g>
   <g id="matplotlib.axis_1"/>
   <g id="matplotlib.axis_2"/>
  </g>
 </g>
 <defs>
  <clipPath id="pb86293b0fc">
   <rect height="194.04" width="558" x="90" y="30.24"/>
  </clipPath>
 </defs>
</svg>
