<?xml version="1.0" encoding="utf-8" standalone="no"?>
<!DOCTYPE svg PUBLIC "-//W3C//DTD SVG 1.1//EN"
  "http://www.w3.org/Graphics/SVG/1.1/DTD/svg11.dtd">
<svg height="252pt" version="1.1" viewBox="0 0 720 252" width="720pt" xmlns="http://www.w3.org/2000/svg" xmlns:xlink="http://www.w3.org/1999/xlink">
 <metadata>
  <rdf:RDF xmlns:cc="http://creativecommons.org/ns#" xmlns:dc="http://purl.org/dc/elements/1.1/" xmlns:rdf="http://www.w3.org/1999/02/22-rdf-syntax-ns#">
   <cc:Work>
    <dc:type rdf:resource="http://purl.org/dc/dcmitype/StillImage"/>
    <dc:date>2022-01-17T20:55:58.998517</dc:date>
    <dc:format>image/svg+xml</dc:format>
    <dc:creator>
     <cc:Agent>
      <dc:title>Matplotlib v3.4.3, https://matplotlib.org/</dc:title>
     </cc:Agent>
    </dc:creator>
   </cc:Work>
  </rdf:RDF>
 </metadata>
 <defs>
  <style type="text/css">*{stroke-linecap:butt;stroke-linejoin:round;}</style>
 </defs>
 <g id="figure_1">
  <g id="patch_1">
   <path d="M 0 252 
L 720 252 
L 720 0 
L 0 0 
z
" style="fill:#ffffff;"/>
  </g>
  <g id="axes_1">
   <g id="patch_2">
    <path d="M 90 224.28 
L 648 224.28 
L 648 30.24 
L 90 30.24 
z
" style="fill:#ffffff;"/>
   </g>
   <g id="patch_3">
    <path clip-path="url(#p7315f9498e)" d="M 115.363636 224.28 
L 141.048331 224.28 
L 141.048331 223.401255 
L 115.363636 223.401255 
z
" style="fill:none;opacity:0;"/>
   </g>
   <g id="patch_4">
    <path clip-path="url(#p7315f9498e)" d="M 147.469505 224.28 
L 173.1542 224.28 
L 173.1542 223.401255 
L 147.469505 223.401255 
z
" style="fill:none;opacity:0;"/>
   </g>
   <g id="patch_5">
    <path clip-path="url(#p7315f9498e)" d="M 179.575374 224.28 
L 205.260069 224.28 
L 205.260069 223.401255 
L 179.575374 223.401255 
z
" style="fill:none;opacity:0;"/>
   </g>
   <g id="patch_6">
    <path clip-path="url(#p7315f9498e)" d="M 211.681243 224.28 
L 237.365938 224.28 
L 237.365938 223.401255 
L 211.681243 223.401255 
z
" style="fill:none;opacity:0;"/>
   </g>
   <g id="patch_7">
    <path clip-path="url(#p7315f9498e)" d="M 243.787112 224.28 
L 269.471807 224.28 
L 269.471807 223.401255 
L 243.787112 223.401255 
z
" style="fill:none;opacity:0;"/>
   </g>
   <g id="patch_8">
    <path clip-path="url(#p7315f9498e)" d="M 275.89298 224.28 
L 301.577675 224.28 
L 301.577675 223.401255 
L 275.89298 223.401255 
z
" style="fill:none;opacity:0;"/>
   </g>
   <g id="patch_9">
    <path clip-path="url(#p7315f9498e)" d="M 307.998849 224.28 
L 333.683544 224.28 
L 333.683544 223.401255 
L 307.998849 223.401255 
z
" style="fill:none;opacity:0;"/>
   </g>
   <g id="patch_10">
    <path clip-path="url(#p7315f9498e)" d="M 340.104718 224.28 
L 365.789413 224.28 
L 365.789413 223.401255 
L 340.104718 223.401255 
z
" style="fill:none;opacity:0;"/>
   </g>
   <g id="patch_11">
    <path clip-path="url(#p7315f9498e)" d="M 372.210587 224.28 
L 397.895282 224.28 
L 397.895282 223.401255 
L 372.210587 223.401255 
z
" style="fill:none;opacity:0;"/>
   </g>
   <g id="patch_12">
    <path clip-path="url(#p7315f9498e)" d="M 404.316456 224.28 
L 430.001151 224.28 
L 430.001151 223.401255 
L 404.316456 223.401255 
z
" style="fill:none;opacity:0;"/>
   </g>
   <g id="patch_13">
    <path clip-path="url(#p7315f9498e)" d="M 436.422325 224.28 
L 462.10702 224.28 
L 462.10702 223.401255 
L 436.422325 223.401255 
z
" style="fill:none;opacity:0;"/>
   </g>
   <g id="patch_14">
    <path clip-path="url(#p7315f9498e)" d="M 468.528193 224.28 
L 494.212888 224.28 
L 494.212888 223.401255 
L 468.528193 223.401255 
z
" style="fill:none;opacity:0;"/>
   </g>
   <g id="patch_15">
    <path clip-path="url(#p7315f9498e)" d="M 500.634062 224.28 
L 526.318757 224.28 
L 526.318757 223.401255 
L 500.634062 223.401255 
z
" style="fill:none;opacity:0;"/>
   </g>
   <g id="patch_16">
    <path clip-path="url(#p7315f9498e)" d="M 532.739931 224.28 
L 558.424626 224.28 
L 558.424626 223.401255 
L 532.739931 223.401255 
z
" style="fill:none;opacity:0;"/>
   </g>
   <g id="patch_17">
    <path clip-path="url(#p7315f9498e)" d="M 564.8458 224.28 
L 590.530495 224.28 
L 590.530495 223.401255 
L 564.8458 223.401255 
z
" style="fill:none;opacity:0;"/>
   </g>
   <g id="patch_18">
    <path clip-path="url(#p7315f9498e)" d="M 596.951669 224.28 
L 622.636364 224.28 
L 622.636364 223.401255 
L 596.951669 223.401255 
z
" style="fill:none;opacity:0;"/>
   </g>
   <g id="patch_19">
    <path clip-path="url(#p7315f9498e)" d="M 120.179517 224.192126 
L 136.232451 224.192126 
L 136.232451 136.493409 
L 120.179517 136.493409 
z
" style="fill:#c71585;"/>
   </g>
   <g id="patch_20">
    <path clip-path="url(#p7315f9498e)" d="M 120.179517 136.405535 
L 136.232451 136.405535 
L 136.232451 102.134494 
L 120.179517 102.134494 
z
" style="fill:#ffa500;"/>
   </g>
   <g id="patch_21">
    <path clip-path="url(#p7315f9498e)" d="M 120.179517 102.046619 
L 136.232451 102.046619 
L 136.232451 74.366163 
L 120.179517 74.366163 
z
" style="fill:#6600ff;"/>
   </g>
   <g id="patch_22">
    <path clip-path="url(#p7315f9498e)" d="M 120.179517 74.454037 
L 136.232451 74.454037 
L 136.232451 65.84234 
L 120.179517 65.84234 
z
" style="fill:#ffa500;"/>
   </g>
   <g id="patch_23">
    <path clip-path="url(#p7315f9498e)" d="M 120.179517 65.754465 
L 136.232451 65.754465 
L 136.232451 57.054893 
L 120.179517 57.054893 
z
" style="fill:#6600ff;"/>
   </g>
   <g id="patch_24">
    <path clip-path="url(#p7315f9498e)" d="M 120.179517 56.967019 
L 136.232451 56.967019 
L 136.232451 42.81923 
L 120.179517 42.81923 
z
" style="fill:#ffa500;"/>
   </g>
   <g id="patch_25">
    <path clip-path="url(#p7315f9498e)" d="M 120.179517 42.731355 
L 136.232451 42.731355 
L 136.232451 39.48 
L 120.179517 39.48 
z
" style="fill:#6600ff;"/>
   </g>
   <g id="patch_26">
    <path clip-path="url(#p7315f9498e)" d="M 152.285386 224.192126 
L 168.33832 224.192126 
L 168.33832 220.413524 
L 152.285386 220.413524 
z
" style="fill:#3399ff;"/>
   </g>
   <g id="patch_27">
    <path clip-path="url(#p7315f9498e)" d="M 152.285386 220.325649 
L 168.33832 220.325649 
L 168.33832 179.551897 
L 152.285386 179.551897 
z
" style="fill:#ff99cc;"/>
   </g>
   <g id="patch_28">
    <path clip-path="url(#p7315f9498e)" d="M 152.285386 179.464023 
L 168.33832 179.464023 
L 168.33832 132.187561 
L 152.285386 132.187561 
z
" style="fill:#ff99cc;"/>
   </g>
   <g id="patch_29">
    <path clip-path="url(#p7315f9498e)" d="M 152.285386 132.099686 
L 168.33832 132.099686 
L 168.33832 98.092268 
L 152.285386 98.092268 
z
" style="fill:#33cccc;"/>
   </g>
   <g id="patch_30">
    <path clip-path="url(#p7315f9498e)" d="M 152.285386 98.004394 
L 168.33832 98.004394 
L 168.33832 70.76331 
L 152.285386 70.76331 
z
" style="fill:#33cccc;"/>
   </g>
   <g id="patch_31">
    <path clip-path="url(#p7315f9498e)" d="M 152.285386 70.675435 
L 168.33832 70.675435 
L 168.33832 47.125078 
L 152.285386 47.125078 
z
" style="fill:#3399ff;"/>
   </g>
   <g id="patch_32">
    <path clip-path="url(#p7315f9498e)" d="M 184.391254 224.192126 
L 200.444189 224.192126 
L 200.444189 158.462026 
L 184.391254 158.462026 
z
" style="fill:#c71585;"/>
   </g>
   <g id="patch_33">
    <path clip-path="url(#p7315f9498e)" d="M 184.391254 158.374151 
L 200.444189 158.374151 
L 200.444189 150.465449 
L 184.391254 150.465449 
z
" style="fill:#008000;"/>
   </g>
   <g id="patch_34">
    <path clip-path="url(#p7315f9498e)" d="M 184.391254 150.377575 
L 200.444189 150.377575 
L 200.444189 139.744765 
L 184.391254 139.744765 
z
" style="fill:#c71585;"/>
   </g>
   <g id="patch_35">
    <path clip-path="url(#p7315f9498e)" d="M 184.391254 139.65689 
L 200.444189 139.65689 
L 200.444189 93.874294 
L 184.391254 93.874294 
z
" style="fill:#008000;"/>
   </g>
   <g id="patch_36">
    <path clip-path="url(#p7315f9498e)" d="M 184.391254 93.786419 
L 200.444189 93.786419 
L 200.444189 89.744194 
L 184.391254 89.744194 
z
" style="fill:#ff99cc;"/>
   </g>
   <g id="patch_37">
    <path clip-path="url(#p7315f9498e)" d="M 184.391254 89.65632 
L 200.444189 89.65632 
L 200.444189 70.499686 
L 184.391254 70.499686 
z
" style="fill:#6600ff;"/>
   </g>
   <g id="patch_38">
    <path clip-path="url(#p7315f9498e)" d="M 216.497123 224.192126 
L 232.550058 224.192126 
L 232.550058 93.962168 
L 216.497123 93.962168 
z
" style="fill:#993300;"/>
   </g>
   <g id="patch_39">
    <path clip-path="url(#p7315f9498e)" d="M 248.602992 224.192126 
L 264.655926 224.192126 
L 264.655926 154.859173 
L 248.602992 154.859173 
z
" style="fill:#3399ff;"/>
   </g>
   <g id="patch_40">
    <path clip-path="url(#p7315f9498e)" d="M 248.602992 154.771298 
L 264.655926 154.771298 
L 264.655926 149.586705 
L 248.602992 149.586705 
z
" style="fill:#ffa500;"/>
   </g>
   <g id="patch_41">
    <path clip-path="url(#p7315f9498e)" d="M 248.602992 149.49883 
L 264.655926 149.49883 
L 264.655926 87.195835 
L 248.602992 87.195835 
z
" style="fill:#3399ff;"/>
   </g>
   <g id="patch_42">
    <path clip-path="url(#p7315f9498e)" d="M 280.708861 224.192126 
L 296.761795 224.192126 
L 296.761795 202.223509 
L 280.708861 202.223509 
z
" style="fill:#6600ff;"/>
   </g>
   <g id="patch_43">
    <path clip-path="url(#p7315f9498e)" d="M 280.708861 202.135635 
L 296.761795 202.135635 
L 296.761795 182.276006 
L 280.708861 182.276006 
z
" style="fill:#ffa500;"/>
   </g>
   <g id="patch_44">
    <path clip-path="url(#p7315f9498e)" d="M 280.708861 182.188131 
L 296.761795 182.188131 
L 296.761795 125.509101 
L 280.708861 125.509101 
z
" style="fill:#c71585;"/>
   </g>
   <g id="patch_45">
    <path clip-path="url(#p7315f9498e)" d="M 312.81473 224.192126 
L 328.867664 224.192126 
L 328.867664 182.36388 
L 312.81473 182.36388 
z
" style="fill:#c71585;"/>
   </g>
   <g id="patch_46">
    <path clip-path="url(#p7315f9498e)" d="M 312.81473 182.276006 
L 328.867664 182.276006 
L 328.867664 177.882282 
L 312.81473 177.882282 
z
" style="fill:#008000;"/>
   </g>
   <g id="patch_47">
    <path clip-path="url(#p7315f9498e)" d="M 312.81473 177.794408 
L 328.867664 177.794408 
L 328.867664 171.028074 
L 312.81473 171.028074 
z
" style="fill:#c71585;"/>
   </g>
   <g id="patch_48">
    <path clip-path="url(#p7315f9498e)" d="M 312.81473 170.9402 
L 328.867664 170.9402 
L 328.867664 157.056034 
L 312.81473 157.056034 
z
" style="fill:#008000;"/>
   </g>
   <g id="patch_49">
    <path clip-path="url(#p7315f9498e)" d="M 312.81473 156.96816 
L 328.867664 156.96816 
L 328.867664 139.569016 
L 312.81473 139.569016 
z
" style="fill:#ff99cc;"/>
   </g>
   <g id="patch_50">
    <path clip-path="url(#p7315f9498e)" d="M 312.81473 139.481141 
L 328.867664 139.481141 
L 328.867664 135.52679 
L 312.81473 135.52679 
z
" style="fill:#3399ff;"/>
   </g>
   <g id="patch_51">
    <path clip-path="url(#p7315f9498e)" d="M 312.81473 135.438916 
L 328.867664 135.438916 
L 328.867664 130.957318 
L 312.81473 130.957318 
z
" style="fill:#ffa500;"/>
   </g>
   <g id="patch_52">
    <path clip-path="url(#p7315f9498e)" d="M 312.81473 130.869444 
L 328.867664 130.869444 
L 328.867664 129.375578 
L 312.81473 129.375578 
z
" style="fill:#33cccc;"/>
   </g>
   <g id="patch_53">
    <path clip-path="url(#p7315f9498e)" d="M 312.81473 129.287703 
L 328.867664 129.287703 
L 328.867664 127.354465 
L 312.81473 127.354465 
z
" style="fill:#ffa500;"/>
   </g>
   <g id="patch_54">
    <path clip-path="url(#p7315f9498e)" d="M 312.81473 127.266591 
L 328.867664 127.266591 
L 328.867664 118.127646 
L 312.81473 118.127646 
z
" style="fill:#33cccc;"/>
   </g>
   <g id="patch_55">
    <path clip-path="url(#p7315f9498e)" d="M 344.920598 224.192126 
L 360.973533 224.192126 
L 360.973533 220.677147 
L 344.920598 220.677147 
z
" style="fill:#ff99cc;"/>
   </g>
   <g id="patch_56">
    <path clip-path="url(#p7315f9498e)" d="M 344.920598 220.589272 
L 360.973533 220.589272 
L 360.973533 210.132211 
L 344.920598 210.132211 
z
" style="fill:#33cccc;"/>
   </g>
   <g id="patch_57">
    <path clip-path="url(#p7315f9498e)" d="M 344.920598 210.044337 
L 360.973533 210.044337 
L 360.973533 189.745335 
L 344.920598 189.745335 
z
" style="fill:#ff99cc;"/>
   </g>
   <g id="patch_58">
    <path clip-path="url(#p7315f9498e)" d="M 344.920598 189.657461 
L 360.973533 189.657461 
L 360.973533 149.323081 
L 344.920598 149.323081 
z
" style="fill:#33cccc;"/>
   </g>
   <g id="patch_59">
    <path clip-path="url(#p7315f9498e)" d="M 344.920598 149.235207 
L 360.973533 149.235207 
L 360.973533 117.161027 
L 344.920598 117.161027 
z
" style="fill:#33cccc;"/>
   </g>
   <g id="patch_60">
    <path clip-path="url(#p7315f9498e)" d="M 377.026467 224.192126 
L 393.079402 224.192126 
L 393.079402 142.644622 
L 377.026467 142.644622 
z
" style="fill:#ff99cc;"/>
   </g>
   <g id="patch_61">
    <path clip-path="url(#p7315f9498e)" d="M 409.132336 224.192126 
L 425.18527 224.192126 
L 425.18527 200.378146 
L 409.132336 200.378146 
z
" style="fill:#3399ff;"/>
   </g>
   <g id="patch_62">
    <path clip-path="url(#p7315f9498e)" d="M 409.132336 200.290271 
L 425.18527 200.290271 
L 425.18527 191.678573 
L 409.132336 191.678573 
z
" style="fill:#ffa500;"/>
   </g>
   <g id="patch_63">
    <path clip-path="url(#p7315f9498e)" d="M 409.132336 191.590699 
L 425.18527 191.590699 
L 425.18527 180.167019 
L 409.132336 180.167019 
z
" style="fill:#3399ff;"/>
   </g>
   <g id="patch_64">
    <path clip-path="url(#p7315f9498e)" d="M 409.132336 180.079144 
L 425.18527 180.079144 
L 425.18527 168.303966 
L 409.132336 168.303966 
z
" style="fill:#33cccc;"/>
   </g>
   <g id="patch_65">
    <path clip-path="url(#p7315f9498e)" d="M 409.132336 168.216091 
L 425.18527 168.216091 
L 425.18527 162.592126 
L 409.132336 162.592126 
z
" style="fill:#ff99cc;"/>
   </g>
   <g id="patch_66">
    <path clip-path="url(#p7315f9498e)" d="M 409.132336 162.504251 
L 425.18527 162.504251 
L 425.18527 144.489986 
L 409.132336 144.489986 
z
" style="fill:#008000;"/>
   </g>
   <g id="patch_67">
    <path clip-path="url(#p7315f9498e)" d="M 409.132336 144.402111 
L 425.18527 144.402111 
L 425.18527 130.342197 
L 409.132336 130.342197 
z
" style="fill:#6600ff;"/>
   </g>
   <g id="patch_68">
    <path clip-path="url(#p7315f9498e)" d="M 441.238205 224.192126 
L 457.291139 224.192126 
L 457.291139 150.641198 
L 441.238205 150.641198 
z
" style="fill:#993300;"/>
   </g>
   <g id="patch_69">
    <path clip-path="url(#p7315f9498e)" d="M 473.344074 224.192126 
L 489.397008 224.192126 
L 489.397008 140.184137 
L 473.344074 140.184137 
z
" style="fill:#993300;"/>
   </g>
   <g id="patch_70">
    <path clip-path="url(#p7315f9498e)" d="M 505.449942 224.192126 
L 521.502877 224.192126 
L 521.502877 201.432639 
L 505.449942 201.432639 
z
" style="fill:#6600ff;"/>
   </g>
   <g id="patch_71">
    <path clip-path="url(#p7315f9498e)" d="M 505.449942 201.344765 
L 521.502877 201.344765 
L 521.502877 200.202397 
L 505.449942 200.202397 
z
" style="fill:#c71585;"/>
   </g>
   <g id="patch_72">
    <path clip-path="url(#p7315f9498e)" d="M 505.449942 200.114522 
L 521.502877 200.114522 
L 521.502877 198.620656 
L 505.449942 198.620656 
z
" style="fill:#6600ff;"/>
   </g>
   <g id="patch_73">
    <path clip-path="url(#p7315f9498e)" d="M 505.449942 198.532782 
L 521.502877 198.532782 
L 521.502877 187.724223 
L 505.449942 187.724223 
z
" style="fill:#c71585;"/>
   </g>
   <g id="patch_74">
    <path clip-path="url(#p7315f9498e)" d="M 505.449942 187.636348 
L 521.502877 187.636348 
L 521.502877 153.892553 
L 505.449942 153.892553 
z
" style="fill:#008000;"/>
   </g>
   <g id="patch_75">
    <path clip-path="url(#p7315f9498e)" d="M 537.555811 224.192126 
L 553.608746 224.192126 
L 553.608746 153.541056 
L 537.555811 153.541056 
z
" style="fill:#3399ff;"/>
   </g>
   <g id="patch_76">
    <path clip-path="url(#p7315f9498e)" d="M 569.66168 224.192126 
L 585.714614 224.192126 
L 585.714614 213.64719 
L 569.66168 213.64719 
z
" style="fill:#6600ff;"/>
   </g>
   <g id="patch_77">
    <path clip-path="url(#p7315f9498e)" d="M 569.66168 213.559315 
L 585.714614 213.559315 
L 585.714614 208.901969 
L 569.66168 208.901969 
z
" style="fill:#008000;"/>
   </g>
   <g id="patch_78">
    <path clip-path="url(#p7315f9498e)" d="M 569.66168 208.814094 
L 585.714614 208.814094 
L 585.714614 196.863167 
L 569.66168 196.863167 
z
" style="fill:#6600ff;"/>
   </g>
   <g id="patch_79">
    <path clip-path="url(#p7315f9498e)" d="M 569.66168 196.775292 
L 585.714614 196.775292 
L 585.714614 170.061455 
L 569.66168 170.061455 
z
" style="fill:#008000;"/>
   </g>
   <g id="patch_80">
    <path clip-path="url(#p7315f9498e)" d="M 569.66168 169.973581 
L 585.714614 169.973581 
L 585.714614 160.922511 
L 569.66168 160.922511 
z
" style="fill:#c71585;"/>
   </g>
   <g id="patch_81">
    <path clip-path="url(#p7315f9498e)" d="M 601.767549 224.192126 
L 617.820483 224.192126 
L 617.820483 162.767874 
L 601.767549 162.767874 
z
" style="fill:#993300;"/>
   </g>
   <g id="matplotlib.axis_1"/>
   <g id="matplotlib.axis_2"/>
  </g>
 </g>
 <defs>
  <clipPath id="p7315f9498e">
   <rect height="194.04" width="558" x="90" y="30.24"/>
  </clipPath>
 </defs>
</svg>
