<?xml version="1.0" encoding="utf-8" standalone="no"?>
<!DOCTYPE svg PUBLIC "-//W3C//DTD SVG 1.1//EN"
  "http://www.w3.org/Graphics/SVG/1.1/DTD/svg11.dtd">
<svg height="252pt" version="1.1" viewBox="0 0 720 252" width="720pt" xmlns="http://www.w3.org/2000/svg" xmlns:xlink="http://www.w3.org/1999/xlink">
 <metadata>
  <rdf:RDF xmlns:cc="http://creativecommons.org/ns#" xmlns:dc="http://purl.org/dc/elements/1.1/" xmlns:rdf="http://www.w3.org/1999/02/22-rdf-syntax-ns#">
   <cc:Work>
    <dc:type rdf:resource="http://purl.org/dc/dcmitype/StillImage"/>
    <dc:date>2022-11-27T01:22:41.764139</dc:date>
    <dc:format>image/svg+xml</dc:format>
    <dc:creator>
     <cc:Agent>
      <dc:title>Matplotlib v3.4.3, https://matplotlib.org/</dc:title>
     </cc:Agent>
    </dc:creator>
   </cc:Work>
  </rdf:RDF>
 </metadata>
 <defs>
  <style type="text/css">*{stroke-linecap:butt;stroke-linejoin:round;}</style>
 </defs>
 <g id="figure_1">
  <g id="patch_1">
   <path d="M 0 252 
L 720 252 
L 720 0 
L 0 0 
z
" style="fill:#ffffff;"/>
  </g>
  <g id="axes_1">
   <g id="patch_2">
    <path d="M 90 224.28 
L 648 224.28 
L 648 30.24 
L 90 30.24 
z
" style="fill:#ffffff;"/>
   </g>
   <g id="patch_3">
    <path clip-path="url(#p38eabfabd7)" d="M 115.363636 224.28 
L 144.770751 224.28 
L 144.770751 223.754851 
L 115.363636 223.754851 
z
" style="fill:none;opacity:0;"/>
   </g>
   <g id="patch_4">
    <path clip-path="url(#p38eabfabd7)" d="M 152.12253 224.28 
L 181.529644 224.28 
L 181.529644 223.754851 
L 152.12253 223.754851 
z
" style="fill:none;opacity:0;"/>
   </g>
   <g id="patch_5">
    <path clip-path="url(#p38eabfabd7)" d="M 188.881423 224.28 
L 218.288538 224.28 
L 218.288538 223.754851 
L 188.881423 223.754851 
z
" style="fill:none;opacity:0;"/>
   </g>
   <g id="patch_6">
    <path clip-path="url(#p38eabfabd7)" d="M 225.640316 224.28 
L 255.047431 224.28 
L 255.047431 223.754851 
L 225.640316 223.754851 
z
" style="fill:none;opacity:0;"/>
   </g>
   <g id="patch_7">
    <path clip-path="url(#p38eabfabd7)" d="M 262.399209 224.28 
L 291.806324 224.28 
L 291.806324 223.754851 
L 262.399209 223.754851 
z
" style="fill:none;opacity:0;"/>
   </g>
   <g id="patch_8">
    <path clip-path="url(#p38eabfabd7)" d="M 299.158103 224.28 
L 328.565217 224.28 
L 328.565217 223.754851 
L 299.158103 223.754851 
z
" style="fill:none;opacity:0;"/>
   </g>
   <g id="patch_9">
    <path clip-path="url(#p38eabfabd7)" d="M 335.916996 224.28 
L 365.324111 224.28 
L 365.324111 223.754851 
L 335.916996 223.754851 
z
" style="fill:none;opacity:0;"/>
   </g>
   <g id="patch_10">
    <path clip-path="url(#p38eabfabd7)" d="M 372.675889 224.28 
L 402.083004 224.28 
L 402.083004 223.754851 
L 372.675889 223.754851 
z
" style="fill:none;opacity:0;"/>
   </g>
   <g id="patch_11">
    <path clip-path="url(#p38eabfabd7)" d="M 409.434783 224.28 
L 438.841897 224.28 
L 438.841897 223.754851 
L 409.434783 223.754851 
z
" style="fill:none;opacity:0;"/>
   </g>
   <g id="patch_12">
    <path clip-path="url(#p38eabfabd7)" d="M 446.193676 224.28 
L 475.600791 224.28 
L 475.600791 223.754851 
L 446.193676 223.754851 
z
" style="fill:none;opacity:0;"/>
   </g>
   <g id="patch_13">
    <path clip-path="url(#p38eabfabd7)" d="M 482.952569 224.28 
L 512.359684 224.28 
L 512.359684 223.754851 
L 482.952569 223.754851 
z
" style="fill:none;opacity:0;"/>
   </g>
   <g id="patch_14">
    <path clip-path="url(#p38eabfabd7)" d="M 519.711462 224.28 
L 549.118577 224.28 
L 549.118577 223.754851 
L 519.711462 223.754851 
z
" style="fill:none;opacity:0;"/>
   </g>
   <g id="patch_15">
    <path clip-path="url(#p38eabfabd7)" d="M 556.470356 224.28 
L 585.87747 224.28 
L 585.87747 223.754851 
L 556.470356 223.754851 
z
" style="fill:none;opacity:0;"/>
   </g>
   <g id="patch_16">
    <path clip-path="url(#p38eabfabd7)" d="M 593.229249 224.28 
L 622.636364 224.28 
L 622.636364 223.754851 
L 593.229249 223.754851 
z
" style="fill:none;opacity:0;"/>
   </g>
   <g id="patch_17">
    <path clip-path="url(#p38eabfabd7)" d="M 120.87747 224.227485 
L 139.256917 224.227485 
L 139.256917 188.779915 
L 120.87747 188.779915 
z
" style="fill:#9acd32;"/>
   </g>
   <g id="patch_18">
    <path clip-path="url(#p38eabfabd7)" d="M 120.87747 188.7274 
L 139.256917 188.7274 
L 139.256917 170.872327 
L 120.87747 170.872327 
z
" style="fill:#800080;"/>
   </g>
   <g id="patch_19">
    <path clip-path="url(#p38eabfabd7)" d="M 120.87747 170.819812 
L 139.256917 170.819812 
L 139.256917 113.946155 
L 120.87747 113.946155 
z
" style="fill:#c0c0c0;"/>
   </g>
   <g id="patch_20">
    <path clip-path="url(#p38eabfabd7)" d="M 120.87747 113.89364 
L 139.256917 113.89364 
L 139.256917 103.285627 
L 120.87747 103.285627 
z
" style="fill:#ffa500;"/>
   </g>
   <g id="patch_21">
    <path clip-path="url(#p38eabfabd7)" d="M 120.87747 103.233112 
L 139.256917 103.233112 
L 139.256917 99.294493 
L 120.87747 99.294493 
z
" style="fill:#c0c0c0;"/>
   </g>
   <g id="patch_22">
    <path clip-path="url(#p38eabfabd7)" d="M 120.87747 99.241978 
L 139.256917 99.241978 
L 139.256917 79.443853 
L 120.87747 79.443853 
z
" style="fill:#ffa500;"/>
   </g>
   <g id="patch_23">
    <path clip-path="url(#p38eabfabd7)" d="M 120.87747 79.391338 
L 139.256917 79.391338 
L 139.256917 39.48 
L 120.87747 39.48 
z
" style="fill:#9acd32;"/>
   </g>
   <g id="patch_24">
    <path clip-path="url(#p38eabfabd7)" d="M 157.636364 224.227485 
L 176.01581 224.227485 
L 176.01581 162.36491 
L 157.636364 162.36491 
z
" style="fill:#00ff00;"/>
   </g>
   <g id="patch_25">
    <path clip-path="url(#p38eabfabd7)" d="M 157.636364 162.312396 
L 176.01581 162.312396 
L 176.01581 137.892958 
L 157.636364 137.892958 
z
" style="fill:#808000;"/>
   </g>
   <g id="patch_26">
    <path clip-path="url(#p38eabfabd7)" d="M 157.636364 137.840443 
L 176.01581 137.840443 
L 176.01581 45.88682 
L 157.636364 45.88682 
z
" style="fill:#ff0000;"/>
   </g>
   <g id="patch_27">
    <path clip-path="url(#p38eabfabd7)" d="M 194.395257 224.227485 
L 212.774704 224.227485 
L 212.774704 174.863461 
L 194.395257 174.863461 
z
"/>
   </g>
   <g id="patch_28">
    <path clip-path="url(#p38eabfabd7)" d="M 194.395257 174.810946 
L 212.774704 174.810946 
L 212.774704 136.94769 
L 194.395257 136.94769 
z
" style="fill:#00ffff;"/>
   </g>
   <g id="patch_29">
    <path clip-path="url(#p38eabfabd7)" d="M 194.395257 136.895175 
L 212.774704 136.895175 
L 212.774704 107.48682 
L 194.395257 107.48682 
z
" style="fill:#ffa500;"/>
   </g>
   <g id="patch_30">
    <path clip-path="url(#p38eabfabd7)" d="M 194.395257 107.434305 
L 212.774704 107.434305 
L 212.774704 65.789974 
L 194.395257 65.789974 
z
" style="fill:#008000;"/>
   </g>
   <g id="patch_31">
    <path clip-path="url(#p38eabfabd7)" d="M 231.15415 224.227485 
L 249.533597 224.227485 
L 249.533597 174.600887 
L 231.15415 174.600887 
z
" style="fill:#99ccff;"/>
   </g>
   <g id="patch_32">
    <path clip-path="url(#p38eabfabd7)" d="M 231.15415 174.548372 
L 249.533597 174.548372 
L 249.533597 162.78503 
L 231.15415 162.78503 
z
" style="fill:#c0c0c0;"/>
   </g>
   <g id="patch_33">
    <path clip-path="url(#p38eabfabd7)" d="M 231.15415 162.732515 
L 249.533597 162.732515 
L 249.533597 159.58162 
L 231.15415 159.58162 
z
" style="fill:#800080;"/>
   </g>
   <g id="patch_34">
    <path clip-path="url(#p38eabfabd7)" d="M 231.15415 159.529105 
L 249.533597 159.529105 
L 249.533597 93.255277 
L 231.15415 93.255277 
z
" style="fill:#ff00ff;"/>
   </g>
   <g id="patch_35">
    <path clip-path="url(#p38eabfabd7)" d="M 231.15415 93.202762 
L 249.533597 93.202762 
L 249.533597 55.129446 
L 231.15415 55.129446 
z
" style="fill:#800080;"/>
   </g>
   <g id="patch_36">
    <path clip-path="url(#p38eabfabd7)" d="M 267.913043 224.227485 
L 286.29249 224.227485 
L 286.29249 148.921091 
L 267.913043 148.921091 
z
" style="fill:#ffc0cb;"/>
   </g>
   <g id="patch_37">
    <path clip-path="url(#p38eabfabd7)" d="M 267.913043 148.868576 
L 286.29249 148.868576 
L 286.29249 97.456471 
L 267.913043 97.456471 
z
" style="fill:#ffa500;"/>
   </g>
   <g id="patch_38">
    <path clip-path="url(#p38eabfabd7)" d="M 267.913043 97.403956 
L 286.29249 97.403956 
L 286.29249 84.537801 
L 267.913043 84.537801 
z
" style="fill:#c0c0c0;"/>
   </g>
   <g id="patch_39">
    <path clip-path="url(#p38eabfabd7)" d="M 304.671937 224.227485 
L 323.051383 224.227485 
L 323.051383 205.479659 
L 304.671937 205.479659 
z
" style="fill:#9acd32;"/>
   </g>
   <g id="patch_40">
    <path clip-path="url(#p38eabfabd7)" d="M 304.671937 205.427144 
L 323.051383 205.427144 
L 323.051383 194.031407 
L 304.671937 194.031407 
z
" style="fill:#800080;"/>
   </g>
   <g id="patch_41">
    <path clip-path="url(#p38eabfabd7)" d="M 304.671937 193.978892 
L 323.051383 193.978892 
L 323.051383 133.691765 
L 304.671937 133.691765 
z
" style="fill:#c0c0c0;"/>
   </g>
   <g id="patch_42">
    <path clip-path="url(#p38eabfabd7)" d="M 304.671937 133.63925 
L 323.051383 133.63925 
L 323.051383 118.567468 
L 304.671937 118.567468 
z
" style="fill:#ffa500;"/>
   </g>
   <g id="patch_43">
    <path clip-path="url(#p38eabfabd7)" d="M 304.671937 118.514953 
L 323.051383 118.514953 
L 323.051383 86.533367 
L 304.671937 86.533367 
z
" style="fill:#9acd32;"/>
   </g>
   <g id="patch_44">
    <path clip-path="url(#p38eabfabd7)" d="M 341.43083 224.227485 
L 359.810277 224.227485 
L 359.810277 161.787246 
L 341.43083 161.787246 
z
" style="fill:#ff0000;"/>
   </g>
   <g id="patch_45">
    <path clip-path="url(#p38eabfabd7)" d="M 341.43083 161.734731 
L 359.810277 161.734731 
L 359.810277 99.872157 
L 341.43083 99.872157 
z
" style="fill:#ffc0cb;"/>
   </g>
   <g id="patch_46">
    <path clip-path="url(#p38eabfabd7)" d="M 378.189723 224.227485 
L 396.56917 224.227485 
L 396.56917 103.863291 
L 378.189723 103.863291 
z
" style="fill:#ff6600;"/>
   </g>
   <g id="patch_47">
    <path clip-path="url(#p38eabfabd7)" d="M 414.948617 224.227485 
L 433.328063 224.227485 
L 433.328063 158.268747 
L 414.948617 158.268747 
z
" style="fill:#008000;"/>
   </g>
   <g id="patch_48">
    <path clip-path="url(#p38eabfabd7)" d="M 414.948617 158.216232 
L 433.328063 158.216232 
L 433.328063 117.30711 
L 414.948617 117.30711 
z
" style="fill:#008080;"/>
   </g>
   <g id="patch_49">
    <path clip-path="url(#p38eabfabd7)" d="M 451.70751 224.227485 
L 470.086957 224.227485 
L 470.086957 212.306598 
L 451.70751 212.306598 
z
" style="fill:#c0c0c0;"/>
   </g>
   <g id="patch_50">
    <path clip-path="url(#p38eabfabd7)" d="M 451.70751 212.254084 
L 470.086957 212.254084 
L 470.086957 202.066189 
L 451.70751 202.066189 
z
" style="fill:#ffa500;"/>
   </g>
   <g id="patch_51">
    <path clip-path="url(#p38eabfabd7)" d="M 451.70751 202.013674 
L 470.086957 202.013674 
L 470.086957 148.448457 
L 451.70751 148.448457 
z
" style="fill:#008000;"/>
   </g>
   <g id="patch_52">
    <path clip-path="url(#p38eabfabd7)" d="M 451.70751 148.395942 
L 470.086957 148.395942 
L 470.086957 110.165081 
L 451.70751 110.165081 
z
" style="fill:#008080;"/>
   </g>
   <g id="patch_53">
    <path clip-path="url(#p38eabfabd7)" d="M 488.466403 224.227485 
L 506.84585 224.227485 
L 506.84585 180.850162 
L 488.466403 180.850162 
z
" style="fill:#99ccff;"/>
   </g>
   <g id="patch_54">
    <path clip-path="url(#p38eabfabd7)" d="M 488.466403 180.797647 
L 506.84585 180.797647 
L 506.84585 174.600887 
L 488.466403 174.600887 
z
" style="fill:#c0c0c0;"/>
   </g>
   <g id="patch_55">
    <path clip-path="url(#p38eabfabd7)" d="M 488.466403 174.548372 
L 506.84585 174.548372 
L 506.84585 173.760648 
L 488.466403 173.760648 
z
" style="fill:#800080;"/>
   </g>
   <g id="patch_56">
    <path clip-path="url(#p38eabfabd7)" d="M 488.466403 173.708133 
L 506.84585 173.708133 
L 506.84585 136.790145 
L 488.466403 136.790145 
z
" style="fill:#ff00ff;"/>
   </g>
   <g id="patch_57">
    <path clip-path="url(#p38eabfabd7)" d="M 488.466403 136.73763 
L 506.84585 136.73763 
L 506.84585 109.744962 
L 488.466403 109.744962 
z
" style="fill:#800080;"/>
   </g>
   <g id="patch_58">
    <path clip-path="url(#p38eabfabd7)" d="M 525.225296 224.227485 
L 543.604743 224.227485 
L 543.604743 201.698585 
L 525.225296 201.698585 
z
" style="fill:#808000;"/>
   </g>
   <g id="patch_59">
    <path clip-path="url(#p38eabfabd7)" d="M 525.225296 201.64607 
L 543.604743 201.64607 
L 543.604743 198.65272 
L 525.225296 198.65272 
z
" style="fill:#9acd32;"/>
   </g>
   <g id="patch_60">
    <path clip-path="url(#p38eabfabd7)" d="M 525.225296 198.600205 
L 543.604743 198.600205 
L 543.604743 149.55127 
L 525.225296 149.55127 
z
" style="fill:#00ffff;"/>
   </g>
   <g id="patch_61">
    <path clip-path="url(#p38eabfabd7)" d="M 525.225296 149.498755 
L 543.604743 149.498755 
L 543.604743 106.909156 
L 525.225296 106.909156 
z
"/>
   </g>
   <g id="patch_62">
    <path clip-path="url(#p38eabfabd7)" d="M 561.98419 224.227485 
L 580.363636 224.227485 
L 580.363636 131.433623 
L 561.98419 131.433623 
z
" style="fill:#ff6600;"/>
   </g>
   <g id="patch_63">
    <path clip-path="url(#p38eabfabd7)" d="M 598.743083 224.227485 
L 617.12253 224.227485 
L 617.12253 181.690401 
L 598.743083 181.690401 
z
" style="fill:#808000;"/>
   </g>
   <g id="patch_64">
    <path clip-path="url(#p38eabfabd7)" d="M 598.743083 181.637886 
L 617.12253 181.637886 
L 617.12253 132.746496 
L 598.743083 132.746496 
z
" style="fill:#00ff00;"/>
   </g>
   <g id="matplotlib.axis_1"/>
   <g id="matplotlib.axis_2"/>
  </g>
 </g>
 <defs>
  <clipPath id="p38eabfabd7">
   <rect height="194.04" width="558" x="90" y="30.24"/>
  </clipPath>
 </defs>
</svg>
