<?xml version="1.0" encoding="utf-8" standalone="no"?>
<!DOCTYPE svg PUBLIC "-//W3C//DTD SVG 1.1//EN"
  "http://www.w3.org/Graphics/SVG/1.1/DTD/svg11.dtd">
<svg height="252pt" version="1.1" viewBox="0 0 720 252" width="720pt" xmlns="http://www.w3.org/2000/svg" xmlns:xlink="http://www.w3.org/1999/xlink">
 <metadata>
  <rdf:RDF xmlns:cc="http://creativecommons.org/ns#" xmlns:dc="http://purl.org/dc/elements/1.1/" xmlns:rdf="http://www.w3.org/1999/02/22-rdf-syntax-ns#">
   <cc:Work>
    <dc:type rdf:resource="http://purl.org/dc/dcmitype/StillImage"/>
    <dc:date>2021-11-04T15:58:41.783795</dc:date>
    <dc:format>image/svg+xml</dc:format>
    <dc:creator>
     <cc:Agent>
      <dc:title>Matplotlib v3.4.3, https://matplotlib.org/</dc:title>
     </cc:Agent>
    </dc:creator>
   </cc:Work>
  </rdf:RDF>
 </metadata>
 <defs>
  <style type="text/css">*{stroke-linecap:butt;stroke-linejoin:round;}</style>
 </defs>
 <g id="figure_1">
  <g id="patch_1">
   <path d="M 0 252 
L 720 252 
L 720 0 
L 0 0 
z
" style="fill:#ffffff;"/>
  </g>
  <g id="axes_1">
   <g id="patch_2">
    <path d="M 90 224.28 
L 648 224.28 
L 648 30.24 
L 90 30.24 
z
" style="fill:#ffffff;"/>
   </g>
   <g id="patch_3">
    <path clip-path="url(#pd92776110e)" d="M 115.363636 224.28 
L 136.94971 224.28 
L 136.94971 223.537533 
L 115.363636 223.537533 
z
" style="fill:none;opacity:0;"/>
   </g>
   <g id="patch_4">
    <path clip-path="url(#pd92776110e)" d="M 142.346228 224.28 
L 163.932302 224.28 
L 163.932302 223.537533 
L 142.346228 223.537533 
z
" style="fill:none;opacity:0;"/>
   </g>
   <g id="patch_5">
    <path clip-path="url(#pd92776110e)" d="M 169.32882 224.28 
L 190.914894 224.28 
L 190.914894 223.537533 
L 169.32882 223.537533 
z
" style="fill:none;opacity:0;"/>
   </g>
   <g id="patch_6">
    <path clip-path="url(#pd92776110e)" d="M 196.311412 224.28 
L 217.897485 224.28 
L 217.897485 223.537533 
L 196.311412 223.537533 
z
" style="fill:none;opacity:0;"/>
   </g>
   <g id="patch_7">
    <path clip-path="url(#pd92776110e)" d="M 223.294004 224.28 
L 244.880077 224.28 
L 244.880077 223.537533 
L 223.294004 223.537533 
z
" style="fill:none;opacity:0;"/>
   </g>
   <g id="patch_8">
    <path clip-path="url(#pd92776110e)" d="M 250.276596 224.28 
L 271.862669 224.28 
L 271.862669 223.537533 
L 250.276596 223.537533 
z
" style="fill:none;opacity:0;"/>
   </g>
   <g id="patch_9">
    <path clip-path="url(#pd92776110e)" d="M 277.259188 224.28 
L 298.845261 224.28 
L 298.845261 223.537533 
L 277.259188 223.537533 
z
" style="fill:none;opacity:0;"/>
   </g>
   <g id="patch_10">
    <path clip-path="url(#pd92776110e)" d="M 304.241779 224.28 
L 325.827853 224.28 
L 325.827853 223.537533 
L 304.241779 223.537533 
z
" style="fill:none;opacity:0;"/>
   </g>
   <g id="patch_11">
    <path clip-path="url(#pd92776110e)" d="M 331.224371 224.28 
L 352.810445 224.28 
L 352.810445 223.537533 
L 331.224371 223.537533 
z
" style="fill:none;opacity:0;"/>
   </g>
   <g id="patch_12">
    <path clip-path="url(#pd92776110e)" d="M 358.206963 224.28 
L 379.793037 224.28 
L 379.793037 223.537533 
L 358.206963 223.537533 
z
" style="fill:none;opacity:0;"/>
   </g>
   <g id="patch_13">
    <path clip-path="url(#pd92776110e)" d="M 385.189555 224.28 
L 406.775629 224.28 
L 406.775629 223.537533 
L 385.189555 223.537533 
z
" style="fill:none;opacity:0;"/>
   </g>
   <g id="patch_14">
    <path clip-path="url(#pd92776110e)" d="M 412.172147 224.28 
L 433.758221 224.28 
L 433.758221 223.537533 
L 412.172147 223.537533 
z
" style="fill:none;opacity:0;"/>
   </g>
   <g id="patch_15">
    <path clip-path="url(#pd92776110e)" d="M 439.154739 224.28 
L 460.740812 224.28 
L 460.740812 223.537533 
L 439.154739 223.537533 
z
" style="fill:none;opacity:0;"/>
   </g>
   <g id="patch_16">
    <path clip-path="url(#pd92776110e)" d="M 466.137331 224.28 
L 487.723404 224.28 
L 487.723404 223.537533 
L 466.137331 223.537533 
z
" style="fill:none;opacity:0;"/>
   </g>
   <g id="patch_17">
    <path clip-path="url(#pd92776110e)" d="M 493.119923 224.28 
L 514.705996 224.28 
L 514.705996 223.537533 
L 493.119923 223.537533 
z
" style="fill:none;opacity:0;"/>
   </g>
   <g id="patch_18">
    <path clip-path="url(#pd92776110e)" d="M 520.102515 224.28 
L 541.688588 224.28 
L 541.688588 223.537533 
L 520.102515 223.537533 
z
" style="fill:none;opacity:0;"/>
   </g>
   <g id="patch_19">
    <path clip-path="url(#pd92776110e)" d="M 547.085106 224.28 
L 568.67118 224.28 
L 568.67118 223.537533 
L 547.085106 223.537533 
z
" style="fill:none;opacity:0;"/>
   </g>
   <g id="patch_20">
    <path clip-path="url(#pd92776110e)" d="M 574.067698 224.28 
L 595.653772 224.28 
L 595.653772 223.537533 
L 574.067698 223.537533 
z
" style="fill:none;opacity:0;"/>
   </g>
   <g id="patch_21">
    <path clip-path="url(#pd92776110e)" d="M 601.05029 224.28 
L 622.636364 224.28 
L 622.636364 223.537533 
L 601.05029 223.537533 
z
" style="fill:none;opacity:0;"/>
   </g>
   <g id="patch_22">
    <path clip-path="url(#pd92776110e)" d="M 119.411025 224.205753 
L 132.902321 224.205753 
L 132.902321 149.587834 
L 119.411025 149.587834 
z
" style="fill:#ffa500;"/>
   </g>
   <g id="patch_23">
    <path clip-path="url(#pd92776110e)" d="M 119.411025 149.513588 
L 132.902321 149.513588 
L 132.902321 122.562041 
L 119.411025 122.562041 
z
" style="fill:#ffc0cb;"/>
   </g>
   <g id="patch_24">
    <path clip-path="url(#pd92776110e)" d="M 119.411025 122.487794 
L 132.902321 122.487794 
L 132.902321 110.905311 
L 119.411025 110.905311 
z
" style="fill:#00ff00;"/>
   </g>
   <g id="patch_25">
    <path clip-path="url(#pd92776110e)" d="M 119.411025 110.831065 
L 132.902321 110.831065 
L 132.902321 68.584701 
L 119.411025 68.584701 
z
" style="fill:#00ffff;"/>
   </g>
   <g id="patch_26">
    <path clip-path="url(#pd92776110e)" d="M 119.411025 68.510454 
L 132.902321 68.510454 
L 132.902321 39.48 
L 119.411025 39.48 
z
" style="fill:#00ff00;"/>
   </g>
   <g id="patch_27">
    <path clip-path="url(#pd92776110e)" d="M 146.393617 224.205753 
L 159.884913 224.205753 
L 159.884913 193.616119 
L 146.393617 193.616119 
z
" style="fill:#800080;"/>
   </g>
   <g id="patch_28">
    <path clip-path="url(#pd92776110e)" d="M 146.393617 193.541872 
L 159.884913 193.541872 
L 159.884913 174.014994 
L 146.393617 174.014994 
z
" style="fill:#ffc0cb;"/>
   </g>
   <g id="patch_29">
    <path clip-path="url(#pd92776110e)" d="M 146.393617 173.940747 
L 159.884913 173.940747 
L 159.884913 124.566701 
L 146.393617 124.566701 
z
" style="fill:#ff6600;"/>
   </g>
   <g id="patch_30">
    <path clip-path="url(#pd92776110e)" d="M 146.393617 124.492455 
L 159.884913 124.492455 
L 159.884913 103.55489 
L 146.393617 103.55489 
z
" style="fill:#ffc0cb;"/>
   </g>
   <g id="patch_31">
    <path clip-path="url(#pd92776110e)" d="M 146.393617 103.480643 
L 159.884913 103.480643 
L 159.884913 61.160032 
L 146.393617 61.160032 
z
" style="fill:#008000;"/>
   </g>
   <g id="patch_32">
    <path clip-path="url(#pd92776110e)" d="M 173.376209 224.205753 
L 186.867505 224.205753 
L 186.867505 195.472286 
L 173.376209 195.472286 
z
" style="fill:#008080;"/>
   </g>
   <g id="patch_33">
    <path clip-path="url(#pd92776110e)" d="M 173.376209 195.398039 
L 186.867505 195.398039 
L 186.867505 186.19145 
L 173.376209 186.19145 
z
" style="fill:#ff6600;"/>
   </g>
   <g id="patch_34">
    <path clip-path="url(#pd92776110e)" d="M 173.376209 186.117204 
L 186.867505 186.117204 
L 186.867505 181.513909 
L 173.376209 181.513909 
z
" style="fill:#008080;"/>
   </g>
   <g id="patch_35">
    <path clip-path="url(#pd92776110e)" d="M 173.376209 181.439663 
L 186.867505 181.439663 
L 186.867505 177.430342 
L 173.376209 177.430342 
z
" style="fill:#800080;"/>
   </g>
   <g id="patch_36">
    <path clip-path="url(#pd92776110e)" d="M 173.376209 177.356095 
L 186.867505 177.356095 
L 186.867505 141.049466 
L 173.376209 141.049466 
z
" style="fill:#808000;"/>
   </g>
   <g id="patch_37">
    <path clip-path="url(#pd92776110e)" d="M 173.376209 140.975219 
L 186.867505 140.975219 
L 186.867505 47.350149 
L 173.376209 47.350149 
z
" style="fill:#9acd32;"/>
   </g>
   <g id="patch_38">
    <path clip-path="url(#pd92776110e)" d="M 200.358801 224.205753 
L 213.850097 224.205753 
L 213.850097 190.349265 
L 200.358801 190.349265 
z
" style="fill:#ff0000;"/>
   </g>
   <g id="patch_39">
    <path clip-path="url(#pd92776110e)" d="M 200.358801 190.275018 
L 213.850097 190.275018 
L 213.850097 117.290526 
L 200.358801 117.290526 
z
" style="fill:#ff6600;"/>
   </g>
   <g id="patch_40">
    <path clip-path="url(#pd92776110e)" d="M 200.358801 117.21628 
L 213.850097 117.21628 
L 213.850097 94.793781 
L 200.358801 94.793781 
z
" style="fill:#ffc0cb;"/>
   </g>
   <g id="patch_41">
    <path clip-path="url(#pd92776110e)" d="M 200.358801 94.719534 
L 213.850097 94.719534 
L 213.850097 55.443037 
L 200.358801 55.443037 
z
" style="fill:#008000;"/>
   </g>
   <g id="patch_42">
    <path clip-path="url(#pd92776110e)" d="M 227.341393 224.205753 
L 240.832689 224.205753 
L 240.832689 185.820217 
L 227.341393 185.820217 
z
" style="fill:#9acd32;"/>
   </g>
   <g id="patch_43">
    <path clip-path="url(#pd92776110e)" d="M 227.341393 185.74597 
L 240.832689 185.74597 
L 240.832689 176.539381 
L 227.341393 176.539381 
z
" style="fill:#ff0000;"/>
   </g>
   <g id="patch_44">
    <path clip-path="url(#pd92776110e)" d="M 227.341393 176.465135 
L 240.832689 176.465135 
L 240.832689 166.293339 
L 227.341393 166.293339 
z
" style="fill:#99ccff;"/>
   </g>
   <g id="patch_45">
    <path clip-path="url(#pd92776110e)" d="M 227.341393 166.219092 
L 240.832689 166.219092 
L 240.832689 115.731346 
L 227.341393 115.731346 
z
" style="fill:#008000;"/>
   </g>
   <g id="patch_46">
    <path clip-path="url(#pd92776110e)" d="M 254.323985 224.205753 
L 267.81528 224.205753 
L 267.81528 196.660233 
L 254.323985 196.660233 
z
" style="fill:#00ff00;"/>
   </g>
   <g id="patch_47">
    <path clip-path="url(#pd92776110e)" d="M 254.323985 196.585986 
L 267.81528 196.585986 
L 267.81528 163.249225 
L 254.323985 163.249225 
z
" style="fill:#00ffff;"/>
   </g>
   <g id="patch_48">
    <path clip-path="url(#pd92776110e)" d="M 254.323985 163.174978 
L 267.81528 163.174978 
L 267.81528 157.012503 
L 254.323985 157.012503 
z
" style="fill:#800080;"/>
   </g>
   <g id="patch_49">
    <path clip-path="url(#pd92776110e)" d="M 254.323985 156.938256 
L 267.81528 156.938256 
L 267.81528 145.43002 
L 254.323985 145.43002 
z
" style="fill:#00ffff;"/>
   </g>
   <g id="patch_50">
    <path clip-path="url(#pd92776110e)" d="M 254.323985 145.355773 
L 267.81528 145.355773 
L 267.81528 142.385906 
L 254.323985 142.385906 
z
" style="fill:#00ff00;"/>
   </g>
   <g id="patch_51">
    <path clip-path="url(#pd92776110e)" d="M 254.323985 142.311659 
L 267.81528 142.311659 
L 267.81528 105.78229 
L 254.323985 105.78229 
z
" style="fill:#ff0000;"/>
   </g>
   <g id="patch_52">
    <path clip-path="url(#pd92776110e)" d="M 281.306576 224.205753 
L 294.797872 224.205753 
L 294.797872 190.943238 
L 281.306576 190.943238 
z
" style="fill:#008000;"/>
   </g>
   <g id="patch_53">
    <path clip-path="url(#pd92776110e)" d="M 281.306576 190.868992 
L 294.797872 190.868992 
L 294.797872 182.701856 
L 281.306576 182.701856 
z
" style="fill:#ff6600;"/>
   </g>
   <g id="patch_54">
    <path clip-path="url(#pd92776110e)" d="M 281.306576 182.627609 
L 294.797872 182.627609 
L 294.797872 167.258546 
L 281.306576 167.258546 
z
" style="fill:#008000;"/>
   </g>
   <g id="patch_55">
    <path clip-path="url(#pd92776110e)" d="M 281.306576 167.184299 
L 294.797872 167.184299 
L 294.797872 120.928614 
L 281.306576 120.928614 
z
" style="fill:#99ccff;"/>
   </g>
   <g id="patch_56">
    <path clip-path="url(#pd92776110e)" d="M 308.289168 224.205753 
L 321.780464 224.205753 
L 321.780464 204.753122 
L 308.289168 204.753122 
z
" style="fill:#00ff00;"/>
   </g>
   <g id="patch_57">
    <path clip-path="url(#pd92776110e)" d="M 308.289168 204.678875 
L 321.780464 204.678875 
L 321.780464 198.5164 
L 308.289168 198.5164 
z
" style="fill:#ff6600;"/>
   </g>
   <g id="patch_58">
    <path clip-path="url(#pd92776110e)" d="M 308.289168 198.442153 
L 321.780464 198.442153 
L 321.780464 185.448984 
L 308.289168 185.448984 
z
" style="fill:#00ff00;"/>
   </g>
   <g id="patch_59">
    <path clip-path="url(#pd92776110e)" d="M 308.289168 185.374737 
L 321.780464 185.374737 
L 321.780464 95.758988 
L 308.289168 95.758988 
z
" style="fill:#ff6600;"/>
   </g>
   <g id="patch_60">
    <path clip-path="url(#pd92776110e)" d="M 335.27176 224.205753 
L 348.763056 224.205753 
L 348.763056 180.251716 
L 335.27176 180.251716 
z
" style="fill:#99ccff;"/>
   </g>
   <g id="patch_61">
    <path clip-path="url(#pd92776110e)" d="M 335.27176 180.177469 
L 348.763056 180.177469 
L 348.763056 132.88233 
L 335.27176 132.88233 
z
" style="fill:#808000;"/>
   </g>
   <g id="patch_62">
    <path clip-path="url(#pd92776110e)" d="M 362.254352 224.205753 
L 375.745648 224.205753 
L 375.745648 188.418851 
L 362.254352 188.418851 
z
" style="fill:#99ccff;"/>
   </g>
   <g id="patch_63">
    <path clip-path="url(#pd92776110e)" d="M 362.254352 188.344604 
L 375.745648 188.344604 
L 375.745648 173.272527 
L 362.254352 173.272527 
z
" style="fill:#ff0000;"/>
   </g>
   <g id="patch_64">
    <path clip-path="url(#pd92776110e)" d="M 362.254352 173.19828 
L 375.745648 173.19828 
L 375.745648 156.121543 
L 362.254352 156.121543 
z
" style="fill:#808000;"/>
   </g>
   <g id="patch_65">
    <path clip-path="url(#pd92776110e)" d="M 362.254352 156.047296 
L 375.745648 156.047296 
L 375.745648 138.822065 
L 362.254352 138.822065 
z
" style="fill:#99ccff;"/>
   </g>
   <g id="patch_66">
    <path clip-path="url(#pd92776110e)" d="M 362.254352 138.747818 
L 375.745648 138.747818 
L 375.745648 118.77546 
L 362.254352 118.77546 
z
" style="fill:#808000;"/>
   </g>
   <g id="patch_67">
    <path clip-path="url(#pd92776110e)" d="M 389.236944 224.205753 
L 402.72824 224.205753 
L 402.72824 207.426002 
L 389.236944 207.426002 
z
" style="fill:#00ff00;"/>
   </g>
   <g id="patch_68">
    <path clip-path="url(#pd92776110e)" d="M 389.236944 207.351756 
L 402.72824 207.351756 
L 402.72824 202.896955 
L 389.236944 202.896955 
z
" style="fill:#9acd32;"/>
   </g>
   <g id="patch_69">
    <path clip-path="url(#pd92776110e)" d="M 389.236944 202.822708 
L 402.72824 202.822708 
L 402.72824 196.289 
L 389.236944 196.289 
z
" style="fill:#00ff00;"/>
   </g>
   <g id="patch_70">
    <path clip-path="url(#pd92776110e)" d="M 389.236944 196.214753 
L 402.72824 196.214753 
L 402.72824 190.349265 
L 389.236944 190.349265 
z
" style="fill:#00ffff;"/>
   </g>
   <g id="patch_71">
    <path clip-path="url(#pd92776110e)" d="M 389.236944 190.275018 
L 402.72824 190.275018 
L 402.72824 183.147336 
L 389.236944 183.147336 
z
" style="fill:#00ff00;"/>
   </g>
   <g id="patch_72">
    <path clip-path="url(#pd92776110e)" d="M 389.236944 183.07309 
L 402.72824 183.07309 
L 402.72824 110.459831 
L 389.236944 110.459831 
z
" style="fill:#ff6600;"/>
   </g>
   <g id="patch_73">
    <path clip-path="url(#pd92776110e)" d="M 416.219536 224.205753 
L 429.710832 224.205753 
L 429.710832 159.462644 
L 416.219536 159.462644 
z
" style="fill:#ffc0cb;"/>
   </g>
   <g id="patch_74">
    <path clip-path="url(#pd92776110e)" d="M 416.219536 159.388397 
L 429.710832 159.388397 
L 429.710832 128.798763 
L 416.219536 128.798763 
z
" style="fill:#800080;"/>
   </g>
   <g id="patch_75">
    <path clip-path="url(#pd92776110e)" d="M 443.202128 224.205753 
L 456.693424 224.205753 
L 456.693424 174.386227 
L 443.202128 174.386227 
z
" style="fill:#c0c0c0;"/>
   </g>
   <g id="patch_76">
    <path clip-path="url(#pd92776110e)" d="M 443.202128 174.311981 
L 456.693424 174.311981 
L 456.693424 149.959068 
L 443.202128 149.959068 
z
" style="fill:#ff00ff;"/>
   </g>
   <g id="patch_77">
    <path clip-path="url(#pd92776110e)" d="M 443.202128 149.884821 
L 456.693424 149.884821 
L 456.693424 137.856858 
L 443.202128 137.856858 
z
" style="fill:#c0c0c0;"/>
   </g>
   <g id="patch_78">
    <path clip-path="url(#pd92776110e)" d="M 443.202128 137.782611 
L 456.693424 137.782611 
L 456.693424 133.476304 
L 443.202128 133.476304 
z
" style="fill:#ff00ff;"/>
   </g>
   <g id="patch_79">
    <path clip-path="url(#pd92776110e)" d="M 470.18472 224.205753 
L 483.676015 224.205753 
L 483.676015 175.796914 
L 470.18472 175.796914 
z
" style="fill:#ff00ff;"/>
   </g>
   <g id="patch_80">
    <path clip-path="url(#pd92776110e)" d="M 470.18472 175.722668 
L 483.676015 175.722668 
L 483.676015 128.873009 
L 470.18472 128.873009 
z
" style="fill:#c0c0c0;"/>
   </g>
   <g id="patch_81">
    <path clip-path="url(#pd92776110e)" d="M 470.18472 128.798763 
L 483.676015 128.798763 
L 483.676015 118.255733 
L 470.18472 118.255733 
z
" style="fill:#ff6600;"/>
   </g>
   <g id="patch_82">
    <path clip-path="url(#pd92776110e)" d="M 497.167311 224.205753 
L 510.658607 224.205753 
L 510.658607 207.945729 
L 497.167311 207.945729 
z
" style="fill:#99ccff;"/>
   </g>
   <g id="patch_83">
    <path clip-path="url(#pd92776110e)" d="M 497.167311 207.871483 
L 510.658607 207.871483 
L 510.658607 173.792254 
L 497.167311 173.792254 
z
" style="fill:#9acd32;"/>
   </g>
   <g id="patch_84">
    <path clip-path="url(#pd92776110e)" d="M 497.167311 173.718007 
L 510.658607 173.718007 
L 510.658607 138.896312 
L 497.167311 138.896312 
z
" style="fill:#808000;"/>
   </g>
   <g id="patch_85">
    <path clip-path="url(#pd92776110e)" d="M 497.167311 138.822065 
L 510.658607 138.822065 
L 510.658607 133.921784 
L 497.167311 133.921784 
z
" style="fill:#800080;"/>
   </g>
   <g id="patch_86">
    <path clip-path="url(#pd92776110e)" d="M 497.167311 133.847537 
L 510.658607 133.847537 
L 510.658607 94.793781 
L 497.167311 94.793781 
z
" style="fill:#008080;"/>
   </g>
   <g id="patch_87">
    <path clip-path="url(#pd92776110e)" d="M 524.149903 224.205753 
L 537.641199 224.205753 
L 537.641199 199.704347 
L 524.149903 199.704347 
z
" style="fill:#ff00ff;"/>
   </g>
   <g id="patch_88">
    <path clip-path="url(#pd92776110e)" d="M 524.149903 199.6301 
L 537.641199 199.6301 
L 537.641199 165.031145 
L 524.149903 165.031145 
z
" style="fill:#c0c0c0;"/>
   </g>
   <g id="patch_89">
    <path clip-path="url(#pd92776110e)" d="M 524.149903 164.956898 
L 537.641199 164.956898 
L 537.641199 158.86867 
L 524.149903 158.86867 
z
" style="fill:#ff00ff;"/>
   </g>
   <g id="patch_90">
    <path clip-path="url(#pd92776110e)" d="M 524.149903 158.794423 
L 537.641199 158.794423 
L 537.641199 128.056296 
L 524.149903 128.056296 
z
" style="fill:#c0c0c0;"/>
   </g>
   <g id="patch_91">
    <path clip-path="url(#pd92776110e)" d="M 551.132495 224.205753 
L 564.623791 224.205753 
L 564.623791 199.927087 
L 551.132495 199.927087 
z
" style="fill:#ff00ff;"/>
   </g>
   <g id="patch_92">
    <path clip-path="url(#pd92776110e)" d="M 551.132495 199.85284 
L 564.623791 199.85284 
L 564.623791 170.376906 
L 551.132495 170.376906 
z
" style="fill:#c0c0c0;"/>
   </g>
   <g id="patch_93">
    <path clip-path="url(#pd92776110e)" d="M 551.132495 170.30266 
L 564.623791 170.30266 
L 564.623791 163.100731 
L 551.132495 163.100731 
z
" style="fill:#ff00ff;"/>
   </g>
   <g id="patch_94">
    <path clip-path="url(#pd92776110e)" d="M 551.132495 163.026485 
L 564.623791 163.026485 
L 564.623791 131.32315 
L 551.132495 131.32315 
z
" style="fill:#c0c0c0;"/>
   </g>
   <g id="patch_95">
    <path clip-path="url(#pd92776110e)" d="M 578.115087 224.205753 
L 591.606383 224.205753 
L 591.606383 130.729176 
L 578.115087 130.729176 
z
" style="fill:#ff0000;"/>
   </g>
   <g id="patch_96">
    <path clip-path="url(#pd92776110e)" d="M 605.097679 224.205753 
L 618.588975 224.205753 
L 618.588975 138.079598 
L 605.097679 138.079598 
z
" style="fill:#ffa500;"/>
   </g>
   <g id="matplotlib.axis_1"/>
   <g id="matplotlib.axis_2"/>
  </g>
 </g>
 <defs>
  <clipPath id="pd92776110e">
   <rect height="194.04" width="558" x="90" y="30.24"/>
  </clipPath>
 </defs>
</svg>
