<?xml version="1.0" encoding="utf-8" standalone="no"?>
<!DOCTYPE svg PUBLIC "-//W3C//DTD SVG 1.1//EN"
  "http://www.w3.org/Graphics/SVG/1.1/DTD/svg11.dtd">
<svg height="252pt" version="1.1" viewBox="0 0 720 252" width="720pt" xmlns="http://www.w3.org/2000/svg" xmlns:xlink="http://www.w3.org/1999/xlink">
 <metadata>
  <rdf:RDF xmlns:cc="http://creativecommons.org/ns#" xmlns:dc="http://purl.org/dc/elements/1.1/" xmlns:rdf="http://www.w3.org/1999/02/22-rdf-syntax-ns#">
   <cc:Work>
    <dc:type rdf:resource="http://purl.org/dc/dcmitype/StillImage"/>
    <dc:date>2021-11-04T14:43:54.278921</dc:date>
    <dc:format>image/svg+xml</dc:format>
    <dc:creator>
     <cc:Agent>
      <dc:title>Matplotlib v3.4.3, https://matplotlib.org/</dc:title>
     </cc:Agent>
    </dc:creator>
   </cc:Work>
  </rdf:RDF>
 </metadata>
 <defs>
  <style type="text/css">*{stroke-linecap:butt;stroke-linejoin:round;}</style>
 </defs>
 <g id="figure_1">
  <g id="patch_1">
   <path d="M 0 252 
L 720 252 
L 720 0 
L 0 0 
z
" style="fill:#ffffff;"/>
  </g>
  <g id="axes_1">
   <g id="patch_2">
    <path d="M 90 224.28 
L 648 224.28 
L 648 30.24 
L 90 30.24 
z
" style="fill:#ffffff;"/>
   </g>
   <g id="patch_3">
    <path clip-path="url(#pe2ca8e5632)" d="M 115.363636 224.28 
L 152.939394 224.28 
L 152.939394 223.845585 
L 115.363636 223.845585 
z
" style="fill:none;opacity:0;"/>
   </g>
   <g id="patch_4">
    <path clip-path="url(#pe2ca8e5632)" d="M 162.333333 224.28 
L 199.909091 224.28 
L 199.909091 223.845585 
L 162.333333 223.845585 
z
" style="fill:none;opacity:0;"/>
   </g>
   <g id="patch_5">
    <path clip-path="url(#pe2ca8e5632)" d="M 209.30303 224.28 
L 246.878788 224.28 
L 246.878788 223.845585 
L 209.30303 223.845585 
z
" style="fill:none;opacity:0;"/>
   </g>
   <g id="patch_6">
    <path clip-path="url(#pe2ca8e5632)" d="M 256.272727 224.28 
L 293.848485 224.28 
L 293.848485 223.845585 
L 256.272727 223.845585 
z
" style="fill:none;opacity:0;"/>
   </g>
   <g id="patch_7">
    <path clip-path="url(#pe2ca8e5632)" d="M 303.242424 224.28 
L 340.818182 224.28 
L 340.818182 223.845585 
L 303.242424 223.845585 
z
" style="fill:none;opacity:0;"/>
   </g>
   <g id="patch_8">
    <path clip-path="url(#pe2ca8e5632)" d="M 350.212121 224.28 
L 387.787879 224.28 
L 387.787879 223.845585 
L 350.212121 223.845585 
z
" style="fill:none;opacity:0;"/>
   </g>
   <g id="patch_9">
    <path clip-path="url(#pe2ca8e5632)" d="M 397.181818 224.28 
L 434.757576 224.28 
L 434.757576 223.845585 
L 397.181818 223.845585 
z
" style="fill:none;opacity:0;"/>
   </g>
   <g id="patch_10">
    <path clip-path="url(#pe2ca8e5632)" d="M 444.151515 224.28 
L 481.727273 224.28 
L 481.727273 223.845585 
L 444.151515 223.845585 
z
" style="fill:none;opacity:0;"/>
   </g>
   <g id="patch_11">
    <path clip-path="url(#pe2ca8e5632)" d="M 491.121212 224.28 
L 528.69697 224.28 
L 528.69697 223.845585 
L 491.121212 223.845585 
z
" style="fill:none;opacity:0;"/>
   </g>
   <g id="patch_12">
    <path clip-path="url(#pe2ca8e5632)" d="M 538.090909 224.28 
L 575.666667 224.28 
L 575.666667 223.845585 
L 538.090909 223.845585 
z
" style="fill:none;opacity:0;"/>
   </g>
   <g id="patch_13">
    <path clip-path="url(#pe2ca8e5632)" d="M 585.060606 224.28 
L 622.636364 224.28 
L 622.636364 223.845585 
L 585.060606 223.845585 
z
" style="fill:none;opacity:0;"/>
   </g>
   <g id="patch_14">
    <path clip-path="url(#pe2ca8e5632)" d="M 122.409091 224.236559 
L 145.893939 224.236559 
L 145.893939 218.154753 
L 122.409091 218.154753 
z
" style="fill:#33cccc;"/>
   </g>
   <g id="patch_15">
    <path clip-path="url(#pe2ca8e5632)" d="M 122.409091 218.111312 
L 145.893939 218.111312 
L 145.893939 206.642764 
L 122.409091 206.642764 
z
" style="fill:#993300;"/>
   </g>
   <g id="patch_16">
    <path clip-path="url(#pe2ca8e5632)" d="M 122.409091 206.599323 
L 145.893939 206.599323 
L 145.893939 204.296925 
L 122.409091 204.296925 
z
" style="fill:#008000;"/>
   </g>
   <g id="patch_17">
    <path clip-path="url(#pe2ca8e5632)" d="M 122.409091 204.253484 
L 145.893939 204.253484 
L 145.893939 200.951932 
L 122.409091 200.951932 
z
" style="fill:#993300;"/>
   </g>
   <g id="patch_18">
    <path clip-path="url(#pe2ca8e5632)" d="M 122.409091 200.908491 
L 145.893939 200.908491 
L 145.893939 200.647842 
L 122.409091 200.647842 
z
" style="fill:#3399ff;"/>
   </g>
   <g id="patch_19">
    <path clip-path="url(#pe2ca8e5632)" d="M 122.409091 200.604401 
L 145.893939 200.604401 
L 145.893939 193.17591 
L 122.409091 193.17591 
z
" style="fill:#ff99cc;"/>
   </g>
   <g id="patch_20">
    <path clip-path="url(#pe2ca8e5632)" d="M 122.409091 193.132468 
L 145.893939 193.132468 
L 145.893939 166.633173 
L 122.409091 166.633173 
z
" style="fill:#993300;"/>
   </g>
   <g id="patch_21">
    <path clip-path="url(#pe2ca8e5632)" d="M 122.409091 166.589732 
L 145.893939 166.589732 
L 145.893939 165.329929 
L 122.409091 165.329929 
z
" style="fill:#33cccc;"/>
   </g>
   <g id="patch_22">
    <path clip-path="url(#pe2ca8e5632)" d="M 122.409091 165.286488 
L 145.893939 165.286488 
L 145.893939 161.550522 
L 122.409091 161.550522 
z
" style="fill:#993300;"/>
   </g>
   <g id="patch_23">
    <path clip-path="url(#pe2ca8e5632)" d="M 122.409091 161.50708 
L 145.893939 161.50708 
L 145.893939 158.292412 
L 122.409091 158.292412 
z
" style="fill:#c71585;"/>
   </g>
   <g id="patch_24">
    <path clip-path="url(#pe2ca8e5632)" d="M 122.409091 158.24897 
L 145.893939 158.24897 
L 145.893939 152.862228 
L 122.409091 152.862228 
z
" style="fill:#ffa500;"/>
   </g>
   <g id="patch_25">
    <path clip-path="url(#pe2ca8e5632)" d="M 122.409091 152.818787 
L 145.893939 152.818787 
L 145.893939 150.646714 
L 122.409091 150.646714 
z
" style="fill:#6600ff;"/>
   </g>
   <g id="patch_26">
    <path clip-path="url(#pe2ca8e5632)" d="M 122.409091 150.603272 
L 145.893939 150.603272 
L 145.893939 146.823865 
L 122.409091 146.823865 
z
" style="fill:#c71585;"/>
   </g>
   <g id="patch_27">
    <path clip-path="url(#pe2ca8e5632)" d="M 122.409091 146.780423 
L 145.893939 146.780423 
L 145.893939 143.782962 
L 122.409091 143.782962 
z
" style="fill:#3399ff;"/>
   </g>
   <g id="patch_28">
    <path clip-path="url(#pe2ca8e5632)" d="M 122.409091 143.73952 
L 145.893939 143.73952 
L 145.893939 139.395374 
L 122.409091 139.395374 
z
" style="fill:#993300;"/>
   </g>
   <g id="patch_29">
    <path clip-path="url(#pe2ca8e5632)" d="M 122.409091 139.351932 
L 145.893939 139.351932 
L 145.893939 138.309337 
L 122.409091 138.309337 
z
" style="fill:#33cccc;"/>
   </g>
   <g id="patch_30">
    <path clip-path="url(#pe2ca8e5632)" d="M 122.409091 138.265896 
L 145.893939 138.265896 
L 145.893939 133.009478 
L 122.409091 133.009478 
z
" style="fill:#993300;"/>
   </g>
   <g id="patch_31">
    <path clip-path="url(#pe2ca8e5632)" d="M 122.409091 132.966037 
L 145.893939 132.966037 
L 145.893939 132.531622 
L 122.409091 132.531622 
z
" style="fill:#33cccc;"/>
   </g>
   <g id="patch_32">
    <path clip-path="url(#pe2ca8e5632)" d="M 122.409091 132.488181 
L 145.893939 132.488181 
L 145.893939 127.362087 
L 122.409091 127.362087 
z
" style="fill:#6600ff;"/>
   </g>
   <g id="patch_33">
    <path clip-path="url(#pe2ca8e5632)" d="M 122.409091 127.318646 
L 145.893939 127.318646 
L 145.893939 125.66787 
L 122.409091 125.66787 
z
" style="fill:#ff99cc;"/>
   </g>
   <g id="patch_34">
    <path clip-path="url(#pe2ca8e5632)" d="M 122.409091 125.624429 
L 145.893939 125.624429 
L 145.893939 120.281128 
L 122.409091 120.281128 
z
" style="fill:#6600ff;"/>
   </g>
   <g id="patch_35">
    <path clip-path="url(#pe2ca8e5632)" d="M 122.409091 120.237687 
L 145.893939 120.237687 
L 145.893939 112.505106 
L 122.409091 112.505106 
z
" style="fill:#3399ff;"/>
   </g>
   <g id="patch_36">
    <path clip-path="url(#pe2ca8e5632)" d="M 122.409091 112.461664 
L 145.893939 112.461664 
L 145.893939 110.593681 
L 122.409091 110.593681 
z
" style="fill:#33cccc;"/>
   </g>
   <g id="patch_37">
    <path clip-path="url(#pe2ca8e5632)" d="M 122.409091 110.55024 
L 145.893939 110.55024 
L 145.893939 104.511876 
L 122.409091 104.511876 
z
" style="fill:#c71585;"/>
   </g>
   <g id="patch_38">
    <path clip-path="url(#pe2ca8e5632)" d="M 169.378788 224.236559 
L 192.863636 224.236559 
L 192.863636 212.811453 
L 169.378788 212.811453 
z
" style="fill:#3399ff;"/>
   </g>
   <g id="patch_39">
    <path clip-path="url(#pe2ca8e5632)" d="M 169.378788 212.768011 
L 192.863636 212.768011 
L 192.863636 211.204118 
L 169.378788 211.204118 
z
" style="fill:#993300;"/>
   </g>
   <g id="patch_40">
    <path clip-path="url(#pe2ca8e5632)" d="M 169.378788 211.160677 
L 192.863636 211.160677 
L 192.863636 208.901721 
L 169.378788 208.901721 
z
" style="fill:#3399ff;"/>
   </g>
   <g id="patch_41">
    <path clip-path="url(#pe2ca8e5632)" d="M 169.378788 208.858279 
L 192.863636 208.858279 
L 192.863636 202.385501 
L 169.378788 202.385501 
z
" style="fill:#ff99cc;"/>
   </g>
   <g id="patch_42">
    <path clip-path="url(#pe2ca8e5632)" d="M 169.378788 202.342059 
L 192.863636 202.342059 
L 192.863636 194.783244 
L 169.378788 194.783244 
z
" style="fill:#3399ff;"/>
   </g>
   <g id="patch_43">
    <path clip-path="url(#pe2ca8e5632)" d="M 169.378788 194.739803 
L 192.863636 194.739803 
L 192.863636 188.527673 
L 169.378788 188.527673 
z
" style="fill:#993300;"/>
   </g>
   <g id="patch_44">
    <path clip-path="url(#pe2ca8e5632)" d="M 169.378788 188.484231 
L 192.863636 188.484231 
L 192.863636 184.617941 
L 169.378788 184.617941 
z
" style="fill:#33cccc;"/>
   </g>
   <g id="patch_45">
    <path clip-path="url(#pe2ca8e5632)" d="M 169.378788 184.574499 
L 192.863636 184.574499 
L 192.863636 183.184372 
L 169.378788 183.184372 
z
" style="fill:#ff99cc;"/>
   </g>
   <g id="patch_46">
    <path clip-path="url(#pe2ca8e5632)" d="M 169.378788 183.140931 
L 192.863636 183.140931 
L 192.863636 174.191989 
L 169.378788 174.191989 
z
" style="fill:#c71585;"/>
   </g>
   <g id="patch_47">
    <path clip-path="url(#pe2ca8e5632)" d="M 169.378788 174.148547 
L 192.863636 174.148547 
L 192.863636 173.887898 
L 169.378788 173.887898 
z
" style="fill:#ff99cc;"/>
   </g>
   <g id="patch_48">
    <path clip-path="url(#pe2ca8e5632)" d="M 169.378788 173.844457 
L 192.863636 173.844457 
L 192.863636 167.806093 
L 169.378788 167.806093 
z
" style="fill:#c71585;"/>
   </g>
   <g id="patch_49">
    <path clip-path="url(#pe2ca8e5632)" d="M 169.378788 167.762652 
L 192.863636 167.762652 
L 192.863636 153.296643 
L 169.378788 153.296643 
z
" style="fill:#993300;"/>
   </g>
   <g id="patch_50">
    <path clip-path="url(#pe2ca8e5632)" d="M 169.378788 153.253202 
L 192.863636 153.253202 
L 192.863636 152.688463 
L 169.378788 152.688463 
z
" style="fill:#008000;"/>
   </g>
   <g id="patch_51">
    <path clip-path="url(#pe2ca8e5632)" d="M 169.378788 152.645021 
L 192.863636 152.645021 
L 192.863636 149.691001 
L 169.378788 149.691001 
z
" style="fill:#6600ff;"/>
   </g>
   <g id="patch_52">
    <path clip-path="url(#pe2ca8e5632)" d="M 169.378788 149.64756 
L 192.863636 149.64756 
L 192.863636 148.995938 
L 169.378788 148.995938 
z
" style="fill:#008000;"/>
   </g>
   <g id="patch_53">
    <path clip-path="url(#pe2ca8e5632)" d="M 169.378788 148.952496 
L 192.863636 148.952496 
L 192.863636 139.525698 
L 169.378788 139.525698 
z
" style="fill:#c71585;"/>
   </g>
   <g id="patch_54">
    <path clip-path="url(#pe2ca8e5632)" d="M 169.378788 139.482257 
L 192.863636 139.482257 
L 192.863636 137.961805 
L 169.378788 137.961805 
z
" style="fill:#3399ff;"/>
   </g>
   <g id="patch_55">
    <path clip-path="url(#pe2ca8e5632)" d="M 169.378788 137.918364 
L 192.863636 137.918364 
L 192.863636 131.966883 
L 169.378788 131.966883 
z
" style="fill:#c71585;"/>
   </g>
   <g id="patch_56">
    <path clip-path="url(#pe2ca8e5632)" d="M 169.378788 131.923441 
L 192.863636 131.923441 
L 192.863636 129.447278 
L 169.378788 129.447278 
z
" style="fill:#993300;"/>
   </g>
   <g id="patch_57">
    <path clip-path="url(#pe2ca8e5632)" d="M 169.378788 129.403836 
L 192.863636 129.403836 
L 192.863636 124.755599 
L 169.378788 124.755599 
z
" style="fill:#3399ff;"/>
   </g>
   <g id="patch_58">
    <path clip-path="url(#pe2ca8e5632)" d="M 169.378788 124.712158 
L 192.863636 124.712158 
L 192.863636 121.063075 
L 169.378788 121.063075 
z
" style="fill:#c71585;"/>
   </g>
   <g id="patch_59">
    <path clip-path="url(#pe2ca8e5632)" d="M 169.378788 121.019633 
L 192.863636 121.019633 
L 192.863636 114.894386 
L 169.378788 114.894386 
z
" style="fill:#ff99cc;"/>
   </g>
   <g id="patch_60">
    <path clip-path="url(#pe2ca8e5632)" d="M 169.378788 114.850945 
L 192.863636 114.850945 
L 192.863636 111.201862 
L 169.378788 111.201862 
z
" style="fill:#ffa500;"/>
   </g>
   <g id="patch_61">
    <path clip-path="url(#pe2ca8e5632)" d="M 169.378788 111.15842 
L 192.863636 111.15842 
L 192.863636 107.856869 
L 169.378788 107.856869 
z
" style="fill:#c71585;"/>
   </g>
   <g id="patch_62">
    <path clip-path="url(#pe2ca8e5632)" d="M 216.348485 224.236559 
L 239.833333 224.236559 
L 239.833333 221.890719 
L 216.348485 221.890719 
z
" style="fill:#993300;"/>
   </g>
   <g id="patch_63">
    <path clip-path="url(#pe2ca8e5632)" d="M 216.348485 221.847278 
L 239.833333 221.847278 
L 239.833333 218.458843 
L 216.348485 218.458843 
z
" style="fill:#c71585;"/>
   </g>
   <g id="patch_64">
    <path clip-path="url(#pe2ca8e5632)" d="M 216.348485 218.415402 
L 239.833333 218.415402 
L 239.833333 215.026968 
L 216.348485 215.026968 
z
" style="fill:#ffa500;"/>
   </g>
   <g id="patch_65">
    <path clip-path="url(#pe2ca8e5632)" d="M 216.348485 214.983526 
L 239.833333 214.983526 
L 239.833333 212.377038 
L 216.348485 212.377038 
z
" style="fill:#ff99cc;"/>
   </g>
   <g id="patch_66">
    <path clip-path="url(#pe2ca8e5632)" d="M 216.348485 212.333597 
L 239.833333 212.333597 
L 239.833333 209.509901 
L 216.348485 209.509901 
z
" style="fill:#c71585;"/>
   </g>
   <g id="patch_67">
    <path clip-path="url(#pe2ca8e5632)" d="M 216.348485 209.46646 
L 239.833333 209.46646 
L 239.833333 206.382116 
L 216.348485 206.382116 
z
" style="fill:#33cccc;"/>
   </g>
   <g id="patch_68">
    <path clip-path="url(#pe2ca8e5632)" d="M 216.348485 206.338674 
L 239.833333 206.338674 
L 239.833333 205.513286 
L 216.348485 205.513286 
z
" style="fill:#ffa500;"/>
   </g>
   <g id="patch_69">
    <path clip-path="url(#pe2ca8e5632)" d="M 216.348485 205.469845 
L 239.833333 205.469845 
L 239.833333 199.99622 
L 216.348485 199.99622 
z
" style="fill:#33cccc;"/>
   </g>
   <g id="patch_70">
    <path clip-path="url(#pe2ca8e5632)" d="M 216.348485 199.952779 
L 239.833333 199.952779 
L 239.833333 197.867588 
L 216.348485 197.867588 
z
" style="fill:#ffa500;"/>
   </g>
   <g id="patch_71">
    <path clip-path="url(#pe2ca8e5632)" d="M 216.348485 197.824147 
L 239.833333 197.824147 
L 239.833333 195.738956 
L 216.348485 195.738956 
z
" style="fill:#33cccc;"/>
   </g>
   <g id="patch_72">
    <path clip-path="url(#pe2ca8e5632)" d="M 216.348485 195.695515 
L 239.833333 195.695515 
L 239.833333 188.831763 
L 216.348485 188.831763 
z
" style="fill:#ffa500;"/>
   </g>
   <g id="patch_73">
    <path clip-path="url(#pe2ca8e5632)" d="M 216.348485 188.788322 
L 239.833333 188.788322 
L 239.833333 180.360677 
L 216.348485 180.360677 
z
" style="fill:#3399ff;"/>
   </g>
   <g id="patch_74">
    <path clip-path="url(#pe2ca8e5632)" d="M 216.348485 180.317236 
L 239.833333 180.317236 
L 239.833333 179.491848 
L 216.348485 179.491848 
z
" style="fill:#ffa500;"/>
   </g>
   <g id="patch_75">
    <path clip-path="url(#pe2ca8e5632)" d="M 216.348485 179.448406 
L 239.833333 179.448406 
L 239.833333 169.674076 
L 216.348485 169.674076 
z
" style="fill:#33cccc;"/>
   </g>
   <g id="patch_76">
    <path clip-path="url(#pe2ca8e5632)" d="M 216.348485 169.630635 
L 239.833333 169.630635 
L 239.833333 166.285642 
L 216.348485 166.285642 
z
" style="fill:#993300;"/>
   </g>
   <g id="patch_77">
    <path clip-path="url(#pe2ca8e5632)" d="M 216.348485 166.2422 
L 239.833333 166.2422 
L 239.833333 162.462793 
L 216.348485 162.462793 
z
" style="fill:#33cccc;"/>
   </g>
   <g id="patch_78">
    <path clip-path="url(#pe2ca8e5632)" d="M 216.348485 162.419351 
L 239.833333 162.419351 
L 239.833333 152.297489 
L 216.348485 152.297489 
z
" style="fill:#993300;"/>
   </g>
   <g id="patch_79">
    <path clip-path="url(#pe2ca8e5632)" d="M 216.348485 152.254048 
L 239.833333 152.254048 
L 239.833333 151.645867 
L 216.348485 151.645867 
z
" style="fill:#c71585;"/>
   </g>
   <g id="patch_80">
    <path clip-path="url(#pe2ca8e5632)" d="M 216.348485 151.602426 
L 239.833333 151.602426 
L 239.833333 149.473794 
L 216.348485 149.473794 
z
" style="fill:#6600ff;"/>
   </g>
   <g id="patch_81">
    <path clip-path="url(#pe2ca8e5632)" d="M 216.348485 149.430353 
L 239.833333 149.430353 
L 239.833333 144.30426 
L 216.348485 144.30426 
z
" style="fill:#c71585;"/>
   </g>
   <g id="patch_82">
    <path clip-path="url(#pe2ca8e5632)" d="M 216.348485 144.260818 
L 239.833333 144.260818 
L 239.833333 138.874076 
L 216.348485 138.874076 
z
" style="fill:#ff99cc;"/>
   </g>
   <g id="patch_83">
    <path clip-path="url(#pe2ca8e5632)" d="M 216.348485 138.830635 
L 239.833333 138.830635 
L 239.833333 135.615966 
L 216.348485 135.615966 
z
" style="fill:#3399ff;"/>
   </g>
   <g id="patch_84">
    <path clip-path="url(#pe2ca8e5632)" d="M 216.348485 135.572525 
L 239.833333 135.572525 
L 239.833333 134.269281 
L 216.348485 134.269281 
z
" style="fill:#ff99cc;"/>
   </g>
   <g id="patch_85">
    <path clip-path="url(#pe2ca8e5632)" d="M 216.348485 134.225839 
L 239.833333 134.225839 
L 239.833333 133.226685 
L 216.348485 133.226685 
z
" style="fill:#6600ff;"/>
   </g>
   <g id="patch_86">
    <path clip-path="url(#pe2ca8e5632)" d="M 216.348485 133.183244 
L 239.833333 133.183244 
L 239.833333 128.969422 
L 216.348485 128.969422 
z
" style="fill:#ff99cc;"/>
   </g>
   <g id="patch_87">
    <path clip-path="url(#pe2ca8e5632)" d="M 216.348485 128.92598 
L 239.833333 128.92598 
L 239.833333 128.3178 
L 216.348485 128.3178 
z
" style="fill:#33cccc;"/>
   </g>
   <g id="patch_88">
    <path clip-path="url(#pe2ca8e5632)" d="M 216.348485 128.274358 
L 239.833333 128.274358 
L 239.833333 123.104824 
L 216.348485 123.104824 
z
" style="fill:#c71585;"/>
   </g>
   <g id="patch_89">
    <path clip-path="url(#pe2ca8e5632)" d="M 216.348485 123.061382 
L 239.833333 123.061382 
L 239.833333 113.460818 
L 216.348485 113.460818 
z
" style="fill:#ff99cc;"/>
   </g>
   <g id="patch_90">
    <path clip-path="url(#pe2ca8e5632)" d="M 216.348485 113.417377 
L 239.833333 113.417377 
L 239.833333 112.287898 
L 216.348485 112.287898 
z
" style="fill:#008000;"/>
   </g>
   <g id="patch_91">
    <path clip-path="url(#pe2ca8e5632)" d="M 216.348485 112.244457 
L 239.833333 112.244457 
L 239.833333 103.034866 
L 216.348485 103.034866 
z
" style="fill:#3399ff;"/>
   </g>
   <g id="patch_92">
    <path clip-path="url(#pe2ca8e5632)" d="M 216.348485 102.991425 
L 239.833333 102.991425 
L 239.833333 98.734161 
L 216.348485 98.734161 
z
" style="fill:#6600ff;"/>
   </g>
   <g id="patch_93">
    <path clip-path="url(#pe2ca8e5632)" d="M 216.348485 98.690719 
L 239.833333 98.690719 
L 239.833333 95.476051 
L 216.348485 95.476051 
z
" style="fill:#c71585;"/>
   </g>
   <g id="patch_94">
    <path clip-path="url(#pe2ca8e5632)" d="M 216.348485 95.432609 
L 239.833333 95.432609 
L 239.833333 92.999887 
L 216.348485 92.999887 
z
" style="fill:#993300;"/>
   </g>
   <g id="patch_95">
    <path clip-path="url(#pe2ca8e5632)" d="M 216.348485 92.956446 
L 239.833333 92.956446 
L 239.833333 84.963216 
L 216.348485 84.963216 
z
" style="fill:#33cccc;"/>
   </g>
   <g id="patch_96">
    <path clip-path="url(#pe2ca8e5632)" d="M 216.348485 84.919774 
L 239.833333 84.919774 
L 239.833333 84.528801 
L 216.348485 84.528801 
z
" style="fill:#6600ff;"/>
   </g>
   <g id="patch_97">
    <path clip-path="url(#pe2ca8e5632)" d="M 216.348485 84.48536 
L 239.833333 84.48536 
L 239.833333 83.790296 
L 216.348485 83.790296 
z
" style="fill:#c71585;"/>
   </g>
   <g id="patch_98">
    <path clip-path="url(#pe2ca8e5632)" d="M 216.348485 83.746855 
L 239.833333 83.746855 
L 239.833333 77.665049 
L 216.348485 77.665049 
z
" style="fill:#6600ff;"/>
   </g>
   <g id="patch_99">
    <path clip-path="url(#pe2ca8e5632)" d="M 216.348485 77.621608 
L 239.833333 77.621608 
L 239.833333 70.801298 
L 216.348485 70.801298 
z
" style="fill:#c71585;"/>
   </g>
   <g id="patch_100">
    <path clip-path="url(#pe2ca8e5632)" d="M 263.318182 224.236559 
L 286.80303 224.236559 
L 286.80303 219.805529 
L 263.318182 219.805529 
z
" style="fill:#ffa500;"/>
   </g>
   <g id="patch_101">
    <path clip-path="url(#pe2ca8e5632)" d="M 263.318182 219.762087 
L 286.80303 219.762087 
L 286.80303 213.463075 
L 263.318182 213.463075 
z
" style="fill:#33cccc;"/>
   </g>
   <g id="patch_102">
    <path clip-path="url(#pe2ca8e5632)" d="M 263.318182 213.419633 
L 286.80303 213.419633 
L 286.80303 212.42048 
L 263.318182 212.42048 
z
" style="fill:#3399ff;"/>
   </g>
   <g id="patch_103">
    <path clip-path="url(#pe2ca8e5632)" d="M 263.318182 212.377038 
L 286.80303 212.377038 
L 286.80303 207.555035 
L 263.318182 207.555035 
z
" style="fill:#6600ff;"/>
   </g>
   <g id="patch_104">
    <path clip-path="url(#pe2ca8e5632)" d="M 263.318182 207.511594 
L 286.80303 207.511594 
L 286.80303 198.21512 
L 263.318182 198.21512 
z
" style="fill:#993300;"/>
   </g>
   <g id="patch_105">
    <path clip-path="url(#pe2ca8e5632)" d="M 263.318182 198.171678 
L 286.80303 198.171678 
L 286.80303 193.78409 
L 263.318182 193.78409 
z
" style="fill:#c71585;"/>
   </g>
   <g id="patch_106">
    <path clip-path="url(#pe2ca8e5632)" d="M 263.318182 193.740649 
L 286.80303 193.740649 
L 286.80303 189.526827 
L 263.318182 189.526827 
z
" style="fill:#6600ff;"/>
   </g>
   <g id="patch_107">
    <path clip-path="url(#pe2ca8e5632)" d="M 263.318182 189.483385 
L 286.80303 189.483385 
L 286.80303 185.660536 
L 263.318182 185.660536 
z
" style="fill:#c71585;"/>
   </g>
   <g id="patch_108">
    <path clip-path="url(#pe2ca8e5632)" d="M 263.318182 185.617094 
L 286.80303 185.617094 
L 286.80303 178.883667 
L 263.318182 178.883667 
z
" style="fill:#3399ff;"/>
   </g>
   <g id="patch_109">
    <path clip-path="url(#pe2ca8e5632)" d="M 263.318182 178.840226 
L 286.80303 178.840226 
L 286.80303 167.806093 
L 263.318182 167.806093 
z
" style="fill:#993300;"/>
   </g>
   <g id="patch_110">
    <path clip-path="url(#pe2ca8e5632)" d="M 263.318182 167.762652 
L 286.80303 167.762652 
L 286.80303 161.811171 
L 263.318182 161.811171 
z
" style="fill:#c71585;"/>
   </g>
   <g id="patch_111">
    <path clip-path="url(#pe2ca8e5632)" d="M 263.318182 161.767729 
L 286.80303 161.767729 
L 286.80303 158.900592 
L 263.318182 158.900592 
z
" style="fill:#6600ff;"/>
   </g>
   <g id="patch_112">
    <path clip-path="url(#pe2ca8e5632)" d="M 263.318182 158.857151 
L 286.80303 158.857151 
L 286.80303 150.690155 
L 263.318182 150.690155 
z
" style="fill:#c71585;"/>
   </g>
   <g id="patch_113">
    <path clip-path="url(#pe2ca8e5632)" d="M 263.318182 150.646714 
L 286.80303 150.646714 
L 286.80303 141.133032 
L 263.318182 141.133032 
z
" style="fill:#993300;"/>
   </g>
   <g id="patch_114">
    <path clip-path="url(#pe2ca8e5632)" d="M 263.318182 141.089591 
L 286.80303 141.089591 
L 286.80303 132.705388 
L 263.318182 132.705388 
z
" style="fill:#3399ff;"/>
   </g>
   <g id="patch_115">
    <path clip-path="url(#pe2ca8e5632)" d="M 263.318182 132.661946 
L 286.80303 132.661946 
L 286.80303 111.723159 
L 263.318182 111.723159 
z
" style="fill:#993300;"/>
   </g>
   <g id="patch_116">
    <path clip-path="url(#pe2ca8e5632)" d="M 263.318182 111.679718 
L 286.80303 111.679718 
L 286.80303 108.334725 
L 263.318182 108.334725 
z
" style="fill:#c71585;"/>
   </g>
   <g id="patch_117">
    <path clip-path="url(#pe2ca8e5632)" d="M 263.318182 108.291283 
L 286.80303 108.291283 
L 286.80303 100.949676 
L 263.318182 100.949676 
z
" style="fill:#993300;"/>
   </g>
   <g id="patch_118">
    <path clip-path="url(#pe2ca8e5632)" d="M 263.318182 100.906234 
L 286.80303 100.906234 
L 286.80303 94.607221 
L 263.318182 94.607221 
z
" style="fill:#6600ff;"/>
   </g>
   <g id="patch_119">
    <path clip-path="url(#pe2ca8e5632)" d="M 263.318182 94.56378 
L 286.80303 94.56378 
L 286.80303 91.653202 
L 263.318182 91.653202 
z
" style="fill:#993300;"/>
   </g>
   <g id="patch_120">
    <path clip-path="url(#pe2ca8e5632)" d="M 263.318182 91.60976 
L 286.80303 91.60976 
L 286.80303 88.091001 
L 263.318182 88.091001 
z
" style="fill:#6600ff;"/>
   </g>
   <g id="patch_121">
    <path clip-path="url(#pe2ca8e5632)" d="M 263.318182 88.04756 
L 286.80303 88.04756 
L 286.80303 82.443611 
L 263.318182 82.443611 
z
" style="fill:#008000;"/>
   </g>
   <g id="patch_122">
    <path clip-path="url(#pe2ca8e5632)" d="M 263.318182 82.400169 
L 286.80303 82.400169 
L 286.80303 80.05433 
L 263.318182 80.05433 
z
" style="fill:#c71585;"/>
   </g>
   <g id="patch_123">
    <path clip-path="url(#pe2ca8e5632)" d="M 263.318182 80.010889 
L 286.80303 80.010889 
L 286.80303 49.167447 
L 263.318182 49.167447 
z
" style="fill:#993300;"/>
   </g>
   <g id="patch_124">
    <path clip-path="url(#pe2ca8e5632)" d="M 263.318182 49.124006 
L 286.80303 49.124006 
L 286.80303 46.517518 
L 263.318182 46.517518 
z
" style="fill:#008000;"/>
   </g>
   <g id="patch_125">
    <path clip-path="url(#pe2ca8e5632)" d="M 263.318182 46.474076 
L 286.80303 46.474076 
L 286.80303 41.738956 
L 263.318182 41.738956 
z
" style="fill:#6600ff;"/>
   </g>
   <g id="patch_126">
    <path clip-path="url(#pe2ca8e5632)" d="M 263.318182 41.695515 
L 286.80303 41.695515 
L 286.80303 39.48 
L 263.318182 39.48 
z
" style="fill:#008000;"/>
   </g>
   <g id="patch_127">
    <path clip-path="url(#pe2ca8e5632)" d="M 310.287879 224.236559 
L 333.772727 224.236559 
L 333.772727 218.371961 
L 310.287879 218.371961 
z
" style="fill:#ff99cc;"/>
   </g>
   <g id="patch_128">
    <path clip-path="url(#pe2ca8e5632)" d="M 310.287879 218.328519 
L 333.772727 218.328519 
L 333.772727 215.244175 
L 310.287879 215.244175 
z
" style="fill:#6600ff;"/>
   </g>
   <g id="patch_129">
    <path clip-path="url(#pe2ca8e5632)" d="M 310.287879 215.200733 
L 333.772727 215.200733 
L 333.772727 213.202426 
L 310.287879 213.202426 
z
" style="fill:#008000;"/>
   </g>
   <g id="patch_130">
    <path clip-path="url(#pe2ca8e5632)" d="M 310.287879 213.158984 
L 333.772727 213.158984 
L 333.772727 211.812299 
L 310.287879 211.812299 
z
" style="fill:#6600ff;"/>
   </g>
   <g id="patch_131">
    <path clip-path="url(#pe2ca8e5632)" d="M 310.287879 211.768858 
L 333.772727 211.768858 
L 333.772727 206.078025 
L 310.287879 206.078025 
z
" style="fill:#993300;"/>
   </g>
   <g id="patch_132">
    <path clip-path="url(#pe2ca8e5632)" d="M 310.287879 206.034584 
L 333.772727 206.034584 
L 333.772727 205.773935 
L 310.287879 205.773935 
z
" style="fill:#ffa500;"/>
   </g>
   <g id="patch_133">
    <path clip-path="url(#pe2ca8e5632)" d="M 310.287879 205.730494 
L 333.772727 205.730494 
L 333.772727 201.386347 
L 310.287879 201.386347 
z
" style="fill:#33cccc;"/>
   </g>
   <g id="patch_134">
    <path clip-path="url(#pe2ca8e5632)" d="M 310.287879 201.342906 
L 333.772727 201.342906 
L 333.772727 198.128237 
L 310.287879 198.128237 
z
" style="fill:#ffa500;"/>
   </g>
   <g id="patch_135">
    <path clip-path="url(#pe2ca8e5632)" d="M 310.287879 198.084795 
L 333.772727 198.084795 
L 333.772727 194.435712 
L 310.287879 194.435712 
z
" style="fill:#c71585;"/>
   </g>
   <g id="patch_136">
    <path clip-path="url(#pe2ca8e5632)" d="M 310.287879 194.392271 
L 333.772727 194.392271 
L 333.772727 185.226121 
L 310.287879 185.226121 
z
" style="fill:#3399ff;"/>
   </g>
   <g id="patch_137">
    <path clip-path="url(#pe2ca8e5632)" d="M 310.287879 185.18268 
L 333.772727 185.18268 
L 333.772727 181.490155 
L 310.287879 181.490155 
z
" style="fill:#c71585;"/>
   </g>
   <g id="patch_138">
    <path clip-path="url(#pe2ca8e5632)" d="M 310.287879 181.446714 
L 333.772727 181.446714 
L 333.772727 161.637405 
L 310.287879 161.637405 
z
" style="fill:#993300;"/>
   </g>
   <g id="patch_139">
    <path clip-path="url(#pe2ca8e5632)" d="M 310.287879 161.593963 
L 333.772727 161.593963 
L 333.772727 161.029224 
L 310.287879 161.029224 
z
" style="fill:#3399ff;"/>
   </g>
   <g id="patch_140">
    <path clip-path="url(#pe2ca8e5632)" d="M 310.287879 160.985783 
L 333.772727 160.985783 
L 333.772727 146.99763 
L 310.287879 146.99763 
z
" style="fill:#993300;"/>
   </g>
   <g id="patch_141">
    <path clip-path="url(#pe2ca8e5632)" d="M 310.287879 146.954189 
L 333.772727 146.954189 
L 333.772727 143.522313 
L 310.287879 143.522313 
z
" style="fill:#ffa500;"/>
   </g>
   <g id="patch_142">
    <path clip-path="url(#pe2ca8e5632)" d="M 310.287879 143.478872 
L 333.772727 143.478872 
L 333.772727 135.13811 
L 310.287879 135.13811 
z
" style="fill:#ff99cc;"/>
   </g>
   <g id="patch_143">
    <path clip-path="url(#pe2ca8e5632)" d="M 310.287879 135.094669 
L 333.772727 135.094669 
L 333.772727 134.529929 
L 310.287879 134.529929 
z
" style="fill:#33cccc;"/>
   </g>
   <g id="patch_144">
    <path clip-path="url(#pe2ca8e5632)" d="M 310.287879 134.486488 
L 333.772727 134.486488 
L 333.772727 133.096361 
L 310.287879 133.096361 
z
" style="fill:#ffa500;"/>
   </g>
   <g id="patch_145">
    <path clip-path="url(#pe2ca8e5632)" d="M 310.287879 133.05292 
L 333.772727 133.05292 
L 333.772727 131.054612 
L 310.287879 131.054612 
z
" style="fill:#993300;"/>
   </g>
   <g id="patch_146">
    <path clip-path="url(#pe2ca8e5632)" d="M 310.287879 131.011171 
L 333.772727 131.011171 
L 333.772727 130.055458 
L 310.287879 130.055458 
z
" style="fill:#3399ff;"/>
   </g>
   <g id="patch_147">
    <path clip-path="url(#pe2ca8e5632)" d="M 310.287879 130.012017 
L 333.772727 130.012017 
L 333.772727 119.499182 
L 310.287879 119.499182 
z
" style="fill:#993300;"/>
   </g>
   <g id="patch_148">
    <path clip-path="url(#pe2ca8e5632)" d="M 310.287879 119.45574 
L 333.772727 119.45574 
L 333.772727 117.109901 
L 310.287879 117.109901 
z
" style="fill:#3399ff;"/>
   </g>
   <g id="patch_149">
    <path clip-path="url(#pe2ca8e5632)" d="M 310.287879 117.06646 
L 333.772727 117.06646 
L 333.772727 115.850099 
L 310.287879 115.850099 
z
" style="fill:#ff99cc;"/>
   </g>
   <g id="patch_150">
    <path clip-path="url(#pe2ca8e5632)" d="M 310.287879 115.806657 
L 333.772727 115.806657 
L 333.772727 105.424147 
L 310.287879 105.424147 
z
" style="fill:#33cccc;"/>
   </g>
   <g id="patch_151">
    <path clip-path="url(#pe2ca8e5632)" d="M 310.287879 105.380705 
L 333.772727 105.380705 
L 333.772727 102.774217 
L 310.287879 102.774217 
z
" style="fill:#ffa500;"/>
   </g>
   <g id="patch_152">
    <path clip-path="url(#pe2ca8e5632)" d="M 310.287879 102.730776 
L 333.772727 102.730776 
L 333.772727 93.130212 
L 310.287879 93.130212 
z
" style="fill:#ff99cc;"/>
   </g>
   <g id="patch_153">
    <path clip-path="url(#pe2ca8e5632)" d="M 310.287879 93.08677 
L 333.772727 93.08677 
L 333.772727 92.044175 
L 310.287879 92.044175 
z
" style="fill:#008000;"/>
   </g>
   <g id="patch_154">
    <path clip-path="url(#pe2ca8e5632)" d="M 310.287879 92.000733 
L 333.772727 92.000733 
L 333.772727 78.968293 
L 310.287879 78.968293 
z
" style="fill:#3399ff;"/>
   </g>
   <g id="patch_155">
    <path clip-path="url(#pe2ca8e5632)" d="M 357.257576 224.236559 
L 380.742424 224.236559 
L 380.742424 222.976756 
L 357.257576 222.976756 
z
" style="fill:#33cccc;"/>
   </g>
   <g id="patch_156">
    <path clip-path="url(#pe2ca8e5632)" d="M 357.257576 222.933315 
L 380.742424 222.933315 
L 380.742424 216.156446 
L 357.257576 216.156446 
z
" style="fill:#3399ff;"/>
   </g>
   <g id="patch_157">
    <path clip-path="url(#pe2ca8e5632)" d="M 357.257576 216.113004 
L 380.742424 216.113004 
L 380.742424 215.331058 
L 357.257576 215.331058 
z
" style="fill:#6600ff;"/>
   </g>
   <g id="patch_158">
    <path clip-path="url(#pe2ca8e5632)" d="M 357.257576 215.287616 
L 380.742424 215.287616 
L 380.742424 213.810606 
L 357.257576 213.810606 
z
" style="fill:#008000;"/>
   </g>
   <g id="patch_159">
    <path clip-path="url(#pe2ca8e5632)" d="M 357.257576 213.767165 
L 380.742424 213.767165 
L 380.742424 212.116389 
L 357.257576 212.116389 
z
" style="fill:#c71585;"/>
   </g>
   <g id="patch_160">
    <path clip-path="url(#pe2ca8e5632)" d="M 357.257576 212.072948 
L 380.742424 212.072948 
L 380.742424 210.465614 
L 357.257576 210.465614 
z
" style="fill:#993300;"/>
   </g>
   <g id="patch_161">
    <path clip-path="url(#pe2ca8e5632)" d="M 357.257576 210.422172 
L 380.742424 210.422172 
L 380.742424 208.858279 
L 357.257576 208.858279 
z
" style="fill:#c71585;"/>
   </g>
   <g id="patch_162">
    <path clip-path="url(#pe2ca8e5632)" d="M 357.257576 208.814838 
L 380.742424 208.814838 
L 380.742424 207.815684 
L 357.257576 207.815684 
z
" style="fill:#33cccc;"/>
   </g>
   <g id="patch_163">
    <path clip-path="url(#pe2ca8e5632)" d="M 357.257576 207.772243 
L 380.742424 207.772243 
L 380.742424 197.085642 
L 357.257576 197.085642 
z
" style="fill:#ffa500;"/>
   </g>
   <g id="patch_164">
    <path clip-path="url(#pe2ca8e5632)" d="M 357.257576 197.0422 
L 380.742424 197.0422 
L 380.742424 195.608632 
L 357.257576 195.608632 
z
" style="fill:#c71585;"/>
   </g>
   <g id="patch_165">
    <path clip-path="url(#pe2ca8e5632)" d="M 357.257576 195.56519 
L 380.742424 195.56519 
L 380.742424 194.175063 
L 357.257576 194.175063 
z
" style="fill:#3399ff;"/>
   </g>
   <g id="patch_166">
    <path clip-path="url(#pe2ca8e5632)" d="M 357.257576 194.131622 
L 380.742424 194.131622 
L 380.742424 190.091566 
L 357.257576 190.091566 
z
" style="fill:#c71585;"/>
   </g>
   <g id="patch_167">
    <path clip-path="url(#pe2ca8e5632)" d="M 357.257576 190.048124 
L 380.742424 190.048124 
L 380.742424 182.793399 
L 357.257576 182.793399 
z
" style="fill:#ff99cc;"/>
   </g>
   <g id="patch_168">
    <path clip-path="url(#pe2ca8e5632)" d="M 357.257576 182.749958 
L 380.742424 182.749958 
L 380.742424 182.315543 
L 357.257576 182.315543 
z
" style="fill:#6600ff;"/>
   </g>
   <g id="patch_169">
    <path clip-path="url(#pe2ca8e5632)" d="M 357.257576 182.272102 
L 380.742424 182.272102 
L 380.742424 180.186911 
L 357.257576 180.186911 
z
" style="fill:#ff99cc;"/>
   </g>
   <g id="patch_170">
    <path clip-path="url(#pe2ca8e5632)" d="M 357.257576 180.14347 
L 380.742424 180.14347 
L 380.742424 179.361523 
L 357.257576 179.361523 
z
" style="fill:#3399ff;"/>
   </g>
   <g id="patch_171">
    <path clip-path="url(#pe2ca8e5632)" d="M 357.257576 179.318082 
L 380.742424 179.318082 
L 380.742424 173.801016 
L 357.257576 173.801016 
z
" style="fill:#c71585;"/>
   </g>
   <g id="patch_172">
    <path clip-path="url(#pe2ca8e5632)" d="M 357.257576 173.757574 
L 380.742424 173.757574 
L 380.742424 166.198759 
L 357.257576 166.198759 
z
" style="fill:#ffa500;"/>
   </g>
   <g id="patch_173">
    <path clip-path="url(#pe2ca8e5632)" d="M 357.257576 166.155317 
L 380.742424 166.155317 
L 380.742424 158.379295 
L 357.257576 158.379295 
z
" style="fill:#ff99cc;"/>
   </g>
   <g id="patch_174">
    <path clip-path="url(#pe2ca8e5632)" d="M 357.257576 158.335853 
L 380.742424 158.335853 
L 380.742424 152.036841 
L 357.257576 152.036841 
z
" style="fill:#c71585;"/>
   </g>
   <g id="patch_175">
    <path clip-path="url(#pe2ca8e5632)" d="M 357.257576 151.993399 
L 380.742424 151.993399 
L 380.742424 146.650099 
L 357.257576 146.650099 
z
" style="fill:#3399ff;"/>
   </g>
   <g id="patch_176">
    <path clip-path="url(#pe2ca8e5632)" d="M 357.257576 146.606657 
L 380.742424 146.606657 
L 380.742424 144.173935 
L 357.257576 144.173935 
z
" style="fill:#ff99cc;"/>
   </g>
   <g id="patch_177">
    <path clip-path="url(#pe2ca8e5632)" d="M 357.257576 144.130494 
L 380.742424 144.130494 
L 380.742424 142.957574 
L 357.257576 142.957574 
z
" style="fill:#6600ff;"/>
   </g>
   <g id="patch_178">
    <path clip-path="url(#pe2ca8e5632)" d="M 357.257576 142.914133 
L 380.742424 142.914133 
L 380.742424 134.790578 
L 357.257576 134.790578 
z
" style="fill:#ff99cc;"/>
   </g>
   <g id="patch_179">
    <path clip-path="url(#pe2ca8e5632)" d="M 357.257576 134.747137 
L 380.742424 134.747137 
L 380.742424 134.052073 
L 357.257576 134.052073 
z
" style="fill:#008000;"/>
   </g>
   <g id="patch_180">
    <path clip-path="url(#pe2ca8e5632)" d="M 357.257576 134.008632 
L 380.742424 134.008632 
L 380.742424 130.012017 
L 357.257576 130.012017 
z
" style="fill:#ff99cc;"/>
   </g>
   <g id="patch_181">
    <path clip-path="url(#pe2ca8e5632)" d="M 357.257576 129.968575 
L 380.742424 129.968575 
L 380.742424 127.492412 
L 357.257576 127.492412 
z
" style="fill:#008000;"/>
   </g>
   <g id="patch_182">
    <path clip-path="url(#pe2ca8e5632)" d="M 357.257576 127.44897 
L 380.742424 127.44897 
L 380.742424 120.368011 
L 357.257576 120.368011 
z
" style="fill:#ff99cc;"/>
   </g>
   <g id="patch_183">
    <path clip-path="url(#pe2ca8e5632)" d="M 357.257576 120.32457 
L 380.742424 120.32457 
L 380.742424 119.238533 
L 357.257576 119.238533 
z
" style="fill:#33cccc;"/>
   </g>
   <g id="patch_184">
    <path clip-path="url(#pe2ca8e5632)" d="M 357.257576 119.195092 
L 380.742424 119.195092 
L 380.742424 115.936982 
L 357.257576 115.936982 
z
" style="fill:#c71585;"/>
   </g>
   <g id="patch_185">
    <path clip-path="url(#pe2ca8e5632)" d="M 357.257576 115.89354 
L 380.742424 115.89354 
L 380.742424 113.243611 
L 357.257576 113.243611 
z
" style="fill:#008000;"/>
   </g>
   <g id="patch_186">
    <path clip-path="url(#pe2ca8e5632)" d="M 357.257576 113.200169 
L 380.742424 113.200169 
L 380.742424 107.726544 
L 357.257576 107.726544 
z
" style="fill:#ff99cc;"/>
   </g>
   <g id="patch_187">
    <path clip-path="url(#pe2ca8e5632)" d="M 357.257576 107.683103 
L 380.742424 107.683103 
L 380.742424 102.55701 
L 357.257576 102.55701 
z
" style="fill:#6600ff;"/>
   </g>
   <g id="patch_188">
    <path clip-path="url(#pe2ca8e5632)" d="M 357.257576 102.513568 
L 380.742424 102.513568 
L 380.742424 98.690719 
L 357.257576 98.690719 
z
" style="fill:#ff99cc;"/>
   </g>
   <g id="patch_189">
    <path clip-path="url(#pe2ca8e5632)" d="M 357.257576 98.647278 
L 380.742424 98.647278 
L 380.742424 92.47859 
L 357.257576 92.47859 
z
" style="fill:#c71585;"/>
   </g>
   <g id="patch_190">
    <path clip-path="url(#pe2ca8e5632)" d="M 357.257576 92.435148 
L 380.742424 92.435148 
L 380.742424 91.435994 
L 357.257576 91.435994 
z
" style="fill:#6600ff;"/>
   </g>
   <g id="patch_191">
    <path clip-path="url(#pe2ca8e5632)" d="M 357.257576 91.392553 
L 380.742424 91.392553 
L 380.742424 83.790296 
L 357.257576 83.790296 
z
" style="fill:#ff99cc;"/>
   </g>
   <g id="patch_192">
    <path clip-path="url(#pe2ca8e5632)" d="M 357.257576 83.746855 
L 380.742424 83.746855 
L 380.742424 72.278307 
L 357.257576 72.278307 
z
" style="fill:#008000;"/>
   </g>
   <g id="patch_193">
    <path clip-path="url(#pe2ca8e5632)" d="M 357.257576 72.234866 
L 380.742424 72.234866 
L 380.742424 70.975063 
L 357.257576 70.975063 
z
" style="fill:#c71585;"/>
   </g>
   <g id="patch_194">
    <path clip-path="url(#pe2ca8e5632)" d="M 357.257576 70.931622 
L 380.742424 70.931622 
L 380.742424 58.941777 
L 357.257576 58.941777 
z
" style="fill:#3399ff;"/>
   </g>
   <g id="patch_195">
    <path clip-path="url(#pe2ca8e5632)" d="M 357.257576 58.898336 
L 380.742424 58.898336 
L 380.742424 56.248406 
L 357.257576 56.248406 
z
" style="fill:#6600ff;"/>
   </g>
   <g id="patch_196">
    <path clip-path="url(#pe2ca8e5632)" d="M 357.257576 56.204965 
L 380.742424 56.204965 
L 380.742424 54.29354 
L 357.257576 54.29354 
z
" style="fill:#33cccc;"/>
   </g>
   <g id="patch_197">
    <path clip-path="url(#pe2ca8e5632)" d="M 357.257576 54.250099 
L 380.742424 54.250099 
L 380.742424 53.98945 
L 357.257576 53.98945 
z
" style="fill:#ff99cc;"/>
   </g>
   <g id="patch_198">
    <path clip-path="url(#pe2ca8e5632)" d="M 357.257576 53.946008 
L 380.742424 53.946008 
L 380.742424 50.166601 
L 357.257576 50.166601 
z
" style="fill:#c71585;"/>
   </g>
   <g id="patch_199">
    <path clip-path="url(#pe2ca8e5632)" d="M 357.257576 50.123159 
L 380.742424 50.123159 
L 380.742424 47.212581 
L 357.257576 47.212581 
z
" style="fill:#993300;"/>
   </g>
   <g id="patch_200">
    <path clip-path="url(#pe2ca8e5632)" d="M 404.227273 224.236559 
L 427.712121 224.236559 
L 427.712121 222.80299 
L 404.227273 222.80299 
z
" style="fill:#008000;"/>
   </g>
   <g id="patch_201">
    <path clip-path="url(#pe2ca8e5632)" d="M 404.227273 222.759549 
L 427.712121 222.759549 
L 427.712121 221.760395 
L 404.227273 221.760395 
z
" style="fill:#6600ff;"/>
   </g>
   <g id="patch_202">
    <path clip-path="url(#pe2ca8e5632)" d="M 404.227273 221.716953 
L 427.712121 221.716953 
L 427.712121 214.50567 
L 404.227273 214.50567 
z
" style="fill:#008000;"/>
   </g>
   <g id="patch_203">
    <path clip-path="url(#pe2ca8e5632)" d="M 404.227273 214.462228 
L 427.712121 214.462228 
L 427.712121 213.376192 
L 404.227273 213.376192 
z
" style="fill:#ffa500;"/>
   </g>
   <g id="patch_204">
    <path clip-path="url(#pe2ca8e5632)" d="M 404.227273 213.33275 
L 427.712121 213.33275 
L 427.712121 207.250945 
L 404.227273 207.250945 
z
" style="fill:#ff99cc;"/>
   </g>
   <g id="patch_205">
    <path clip-path="url(#pe2ca8e5632)" d="M 404.227273 207.207504 
L 427.712121 207.207504 
L 427.712121 204.210042 
L 404.227273 204.210042 
z
" style="fill:#993300;"/>
   </g>
   <g id="patch_206">
    <path clip-path="url(#pe2ca8e5632)" d="M 404.227273 204.166601 
L 427.712121 204.166601 
L 427.712121 200.517518 
L 404.227273 200.517518 
z
" style="fill:#33cccc;"/>
   </g>
   <g id="patch_207">
    <path clip-path="url(#pe2ca8e5632)" d="M 404.227273 200.474076 
L 427.712121 200.474076 
L 427.712121 191.39481 
L 404.227273 191.39481 
z
" style="fill:#993300;"/>
   </g>
   <g id="patch_208">
    <path clip-path="url(#pe2ca8e5632)" d="M 404.227273 191.351368 
L 427.712121 191.351368 
L 427.712121 189.526827 
L 404.227273 189.526827 
z
" style="fill:#6600ff;"/>
   </g>
   <g id="patch_209">
    <path clip-path="url(#pe2ca8e5632)" d="M 404.227273 189.483385 
L 427.712121 189.483385 
L 427.712121 188.918646 
L 404.227273 188.918646 
z
" style="fill:#008000;"/>
   </g>
   <g id="patch_210">
    <path clip-path="url(#pe2ca8e5632)" d="M 404.227273 188.875205 
L 427.712121 188.875205 
L 427.712121 180.186911 
L 404.227273 180.186911 
z
" style="fill:#c71585;"/>
   </g>
   <g id="patch_211">
    <path clip-path="url(#pe2ca8e5632)" d="M 404.227273 180.14347 
L 427.712121 180.14347 
L 427.712121 177.406657 
L 404.227273 177.406657 
z
" style="fill:#3399ff;"/>
   </g>
   <g id="patch_212">
    <path clip-path="url(#pe2ca8e5632)" d="M 404.227273 177.363216 
L 427.712121 177.363216 
L 427.712121 176.841918 
L 404.227273 176.841918 
z
" style="fill:#c71585;"/>
   </g>
   <g id="patch_213">
    <path clip-path="url(#pe2ca8e5632)" d="M 404.227273 176.798477 
L 427.712121 176.798477 
L 427.712121 173.62725 
L 404.227273 173.62725 
z
" style="fill:#ffa500;"/>
   </g>
   <g id="patch_214">
    <path clip-path="url(#pe2ca8e5632)" d="M 404.227273 173.583808 
L 427.712121 173.583808 
L 427.712121 172.410889 
L 404.227273 172.410889 
z
" style="fill:#c71585;"/>
   </g>
   <g id="patch_215">
    <path clip-path="url(#pe2ca8e5632)" d="M 404.227273 172.367447 
L 427.712121 172.367447 
L 427.712121 167.154471 
L 404.227273 167.154471 
z
" style="fill:#ffa500;"/>
   </g>
   <g id="patch_216">
    <path clip-path="url(#pe2ca8e5632)" d="M 404.227273 167.11103 
L 427.712121 167.11103 
L 427.712121 159.682539 
L 404.227273 159.682539 
z
" style="fill:#c71585;"/>
   </g>
   <g id="patch_217">
    <path clip-path="url(#pe2ca8e5632)" d="M 404.227273 159.639097 
L 427.712121 159.639097 
L 427.712121 155.599041 
L 404.227273 155.599041 
z
" style="fill:#3399ff;"/>
   </g>
   <g id="patch_218">
    <path clip-path="url(#pe2ca8e5632)" d="M 404.227273 155.555599 
L 427.712121 155.555599 
L 427.712121 152.210606 
L 404.227273 152.210606 
z
" style="fill:#33cccc;"/>
   </g>
   <g id="patch_219">
    <path clip-path="url(#pe2ca8e5632)" d="M 404.227273 152.167165 
L 427.712121 152.167165 
L 427.712121 137.744598 
L 404.227273 137.744598 
z
" style="fill:#993300;"/>
   </g>
   <g id="patch_220">
    <path clip-path="url(#pe2ca8e5632)" d="M 404.227273 137.701157 
L 427.712121 137.701157 
L 427.712121 131.532468 
L 404.227273 131.532468 
z
" style="fill:#ffa500;"/>
   </g>
   <g id="patch_221">
    <path clip-path="url(#pe2ca8e5632)" d="M 404.227273 131.489027 
L 427.712121 131.489027 
L 427.712121 126.797348 
L 404.227273 126.797348 
z
" style="fill:#33cccc;"/>
   </g>
   <g id="patch_222">
    <path clip-path="url(#pe2ca8e5632)" d="M 404.227273 126.753907 
L 427.712121 126.753907 
L 427.712121 125.841636 
L 404.227273 125.841636 
z
" style="fill:#ffa500;"/>
   </g>
   <g id="patch_223">
    <path clip-path="url(#pe2ca8e5632)" d="M 404.227273 125.798195 
L 427.712121 125.798195 
L 427.712121 121.627814 
L 404.227273 121.627814 
z
" style="fill:#33cccc;"/>
   </g>
   <g id="patch_224">
    <path clip-path="url(#pe2ca8e5632)" d="M 404.227273 121.584372 
L 427.712121 121.584372 
L 427.712121 120.541777 
L 404.227273 120.541777 
z
" style="fill:#ffa500;"/>
   </g>
   <g id="patch_225">
    <path clip-path="url(#pe2ca8e5632)" d="M 404.227273 120.498336 
L 427.712121 120.498336 
L 427.712121 114.155882 
L 404.227273 114.155882 
z
" style="fill:#3399ff;"/>
   </g>
   <g id="patch_226">
    <path clip-path="url(#pe2ca8e5632)" d="M 404.227273 114.11244 
L 427.712121 114.11244 
L 427.712121 113.547701 
L 404.227273 113.547701 
z
" style="fill:#ff99cc;"/>
   </g>
   <g id="patch_227">
    <path clip-path="url(#pe2ca8e5632)" d="M 404.227273 113.50426 
L 427.712121 113.50426 
L 427.712121 112.93952 
L 404.227273 112.93952 
z
" style="fill:#3399ff;"/>
   </g>
   <g id="patch_228">
    <path clip-path="url(#pe2ca8e5632)" d="M 404.227273 112.896079 
L 427.712121 112.896079 
L 427.712121 107.856869 
L 404.227273 107.856869 
z
" style="fill:#ff99cc;"/>
   </g>
   <g id="patch_229">
    <path clip-path="url(#pe2ca8e5632)" d="M 404.227273 107.813427 
L 427.712121 107.813427 
L 427.712121 100.298054 
L 404.227273 100.298054 
z
" style="fill:#c71585;"/>
   </g>
   <g id="patch_230">
    <path clip-path="url(#pe2ca8e5632)" d="M 404.227273 100.254612 
L 427.712121 100.254612 
L 427.712121 90.480282 
L 404.227273 90.480282 
z
" style="fill:#6600ff;"/>
   </g>
   <g id="patch_231">
    <path clip-path="url(#pe2ca8e5632)" d="M 451.19697 224.236559 
L 474.681818 224.236559 
L 474.681818 217.807221 
L 451.19697 217.807221 
z
" style="fill:#ff99cc;"/>
   </g>
   <g id="patch_232">
    <path clip-path="url(#pe2ca8e5632)" d="M 451.19697 217.76378 
L 474.681818 217.76378 
L 474.681818 213.723724 
L 451.19697 213.723724 
z
" style="fill:#3399ff;"/>
   </g>
   <g id="patch_233">
    <path clip-path="url(#pe2ca8e5632)" d="M 451.19697 213.680282 
L 474.681818 213.680282 
L 474.681818 207.033738 
L 451.19697 207.033738 
z
" style="fill:#c71585;"/>
   </g>
   <g id="patch_234">
    <path clip-path="url(#pe2ca8e5632)" d="M 451.19697 206.990296 
L 474.681818 206.990296 
L 474.681818 202.428942 
L 451.19697 202.428942 
z
" style="fill:#6600ff;"/>
   </g>
   <g id="patch_235">
    <path clip-path="url(#pe2ca8e5632)" d="M 451.19697 202.385501 
L 474.681818 202.385501 
L 474.681818 200.560959 
L 451.19697 200.560959 
z
" style="fill:#c71585;"/>
   </g>
   <g id="patch_236">
    <path clip-path="url(#pe2ca8e5632)" d="M 451.19697 200.517518 
L 474.681818 200.517518 
L 474.681818 196.260254 
L 451.19697 196.260254 
z
" style="fill:#3399ff;"/>
   </g>
   <g id="patch_237">
    <path clip-path="url(#pe2ca8e5632)" d="M 451.19697 196.216812 
L 474.681818 196.216812 
L 474.681818 192.524288 
L 451.19697 192.524288 
z
" style="fill:#008000;"/>
   </g>
   <g id="patch_238">
    <path clip-path="url(#pe2ca8e5632)" d="M 451.19697 192.480846 
L 474.681818 192.480846 
L 474.681818 185.834302 
L 451.19697 185.834302 
z
" style="fill:#ff99cc;"/>
   </g>
   <g id="patch_239">
    <path clip-path="url(#pe2ca8e5632)" d="M 451.19697 185.79086 
L 474.681818 185.79086 
L 474.681818 178.275487 
L 451.19697 178.275487 
z
" style="fill:#3399ff;"/>
   </g>
   <g id="patch_240">
    <path clip-path="url(#pe2ca8e5632)" d="M 451.19697 178.232045 
L 474.681818 178.232045 
L 474.681818 163.896361 
L 451.19697 163.896361 
z
" style="fill:#993300;"/>
   </g>
   <g id="patch_241">
    <path clip-path="url(#pe2ca8e5632)" d="M 451.19697 163.85292 
L 474.681818 163.85292 
L 474.681818 158.509619 
L 451.19697 158.509619 
z
" style="fill:#3399ff;"/>
   </g>
   <g id="patch_242">
    <path clip-path="url(#pe2ca8e5632)" d="M 451.19697 158.466178 
L 474.681818 158.466178 
L 474.681818 155.772807 
L 451.19697 155.772807 
z
" style="fill:#993300;"/>
   </g>
   <g id="patch_243">
    <path clip-path="url(#pe2ca8e5632)" d="M 451.19697 155.729365 
L 474.681818 155.729365 
L 474.681818 150.733597 
L 451.19697 150.733597 
z
" style="fill:#c71585;"/>
   </g>
   <g id="patch_244">
    <path clip-path="url(#pe2ca8e5632)" d="M 451.19697 150.690155 
L 474.681818 150.690155 
L 474.681818 149.039379 
L 451.19697 149.039379 
z
" style="fill:#ffa500;"/>
   </g>
   <g id="patch_245">
    <path clip-path="url(#pe2ca8e5632)" d="M 451.19697 148.995938 
L 474.681818 148.995938 
L 474.681818 142.523159 
L 451.19697 142.523159 
z
" style="fill:#c71585;"/>
   </g>
   <g id="patch_246">
    <path clip-path="url(#pe2ca8e5632)" d="M 451.19697 142.479718 
L 474.681818 142.479718 
L 474.681818 137.049535 
L 451.19697 137.049535 
z
" style="fill:#ffa500;"/>
   </g>
   <g id="patch_247">
    <path clip-path="url(#pe2ca8e5632)" d="M 451.19697 137.006093 
L 474.681818 137.006093 
L 474.681818 136.702003 
L 451.19697 136.702003 
z
" style="fill:#008000;"/>
   </g>
   <g id="patch_248">
    <path clip-path="url(#pe2ca8e5632)" d="M 451.19697 136.658561 
L 474.681818 136.658561 
L 474.681818 132.18409 
L 451.19697 132.18409 
z
" style="fill:#6600ff;"/>
   </g>
   <g id="patch_249">
    <path clip-path="url(#pe2ca8e5632)" d="M 451.19697 132.140649 
L 474.681818 132.140649 
L 474.681818 129.447278 
L 451.19697 129.447278 
z
" style="fill:#c71585;"/>
   </g>
   <g id="patch_250">
    <path clip-path="url(#pe2ca8e5632)" d="M 451.19697 129.403836 
L 474.681818 129.403836 
L 474.681818 120.063921 
L 451.19697 120.063921 
z
" style="fill:#3399ff;"/>
   </g>
   <g id="patch_251">
    <path clip-path="url(#pe2ca8e5632)" d="M 451.19697 120.02048 
L 474.681818 120.02048 
L 474.681818 114.807504 
L 451.19697 114.807504 
z
" style="fill:#ffa500;"/>
   </g>
   <g id="patch_252">
    <path clip-path="url(#pe2ca8e5632)" d="M 451.19697 114.764062 
L 474.681818 114.764062 
L 474.681818 104.989732 
L 451.19697 104.989732 
z
" style="fill:#33cccc;"/>
   </g>
   <g id="patch_253">
    <path clip-path="url(#pe2ca8e5632)" d="M 451.19697 104.946291 
L 474.681818 104.946291 
L 474.681818 104.424993 
L 451.19697 104.424993 
z
" style="fill:#c71585;"/>
   </g>
   <g id="patch_254">
    <path clip-path="url(#pe2ca8e5632)" d="M 451.19697 104.381551 
L 474.681818 104.381551 
L 474.681818 100.645585 
L 451.19697 100.645585 
z
" style="fill:#6600ff;"/>
   </g>
   <g id="patch_255">
    <path clip-path="url(#pe2ca8e5632)" d="M 451.19697 100.602144 
L 474.681818 100.602144 
L 474.681818 94.346573 
L 451.19697 94.346573 
z
" style="fill:#c71585;"/>
   </g>
   <g id="patch_256">
    <path clip-path="url(#pe2ca8e5632)" d="M 451.19697 94.303131 
L 474.681818 94.303131 
L 474.681818 89.872102 
L 451.19697 89.872102 
z
" style="fill:#ff99cc;"/>
   </g>
   <g id="patch_257">
    <path clip-path="url(#pe2ca8e5632)" d="M 451.19697 89.82866 
L 474.681818 89.82866 
L 474.681818 87.178731 
L 451.19697 87.178731 
z
" style="fill:#3399ff;"/>
   </g>
   <g id="patch_258">
    <path clip-path="url(#pe2ca8e5632)" d="M 451.19697 87.135289 
L 474.681818 87.135289 
L 474.681818 85.571396 
L 451.19697 85.571396 
z
" style="fill:#ff99cc;"/>
   </g>
   <g id="patch_259">
    <path clip-path="url(#pe2ca8e5632)" d="M 451.19697 85.527955 
L 474.681818 85.527955 
L 474.681818 83.659972 
L 451.19697 83.659972 
z
" style="fill:#ffa500;"/>
   </g>
   <g id="patch_260">
    <path clip-path="url(#pe2ca8e5632)" d="M 451.19697 83.61653 
L 474.681818 83.61653 
L 474.681818 81.791989 
L 451.19697 81.791989 
z
" style="fill:#6600ff;"/>
   </g>
   <g id="patch_261">
    <path clip-path="url(#pe2ca8e5632)" d="M 451.19697 81.748547 
L 474.681818 81.748547 
L 474.681818 77.96914 
L 451.19697 77.96914 
z
" style="fill:#c71585;"/>
   </g>
   <g id="patch_262">
    <path clip-path="url(#pe2ca8e5632)" d="M 451.19697 77.925698 
L 474.681818 77.925698 
L 474.681818 71.887334 
L 451.19697 71.887334 
z
" style="fill:#ff99cc;"/>
   </g>
   <g id="patch_263">
    <path clip-path="url(#pe2ca8e5632)" d="M 451.19697 71.843893 
L 474.681818 71.843893 
L 474.681818 67.716953 
L 451.19697 67.716953 
z
" style="fill:#993300;"/>
   </g>
   <g id="patch_264">
    <path clip-path="url(#pe2ca8e5632)" d="M 498.166667 224.236559 
L 521.651515 224.236559 
L 521.651515 220.848124 
L 498.166667 220.848124 
z
" style="fill:#c71585;"/>
   </g>
   <g id="patch_265">
    <path clip-path="url(#pe2ca8e5632)" d="M 498.166667 220.804683 
L 521.651515 220.804683 
L 521.651515 220.370268 
L 498.166667 220.370268 
z
" style="fill:#993300;"/>
   </g>
   <g id="patch_266">
    <path clip-path="url(#pe2ca8e5632)" d="M 498.166667 220.326827 
L 521.651515 220.326827 
L 521.651515 212.637687 
L 498.166667 212.637687 
z
" style="fill:#ff99cc;"/>
   </g>
   <g id="patch_267">
    <path clip-path="url(#pe2ca8e5632)" d="M 498.166667 212.594245 
L 521.651515 212.594245 
L 521.651515 201.77732 
L 498.166667 201.77732 
z
" style="fill:#3399ff;"/>
   </g>
   <g id="patch_268">
    <path clip-path="url(#pe2ca8e5632)" d="M 498.166667 201.733879 
L 521.651515 201.733879 
L 521.651515 194.392271 
L 498.166667 194.392271 
z
" style="fill:#c71585;"/>
   </g>
   <g id="patch_269">
    <path clip-path="url(#pe2ca8e5632)" d="M 498.166667 194.348829 
L 521.651515 194.348829 
L 521.651515 185.356446 
L 498.166667 185.356446 
z
" style="fill:#ff99cc;"/>
   </g>
   <g id="patch_270">
    <path clip-path="url(#pe2ca8e5632)" d="M 498.166667 185.313004 
L 521.651515 185.313004 
L 521.651515 181.316389 
L 498.166667 181.316389 
z
" style="fill:#6600ff;"/>
   </g>
   <g id="patch_271">
    <path clip-path="url(#pe2ca8e5632)" d="M 498.166667 181.272948 
L 521.651515 181.272948 
L 521.651515 177.884513 
L 498.166667 177.884513 
z
" style="fill:#008000;"/>
   </g>
   <g id="patch_272">
    <path clip-path="url(#pe2ca8e5632)" d="M 498.166667 177.841072 
L 521.651515 177.841072 
L 521.651515 173.844457 
L 498.166667 173.844457 
z
" style="fill:#6600ff;"/>
   </g>
   <g id="patch_273">
    <path clip-path="url(#pe2ca8e5632)" d="M 498.166667 173.801016 
L 521.651515 173.801016 
L 521.651515 170.282257 
L 498.166667 170.282257 
z
" style="fill:#008000;"/>
   </g>
   <g id="patch_274">
    <path clip-path="url(#pe2ca8e5632)" d="M 498.166667 170.238815 
L 521.651515 170.238815 
L 521.651515 166.806939 
L 498.166667 166.806939 
z
" style="fill:#33cccc;"/>
   </g>
   <g id="patch_275">
    <path clip-path="url(#pe2ca8e5632)" d="M 498.166667 166.763498 
L 521.651515 166.763498 
L 521.651515 166.068434 
L 498.166667 166.068434 
z
" style="fill:#ffa500;"/>
   </g>
   <g id="patch_276">
    <path clip-path="url(#pe2ca8e5632)" d="M 498.166667 166.024993 
L 521.651515 166.024993 
L 521.651515 161.724288 
L 498.166667 161.724288 
z
" style="fill:#33cccc;"/>
   </g>
   <g id="patch_277">
    <path clip-path="url(#pe2ca8e5632)" d="M 498.166667 161.680846 
L 521.651515 161.680846 
L 521.651515 160.681693 
L 498.166667 160.681693 
z
" style="fill:#ffa500;"/>
   </g>
   <g id="patch_278">
    <path clip-path="url(#pe2ca8e5632)" d="M 498.166667 160.638251 
L 521.651515 160.638251 
L 521.651515 159.856305 
L 498.166667 159.856305 
z
" style="fill:#33cccc;"/>
   </g>
   <g id="patch_279">
    <path clip-path="url(#pe2ca8e5632)" d="M 498.166667 159.812863 
L 521.651515 159.812863 
L 521.651515 152.818787 
L 498.166667 152.818787 
z
" style="fill:#ffa500;"/>
   </g>
   <g id="patch_280">
    <path clip-path="url(#pe2ca8e5632)" d="M 498.166667 152.775346 
L 521.651515 152.775346 
L 521.651515 144.173935 
L 498.166667 144.173935 
z
" style="fill:#3399ff;"/>
   </g>
   <g id="patch_281">
    <path clip-path="url(#pe2ca8e5632)" d="M 498.166667 144.130494 
L 521.651515 144.130494 
L 521.651515 143.522313 
L 498.166667 143.522313 
z
" style="fill:#ffa500;"/>
   </g>
   <g id="patch_282">
    <path clip-path="url(#pe2ca8e5632)" d="M 498.166667 143.478872 
L 521.651515 143.478872 
L 521.651515 140.437969 
L 498.166667 140.437969 
z
" style="fill:#33cccc;"/>
   </g>
   <g id="patch_283">
    <path clip-path="url(#pe2ca8e5632)" d="M 498.166667 140.394528 
L 521.651515 140.394528 
L 521.651515 123.235148 
L 498.166667 123.235148 
z
" style="fill:#993300;"/>
   </g>
   <g id="patch_284">
    <path clip-path="url(#pe2ca8e5632)" d="M 498.166667 123.191707 
L 521.651515 123.191707 
L 521.651515 117.413992 
L 498.166667 117.413992 
z
" style="fill:#c71585;"/>
   </g>
   <g id="patch_285">
    <path clip-path="url(#pe2ca8e5632)" d="M 498.166667 117.37055 
L 521.651515 117.37055 
L 521.651515 115.980423 
L 498.166667 115.980423 
z
" style="fill:#33cccc;"/>
   </g>
   <g id="patch_286">
    <path clip-path="url(#pe2ca8e5632)" d="M 498.166667 115.936982 
L 521.651515 115.936982 
L 521.651515 109.246996 
L 498.166667 109.246996 
z
" style="fill:#993300;"/>
   </g>
   <g id="patch_287">
    <path clip-path="url(#pe2ca8e5632)" d="M 498.166667 109.203554 
L 521.651515 109.203554 
L 521.651515 108.247842 
L 498.166667 108.247842 
z
" style="fill:#008000;"/>
   </g>
   <g id="patch_288">
    <path clip-path="url(#pe2ca8e5632)" d="M 498.166667 108.204401 
L 521.651515 108.204401 
L 521.651515 97.778449 
L 498.166667 97.778449 
z
" style="fill:#6600ff;"/>
   </g>
   <g id="patch_289">
    <path clip-path="url(#pe2ca8e5632)" d="M 498.166667 97.735007 
L 521.651515 97.735007 
L 521.651515 94.998195 
L 498.166667 94.998195 
z
" style="fill:#ffa500;"/>
   </g>
   <g id="patch_290">
    <path clip-path="url(#pe2ca8e5632)" d="M 498.166667 94.954753 
L 521.651515 94.954753 
L 521.651515 90.436841 
L 498.166667 90.436841 
z
" style="fill:#33cccc;"/>
   </g>
   <g id="patch_291">
    <path clip-path="url(#pe2ca8e5632)" d="M 498.166667 90.393399 
L 521.651515 90.393399 
L 521.651515 87.178731 
L 498.166667 87.178731 
z
" style="fill:#c71585;"/>
   </g>
   <g id="patch_292">
    <path clip-path="url(#pe2ca8e5632)" d="M 498.166667 87.135289 
L 521.651515 87.135289 
L 521.651515 84.441918 
L 498.166667 84.441918 
z
" style="fill:#ff99cc;"/>
   </g>
   <g id="patch_293">
    <path clip-path="url(#pe2ca8e5632)" d="M 498.166667 84.398477 
L 521.651515 84.398477 
L 521.651515 79.098618 
L 498.166667 79.098618 
z
" style="fill:#008000;"/>
   </g>
   <g id="patch_294">
    <path clip-path="url(#pe2ca8e5632)" d="M 545.136364 224.236559 
L 568.621212 224.236559 
L 568.621212 222.846432 
L 545.136364 222.846432 
z
" style="fill:#c71585;"/>
   </g>
   <g id="patch_295">
    <path clip-path="url(#pe2ca8e5632)" d="M 545.136364 222.80299 
L 568.621212 222.80299 
L 568.621212 221.716953 
L 545.136364 221.716953 
z
" style="fill:#993300;"/>
   </g>
   <g id="patch_296">
    <path clip-path="url(#pe2ca8e5632)" d="M 545.136364 221.673512 
L 568.621212 221.673512 
L 568.621212 213.245867 
L 545.136364 213.245867 
z
" style="fill:#3399ff;"/>
   </g>
   <g id="patch_297">
    <path clip-path="url(#pe2ca8e5632)" d="M 545.136364 213.202426 
L 568.621212 213.202426 
L 568.621212 195.869281 
L 545.136364 195.869281 
z
" style="fill:#c71585;"/>
   </g>
   <g id="patch_298">
    <path clip-path="url(#pe2ca8e5632)" d="M 545.136364 195.825839 
L 568.621212 195.825839 
L 568.621212 195.174217 
L 545.136364 195.174217 
z
" style="fill:#33cccc;"/>
   </g>
   <g id="patch_299">
    <path clip-path="url(#pe2ca8e5632)" d="M 545.136364 195.130776 
L 568.621212 195.130776 
L 568.621212 194.870127 
L 545.136364 194.870127 
z
" style="fill:#ffa500;"/>
   </g>
   <g id="patch_300">
    <path clip-path="url(#pe2ca8e5632)" d="M 545.136364 194.826685 
L 568.621212 194.826685 
L 568.621212 194.001298 
L 545.136364 194.001298 
z
" style="fill:#33cccc;"/>
   </g>
   <g id="patch_301">
    <path clip-path="url(#pe2ca8e5632)" d="M 545.136364 193.957856 
L 568.621212 193.957856 
L 568.621212 184.096643 
L 545.136364 184.096643 
z
" style="fill:#3399ff;"/>
   </g>
   <g id="patch_302">
    <path clip-path="url(#pe2ca8e5632)" d="M 545.136364 184.053202 
L 568.621212 184.053202 
L 568.621212 177.319774 
L 545.136364 177.319774 
z
" style="fill:#ff99cc;"/>
   </g>
   <g id="patch_303">
    <path clip-path="url(#pe2ca8e5632)" d="M 545.136364 177.276333 
L 568.621212 177.276333 
L 568.621212 176.88536 
L 545.136364 176.88536 
z
" style="fill:#33cccc;"/>
   </g>
   <g id="patch_304">
    <path clip-path="url(#pe2ca8e5632)" d="M 545.136364 176.841918 
L 568.621212 176.841918 
L 568.621212 163.548829 
L 545.136364 163.548829 
z
" style="fill:#993300;"/>
   </g>
   <g id="patch_305">
    <path clip-path="url(#pe2ca8e5632)" d="M 545.136364 163.505388 
L 568.621212 163.505388 
L 568.621212 162.37591 
L 545.136364 162.37591 
z
" style="fill:#008000;"/>
   </g>
   <g id="patch_306">
    <path clip-path="url(#pe2ca8e5632)" d="M 545.136364 162.332468 
L 568.621212 162.332468 
L 568.621212 157.597348 
L 545.136364 157.597348 
z
" style="fill:#ff99cc;"/>
   </g>
   <g id="patch_307">
    <path clip-path="url(#pe2ca8e5632)" d="M 545.136364 157.553907 
L 568.621212 157.553907 
L 568.621212 156.076897 
L 545.136364 156.076897 
z
" style="fill:#6600ff;"/>
   </g>
   <g id="patch_308">
    <path clip-path="url(#pe2ca8e5632)" d="M 545.136364 156.033456 
L 568.621212 156.033456 
L 568.621212 153.20976 
L 545.136364 153.20976 
z
" style="fill:#ff99cc;"/>
   </g>
   <g id="patch_309">
    <path clip-path="url(#pe2ca8e5632)" d="M 545.136364 153.166319 
L 568.621212 153.166319 
L 568.621212 146.519774 
L 545.136364 146.519774 
z
" style="fill:#3399ff;"/>
   </g>
   <g id="patch_310">
    <path clip-path="url(#pe2ca8e5632)" d="M 545.136364 146.476333 
L 568.621212 146.476333 
L 568.621212 140.394528 
L 545.136364 140.394528 
z
" style="fill:#c71585;"/>
   </g>
   <g id="patch_311">
    <path clip-path="url(#pe2ca8e5632)" d="M 545.136364 140.351086 
L 568.621212 140.351086 
L 568.621212 131.358702 
L 545.136364 131.358702 
z
" style="fill:#ff99cc;"/>
   </g>
   <g id="patch_312">
    <path clip-path="url(#pe2ca8e5632)" d="M 545.136364 131.315261 
L 568.621212 131.315261 
L 568.621212 128.969422 
L 545.136364 128.969422 
z
" style="fill:#ffa500;"/>
   </g>
   <g id="patch_313">
    <path clip-path="url(#pe2ca8e5632)" d="M 545.136364 128.92598 
L 568.621212 128.92598 
L 568.621212 127.709619 
L 545.136364 127.709619 
z
" style="fill:#6600ff;"/>
   </g>
   <g id="patch_314">
    <path clip-path="url(#pe2ca8e5632)" d="M 545.136364 127.666178 
L 568.621212 127.666178 
L 568.621212 125.407221 
L 545.136364 125.407221 
z
" style="fill:#ff99cc;"/>
   </g>
   <g id="patch_315">
    <path clip-path="url(#pe2ca8e5632)" d="M 545.136364 125.36378 
L 568.621212 125.36378 
L 568.621212 121.280282 
L 545.136364 121.280282 
z
" style="fill:#ffa500;"/>
   </g>
   <g id="patch_316">
    <path clip-path="url(#pe2ca8e5632)" d="M 545.136364 121.236841 
L 568.621212 121.236841 
L 568.621212 110.028942 
L 545.136364 110.028942 
z
" style="fill:#c71585;"/>
   </g>
   <g id="patch_317">
    <path clip-path="url(#pe2ca8e5632)" d="M 545.136364 109.985501 
L 568.621212 109.985501 
L 568.621212 106.683949 
L 545.136364 106.683949 
z
" style="fill:#3399ff;"/>
   </g>
   <g id="patch_318">
    <path clip-path="url(#pe2ca8e5632)" d="M 545.136364 106.640508 
L 568.621212 106.640508 
L 568.621212 102.687334 
L 545.136364 102.687334 
z
" style="fill:#33cccc;"/>
   </g>
   <g id="patch_319">
    <path clip-path="url(#pe2ca8e5632)" d="M 545.136364 102.643893 
L 568.621212 102.643893 
L 568.621212 95.258843 
L 545.136364 95.258843 
z
" style="fill:#ffa500;"/>
   </g>
   <g id="patch_320">
    <path clip-path="url(#pe2ca8e5632)" d="M 545.136364 95.215402 
L 568.621212 95.215402 
L 568.621212 93.217094 
L 545.136364 93.217094 
z
" style="fill:#c71585;"/>
   </g>
   <g id="patch_321">
    <path clip-path="url(#pe2ca8e5632)" d="M 545.136364 93.173653 
L 568.621212 93.173653 
L 568.621212 91.566319 
L 545.136364 91.566319 
z
" style="fill:#3399ff;"/>
   </g>
   <g id="patch_322">
    <path clip-path="url(#pe2ca8e5632)" d="M 545.136364 91.522877 
L 568.621212 91.522877 
L 568.621212 81.791989 
L 545.136364 81.791989 
z
" style="fill:#c71585;"/>
   </g>
   <g id="patch_323">
    <path clip-path="url(#pe2ca8e5632)" d="M 545.136364 81.748547 
L 568.621212 81.748547 
L 568.621212 80.228096 
L 545.136364 80.228096 
z
" style="fill:#3399ff;"/>
   </g>
   <g id="patch_324">
    <path clip-path="url(#pe2ca8e5632)" d="M 545.136364 80.184654 
L 568.621212 80.184654 
L 568.621212 73.711876 
L 545.136364 73.711876 
z
" style="fill:#ffa500;"/>
   </g>
   <g id="patch_325">
    <path clip-path="url(#pe2ca8e5632)" d="M 545.136364 73.668434 
L 568.621212 73.668434 
L 568.621212 72.538956 
L 545.136364 72.538956 
z
" style="fill:#33cccc;"/>
   </g>
   <g id="patch_326">
    <path clip-path="url(#pe2ca8e5632)" d="M 545.136364 72.495515 
L 568.621212 72.495515 
L 568.621212 71.887334 
L 545.136364 71.887334 
z
" style="fill:#ffa500;"/>
   </g>
   <g id="patch_327">
    <path clip-path="url(#pe2ca8e5632)" d="M 545.136364 71.843893 
L 568.621212 71.843893 
L 568.621212 69.97591 
L 545.136364 69.97591 
z
" style="fill:#33cccc;"/>
   </g>
   <g id="patch_328">
    <path clip-path="url(#pe2ca8e5632)" d="M 592.106061 224.236559 
L 615.590909 224.236559 
L 615.590909 204.036276 
L 592.106061 204.036276 
z
" style="fill:#993300;"/>
   </g>
   <g id="patch_329">
    <path clip-path="url(#pe2ca8e5632)" d="M 592.106061 203.992835 
L 615.590909 203.992835 
L 615.590909 197.824147 
L 592.106061 197.824147 
z
" style="fill:#3399ff;"/>
   </g>
   <g id="patch_330">
    <path clip-path="url(#pe2ca8e5632)" d="M 592.106061 197.780705 
L 615.590909 197.780705 
L 615.590909 184.096643 
L 592.106061 184.096643 
z
" style="fill:#993300;"/>
   </g>
   <g id="patch_331">
    <path clip-path="url(#pe2ca8e5632)" d="M 592.106061 184.053202 
L 615.590909 184.053202 
L 615.590909 181.881128 
L 592.106061 181.881128 
z
" style="fill:#ffa500;"/>
   </g>
   <g id="patch_332">
    <path clip-path="url(#pe2ca8e5632)" d="M 592.106061 181.837687 
L 615.590909 181.837687 
L 615.590909 178.275487 
L 592.106061 178.275487 
z
" style="fill:#ff99cc;"/>
   </g>
   <g id="patch_333">
    <path clip-path="url(#pe2ca8e5632)" d="M 592.106061 178.232045 
L 615.590909 178.232045 
L 615.590909 177.79763 
L 592.106061 177.79763 
z
" style="fill:#c71585;"/>
   </g>
   <g id="patch_334">
    <path clip-path="url(#pe2ca8e5632)" d="M 592.106061 177.754189 
L 615.590909 177.754189 
L 615.590909 174.452638 
L 592.106061 174.452638 
z
" style="fill:#ff99cc;"/>
   </g>
   <g id="patch_335">
    <path clip-path="url(#pe2ca8e5632)" d="M 592.106061 174.409196 
L 615.590909 174.409196 
L 615.590909 169.369986 
L 592.106061 169.369986 
z
" style="fill:#6600ff;"/>
   </g>
   <g id="patch_336">
    <path clip-path="url(#pe2ca8e5632)" d="M 592.106061 169.326544 
L 615.590909 169.326544 
L 615.590909 167.979859 
L 592.106061 167.979859 
z
" style="fill:#c71585;"/>
   </g>
   <g id="patch_337">
    <path clip-path="url(#pe2ca8e5632)" d="M 592.106061 167.936417 
L 615.590909 167.936417 
L 615.590909 155.121185 
L 592.106061 155.121185 
z
" style="fill:#3399ff;"/>
   </g>
   <g id="patch_338">
    <path clip-path="url(#pe2ca8e5632)" d="M 592.106061 155.077743 
L 615.590909 155.077743 
L 615.590909 150.125416 
L 592.106061 150.125416 
z
" style="fill:#993300;"/>
   </g>
   <g id="patch_339">
    <path clip-path="url(#pe2ca8e5632)" d="M 592.106061 150.081975 
L 615.590909 150.081975 
L 615.590909 149.691001 
L 592.106061 149.691001 
z
" style="fill:#3399ff;"/>
   </g>
   <g id="patch_340">
    <path clip-path="url(#pe2ca8e5632)" d="M 592.106061 149.64756 
L 615.590909 149.64756 
L 615.590909 148.47464 
L 592.106061 148.47464 
z
" style="fill:#993300;"/>
   </g>
   <g id="patch_341">
    <path clip-path="url(#pe2ca8e5632)" d="M 592.106061 148.431199 
L 615.590909 148.431199 
L 615.590909 142.696925 
L 592.106061 142.696925 
z
" style="fill:#ff99cc;"/>
   </g>
   <g id="patch_342">
    <path clip-path="url(#pe2ca8e5632)" d="M 592.106061 142.653484 
L 615.590909 142.653484 
L 615.590909 135.355317 
L 592.106061 135.355317 
z
" style="fill:#3399ff;"/>
   </g>
   <g id="patch_343">
    <path clip-path="url(#pe2ca8e5632)" d="M 592.106061 135.311876 
L 615.590909 135.311876 
L 615.590909 125.016248 
L 592.106061 125.016248 
z
" style="fill:#993300;"/>
   </g>
   <g id="patch_344">
    <path clip-path="url(#pe2ca8e5632)" d="M 592.106061 124.972807 
L 615.590909 124.972807 
L 615.590909 117.109901 
L 592.106061 117.109901 
z
" style="fill:#3399ff;"/>
   </g>
   <g id="patch_345">
    <path clip-path="url(#pe2ca8e5632)" d="M 592.106061 117.06646 
L 615.590909 117.06646 
L 615.590909 115.415684 
L 592.106061 115.415684 
z
" style="fill:#008000;"/>
   </g>
   <g id="patch_346">
    <path clip-path="url(#pe2ca8e5632)" d="M 592.106061 115.372243 
L 615.590909 115.372243 
L 615.590909 110.810889 
L 592.106061 110.810889 
z
" style="fill:#ff99cc;"/>
   </g>
   <g id="matplotlib.axis_1"/>
   <g id="matplotlib.axis_2"/>
  </g>
 </g>
 <defs>
  <clipPath id="pe2ca8e5632">
   <rect height="194.04" width="558" x="90" y="30.24"/>
  </clipPath>
 </defs>
</svg>
