<?xml version="1.0" encoding="utf-8" standalone="no"?>
<!DOCTYPE svg PUBLIC "-//W3C//DTD SVG 1.1//EN"
  "http://www.w3.org/Graphics/SVG/1.1/DTD/svg11.dtd">
<svg height="144pt" version="1.1" viewBox="0 0 720 144" width="720pt" xmlns="http://www.w3.org/2000/svg" xmlns:xlink="http://www.w3.org/1999/xlink">
 <metadata>
  <rdf:RDF xmlns:cc="http://creativecommons.org/ns#" xmlns:dc="http://purl.org/dc/elements/1.1/" xmlns:rdf="http://www.w3.org/1999/02/22-rdf-syntax-ns#">
   <cc:Work>
    <dc:type rdf:resource="http://purl.org/dc/dcmitype/StillImage"/>
    <dc:date>2021-11-02T16:31:40.504585</dc:date>
    <dc:format>image/svg+xml</dc:format>
    <dc:creator>
     <cc:Agent>
      <dc:title>Matplotlib v3.4.3, https://matplotlib.org/</dc:title>
     </cc:Agent>
    </dc:creator>
   </cc:Work>
  </rdf:RDF>
 </metadata>
 <defs>
  <style type="text/css">*{stroke-linecap:butt;stroke-linejoin:round;}</style>
 </defs>
 <g id="figure_1">
  <g id="patch_1">
   <path d="M 0 144 
L 720 144 
L 720 0 
L 0 0 
z
" style="fill:#ffffff;"/>
  </g>
  <g id="axes_1">
   <g id="patch_2">
    <path d="M 90 128.16 
L 648 128.16 
L 648 17.28 
L 90 17.28 
z
" style="fill:#ffffff;"/>
   </g>
   <g id="patch_3">
    <path clip-path="url(#p9257d81a5d)" d="M 115.363636 128.16 
L 144.770751 128.16 
L 144.770751 127.104 
L 115.363636 127.104 
z
" style="fill:none;opacity:0;"/>
   </g>
   <g id="patch_4">
    <path clip-path="url(#p9257d81a5d)" d="M 152.12253 128.16 
L 181.529644 128.16 
L 181.529644 127.104 
L 152.12253 127.104 
z
" style="fill:none;opacity:0;"/>
   </g>
   <g id="patch_5">
    <path clip-path="url(#p9257d81a5d)" d="M 188.881423 128.16 
L 218.288538 128.16 
L 218.288538 127.104 
L 188.881423 127.104 
z
" style="fill:none;opacity:0;"/>
   </g>
   <g id="patch_6">
    <path clip-path="url(#p9257d81a5d)" d="M 225.640316 128.16 
L 255.047431 128.16 
L 255.047431 127.104 
L 225.640316 127.104 
z
" style="fill:none;opacity:0;"/>
   </g>
   <g id="patch_7">
    <path clip-path="url(#p9257d81a5d)" d="M 262.399209 128.16 
L 291.806324 128.16 
L 291.806324 127.104 
L 262.399209 127.104 
z
" style="fill:none;opacity:0;"/>
   </g>
   <g id="patch_8">
    <path clip-path="url(#p9257d81a5d)" d="M 299.158103 128.16 
L 328.565217 128.16 
L 328.565217 127.104 
L 299.158103 127.104 
z
" style="fill:none;opacity:0;"/>
   </g>
   <g id="patch_9">
    <path clip-path="url(#p9257d81a5d)" d="M 335.916996 128.16 
L 365.324111 128.16 
L 365.324111 127.104 
L 335.916996 127.104 
z
" style="fill:none;opacity:0;"/>
   </g>
   <g id="patch_10">
    <path clip-path="url(#p9257d81a5d)" d="M 372.675889 128.16 
L 402.083004 128.16 
L 402.083004 127.104 
L 372.675889 127.104 
z
" style="fill:none;opacity:0;"/>
   </g>
   <g id="patch_11">
    <path clip-path="url(#p9257d81a5d)" d="M 409.434783 128.16 
L 438.841897 128.16 
L 438.841897 127.104 
L 409.434783 127.104 
z
" style="fill:none;opacity:0;"/>
   </g>
   <g id="patch_12">
    <path clip-path="url(#p9257d81a5d)" d="M 446.193676 128.16 
L 475.600791 128.16 
L 475.600791 127.104 
L 446.193676 127.104 
z
" style="fill:none;opacity:0;"/>
   </g>
   <g id="patch_13">
    <path clip-path="url(#p9257d81a5d)" d="M 482.952569 128.16 
L 512.359684 128.16 
L 512.359684 127.104 
L 482.952569 127.104 
z
" style="fill:none;opacity:0;"/>
   </g>
   <g id="patch_14">
    <path clip-path="url(#p9257d81a5d)" d="M 519.711462 128.16 
L 549.118577 128.16 
L 549.118577 127.104 
L 519.711462 127.104 
z
" style="fill:none;opacity:0;"/>
   </g>
   <g id="patch_15">
    <path clip-path="url(#p9257d81a5d)" d="M 556.470356 128.16 
L 585.87747 128.16 
L 585.87747 127.104 
L 556.470356 127.104 
z
" style="fill:none;opacity:0;"/>
   </g>
   <g id="patch_16">
    <path clip-path="url(#p9257d81a5d)" d="M 593.229249 128.16 
L 622.636364 128.16 
L 622.636364 127.104 
L 593.229249 127.104 
z
" style="fill:none;opacity:0;"/>
   </g>
   <g id="patch_17">
    <path clip-path="url(#p9257d81a5d)" d="M 120.87747 128.0544 
L 139.256917 128.0544 
L 139.256917 22.56 
L 120.87747 22.56 
z
" style="fill:#008080;"/>
   </g>
   <g id="patch_18">
    <path clip-path="url(#p9257d81a5d)" d="M 157.636364 128.0544 
L 176.01581 128.0544 
L 176.01581 22.56 
L 157.636364 22.56 
z
" style="fill:#ff00ff;"/>
   </g>
   <g id="patch_19">
    <path clip-path="url(#p9257d81a5d)" d="M 194.395257 128.0544 
L 212.774704 128.0544 
L 212.774704 22.56 
L 194.395257 22.56 
z
" style="fill:#ffc0cb;"/>
   </g>
   <g id="patch_20">
    <path clip-path="url(#p9257d81a5d)" d="M 231.15415 128.0544 
L 249.533597 128.0544 
L 249.533597 22.56 
L 231.15415 22.56 
z
" style="fill:#800080;"/>
   </g>
   <g id="patch_21">
    <path clip-path="url(#p9257d81a5d)" d="M 267.913043 128.0544 
L 286.29249 128.0544 
L 286.29249 22.56 
L 267.913043 22.56 
z
" style="fill:#c0c0c0;"/>
   </g>
   <g id="patch_22">
    <path clip-path="url(#p9257d81a5d)" d="M 304.671937 128.0544 
L 323.051383 128.0544 
L 323.051383 22.56 
L 304.671937 22.56 
z
" style="fill:#ffa500;"/>
   </g>
   <g id="patch_23">
    <path clip-path="url(#p9257d81a5d)" d="M 341.43083 128.0544 
L 359.810277 128.0544 
L 359.810277 22.56 
L 341.43083 22.56 
z
" style="fill:#00ff00;"/>
   </g>
   <g id="patch_24">
    <path clip-path="url(#p9257d81a5d)" d="M 378.189723 128.0544 
L 396.56917 128.0544 
L 396.56917 22.56 
L 378.189723 22.56 
z
" style="fill:#008000;"/>
   </g>
   <g id="patch_25">
    <path clip-path="url(#p9257d81a5d)" d="M 414.948617 128.0544 
L 433.328063 128.0544 
L 433.328063 22.56 
L 414.948617 22.56 
z
" style="fill:#00ffff;"/>
   </g>
   <g id="patch_26">
    <path clip-path="url(#p9257d81a5d)" d="M 451.70751 128.0544 
L 470.086957 128.0544 
L 470.086957 22.56 
L 451.70751 22.56 
z
" style="fill:#9acd32;"/>
   </g>
   <g id="patch_27">
    <path clip-path="url(#p9257d81a5d)" d="M 488.466403 128.0544 
L 506.84585 128.0544 
L 506.84585 22.56 
L 488.466403 22.56 
z
" style="fill:#808000;"/>
   </g>
   <g id="patch_28">
    <path clip-path="url(#p9257d81a5d)" d="M 525.225296 128.0544 
L 543.604743 128.0544 
L 543.604743 22.56 
L 525.225296 22.56 
z
" style="fill:#ff0000;"/>
   </g>
   <g id="patch_29">
    <path clip-path="url(#p9257d81a5d)" d="M 561.98419 128.0544 
L 580.363636 128.0544 
L 580.363636 22.56 
L 561.98419 22.56 
z
" style="fill:#ff6600;"/>
   </g>
   <g id="patch_30">
    <path clip-path="url(#p9257d81a5d)" d="M 598.743083 128.0544 
L 617.12253 128.0544 
L 617.12253 22.56 
L 598.743083 22.56 
z
" style="fill:#99ccff;"/>
   </g>
   <g id="matplotlib.axis_1"/>
   <g id="matplotlib.axis_2"/>
  </g>
 </g>
 <defs>
  <clipPath id="p9257d81a5d">
   <rect height="110.88" width="558" x="90" y="17.28"/>
  </clipPath>
 </defs>
</svg>
