<?xml version="1.0" encoding="utf-8" standalone="no"?>
<!DOCTYPE svg PUBLIC "-//W3C//DTD SVG 1.1//EN"
  "http://www.w3.org/Graphics/SVG/1.1/DTD/svg11.dtd">
<svg height="252pt" version="1.1" viewBox="0 0 720 252" width="720pt" xmlns="http://www.w3.org/2000/svg" xmlns:xlink="http://www.w3.org/1999/xlink">
 <metadata>
  <rdf:RDF xmlns:cc="http://creativecommons.org/ns#" xmlns:dc="http://purl.org/dc/elements/1.1/" xmlns:rdf="http://www.w3.org/1999/02/22-rdf-syntax-ns#">
   <cc:Work>
    <dc:type rdf:resource="http://purl.org/dc/dcmitype/StillImage"/>
    <dc:date>2021-11-02T22:35:08.644233</dc:date>
    <dc:format>image/svg+xml</dc:format>
    <dc:creator>
     <cc:Agent>
      <dc:title>Matplotlib v3.4.3, https://matplotlib.org/</dc:title>
     </cc:Agent>
    </dc:creator>
   </cc:Work>
  </rdf:RDF>
 </metadata>
 <defs>
  <style type="text/css">*{stroke-linecap:butt;stroke-linejoin:round;}</style>
 </defs>
 <g id="figure_1">
  <g id="patch_1">
   <path d="M 0 252 
L 720 252 
L 720 0 
L 0 0 
z
" style="fill:#ffffff;"/>
  </g>
  <g id="axes_1">
   <g id="patch_2">
    <path d="M 90 224.28 
L 648 224.28 
L 648 30.24 
L 90 30.24 
z
" style="fill:#ffffff;"/>
   </g>
   <g id="patch_3">
    <path clip-path="url(#pc1a4d92c17)" d="M 115.363636 224.28 
L 144.770751 224.28 
L 144.770751 223.778644 
L 115.363636 223.778644 
z
" style="fill:none;opacity:0;"/>
   </g>
   <g id="patch_4">
    <path clip-path="url(#pc1a4d92c17)" d="M 152.12253 224.28 
L 181.529644 224.28 
L 181.529644 223.778644 
L 152.12253 223.778644 
z
" style="fill:none;opacity:0;"/>
   </g>
   <g id="patch_5">
    <path clip-path="url(#pc1a4d92c17)" d="M 188.881423 224.28 
L 218.288538 224.28 
L 218.288538 223.778644 
L 188.881423 223.778644 
z
" style="fill:none;opacity:0;"/>
   </g>
   <g id="patch_6">
    <path clip-path="url(#pc1a4d92c17)" d="M 225.640316 224.28 
L 255.047431 224.28 
L 255.047431 223.778644 
L 225.640316 223.778644 
z
" style="fill:none;opacity:0;"/>
   </g>
   <g id="patch_7">
    <path clip-path="url(#pc1a4d92c17)" d="M 262.399209 224.28 
L 291.806324 224.28 
L 291.806324 223.778644 
L 262.399209 223.778644 
z
" style="fill:none;opacity:0;"/>
   </g>
   <g id="patch_8">
    <path clip-path="url(#pc1a4d92c17)" d="M 299.158103 224.28 
L 328.565217 224.28 
L 328.565217 223.778644 
L 299.158103 223.778644 
z
" style="fill:none;opacity:0;"/>
   </g>
   <g id="patch_9">
    <path clip-path="url(#pc1a4d92c17)" d="M 335.916996 224.28 
L 365.324111 224.28 
L 365.324111 223.778644 
L 335.916996 223.778644 
z
" style="fill:none;opacity:0;"/>
   </g>
   <g id="patch_10">
    <path clip-path="url(#pc1a4d92c17)" d="M 372.675889 224.28 
L 402.083004 224.28 
L 402.083004 223.778644 
L 372.675889 223.778644 
z
" style="fill:none;opacity:0;"/>
   </g>
   <g id="patch_11">
    <path clip-path="url(#pc1a4d92c17)" d="M 409.434783 224.28 
L 438.841897 224.28 
L 438.841897 223.778644 
L 409.434783 223.778644 
z
" style="fill:none;opacity:0;"/>
   </g>
   <g id="patch_12">
    <path clip-path="url(#pc1a4d92c17)" d="M 446.193676 224.28 
L 475.600791 224.28 
L 475.600791 223.778644 
L 446.193676 223.778644 
z
" style="fill:none;opacity:0;"/>
   </g>
   <g id="patch_13">
    <path clip-path="url(#pc1a4d92c17)" d="M 482.952569 224.28 
L 512.359684 224.28 
L 512.359684 223.778644 
L 482.952569 223.778644 
z
" style="fill:none;opacity:0;"/>
   </g>
   <g id="patch_14">
    <path clip-path="url(#pc1a4d92c17)" d="M 519.711462 224.28 
L 549.118577 224.28 
L 549.118577 223.778644 
L 519.711462 223.778644 
z
" style="fill:none;opacity:0;"/>
   </g>
   <g id="patch_15">
    <path clip-path="url(#pc1a4d92c17)" d="M 556.470356 224.28 
L 585.87747 224.28 
L 585.87747 223.778644 
L 556.470356 223.778644 
z
" style="fill:none;opacity:0;"/>
   </g>
   <g id="patch_16">
    <path clip-path="url(#pc1a4d92c17)" d="M 593.229249 224.28 
L 622.636364 224.28 
L 622.636364 223.778644 
L 593.229249 223.778644 
z
" style="fill:none;opacity:0;"/>
   </g>
   <g id="patch_17">
    <path clip-path="url(#pc1a4d92c17)" d="M 120.87747 224.229864 
L 139.256917 224.229864 
L 139.256917 197.006207 
L 120.87747 197.006207 
z
" style="fill:#ffc0cb;"/>
   </g>
   <g id="patch_18">
    <path clip-path="url(#pc1a4d92c17)" d="M 120.87747 196.956072 
L 139.256917 196.956072 
L 139.256917 180.361172 
L 120.87747 180.361172 
z
" style="fill:#00ff00;"/>
   </g>
   <g id="patch_19">
    <path clip-path="url(#pc1a4d92c17)" d="M 120.87747 180.311036 
L 139.256917 180.311036 
L 139.256917 165.52102 
L 120.87747 165.52102 
z
" style="fill:#ffc0cb;"/>
   </g>
   <g id="patch_20">
    <path clip-path="url(#pc1a4d92c17)" d="M 120.87747 165.470884 
L 139.256917 165.470884 
L 139.256917 146.018253 
L 120.87747 146.018253 
z
" style="fill:#00ff00;"/>
   </g>
   <g id="patch_21">
    <path clip-path="url(#pc1a4d92c17)" d="M 120.87747 145.968117 
L 139.256917 145.968117 
L 139.256917 141.606316 
L 120.87747 141.606316 
z
" style="fill:#ffc0cb;"/>
   </g>
   <g id="patch_22">
    <path clip-path="url(#pc1a4d92c17)" d="M 120.87747 141.55618 
L 139.256917 141.55618 
L 139.256917 134.085969 
L 120.87747 134.085969 
z
" style="fill:#00ff00;"/>
   </g>
   <g id="patch_23">
    <path clip-path="url(#pc1a4d92c17)" d="M 120.87747 134.035833 
L 139.256917 134.035833 
L 139.256917 123.106262 
L 120.87747 123.106262 
z
" style="fill:#ffa500;"/>
   </g>
   <g id="patch_24">
    <path clip-path="url(#pc1a4d92c17)" d="M 120.87747 123.056126 
L 139.256917 123.056126 
L 139.256917 95.732198 
L 120.87747 95.732198 
z
" style="fill:#00ffff;"/>
   </g>
   <g id="patch_25">
    <path clip-path="url(#pc1a4d92c17)" d="M 120.87747 95.682062 
L 139.256917 95.682062 
L 139.256917 81.293131 
L 120.87747 81.293131 
z
" style="fill:#ffa500;"/>
   </g>
   <g id="patch_26">
    <path clip-path="url(#pc1a4d92c17)" d="M 120.87747 81.242995 
L 139.256917 81.242995 
L 139.256917 70.664373 
L 120.87747 70.664373 
z
"/>
   </g>
   <g id="patch_27">
    <path clip-path="url(#pc1a4d92c17)" d="M 120.87747 70.614238 
L 139.256917 70.614238 
L 139.256917 55.974628 
L 120.87747 55.974628 
z
" style="fill:#008080;"/>
   </g>
   <g id="patch_28">
    <path clip-path="url(#pc1a4d92c17)" d="M 120.87747 55.924493 
L 139.256917 55.924493 
L 139.256917 39.48 
L 120.87747 39.48 
z
"/>
   </g>
   <g id="patch_29">
    <path clip-path="url(#pc1a4d92c17)" d="M 157.636364 224.229864 
L 176.01581 224.229864 
L 176.01581 198.760955 
L 157.636364 198.760955 
z
" style="fill:#800080;"/>
   </g>
   <g id="patch_30">
    <path clip-path="url(#pc1a4d92c17)" d="M 157.636364 198.710819 
L 176.01581 198.710819 
L 176.01581 195.903223 
L 157.636364 195.903223 
z
" style="fill:#ffff00;"/>
   </g>
   <g id="patch_31">
    <path clip-path="url(#pc1a4d92c17)" d="M 157.636364 195.853087 
L 176.01581 195.853087 
L 176.01581 172.840825 
L 157.636364 172.840825 
z
" style="fill:#9acd32;"/>
   </g>
   <g id="patch_32">
    <path clip-path="url(#pc1a4d92c17)" d="M 157.636364 172.790689 
L 176.01581 172.790689 
L 176.01581 161.309626 
L 157.636364 161.309626 
z
" style="fill:#00ff00;"/>
   </g>
   <g id="patch_33">
    <path clip-path="url(#pc1a4d92c17)" d="M 157.636364 161.25949 
L 176.01581 161.25949 
L 176.01581 159.153793 
L 157.636364 159.153793 
z
" style="fill:#00ffff;"/>
   </g>
   <g id="patch_34">
    <path clip-path="url(#pc1a4d92c17)" d="M 157.636364 159.103657 
L 176.01581 159.103657 
L 176.01581 155.092805 
L 157.636364 155.092805 
z
" style="fill:#ff0000;"/>
   </g>
   <g id="patch_35">
    <path clip-path="url(#pc1a4d92c17)" d="M 157.636364 155.04267 
L 176.01581 155.04267 
L 176.01581 137.946413 
L 157.636364 137.946413 
z
" style="fill:#ffff00;"/>
   </g>
   <g id="patch_36">
    <path clip-path="url(#pc1a4d92c17)" d="M 157.636364 137.896278 
L 176.01581 137.896278 
L 176.01581 129.222811 
L 157.636364 129.222811 
z
" style="fill:#9acd32;"/>
   </g>
   <g id="patch_37">
    <path clip-path="url(#pc1a4d92c17)" d="M 157.636364 129.172675 
L 176.01581 129.172675 
L 176.01581 105.60892 
L 157.636364 105.60892 
z
"/>
   </g>
   <g id="patch_38">
    <path clip-path="url(#pc1a4d92c17)" d="M 157.636364 105.558785 
L 176.01581 105.558785 
L 176.01581 98.690201 
L 157.636364 98.690201 
z
" style="fill:#008000;"/>
   </g>
   <g id="patch_39">
    <path clip-path="url(#pc1a4d92c17)" d="M 157.636364 98.640065 
L 176.01581 98.640065 
L 176.01581 84.602084 
L 157.636364 84.602084 
z
" style="fill:#ffff00;"/>
   </g>
   <g id="patch_40">
    <path clip-path="url(#pc1a4d92c17)" d="M 157.636364 84.551948 
L 176.01581 84.551948 
L 176.01581 73.12102 
L 157.636364 73.12102 
z
" style="fill:#9acd32;"/>
   </g>
   <g id="patch_41">
    <path clip-path="url(#pc1a4d92c17)" d="M 194.395257 224.229864 
L 212.774704 224.229864 
L 212.774704 191.992642 
L 194.395257 191.992642 
z
" style="fill:#9acd32;"/>
   </g>
   <g id="patch_42">
    <path clip-path="url(#pc1a4d92c17)" d="M 194.395257 191.942507 
L 212.774704 191.942507 
L 212.774704 180.712122 
L 194.395257 180.712122 
z
" style="fill:#ff00ff;"/>
   </g>
   <g id="patch_43">
    <path clip-path="url(#pc1a4d92c17)" d="M 194.395257 180.661986 
L 212.774704 180.661986 
L 212.774704 175.1972 
L 194.395257 175.1972 
z
" style="fill:#9acd32;"/>
   </g>
   <g id="patch_44">
    <path clip-path="url(#pc1a4d92c17)" d="M 194.395257 175.147065 
L 212.774704 175.147065 
L 212.774704 165.621291 
L 194.395257 165.621291 
z
" style="fill:#c0c0c0;"/>
   </g>
   <g id="patch_45">
    <path clip-path="url(#pc1a4d92c17)" d="M 194.395257 165.571156 
L 212.774704 165.571156 
L 212.774704 151.282496 
L 194.395257 151.282496 
z
" style="fill:#ff00ff;"/>
   </g>
   <g id="patch_46">
    <path clip-path="url(#pc1a4d92c17)" d="M 194.395257 151.23236 
L 212.774704 151.23236 
L 212.774704 117.94229 
L 194.395257 117.94229 
z
" style="fill:#c0c0c0;"/>
   </g>
   <g id="patch_47">
    <path clip-path="url(#pc1a4d92c17)" d="M 194.395257 117.892154 
L 212.774704 117.892154 
L 212.774704 115.034422 
L 194.395257 115.034422 
z
" style="fill:#ff00ff;"/>
   </g>
   <g id="patch_48">
    <path clip-path="url(#pc1a4d92c17)" d="M 194.395257 114.984286 
L 212.774704 114.984286 
L 212.774704 105.408378 
L 194.395257 105.408378 
z
" style="fill:#c0c0c0;"/>
   </g>
   <g id="patch_49">
    <path clip-path="url(#pc1a4d92c17)" d="M 231.15415 224.229864 
L 249.533597 224.229864 
L 249.533597 161.510168 
L 231.15415 161.510168 
z
" style="fill:#c0c0c0;"/>
   </g>
   <g id="patch_50">
    <path clip-path="url(#pc1a4d92c17)" d="M 231.15415 161.460033 
L 249.533597 161.460033 
L 249.533597 158.552165 
L 231.15415 158.552165 
z
" style="fill:#ffff00;"/>
   </g>
   <g id="patch_51">
    <path clip-path="url(#pc1a4d92c17)" d="M 231.15415 158.502029 
L 249.533597 158.502029 
L 249.533597 150.179512 
L 231.15415 150.179512 
z
" style="fill:#808000;"/>
   </g>
   <g id="patch_52">
    <path clip-path="url(#pc1a4d92c17)" d="M 231.15415 150.129376 
L 249.533597 150.129376 
L 249.533597 135.188953 
L 231.15415 135.188953 
z
" style="fill:#000080;"/>
   </g>
   <g id="patch_53">
    <path clip-path="url(#pc1a4d92c17)" d="M 231.15415 135.138817 
L 249.533597 135.138817 
L 249.533597 123.256668 
L 231.15415 123.256668 
z
" style="fill:#808000;"/>
   </g>
   <g id="patch_54">
    <path clip-path="url(#pc1a4d92c17)" d="M 231.15415 123.206533 
L 249.533597 123.206533 
L 249.533597 119.245817 
L 231.15415 119.245817 
z
" style="fill:#000080;"/>
   </g>
   <g id="patch_55">
    <path clip-path="url(#pc1a4d92c17)" d="M 231.15415 119.195681 
L 249.533597 119.195681 
L 249.533597 114.884015 
L 231.15415 114.884015 
z
" style="fill:#808000;"/>
   </g>
   <g id="patch_56">
    <path clip-path="url(#pc1a4d92c17)" d="M 267.913043 224.229864 
L 286.29249 224.229864 
L 286.29249 188.834097 
L 267.913043 188.834097 
z
" style="fill:#ff0000;"/>
   </g>
   <g id="patch_57">
    <path clip-path="url(#pc1a4d92c17)" d="M 267.913043 188.783961 
L 286.29249 188.783961 
L 286.29249 158.050808 
L 267.913043 158.050808 
z
" style="fill:#0000ff;"/>
   </g>
   <g id="patch_58">
    <path clip-path="url(#pc1a4d92c17)" d="M 267.913043 158.000673 
L 286.29249 158.000673 
L 286.29249 148.4749 
L 267.913043 148.4749 
z
" style="fill:#ff0000;"/>
   </g>
   <g id="patch_59">
    <path clip-path="url(#pc1a4d92c17)" d="M 267.913043 148.424764 
L 286.29249 148.424764 
L 286.29249 129.473489 
L 267.913043 129.473489 
z
" style="fill:#0000ff;"/>
   </g>
   <g id="patch_60">
    <path clip-path="url(#pc1a4d92c17)" d="M 267.913043 129.423353 
L 286.29249 129.423353 
L 286.29249 126.264807 
L 267.913043 126.264807 
z
" style="fill:#ff0000;"/>
   </g>
   <g id="patch_61">
    <path clip-path="url(#pc1a4d92c17)" d="M 304.671937 224.229864 
L 323.051383 224.229864 
L 323.051383 216.55911 
L 304.671937 216.55911 
z
" style="fill:#ff0000;"/>
   </g>
   <g id="patch_62">
    <path clip-path="url(#pc1a4d92c17)" d="M 304.671937 216.508974 
L 323.051383 216.508974 
L 323.051383 187.279891 
L 304.671937 187.279891 
z
" style="fill:#00ffff;"/>
   </g>
   <g id="patch_63">
    <path clip-path="url(#pc1a4d92c17)" d="M 304.671937 187.229756 
L 323.051383 187.229756 
L 323.051383 165.571156 
L 304.671937 165.571156 
z
" style="fill:#00ff00;"/>
   </g>
   <g id="patch_64">
    <path clip-path="url(#pc1a4d92c17)" d="M 304.671937 165.52102 
L 323.051383 165.52102 
L 323.051383 156.99796 
L 304.671937 156.99796 
z
" style="fill:#ff0000;"/>
   </g>
   <g id="patch_65">
    <path clip-path="url(#pc1a4d92c17)" d="M 304.671937 156.947824 
L 323.051383 156.947824 
L 323.051383 125.66318 
L 304.671937 125.66318 
z
" style="fill:#00ff00;"/>
   </g>
   <g id="patch_66">
    <path clip-path="url(#pc1a4d92c17)" d="M 341.43083 224.229864 
L 359.810277 224.229864 
L 359.810277 205.980488 
L 341.43083 205.980488 
z
" style="fill:#ffc0cb;"/>
   </g>
   <g id="patch_67">
    <path clip-path="url(#pc1a4d92c17)" d="M 341.43083 205.930353 
L 359.810277 205.930353 
L 359.810277 185.825958 
L 341.43083 185.825958 
z
" style="fill:#ff00ff;"/>
   </g>
   <g id="patch_68">
    <path clip-path="url(#pc1a4d92c17)" d="M 341.43083 185.775822 
L 359.810277 185.775822 
L 359.810277 163.966815 
L 341.43083 163.966815 
z
" style="fill:#800080;"/>
   </g>
   <g id="patch_69">
    <path clip-path="url(#pc1a4d92c17)" d="M 341.43083 163.916679 
L 359.810277 163.916679 
L 359.810277 151.633445 
L 341.43083 151.633445 
z
" style="fill:#9acd32;"/>
   </g>
   <g id="patch_70">
    <path clip-path="url(#pc1a4d92c17)" d="M 341.43083 151.58331 
L 359.810277 151.58331 
L 359.810277 135.539902 
L 341.43083 135.539902 
z
" style="fill:#ff00ff;"/>
   </g>
   <g id="patch_71">
    <path clip-path="url(#pc1a4d92c17)" d="M 378.189723 224.229864 
L 396.56917 224.229864 
L 396.56917 180.812393 
L 378.189723 180.812393 
z
" style="fill:#ff00ff;"/>
   </g>
   <g id="patch_72">
    <path clip-path="url(#pc1a4d92c17)" d="M 378.189723 180.762257 
L 396.56917 180.762257 
L 396.56917 162.563017 
L 378.189723 162.563017 
z
" style="fill:#008000;"/>
   </g>
   <g id="patch_73">
    <path clip-path="url(#pc1a4d92c17)" d="M 378.189723 162.512881 
L 396.56917 162.512881 
L 396.56917 158.502029 
L 378.189723 158.502029 
z
" style="fill:#ff00ff;"/>
   </g>
   <g id="patch_74">
    <path clip-path="url(#pc1a4d92c17)" d="M 378.189723 158.451894 
L 396.56917 158.451894 
L 396.56917 143.361063 
L 378.189723 143.361063 
z
" style="fill:#008000;"/>
   </g>
   <g id="patch_75">
    <path clip-path="url(#pc1a4d92c17)" d="M 378.189723 143.310928 
L 396.56917 143.310928 
L 396.56917 130.075117 
L 378.189723 130.075117 
z
" style="fill:#ff00ff;"/>
   </g>
   <g id="patch_76">
    <path clip-path="url(#pc1a4d92c17)" d="M 414.948617 224.229864 
L 433.328063 224.229864 
L 433.328063 216.91006 
L 414.948617 216.91006 
z
" style="fill:#008080;"/>
   </g>
   <g id="patch_77">
    <path clip-path="url(#pc1a4d92c17)" d="M 414.948617 216.859924 
L 433.328063 216.859924 
L 433.328063 213.250157 
L 414.948617 213.250157 
z
" style="fill:#9acd32;"/>
   </g>
   <g id="patch_78">
    <path clip-path="url(#pc1a4d92c17)" d="M 414.948617 213.200022 
L 433.328063 213.200022 
L 433.328063 203.072621 
L 414.948617 203.072621 
z
" style="fill:#008080;"/>
   </g>
   <g id="patch_79">
    <path clip-path="url(#pc1a4d92c17)" d="M 414.948617 203.022485 
L 433.328063 203.022485 
L 433.328063 195.552273 
L 414.948617 195.552273 
z
"/>
   </g>
   <g id="patch_80">
    <path clip-path="url(#pc1a4d92c17)" d="M 414.948617 195.502138 
L 433.328063 195.502138 
L 433.328063 178.004797 
L 414.948617 178.004797 
z
" style="fill:#ffff00;"/>
   </g>
   <g id="patch_81">
    <path clip-path="url(#pc1a4d92c17)" d="M 414.948617 177.954661 
L 433.328063 177.954661 
L 433.328063 173.993945 
L 414.948617 173.993945 
z
"/>
   </g>
   <g id="patch_82">
    <path clip-path="url(#pc1a4d92c17)" d="M 414.948617 173.943809 
L 433.328063 173.943809 
L 433.328063 161.159219 
L 414.948617 161.159219 
z
" style="fill:#c0c0c0;"/>
   </g>
   <g id="patch_83">
    <path clip-path="url(#pc1a4d92c17)" d="M 414.948617 161.109083 
L 433.328063 161.109083 
L 433.328063 158.602301 
L 414.948617 158.602301 
z
" style="fill:#ffff00;"/>
   </g>
   <g id="patch_84">
    <path clip-path="url(#pc1a4d92c17)" d="M 414.948617 158.552165 
L 433.328063 158.552165 
L 433.328063 156.596875 
L 414.948617 156.596875 
z
"/>
   </g>
   <g id="patch_85">
    <path clip-path="url(#pc1a4d92c17)" d="M 414.948617 156.546739 
L 433.328063 156.546739 
L 433.328063 149.577884 
L 414.948617 149.577884 
z
" style="fill:#008080;"/>
   </g>
   <g id="patch_86">
    <path clip-path="url(#pc1a4d92c17)" d="M 414.948617 149.527748 
L 433.328063 149.527748 
L 433.328063 122.20382 
L 414.948617 122.20382 
z
" style="fill:#ffff00;"/>
   </g>
   <g id="patch_87">
    <path clip-path="url(#pc1a4d92c17)" d="M 451.70751 224.229864 
L 470.086957 224.229864 
L 470.086957 193.346305 
L 451.70751 193.346305 
z
" style="fill:#008000;"/>
   </g>
   <g id="patch_88">
    <path clip-path="url(#pc1a4d92c17)" d="M 451.70751 193.296169 
L 470.086957 193.296169 
L 470.086957 174.344894 
L 451.70751 174.344894 
z
" style="fill:#ffff00;"/>
   </g>
   <g id="patch_89">
    <path clip-path="url(#pc1a4d92c17)" d="M 451.70751 174.294759 
L 470.086957 174.294759 
L 470.086957 158.050808 
L 451.70751 158.050808 
z
" style="fill:#008000;"/>
   </g>
   <g id="patch_90">
    <path clip-path="url(#pc1a4d92c17)" d="M 451.70751 158.000673 
L 470.086957 158.000673 
L 470.086957 150.129376 
L 451.70751 150.129376 
z
" style="fill:#0000ff;"/>
   </g>
   <g id="patch_91">
    <path clip-path="url(#pc1a4d92c17)" d="M 451.70751 150.07924 
L 470.086957 150.07924 
L 470.086957 146.419338 
L 451.70751 146.419338 
z
" style="fill:#ff0000;"/>
   </g>
   <g id="patch_92">
    <path clip-path="url(#pc1a4d92c17)" d="M 451.70751 146.369202 
L 470.086957 146.369202 
L 470.086957 143.962691 
L 451.70751 143.962691 
z
" style="fill:#0000ff;"/>
   </g>
   <g id="patch_93">
    <path clip-path="url(#pc1a4d92c17)" d="M 451.70751 143.912556 
L 470.086957 143.912556 
L 470.086957 141.054824 
L 451.70751 141.054824 
z
" style="fill:#ff0000;"/>
   </g>
   <g id="patch_94">
    <path clip-path="url(#pc1a4d92c17)" d="M 451.70751 141.004688 
L 470.086957 141.004688 
L 470.086957 126.866435 
L 451.70751 126.866435 
z
" style="fill:#0000ff;"/>
   </g>
   <g id="patch_95">
    <path clip-path="url(#pc1a4d92c17)" d="M 451.70751 126.8163 
L 470.086957 126.8163 
L 470.086957 124.15911 
L 451.70751 124.15911 
z
" style="fill:#ff0000;"/>
   </g>
   <g id="patch_96">
    <path clip-path="url(#pc1a4d92c17)" d="M 488.466403 224.229864 
L 506.84585 224.229864 
L 506.84585 221.522539 
L 488.466403 221.522539 
z
" style="fill:#ffc0cb;"/>
   </g>
   <g id="patch_97">
    <path clip-path="url(#pc1a4d92c17)" d="M 488.466403 221.472404 
L 506.84585 221.472404 
L 506.84585 217.962908 
L 488.466403 217.962908 
z
"/>
   </g>
   <g id="patch_98">
    <path clip-path="url(#pc1a4d92c17)" d="M 488.466403 217.912773 
L 506.84585 217.912773 
L 506.84585 214.202735 
L 488.466403 214.202735 
z
" style="fill:#ffc0cb;"/>
   </g>
   <g id="patch_99">
    <path clip-path="url(#pc1a4d92c17)" d="M 488.466403 214.152599 
L 506.84585 214.152599 
L 506.84585 192.694542 
L 488.466403 192.694542 
z
" style="fill:#ffa500;"/>
   </g>
   <g id="patch_100">
    <path clip-path="url(#pc1a4d92c17)" d="M 488.466403 192.644406 
L 506.84585 192.644406 
L 506.84585 186.277179 
L 488.466403 186.277179 
z
" style="fill:#800080;"/>
   </g>
   <g id="patch_101">
    <path clip-path="url(#pc1a4d92c17)" d="M 488.466403 186.227043 
L 506.84585 186.227043 
L 506.84585 181.012935 
L 488.466403 181.012935 
z
"/>
   </g>
   <g id="patch_102">
    <path clip-path="url(#pc1a4d92c17)" d="M 488.466403 180.9628 
L 506.84585 180.9628 
L 506.84585 149.176799 
L 488.466403 149.176799 
z
" style="fill:#800080;"/>
   </g>
   <g id="patch_103">
    <path clip-path="url(#pc1a4d92c17)" d="M 488.466403 149.126663 
L 506.84585 149.126663 
L 506.84585 147.722865 
L 488.466403 147.722865 
z
" style="fill:#ffc0cb;"/>
   </g>
   <g id="patch_104">
    <path clip-path="url(#pc1a4d92c17)" d="M 488.466403 147.672729 
L 506.84585 147.672729 
L 506.84585 128.821725 
L 488.466403 128.821725 
z
" style="fill:#ffa500;"/>
   </g>
   <g id="patch_105">
    <path clip-path="url(#pc1a4d92c17)" d="M 525.225296 224.229864 
L 543.604743 224.229864 
L 543.604743 206.181031 
L 525.225296 206.181031 
z
" style="fill:#808000;"/>
   </g>
   <g id="patch_106">
    <path clip-path="url(#pc1a4d92c17)" d="M 525.225296 206.130895 
L 543.604743 206.130895 
L 543.604743 197.056343 
L 525.225296 197.056343 
z
" style="fill:#000080;"/>
   </g>
   <g id="patch_107">
    <path clip-path="url(#pc1a4d92c17)" d="M 525.225296 197.006207 
L 543.604743 197.006207 
L 543.604743 180.812393 
L 525.225296 180.812393 
z
" style="fill:#808000;"/>
   </g>
   <g id="patch_108">
    <path clip-path="url(#pc1a4d92c17)" d="M 525.225296 180.762257 
L 543.604743 180.762257 
L 543.604743 177.002084 
L 525.225296 177.002084 
z
" style="fill:#000080;"/>
   </g>
   <g id="patch_109">
    <path clip-path="url(#pc1a4d92c17)" d="M 525.225296 176.951948 
L 543.604743 176.951948 
L 543.604743 171.988519 
L 525.225296 171.988519 
z
" style="fill:#808000;"/>
   </g>
   <g id="patch_110">
    <path clip-path="url(#pc1a4d92c17)" d="M 525.225296 171.938383 
L 543.604743 171.938383 
L 543.604743 167.275768 
L 525.225296 167.275768 
z
" style="fill:#000080;"/>
   </g>
   <g id="patch_111">
    <path clip-path="url(#pc1a4d92c17)" d="M 525.225296 167.225632 
L 543.604743 167.225632 
L 543.604743 156.045383 
L 525.225296 156.045383 
z
" style="fill:#808000;"/>
   </g>
   <g id="patch_112">
    <path clip-path="url(#pc1a4d92c17)" d="M 525.225296 155.995247 
L 543.604743 155.995247 
L 543.604743 141.004688 
L 525.225296 141.004688 
z
" style="fill:#000080;"/>
   </g>
   <g id="patch_113">
    <path clip-path="url(#pc1a4d92c17)" d="M 561.98419 224.229864 
L 580.363636 224.229864 
L 580.363636 211.044189 
L 561.98419 211.044189 
z
" style="fill:#ffc0cb;"/>
   </g>
   <g id="patch_114">
    <path clip-path="url(#pc1a4d92c17)" d="M 561.98419 210.994053 
L 580.363636 210.994053 
L 580.363636 206.782659 
L 561.98419 206.782659 
z
"/>
   </g>
   <g id="patch_115">
    <path clip-path="url(#pc1a4d92c17)" d="M 561.98419 206.732523 
L 580.363636 206.732523 
L 580.363636 202.521129 
L 561.98419 202.521129 
z
" style="fill:#ffc0cb;"/>
   </g>
   <g id="patch_116">
    <path clip-path="url(#pc1a4d92c17)" d="M 561.98419 202.470993 
L 580.363636 202.470993 
L 580.363636 199.713532 
L 561.98419 199.713532 
z
"/>
   </g>
   <g id="patch_117">
    <path clip-path="url(#pc1a4d92c17)" d="M 561.98419 199.663397 
L 580.363636 199.663397 
L 580.363636 184.472295 
L 561.98419 184.472295 
z
" style="fill:#008080;"/>
   </g>
   <g id="patch_118">
    <path clip-path="url(#pc1a4d92c17)" d="M 561.98419 184.42216 
L 580.363636 184.42216 
L 580.363636 161.008812 
L 561.98419 161.008812 
z
" style="fill:#ffc0cb;"/>
   </g>
   <g id="patch_119">
    <path clip-path="url(#pc1a4d92c17)" d="M 598.743083 224.229864 
L 617.12253 224.229864 
L 617.12253 216.709517 
L 598.743083 216.709517 
z
" style="fill:#00ffff;"/>
   </g>
   <g id="patch_120">
    <path clip-path="url(#pc1a4d92c17)" d="M 598.743083 216.659381 
L 617.12253 216.659381 
L 617.12253 186.527857 
L 598.743083 186.527857 
z
" style="fill:#ffa500;"/>
   </g>
   <g id="matplotlib.axis_1"/>
   <g id="matplotlib.axis_2"/>
  </g>
 </g>
 <defs>
  <clipPath id="pc1a4d92c17">
   <rect height="194.04" width="558" x="90" y="30.24"/>
  </clipPath>
 </defs>
</svg>
