<?xml version="1.0" encoding="utf-8" standalone="no"?>
<!DOCTYPE svg PUBLIC "-//W3C//DTD SVG 1.1//EN"
  "http://www.w3.org/Graphics/SVG/1.1/DTD/svg11.dtd">
<svg height="252pt" version="1.1" viewBox="0 0 720 252" width="720pt" xmlns="http://www.w3.org/2000/svg" xmlns:xlink="http://www.w3.org/1999/xlink">
 <metadata>
  <rdf:RDF xmlns:cc="http://creativecommons.org/ns#" xmlns:dc="http://purl.org/dc/elements/1.1/" xmlns:rdf="http://www.w3.org/1999/02/22-rdf-syntax-ns#">
   <cc:Work>
    <dc:type rdf:resource="http://purl.org/dc/dcmitype/StillImage"/>
    <dc:date>2021-11-04T14:13:19.945477</dc:date>
    <dc:format>image/svg+xml</dc:format>
    <dc:creator>
     <cc:Agent>
      <dc:title>Matplotlib v3.4.3, https://matplotlib.org/</dc:title>
     </cc:Agent>
    </dc:creator>
   </cc:Work>
  </rdf:RDF>
 </metadata>
 <defs>
  <style type="text/css">*{stroke-linecap:butt;stroke-linejoin:round;}</style>
 </defs>
 <g id="figure_1">
  <g id="patch_1">
   <path d="M 0 252 
L 720 252 
L 720 0 
L 0 0 
z
" style="fill:#ffffff;"/>
  </g>
  <g id="axes_1">
   <g id="patch_2">
    <path d="M 90 224.28 
L 648 224.28 
L 648 30.24 
L 90 30.24 
z
" style="fill:#ffffff;"/>
   </g>
   <g id="patch_3">
    <path clip-path="url(#p4c0592bbe7)" d="M 115.363636 224.28 
L 149.755008 224.28 
L 149.755008 223.93237 
L 115.363636 223.93237 
z
" style="fill:none;opacity:0;"/>
   </g>
   <g id="patch_4">
    <path clip-path="url(#p4c0592bbe7)" d="M 158.352851 224.28 
L 192.744222 224.28 
L 192.744222 223.93237 
L 158.352851 223.93237 
z
" style="fill:none;opacity:0;"/>
   </g>
   <g id="patch_5">
    <path clip-path="url(#p4c0592bbe7)" d="M 201.342065 224.28 
L 235.733436 224.28 
L 235.733436 223.93237 
L 201.342065 223.93237 
z
" style="fill:none;opacity:0;"/>
   </g>
   <g id="patch_6">
    <path clip-path="url(#p4c0592bbe7)" d="M 244.331279 224.28 
L 278.72265 224.28 
L 278.72265 223.93237 
L 244.331279 223.93237 
z
" style="fill:none;opacity:0;"/>
   </g>
   <g id="patch_7">
    <path clip-path="url(#p4c0592bbe7)" d="M 287.320493 224.28 
L 321.711864 224.28 
L 321.711864 223.93237 
L 287.320493 223.93237 
z
" style="fill:none;opacity:0;"/>
   </g>
   <g id="patch_8">
    <path clip-path="url(#p4c0592bbe7)" d="M 330.309707 224.28 
L 364.701079 224.28 
L 364.701079 223.93237 
L 330.309707 223.93237 
z
" style="fill:none;opacity:0;"/>
   </g>
   <g id="patch_9">
    <path clip-path="url(#p4c0592bbe7)" d="M 373.298921 224.28 
L 407.690293 224.28 
L 407.690293 223.93237 
L 373.298921 223.93237 
z
" style="fill:none;opacity:0;"/>
   </g>
   <g id="patch_10">
    <path clip-path="url(#p4c0592bbe7)" d="M 416.288136 224.28 
L 450.679507 224.28 
L 450.679507 223.93237 
L 416.288136 223.93237 
z
" style="fill:none;opacity:0;"/>
   </g>
   <g id="patch_11">
    <path clip-path="url(#p4c0592bbe7)" d="M 459.27735 224.28 
L 493.668721 224.28 
L 493.668721 223.93237 
L 459.27735 223.93237 
z
" style="fill:none;opacity:0;"/>
   </g>
   <g id="patch_12">
    <path clip-path="url(#p4c0592bbe7)" d="M 502.266564 224.28 
L 536.657935 224.28 
L 536.657935 223.93237 
L 502.266564 223.93237 
z
" style="fill:none;opacity:0;"/>
   </g>
   <g id="patch_13">
    <path clip-path="url(#p4c0592bbe7)" d="M 545.255778 224.28 
L 579.647149 224.28 
L 579.647149 223.93237 
L 545.255778 223.93237 
z
" style="fill:none;opacity:0;"/>
   </g>
   <g id="patch_14">
    <path clip-path="url(#p4c0592bbe7)" d="M 588.244992 224.28 
L 622.636364 224.28 
L 622.636364 223.93237 
L 588.244992 223.93237 
z
" style="fill:none;opacity:0;"/>
   </g>
   <g id="patch_15">
    <path clip-path="url(#p4c0592bbe7)" d="M 121.812018 224.245237 
L 143.306626 224.245237 
L 143.306626 212.669165 
L 121.812018 212.669165 
z
" style="fill:#c71585;"/>
   </g>
   <g id="patch_16">
    <path clip-path="url(#p4c0592bbe7)" d="M 121.812018 212.634402 
L 143.306626 212.634402 
L 143.306626 205.994673 
L 121.812018 205.994673 
z
" style="fill:#3399ff;"/>
   </g>
   <g id="patch_17">
    <path clip-path="url(#p4c0592bbe7)" d="M 121.812018 205.95991 
L 143.306626 205.95991 
L 143.306626 185.65833 
L 121.812018 185.65833 
z
" style="fill:#c71585;"/>
   </g>
   <g id="patch_18">
    <path clip-path="url(#p4c0592bbe7)" d="M 121.812018 185.623567 
L 143.306626 185.623567 
L 143.306626 182.63395 
L 121.812018 182.63395 
z
" style="fill:#3399ff;"/>
   </g>
   <g id="patch_19">
    <path clip-path="url(#p4c0592bbe7)" d="M 121.812018 182.599187 
L 143.306626 182.599187 
L 143.306626 182.182032 
L 121.812018 182.182032 
z
" style="fill:#c71585;"/>
   </g>
   <g id="patch_20">
    <path clip-path="url(#p4c0592bbe7)" d="M 121.812018 182.147269 
L 143.306626 182.147269 
L 143.306626 151.069165 
L 121.812018 151.069165 
z
" style="fill:#3399ff;"/>
   </g>
   <g id="patch_21">
    <path clip-path="url(#p4c0592bbe7)" d="M 121.812018 151.034402 
L 143.306626 151.034402 
L 143.306626 93.536433 
L 121.812018 93.536433 
z
" style="fill:#c71585;"/>
   </g>
   <g id="patch_22">
    <path clip-path="url(#p4c0592bbe7)" d="M 121.812018 93.50167 
L 143.306626 93.50167 
L 143.306626 89.399639 
L 121.812018 89.399639 
z
" style="fill:#6600ff;"/>
   </g>
   <g id="patch_23">
    <path clip-path="url(#p4c0592bbe7)" d="M 121.812018 89.364876 
L 143.306626 89.364876 
L 143.306626 84.706637 
L 121.812018 84.706637 
z
" style="fill:#008000;"/>
   </g>
   <g id="patch_24">
    <path clip-path="url(#p4c0592bbe7)" d="M 121.812018 84.671874 
L 143.306626 84.671874 
L 143.306626 70.106185 
L 121.812018 70.106185 
z
" style="fill:#3399ff;"/>
   </g>
   <g id="patch_25">
    <path clip-path="url(#p4c0592bbe7)" d="M 121.812018 70.071422 
L 143.306626 70.071422 
L 143.306626 51.716569 
L 121.812018 51.716569 
z
" style="fill:#ff99cc;"/>
   </g>
   <g id="patch_26">
    <path clip-path="url(#p4c0592bbe7)" d="M 121.812018 51.681806 
L 143.306626 51.681806 
L 143.306626 45.042077 
L 121.812018 45.042077 
z
" style="fill:#3399ff;"/>
   </g>
   <g id="patch_27">
    <path clip-path="url(#p4c0592bbe7)" d="M 121.812018 45.007314 
L 143.306626 45.007314 
L 143.306626 41.287675 
L 121.812018 41.287675 
z
" style="fill:#ff99cc;"/>
   </g>
   <g id="patch_28">
    <path clip-path="url(#p4c0592bbe7)" d="M 121.812018 41.252912 
L 143.306626 41.252912 
L 143.306626 39.48 
L 121.812018 39.48 
z
" style="fill:#3399ff;"/>
   </g>
   <g id="patch_29">
    <path clip-path="url(#p4c0592bbe7)" d="M 164.801233 224.245237 
L 186.29584 224.245237 
L 186.29584 215.728307 
L 164.801233 215.728307 
z
" style="fill:#993300;"/>
   </g>
   <g id="patch_30">
    <path clip-path="url(#p4c0592bbe7)" d="M 164.801233 215.693544 
L 186.29584 215.693544 
L 186.29584 214.754944 
L 164.801233 214.754944 
z
" style="fill:#c71585;"/>
   </g>
   <g id="patch_31">
    <path clip-path="url(#p4c0592bbe7)" d="M 164.801233 214.720181 
L 186.29584 214.720181 
L 186.29584 207.802348 
L 164.801233 207.802348 
z
" style="fill:#33cccc;"/>
   </g>
   <g id="patch_32">
    <path clip-path="url(#p4c0592bbe7)" d="M 164.801233 207.767585 
L 186.29584 207.767585 
L 186.29584 205.229887 
L 164.801233 205.229887 
z
" style="fill:#008000;"/>
   </g>
   <g id="patch_33">
    <path clip-path="url(#p4c0592bbe7)" d="M 164.801233 205.195124 
L 186.29584 205.195124 
L 186.29584 201.6493 
L 164.801233 201.6493 
z
" style="fill:#33cccc;"/>
   </g>
   <g id="patch_34">
    <path clip-path="url(#p4c0592bbe7)" d="M 164.801233 201.614537 
L 186.29584 201.614537 
L 186.29584 160.837562 
L 164.801233 160.837562 
z
" style="fill:#c71585;"/>
   </g>
   <g id="patch_35">
    <path clip-path="url(#p4c0592bbe7)" d="M 164.801233 160.802799 
L 186.29584 160.802799 
L 186.29584 158.160813 
L 164.801233 158.160813 
z
" style="fill:#ff99cc;"/>
   </g>
   <g id="patch_36">
    <path clip-path="url(#p4c0592bbe7)" d="M 164.801233 158.12605 
L 186.29584 158.12605 
L 186.29584 156.909345 
L 164.801233 156.909345 
z
" style="fill:#993300;"/>
   </g>
   <g id="patch_37">
    <path clip-path="url(#p4c0592bbe7)" d="M 164.801233 156.874582 
L 186.29584 156.874582 
L 186.29584 138.41544 
L 164.801233 138.41544 
z
" style="fill:#ff99cc;"/>
   </g>
   <g id="patch_38">
    <path clip-path="url(#p4c0592bbe7)" d="M 164.801233 138.380677 
L 186.29584 138.380677 
L 186.29584 134.139594 
L 164.801233 134.139594 
z
" style="fill:#ffa500;"/>
   </g>
   <g id="patch_39">
    <path clip-path="url(#p4c0592bbe7)" d="M 164.801233 134.104831 
L 186.29584 134.104831 
L 186.29584 130.037562 
L 164.801233 130.037562 
z
" style="fill:#ff99cc;"/>
   </g>
   <g id="patch_40">
    <path clip-path="url(#p4c0592bbe7)" d="M 164.801233 130.002799 
L 186.29584 130.002799 
L 186.29584 126.074582 
L 164.801233 126.074582 
z
" style="fill:#33cccc;"/>
   </g>
   <g id="patch_41">
    <path clip-path="url(#p4c0592bbe7)" d="M 164.801233 126.039819 
L 186.29584 126.039819 
L 186.29584 107.650203 
L 164.801233 107.650203 
z
" style="fill:#993300;"/>
   </g>
   <g id="patch_42">
    <path clip-path="url(#p4c0592bbe7)" d="M 164.801233 107.61544 
L 186.29584 107.61544 
L 186.29584 105.807765 
L 164.801233 105.807765 
z
" style="fill:#c71585;"/>
   </g>
   <g id="patch_43">
    <path clip-path="url(#p4c0592bbe7)" d="M 164.801233 105.773002 
L 186.29584 105.773002 
L 186.29584 100.697607 
L 164.801233 100.697607 
z
" style="fill:#33cccc;"/>
   </g>
   <g id="patch_44">
    <path clip-path="url(#p4c0592bbe7)" d="M 164.801233 100.662844 
L 186.29584 100.662844 
L 186.29584 98.577065 
L 164.801233 98.577065 
z
" style="fill:#ffa500;"/>
   </g>
   <g id="patch_45">
    <path clip-path="url(#p4c0592bbe7)" d="M 164.801233 98.542302 
L 186.29584 98.542302 
L 186.29584 96.630339 
L 164.801233 96.630339 
z
" style="fill:#33cccc;"/>
   </g>
   <g id="patch_46">
    <path clip-path="url(#p4c0592bbe7)" d="M 164.801233 96.595576 
L 186.29584 96.595576 
L 186.29584 87.591964 
L 164.801233 87.591964 
z
" style="fill:#ffa500;"/>
   </g>
   <g id="patch_47">
    <path clip-path="url(#p4c0592bbe7)" d="M 164.801233 87.557201 
L 186.29584 87.557201 
L 186.29584 81.682257 
L 164.801233 81.682257 
z
" style="fill:#33cccc;"/>
   </g>
   <g id="patch_48">
    <path clip-path="url(#p4c0592bbe7)" d="M 164.801233 81.647494 
L 186.29584 81.647494 
L 186.29584 73.408668 
L 164.801233 73.408668 
z
" style="fill:#993300;"/>
   </g>
   <g id="patch_49">
    <path clip-path="url(#p4c0592bbe7)" d="M 207.790447 224.245237 
L 229.285054 224.245237 
L 229.285054 209.019052 
L 207.790447 209.019052 
z
" style="fill:#993300;"/>
   </g>
   <g id="patch_50">
    <path clip-path="url(#p4c0592bbe7)" d="M 207.790447 208.984289 
L 229.285054 208.984289 
L 229.285054 205.438465 
L 207.790447 205.438465 
z
" style="fill:#6600ff;"/>
   </g>
   <g id="patch_51">
    <path clip-path="url(#p4c0592bbe7)" d="M 207.790447 205.403702 
L 229.285054 205.403702 
L 229.285054 204.986546 
L 207.790447 204.986546 
z
" style="fill:#ffa500;"/>
   </g>
   <g id="patch_52">
    <path clip-path="url(#p4c0592bbe7)" d="M 207.790447 204.951783 
L 229.285054 204.951783 
L 229.285054 204.082709 
L 207.790447 204.082709 
z
" style="fill:#6600ff;"/>
   </g>
   <g id="patch_53">
    <path clip-path="url(#p4c0592bbe7)" d="M 207.790447 204.047946 
L 229.285054 204.047946 
L 229.285054 199.633047 
L 207.790447 199.633047 
z
" style="fill:#ffa500;"/>
   </g>
   <g id="patch_54">
    <path clip-path="url(#p4c0592bbe7)" d="M 207.790447 199.598284 
L 229.285054 199.598284 
L 229.285054 192.576163 
L 207.790447 192.576163 
z
" style="fill:#6600ff;"/>
   </g>
   <g id="patch_55">
    <path clip-path="url(#p4c0592bbe7)" d="M 207.790447 192.5414 
L 229.285054 192.5414 
L 229.285054 191.255169 
L 207.790447 191.255169 
z
" style="fill:#ffa500;"/>
   </g>
   <g id="patch_56">
    <path clip-path="url(#p4c0592bbe7)" d="M 207.790447 191.220406 
L 229.285054 191.220406 
L 229.285054 188.92605 
L 207.790447 188.92605 
z
" style="fill:#6600ff;"/>
   </g>
   <g id="patch_57">
    <path clip-path="url(#p4c0592bbe7)" d="M 207.790447 188.891287 
L 229.285054 188.891287 
L 229.285054 187.257427 
L 207.790447 187.257427 
z
" style="fill:#ffa500;"/>
   </g>
   <g id="patch_58">
    <path clip-path="url(#p4c0592bbe7)" d="M 207.790447 187.222664 
L 229.285054 187.222664 
L 229.285054 182.460135 
L 207.790447 182.460135 
z
" style="fill:#993300;"/>
   </g>
   <g id="patch_59">
    <path clip-path="url(#p4c0592bbe7)" d="M 207.790447 182.425372 
L 229.285054 182.425372 
L 229.285054 181.799639 
L 207.790447 181.799639 
z
" style="fill:#ffa500;"/>
   </g>
   <g id="patch_60">
    <path clip-path="url(#p4c0592bbe7)" d="M 207.790447 181.764876 
L 229.285054 181.764876 
L 229.285054 153.606862 
L 207.790447 153.606862 
z
" style="fill:#3399ff;"/>
   </g>
   <g id="patch_61">
    <path clip-path="url(#p4c0592bbe7)" d="M 207.790447 153.572099 
L 229.285054 153.572099 
L 229.285054 146.202348 
L 207.790447 146.202348 
z
" style="fill:#ffa500;"/>
   </g>
   <g id="patch_62">
    <path clip-path="url(#p4c0592bbe7)" d="M 207.790447 146.167585 
L 229.285054 146.167585 
L 229.285054 138.936885 
L 207.790447 138.936885 
z
" style="fill:#6600ff;"/>
   </g>
   <g id="patch_63">
    <path clip-path="url(#p4c0592bbe7)" d="M 207.790447 138.902122 
L 229.285054 138.902122 
L 229.285054 130.211377 
L 207.790447 130.211377 
z
" style="fill:#008000;"/>
   </g>
   <g id="patch_64">
    <path clip-path="url(#p4c0592bbe7)" d="M 207.790447 130.176614 
L 229.285054 130.176614 
L 229.285054 121.485869 
L 207.790447 121.485869 
z
" style="fill:#6600ff;"/>
   </g>
   <g id="patch_65">
    <path clip-path="url(#p4c0592bbe7)" d="M 207.790447 121.451106 
L 229.285054 121.451106 
L 229.285054 118.913409 
L 207.790447 118.913409 
z
" style="fill:#008000;"/>
   </g>
   <g id="patch_66">
    <path clip-path="url(#p4c0592bbe7)" d="M 207.790447 118.878646 
L 229.285054 118.878646 
L 229.285054 114.950429 
L 207.790447 114.950429 
z
" style="fill:#6600ff;"/>
   </g>
   <g id="patch_67">
    <path clip-path="url(#p4c0592bbe7)" d="M 207.790447 114.915666 
L 229.285054 114.915666 
L 229.285054 114.220406 
L 207.790447 114.220406 
z
" style="fill:#008000;"/>
   </g>
   <g id="patch_68">
    <path clip-path="url(#p4c0592bbe7)" d="M 207.790447 114.185643 
L 229.285054 114.185643 
L 229.285054 106.155395 
L 207.790447 106.155395 
z
" style="fill:#6600ff;"/>
   </g>
   <g id="patch_69">
    <path clip-path="url(#p4c0592bbe7)" d="M 207.790447 106.120632 
L 229.285054 106.120632 
L 229.285054 101.149526 
L 207.790447 101.149526 
z
" style="fill:#ffa500;"/>
   </g>
   <g id="patch_70">
    <path clip-path="url(#p4c0592bbe7)" d="M 207.790447 101.114763 
L 229.285054 101.114763 
L 229.285054 87.209571 
L 207.790447 87.209571 
z
" style="fill:#6600ff;"/>
   </g>
   <g id="patch_71">
    <path clip-path="url(#p4c0592bbe7)" d="M 207.790447 87.174808 
L 229.285054 87.174808 
L 229.285054 84.150429 
L 207.790447 84.150429 
z
" style="fill:#008000;"/>
   </g>
   <g id="patch_72">
    <path clip-path="url(#p4c0592bbe7)" d="M 207.790447 84.115666 
L 229.285054 84.115666 
L 229.285054 78.240722 
L 207.790447 78.240722 
z
" style="fill:#6600ff;"/>
   </g>
   <g id="patch_73">
    <path clip-path="url(#p4c0592bbe7)" d="M 207.790447 78.205959 
L 229.285054 78.205959 
L 229.285054 66.525598 
L 207.790447 66.525598 
z
" style="fill:#3399ff;"/>
   </g>
   <g id="patch_74">
    <path clip-path="url(#p4c0592bbe7)" d="M 207.790447 66.490835 
L 229.285054 66.490835 
L 229.285054 64.544108 
L 207.790447 64.544108 
z
" style="fill:#993300;"/>
   </g>
   <g id="patch_75">
    <path clip-path="url(#p4c0592bbe7)" d="M 250.779661 224.245237 
L 272.274268 224.245237 
L 272.274268 181.938691 
L 250.779661 181.938691 
z
" style="fill:#993300;"/>
   </g>
   <g id="patch_76">
    <path clip-path="url(#p4c0592bbe7)" d="M 250.779661 181.903928 
L 272.274268 181.903928 
L 272.274268 163.896704 
L 250.779661 163.896704 
z
" style="fill:#ff99cc;"/>
   </g>
   <g id="patch_77">
    <path clip-path="url(#p4c0592bbe7)" d="M 250.779661 163.861941 
L 272.274268 163.861941 
L 272.274268 163.549074 
L 250.779661 163.549074 
z
" style="fill:#008000;"/>
   </g>
   <g id="patch_78">
    <path clip-path="url(#p4c0592bbe7)" d="M 250.779661 163.514312 
L 272.274268 163.514312 
L 272.274268 158.195576 
L 250.779661 158.195576 
z
" style="fill:#ff99cc;"/>
   </g>
   <g id="patch_79">
    <path clip-path="url(#p4c0592bbe7)" d="M 250.779661 158.160813 
L 272.274268 158.160813 
L 272.274268 153.676388 
L 250.779661 153.676388 
z
" style="fill:#ffa500;"/>
   </g>
   <g id="patch_80">
    <path clip-path="url(#p4c0592bbe7)" d="M 250.779661 153.641625 
L 272.274268 153.641625 
L 272.274268 150.617246 
L 250.779661 150.617246 
z
" style="fill:#33cccc;"/>
   </g>
   <g id="patch_81">
    <path clip-path="url(#p4c0592bbe7)" d="M 250.779661 150.582483 
L 272.274268 150.582483 
L 272.274268 144.394673 
L 250.779661 144.394673 
z
" style="fill:#ff99cc;"/>
   </g>
   <g id="patch_82">
    <path clip-path="url(#p4c0592bbe7)" d="M 250.779661 144.35991 
L 272.274268 144.35991 
L 272.274268 143.31702 
L 250.779661 143.31702 
z
" style="fill:#33cccc;"/>
   </g>
   <g id="patch_83">
    <path clip-path="url(#p4c0592bbe7)" d="M 250.779661 143.282257 
L 272.274268 143.282257 
L 272.274268 141.439819 
L 250.779661 141.439819 
z
" style="fill:#c71585;"/>
   </g>
   <g id="patch_84">
    <path clip-path="url(#p4c0592bbe7)" d="M 250.779661 141.405056 
L 272.274268 141.405056 
L 272.274268 119.121986 
L 250.779661 119.121986 
z
" style="fill:#993300;"/>
   </g>
   <g id="patch_85">
    <path clip-path="url(#p4c0592bbe7)" d="M 250.779661 119.087223 
L 272.274268 119.087223 
L 272.274268 116.966682 
L 250.779661 116.966682 
z
" style="fill:#33cccc;"/>
   </g>
   <g id="patch_86">
    <path clip-path="url(#p4c0592bbe7)" d="M 250.779661 116.931919 
L 272.274268 116.931919 
L 272.274268 109.666456 
L 250.779661 109.666456 
z
" style="fill:#008000;"/>
   </g>
   <g id="patch_87">
    <path clip-path="url(#p4c0592bbe7)" d="M 250.779661 109.631693 
L 272.274268 109.631693 
L 272.274268 108.067359 
L 250.779661 108.067359 
z
" style="fill:#ffa500;"/>
   </g>
   <g id="patch_88">
    <path clip-path="url(#p4c0592bbe7)" d="M 250.779661 108.032596 
L 272.274268 108.032596 
L 272.274268 103.339594 
L 250.779661 103.339594 
z
" style="fill:#33cccc;"/>
   </g>
   <g id="patch_89">
    <path clip-path="url(#p4c0592bbe7)" d="M 250.779661 103.304831 
L 272.274268 103.304831 
L 272.274268 96.977968 
L 250.779661 96.977968 
z
" style="fill:#993300;"/>
   </g>
   <g id="patch_90">
    <path clip-path="url(#p4c0592bbe7)" d="M 250.779661 96.943205 
L 272.274268 96.943205 
L 272.274268 94.475034 
L 250.779661 94.475034 
z
" style="fill:#ff99cc;"/>
   </g>
   <g id="patch_91">
    <path clip-path="url(#p4c0592bbe7)" d="M 293.768875 224.245237 
L 315.263482 224.245237 
L 315.263482 221.672777 
L 293.768875 221.672777 
z
" style="fill:#ff99cc;"/>
   </g>
   <g id="patch_92">
    <path clip-path="url(#p4c0592bbe7)" d="M 293.768875 221.638014 
L 315.263482 221.638014 
L 315.263482 210.444334 
L 293.768875 210.444334 
z
" style="fill:#3399ff;"/>
   </g>
   <g id="patch_93">
    <path clip-path="url(#p4c0592bbe7)" d="M 293.768875 210.409571 
L 315.263482 210.409571 
L 315.263482 209.888126 
L 293.768875 209.888126 
z
" style="fill:#c71585;"/>
   </g>
   <g id="patch_94">
    <path clip-path="url(#p4c0592bbe7)" d="M 293.768875 209.853363 
L 315.263482 209.853363 
L 315.263482 205.855621 
L 293.768875 205.855621 
z
" style="fill:#3399ff;"/>
   </g>
   <g id="patch_95">
    <path clip-path="url(#p4c0592bbe7)" d="M 293.768875 205.820858 
L 315.263482 205.820858 
L 315.263482 190.594673 
L 293.768875 190.594673 
z
" style="fill:#c71585;"/>
   </g>
   <g id="patch_96">
    <path clip-path="url(#p4c0592bbe7)" d="M 293.768875 190.55991 
L 315.263482 190.55991 
L 315.263482 154.475937 
L 293.768875 154.475937 
z
" style="fill:#3399ff;"/>
   </g>
   <g id="patch_97">
    <path clip-path="url(#p4c0592bbe7)" d="M 293.768875 154.441174 
L 315.263482 154.441174 
L 315.263482 147.175711 
L 293.768875 147.175711 
z
" style="fill:#ff99cc;"/>
   </g>
   <g id="patch_98">
    <path clip-path="url(#p4c0592bbe7)" d="M 293.768875 147.140948 
L 315.263482 147.140948 
L 315.263482 135.84298 
L 293.768875 135.84298 
z
" style="fill:#3399ff;"/>
   </g>
   <g id="patch_99">
    <path clip-path="url(#p4c0592bbe7)" d="M 293.768875 135.808217 
L 315.263482 135.808217 
L 315.263482 134.45246 
L 293.768875 134.45246 
z
" style="fill:#008000;"/>
   </g>
   <g id="patch_100">
    <path clip-path="url(#p4c0592bbe7)" d="M 293.768875 134.417698 
L 315.263482 134.417698 
L 315.263482 108.519278 
L 293.768875 108.519278 
z
" style="fill:#c71585;"/>
   </g>
   <g id="patch_101">
    <path clip-path="url(#p4c0592bbe7)" d="M 336.758089 224.245237 
L 358.252696 224.245237 
L 358.252696 213.573002 
L 336.758089 213.573002 
z
" style="fill:#993300;"/>
   </g>
   <g id="patch_102">
    <path clip-path="url(#p4c0592bbe7)" d="M 336.758089 213.538239 
L 358.252696 213.538239 
L 358.252696 205.577517 
L 336.758089 205.577517 
z
" style="fill:#c71585;"/>
   </g>
   <g id="patch_103">
    <path clip-path="url(#p4c0592bbe7)" d="M 336.758089 205.542754 
L 358.252696 205.542754 
L 358.252696 200.397833 
L 336.758089 200.397833 
z
" style="fill:#33cccc;"/>
   </g>
   <g id="patch_104">
    <path clip-path="url(#p4c0592bbe7)" d="M 336.758089 200.36307 
L 358.252696 200.36307 
L 358.252696 195.913409 
L 336.758089 195.913409 
z
" style="fill:#ffa500;"/>
   </g>
   <g id="patch_105">
    <path clip-path="url(#p4c0592bbe7)" d="M 336.758089 195.878646 
L 358.252696 195.878646 
L 358.252696 195.531016 
L 336.758089 195.531016 
z
" style="fill:#3399ff;"/>
   </g>
   <g id="patch_106">
    <path clip-path="url(#p4c0592bbe7)" d="M 336.758089 195.496253 
L 358.252696 195.496253 
L 358.252696 191.637562 
L 336.758089 191.637562 
z
" style="fill:#ffa500;"/>
   </g>
   <g id="patch_107">
    <path clip-path="url(#p4c0592bbe7)" d="M 336.758089 191.602799 
L 358.252696 191.602799 
L 358.252696 186.2493 
L 336.758089 186.2493 
z
" style="fill:#33cccc;"/>
   </g>
   <g id="patch_108">
    <path clip-path="url(#p4c0592bbe7)" d="M 336.758089 186.214537 
L 358.252696 186.214537 
L 358.252696 182.668713 
L 336.758089 182.668713 
z
" style="fill:#ffa500;"/>
   </g>
   <g id="patch_109">
    <path clip-path="url(#p4c0592bbe7)" d="M 336.758089 182.63395 
L 358.252696 182.63395 
L 358.252696 168.798284 
L 336.758089 168.798284 
z
" style="fill:#33cccc;"/>
   </g>
   <g id="patch_110">
    <path clip-path="url(#p4c0592bbe7)" d="M 336.758089 168.763521 
L 358.252696 168.763521 
L 358.252696 134.730564 
L 336.758089 134.730564 
z
" style="fill:#c71585;"/>
   </g>
   <g id="patch_111">
    <path clip-path="url(#p4c0592bbe7)" d="M 336.758089 134.695801 
L 358.252696 134.695801 
L 358.252696 119.678194 
L 336.758089 119.678194 
z
" style="fill:#33cccc;"/>
   </g>
   <g id="patch_112">
    <path clip-path="url(#p4c0592bbe7)" d="M 336.758089 119.643431 
L 358.252696 119.643431 
L 358.252696 116.897156 
L 336.758089 116.897156 
z
" style="fill:#008000;"/>
   </g>
   <g id="patch_113">
    <path clip-path="url(#p4c0592bbe7)" d="M 336.758089 116.862393 
L 358.252696 116.862393 
L 358.252696 109.457878 
L 336.758089 109.457878 
z
" style="fill:#33cccc;"/>
   </g>
   <g id="patch_114">
    <path clip-path="url(#p4c0592bbe7)" d="M 336.758089 109.423115 
L 358.252696 109.423115 
L 358.252696 103.374357 
L 336.758089 103.374357 
z
" style="fill:#993300;"/>
   </g>
   <g id="patch_115">
    <path clip-path="url(#p4c0592bbe7)" d="M 379.747304 224.245237 
L 401.241911 224.245237 
L 401.241911 223.028533 
L 379.747304 223.028533 
z
" style="fill:#008000;"/>
   </g>
   <g id="patch_116">
    <path clip-path="url(#p4c0592bbe7)" d="M 379.747304 222.99377 
L 401.241911 222.99377 
L 401.241911 213.712054 
L 379.747304 213.712054 
z
" style="fill:#6600ff;"/>
   </g>
   <g id="patch_117">
    <path clip-path="url(#p4c0592bbe7)" d="M 379.747304 213.677291 
L 401.241911 213.677291 
L 401.241911 208.636659 
L 379.747304 208.636659 
z
" style="fill:#008000;"/>
   </g>
   <g id="patch_118">
    <path clip-path="url(#p4c0592bbe7)" d="M 379.747304 208.601896 
L 401.241911 208.601896 
L 401.241911 203.005056 
L 379.747304 203.005056 
z
" style="fill:#6600ff;"/>
   </g>
   <g id="patch_119">
    <path clip-path="url(#p4c0592bbe7)" d="M 379.747304 202.970293 
L 401.241911 202.970293 
L 401.241911 189.099865 
L 379.747304 189.099865 
z
" style="fill:#3399ff;"/>
   </g>
   <g id="patch_120">
    <path clip-path="url(#p4c0592bbe7)" d="M 379.747304 189.065102 
L 401.241911 189.065102 
L 401.241911 159.41228 
L 379.747304 159.41228 
z
" style="fill:#993300;"/>
   </g>
   <g id="patch_121">
    <path clip-path="url(#p4c0592bbe7)" d="M 379.747304 159.377517 
L 401.241911 159.377517 
L 401.241911 151.347269 
L 379.747304 151.347269 
z
" style="fill:#008000;"/>
   </g>
   <g id="patch_122">
    <path clip-path="url(#p4c0592bbe7)" d="M 379.747304 151.312506 
L 401.241911 151.312506 
L 401.241911 150.095801 
L 379.747304 150.095801 
z
" style="fill:#6600ff;"/>
   </g>
   <g id="patch_123">
    <path clip-path="url(#p4c0592bbe7)" d="M 379.747304 150.061038 
L 401.241911 150.061038 
L 401.241911 142.204605 
L 379.747304 142.204605 
z
" style="fill:#008000;"/>
   </g>
   <g id="patch_124">
    <path clip-path="url(#p4c0592bbe7)" d="M 379.747304 142.169842 
L 401.241911 142.169842 
L 401.241911 131.88 
L 379.747304 131.88 
z
" style="fill:#6600ff;"/>
   </g>
   <g id="patch_125">
    <path clip-path="url(#p4c0592bbe7)" d="M 379.747304 131.845237 
L 401.241911 131.845237 
L 401.241911 125.34456 
L 379.747304 125.34456 
z
" style="fill:#ffa500;"/>
   </g>
   <g id="patch_126">
    <path clip-path="url(#p4c0592bbe7)" d="M 379.747304 125.309797 
L 401.241911 125.309797 
L 401.241911 109.875034 
L 379.747304 109.875034 
z
" style="fill:#3399ff;"/>
   </g>
   <g id="patch_127">
    <path clip-path="url(#p4c0592bbe7)" d="M 422.736518 224.245237 
L 444.231125 224.245237 
L 444.231125 220.699413 
L 422.736518 220.699413 
z
" style="fill:#ff99cc;"/>
   </g>
   <g id="patch_128">
    <path clip-path="url(#p4c0592bbe7)" d="M 422.736518 220.66465 
L 444.231125 220.66465 
L 444.231125 217.640271 
L 422.736518 217.640271 
z
" style="fill:#993300;"/>
   </g>
   <g id="patch_129">
    <path clip-path="url(#p4c0592bbe7)" d="M 422.736518 217.605508 
L 444.231125 217.605508 
L 444.231125 217.188352 
L 422.736518 217.188352 
z
" style="fill:#ff99cc;"/>
   </g>
   <g id="patch_130">
    <path clip-path="url(#p4c0592bbe7)" d="M 422.736518 217.153589 
L 444.231125 217.153589 
L 444.231125 214.268262 
L 422.736518 214.268262 
z
" style="fill:#008000;"/>
   </g>
   <g id="patch_131">
    <path clip-path="url(#p4c0592bbe7)" d="M 422.736518 214.233499 
L 444.231125 214.233499 
L 444.231125 207.176614 
L 422.736518 207.176614 
z
" style="fill:#993300;"/>
   </g>
   <g id="patch_132">
    <path clip-path="url(#p4c0592bbe7)" d="M 422.736518 207.141851 
L 444.231125 207.141851 
L 444.231125 205.299413 
L 422.736518 205.299413 
z
" style="fill:#ffa500;"/>
   </g>
   <g id="patch_133">
    <path clip-path="url(#p4c0592bbe7)" d="M 422.736518 205.26465 
L 444.231125 205.26465 
L 444.231125 201.99693 
L 422.736518 201.99693 
z
" style="fill:#008000;"/>
   </g>
   <g id="patch_134">
    <path clip-path="url(#p4c0592bbe7)" d="M 422.736518 201.962167 
L 444.231125 201.962167 
L 444.231125 161.7414 
L 422.736518 161.7414 
z
" style="fill:#33cccc;"/>
   </g>
   <g id="patch_135">
    <path clip-path="url(#p4c0592bbe7)" d="M 422.736518 161.706637 
L 444.231125 161.706637 
L 444.231125 158.925598 
L 422.736518 158.925598 
z
" style="fill:#ffa500;"/>
   </g>
   <g id="patch_136">
    <path clip-path="url(#p4c0592bbe7)" d="M 422.736518 158.890835 
L 444.231125 158.890835 
L 444.231125 155.345011 
L 422.736518 155.345011 
z
" style="fill:#33cccc;"/>
   </g>
   <g id="patch_137">
    <path clip-path="url(#p4c0592bbe7)" d="M 422.736518 155.310248 
L 444.231125 155.310248 
L 444.231125 152.598736 
L 422.736518 152.598736 
z
" style="fill:#ffa500;"/>
   </g>
   <g id="patch_138">
    <path clip-path="url(#p4c0592bbe7)" d="M 422.736518 152.563973 
L 444.231125 152.563973 
L 444.231125 150.582483 
L 422.736518 150.582483 
z
" style="fill:#33cccc;"/>
   </g>
   <g id="patch_139">
    <path clip-path="url(#p4c0592bbe7)" d="M 422.736518 150.54772 
L 444.231125 150.54772 
L 444.231125 141.33553 
L 422.736518 141.33553 
z
" style="fill:#ffa500;"/>
   </g>
   <g id="patch_140">
    <path clip-path="url(#p4c0592bbe7)" d="M 422.736518 141.300767 
L 444.231125 141.300767 
L 444.231125 130.002799 
L 422.736518 130.002799 
z
" style="fill:#33cccc;"/>
   </g>
   <g id="patch_141">
    <path clip-path="url(#p4c0592bbe7)" d="M 422.736518 129.968036 
L 444.231125 129.968036 
L 444.231125 126.213634 
L 422.736518 126.213634 
z
" style="fill:#ff99cc;"/>
   </g>
   <g id="patch_142">
    <path clip-path="url(#p4c0592bbe7)" d="M 422.736518 126.178871 
L 444.231125 126.178871 
L 444.231125 122.980677 
L 422.736518 122.980677 
z
" style="fill:#993300;"/>
   </g>
   <g id="patch_143">
    <path clip-path="url(#p4c0592bbe7)" d="M 422.736518 122.945914 
L 444.231125 122.945914 
L 444.231125 122.285418 
L 422.736518 122.285418 
z
" style="fill:#ff99cc;"/>
   </g>
   <g id="patch_144">
    <path clip-path="url(#p4c0592bbe7)" d="M 422.736518 122.250655 
L 444.231125 122.250655 
L 444.231125 120.09535 
L 422.736518 120.09535 
z
" style="fill:#993300;"/>
   </g>
   <g id="patch_145">
    <path clip-path="url(#p4c0592bbe7)" d="M 465.725732 224.245237 
L 487.220339 224.245237 
L 487.220339 219.343657 
L 465.725732 219.343657 
z
" style="fill:#33cccc;"/>
   </g>
   <g id="patch_146">
    <path clip-path="url(#p4c0592bbe7)" d="M 465.725732 219.308894 
L 487.220339 219.308894 
L 487.220339 189.829887 
L 465.725732 189.829887 
z
" style="fill:#c71585;"/>
   </g>
   <g id="patch_147">
    <path clip-path="url(#p4c0592bbe7)" d="M 465.725732 189.795124 
L 487.220339 189.795124 
L 487.220339 187.917923 
L 465.725732 187.917923 
z
" style="fill:#ffa500;"/>
   </g>
   <g id="patch_148">
    <path clip-path="url(#p4c0592bbe7)" d="M 465.725732 187.88316 
L 487.220339 187.88316 
L 487.220339 182.425372 
L 465.725732 182.425372 
z
" style="fill:#33cccc;"/>
   </g>
   <g id="patch_149">
    <path clip-path="url(#p4c0592bbe7)" d="M 465.725732 182.390609 
L 487.220339 182.390609 
L 487.220339 177.940948 
L 465.725732 177.940948 
z
" style="fill:#ffa500;"/>
   </g>
   <g id="patch_150">
    <path clip-path="url(#p4c0592bbe7)" d="M 465.725732 177.906185 
L 487.220339 177.906185 
L 487.220339 174.012731 
L 465.725732 174.012731 
z
" style="fill:#33cccc;"/>
   </g>
   <g id="patch_151">
    <path clip-path="url(#p4c0592bbe7)" d="M 465.725732 173.977968 
L 487.220339 173.977968 
L 487.220339 163.96623 
L 465.725732 163.96623 
z
" style="fill:#ffa500;"/>
   </g>
   <g id="patch_152">
    <path clip-path="url(#p4c0592bbe7)" d="M 465.725732 163.931467 
L 487.220339 163.931467 
L 487.220339 158.473679 
L 465.725732 158.473679 
z
" style="fill:#33cccc;"/>
   </g>
   <g id="patch_153">
    <path clip-path="url(#p4c0592bbe7)" d="M 465.725732 158.438916 
L 487.220339 158.438916 
L 487.220339 153.398284 
L 465.725732 153.398284 
z
" style="fill:#ff99cc;"/>
   </g>
   <g id="patch_154">
    <path clip-path="url(#p4c0592bbe7)" d="M 465.725732 153.363521 
L 487.220339 153.363521 
L 487.220339 145.368036 
L 465.725732 145.368036 
z
" style="fill:#993300;"/>
   </g>
   <g id="patch_155">
    <path clip-path="url(#p4c0592bbe7)" d="M 465.725732 145.333273 
L 487.220339 145.333273 
L 487.220339 144.95088 
L 465.725732 144.95088 
z
" style="fill:#008000;"/>
   </g>
   <g id="patch_156">
    <path clip-path="url(#p4c0592bbe7)" d="M 465.725732 144.916117 
L 487.220339 144.916117 
L 487.220339 140.39693 
L 465.725732 140.39693 
z
" style="fill:#993300;"/>
   </g>
   <g id="patch_157">
    <path clip-path="url(#p4c0592bbe7)" d="M 465.725732 140.362167 
L 487.220339 140.362167 
L 487.220339 140.153589 
L 465.725732 140.153589 
z
" style="fill:#ff99cc;"/>
   </g>
   <g id="patch_158">
    <path clip-path="url(#p4c0592bbe7)" d="M 465.725732 140.118826 
L 487.220339 140.118826 
L 487.220339 138.519729 
L 465.725732 138.519729 
z
" style="fill:#993300;"/>
   </g>
   <g id="patch_159">
    <path clip-path="url(#p4c0592bbe7)" d="M 508.714946 224.245237 
L 530.209553 224.245237 
L 530.209553 220.560361 
L 508.714946 220.560361 
z
" style="fill:#ffa500;"/>
   </g>
   <g id="patch_160">
    <path clip-path="url(#p4c0592bbe7)" d="M 508.714946 220.525598 
L 530.209553 220.525598 
L 530.209553 212.252009 
L 508.714946 212.252009 
z
" style="fill:#993300;"/>
   </g>
   <g id="patch_161">
    <path clip-path="url(#p4c0592bbe7)" d="M 508.714946 212.217246 
L 530.209553 212.217246 
L 530.209553 184.128758 
L 508.714946 184.128758 
z
" style="fill:#6600ff;"/>
   </g>
   <g id="patch_162">
    <path clip-path="url(#p4c0592bbe7)" d="M 508.714946 184.093995 
L 530.209553 184.093995 
L 530.209553 180.513409 
L 508.714946 180.513409 
z
" style="fill:#ffa500;"/>
   </g>
   <g id="patch_163">
    <path clip-path="url(#p4c0592bbe7)" d="M 508.714946 180.478646 
L 530.209553 180.478646 
L 530.209553 172.13553 
L 508.714946 172.13553 
z
" style="fill:#6600ff;"/>
   </g>
   <g id="patch_164">
    <path clip-path="url(#p4c0592bbe7)" d="M 508.714946 172.100767 
L 530.209553 172.100767 
L 530.209553 152.424921 
L 508.714946 152.424921 
z
" style="fill:#993300;"/>
   </g>
   <g id="patch_165">
    <path clip-path="url(#p4c0592bbe7)" d="M 508.714946 152.390158 
L 530.209553 152.390158 
L 530.209553 150.165327 
L 508.714946 150.165327 
z
" style="fill:#3399ff;"/>
   </g>
   <g id="patch_166">
    <path clip-path="url(#p4c0592bbe7)" d="M 508.714946 150.130564 
L 530.209553 150.130564 
L 530.209553 137.963521 
L 508.714946 137.963521 
z
" style="fill:#993300;"/>
   </g>
   <g id="patch_167">
    <path clip-path="url(#p4c0592bbe7)" d="M 551.70416 224.245237 
L 573.198767 224.245237 
L 573.198767 211.904379 
L 551.70416 211.904379 
z
" style="fill:#3399ff;"/>
   </g>
   <g id="patch_168">
    <path clip-path="url(#p4c0592bbe7)" d="M 551.70416 211.869616 
L 573.198767 211.869616 
L 573.198767 205.95991 
L 551.70416 205.95991 
z
" style="fill:#ff99cc;"/>
   </g>
   <g id="patch_169">
    <path clip-path="url(#p4c0592bbe7)" d="M 551.70416 205.925147 
L 573.198767 205.925147 
L 573.198767 205.403702 
L 551.70416 205.403702 
z
" style="fill:#c71585;"/>
   </g>
   <g id="patch_170">
    <path clip-path="url(#p4c0592bbe7)" d="M 551.70416 205.368939 
L 573.198767 205.368939 
L 573.198767 194.522889 
L 551.70416 194.522889 
z
" style="fill:#ff99cc;"/>
   </g>
   <g id="patch_171">
    <path clip-path="url(#p4c0592bbe7)" d="M 551.70416 194.488126 
L 573.198767 194.488126 
L 573.198767 191.915666 
L 551.70416 191.915666 
z
" style="fill:#33cccc;"/>
   </g>
   <g id="patch_172">
    <path clip-path="url(#p4c0592bbe7)" d="M 551.70416 191.880903 
L 573.198767 191.880903 
L 573.198767 184.580677 
L 551.70416 184.580677 
z
" style="fill:#ff99cc;"/>
   </g>
   <g id="patch_173">
    <path clip-path="url(#p4c0592bbe7)" d="M 551.70416 184.545914 
L 573.198767 184.545914 
L 573.198767 181.799639 
L 551.70416 181.799639 
z
" style="fill:#ffa500;"/>
   </g>
   <g id="patch_174">
    <path clip-path="url(#p4c0592bbe7)" d="M 551.70416 181.764876 
L 573.198767 181.764876 
L 573.198767 148.983386 
L 551.70416 148.983386 
z
" style="fill:#ff99cc;"/>
   </g>
   <g id="patch_175">
    <path clip-path="url(#p4c0592bbe7)" d="M 551.70416 148.948623 
L 573.198767 148.948623 
L 573.198767 146.480451 
L 551.70416 146.480451 
z
" style="fill:#6600ff;"/>
   </g>
   <g id="patch_176">
    <path clip-path="url(#p4c0592bbe7)" d="M 551.70416 146.445688 
L 573.198767 146.445688 
L 573.198767 121.173002 
L 551.70416 121.173002 
z
" style="fill:#c71585;"/>
   </g>
   <g id="patch_177">
    <path clip-path="url(#p4c0592bbe7)" d="M 551.70416 121.138239 
L 573.198767 121.138239 
L 573.198767 119.817246 
L 551.70416 119.817246 
z
" style="fill:#3399ff;"/>
   </g>
   <g id="patch_178">
    <path clip-path="url(#p4c0592bbe7)" d="M 594.693374 224.245237 
L 616.187982 224.245237 
L 616.187982 212.564876 
L 594.693374 212.564876 
z
" style="fill:#3399ff;"/>
   </g>
   <g id="patch_179">
    <path clip-path="url(#p4c0592bbe7)" d="M 594.693374 212.530113 
L 616.187982 212.530113 
L 616.187982 186.423115 
L 594.693374 186.423115 
z
" style="fill:#ff99cc;"/>
   </g>
   <g id="patch_180">
    <path clip-path="url(#p4c0592bbe7)" d="M 594.693374 186.388352 
L 616.187982 186.388352 
L 616.187982 184.163521 
L 594.693374 184.163521 
z
" style="fill:#ffa500;"/>
   </g>
   <g id="patch_181">
    <path clip-path="url(#p4c0592bbe7)" d="M 594.693374 184.128758 
L 616.187982 184.128758 
L 616.187982 167.824921 
L 594.693374 167.824921 
z
" style="fill:#ff99cc;"/>
   </g>
   <g id="patch_182">
    <path clip-path="url(#p4c0592bbe7)" d="M 594.693374 167.790158 
L 616.187982 167.790158 
L 616.187982 148.531467 
L 594.693374 148.531467 
z
" style="fill:#6600ff;"/>
   </g>
   <g id="patch_183">
    <path clip-path="url(#p4c0592bbe7)" d="M 594.693374 148.496704 
L 616.187982 148.496704 
L 616.187982 145.64614 
L 594.693374 145.64614 
z
" style="fill:#3399ff;"/>
   </g>
   <g id="patch_184">
    <path clip-path="url(#p4c0592bbe7)" d="M 594.693374 145.611377 
L 616.187982 145.611377 
L 616.187982 138.172099 
L 594.693374 138.172099 
z
" style="fill:#6600ff;"/>
   </g>
   <g id="patch_185">
    <path clip-path="url(#p4c0592bbe7)" d="M 594.693374 138.137336 
L 616.187982 138.137336 
L 616.187982 132.158104 
L 594.693374 132.158104 
z
" style="fill:#008000;"/>
   </g>
   <g id="patch_186">
    <path clip-path="url(#p4c0592bbe7)" d="M 594.693374 132.123341 
L 616.187982 132.123341 
L 616.187982 129.689932 
L 594.693374 129.689932 
z
" style="fill:#6600ff;"/>
   </g>
   <g id="matplotlib.axis_1"/>
   <g id="matplotlib.axis_2"/>
  </g>
 </g>
 <defs>
  <clipPath id="p4c0592bbe7">
   <rect height="194.04" width="558" x="90" y="30.24"/>
  </clipPath>
 </defs>
</svg>
